<svg width="247" height="37" viewBox="0 0 247 37" fill="none" xmlns="http://www.w3.org/2000/svg">
<path d="M9.74429 6.37891C15.0514 6.37891 19.3146 10.48 19.3146 16.0392C19.3146 21.5073 14.9644 25.6995 10.0053 25.6995C7.65623 25.6995 5.39416 24.9704 3.74111 22.9654H3.56711V37.0002H0V17.4973C0 10.7534 3.74111 6.37891 9.74429 6.37891ZM9.65729 22.4186C13.1374 22.4186 15.5735 19.5023 15.5735 15.948C15.5735 12.4849 13.2244 9.56862 9.65729 9.56862C6.09018 9.56862 3.65411 12.3938 3.65411 15.948C3.65411 19.5023 6.17718 22.4186 9.65729 22.4186Z" fill="white"/>
<path d="M22.6211 16.0392C22.6211 10.48 27.0582 6.37891 32.2784 6.37891C37.4985 6.37891 41.9357 10.48 41.9357 16.0392C41.9357 21.5984 37.4985 25.6995 32.2784 25.6995C27.0582 25.6995 22.6211 21.5984 22.6211 16.0392ZM32.2784 22.4186C35.8455 22.4186 38.1946 19.5934 38.1946 16.0392C38.1946 12.4849 35.7585 9.65976 32.2784 9.65976C28.7983 9.65976 26.3622 12.4849 26.3622 16.0392C26.3622 19.5934 28.7113 22.4186 32.2784 22.4186Z" fill="white"/>
<path d="M54.9867 25.6995C49.4186 25.6995 45.2424 21.5984 45.2424 16.0392C45.2424 10.48 49.3316 6.37891 54.8997 6.37891C59.1628 6.37891 63.078 8.74841 64.122 13.3963H60.4679C59.5979 10.9356 57.4228 9.65976 54.9867 9.65976C51.2456 9.65976 48.9835 12.5761 48.9835 16.1303C48.9835 19.6846 51.3326 22.5098 55.0737 22.5098C57.5098 22.5098 59.6849 21.325 60.5549 18.6821H64.209C62.904 23.4211 59.0758 25.6995 54.9867 25.6995Z" fill="white"/>
<path d="M77.3454 23.0563L71.5162 10.2974H71.4292V25.3346H68.0361V6.74316H73.4303L79.1725 19.4109H79.2595L85.0016 6.74316H90.3958V25.2435H87.0027V10.2974H86.9157L81.0865 23.0563H77.3454Z" fill="white"/>
<path d="M94.2251 16.0392C94.2251 10.48 98.6622 6.37891 103.882 6.37891C109.103 6.37891 113.54 10.48 113.54 16.0392C113.54 21.5984 109.103 25.6995 103.882 25.6995C98.6622 25.6995 94.2251 21.5984 94.2251 16.0392ZM103.969 22.4186C107.536 22.4186 109.886 19.5934 109.886 16.0392C109.886 12.4849 107.449 9.65976 103.969 9.65976C100.402 9.65976 98.0532 12.4849 98.0532 16.0392C97.9662 19.5934 100.402 22.4186 103.969 22.4186Z" fill="white"/>
<path d="M115.366 25.4251V21.5975H115.453C116.149 21.5975 116.932 21.3241 117.454 20.6861C118.15 19.957 118.411 18.4989 118.759 16.4939L119.281 13.4865C119.89 10.1145 121.021 6.65137 125.894 6.65137H132.767V25.2428H129.2V10.1145H126.416C123.631 10.1145 123.109 10.9347 122.413 14.8535L121.978 17.5875C121.543 20.1393 120.934 22.3265 119.716 23.6936C118.759 24.7872 117.454 25.334 115.627 25.334H115.366V25.4251Z" fill="white"/>
<path d="M136.768 16.0392C136.768 10.48 141.205 6.37891 146.425 6.37891C151.645 6.37891 156.082 10.48 156.082 16.0392C156.082 21.5984 151.645 25.6995 146.425 25.6995C141.205 25.6995 136.768 21.5984 136.768 16.0392ZM146.425 22.4186C149.992 22.4186 152.341 19.5934 152.341 16.0392C152.341 12.4849 149.905 9.65976 146.425 9.65976C142.858 9.65976 140.509 12.4849 140.509 16.0392C140.509 19.5934 142.945 22.4186 146.425 22.4186Z" fill="white"/>
<path d="M160.259 29.7996H156.866V21.8709H159.128C160.172 20.6861 160.694 18.8634 161.129 16.7673L161.912 13.3042C162.608 10.0234 164 6.65137 168.351 6.65137H175.224V21.8709H177.747V29.7996H174.354V25.334H160.172V29.7996H160.259ZM171.744 21.962V10.1145H168.438C166.262 10.1145 165.566 11.9372 165.131 13.851L164.348 17.4053C163.913 19.4102 163.304 21.0506 162.608 21.6886V21.962H171.744Z" fill="white"/>
<path d="M190.101 25.7C184.446 25.7 180.357 21.5989 180.357 16.0397C180.357 10.4805 184.446 6.37943 189.927 6.37943C194.191 6.37943 199.237 9.29574 199.237 16.3131V17.0422H183.837C184.185 20.1408 186.534 22.4191 190.014 22.4191C192.103 22.4191 194.539 21.5989 195.235 19.7762H198.889C197.845 23.8773 193.756 25.7 190.101 25.7ZM184.011 0H187.665V3.82766H184.011V0ZM195.67 14.217C195.148 11.3918 193.06 9.56915 189.927 9.56915C186.882 9.56915 184.707 11.5741 184.098 14.217H195.67ZM191.929 0H195.583V3.82766H191.929V0Z" fill="white"/>
<path d="M216.027 6.74316V14.1251H218.985L223.161 6.74316H227.077L221.856 15.5832L227.425 25.2435H223.422L218.985 17.4059H215.94V25.2435H212.634V17.4059H209.676L205.239 25.2435H201.237L206.805 15.5832L201.585 6.74316H205.5L209.676 14.1251H212.634V6.74316H216.027Z" fill="white"/>
<path d="M229.948 16.9503L229.861 6.74316H233.428V12.029H233.515C234.994 10.1151 236.908 9.2038 239.17 9.2038C243.52 9.2038 247 12.5758 247 17.3148C247 22.1449 243.433 25.6992 238.474 25.6992C233.602 25.6992 229.948 22.0538 229.948 16.9503ZM238.474 22.4183C241.258 22.4183 243.346 20.3222 243.346 17.4971C243.346 14.6719 241.258 12.4847 238.474 12.4847C235.69 12.4847 233.689 14.5807 233.689 17.4971C233.689 20.4134 235.69 22.4183 238.474 22.4183Z" fill="white"/>
</svg>
