<svg width="196" height="69" viewBox="0 0 196 69" fill="none" xmlns="http://www.w3.org/2000/svg">
<g clip-path="url(#clip0_415_4793)">
<path d="M57.9681 19.8874C57.9719 19.862 57.9698 19.8362 57.962 19.8118C57.9542 19.7874 57.9409 19.765 57.9231 19.7465C57.9052 19.728 57.8834 19.7138 57.8591 19.705C57.8349 19.6961 57.809 19.6929 57.7833 19.6956H57.4265V18.9424H58.2794C58.6589 18.9424 58.8181 19.1088 58.8181 19.5066V21.546H59.3867C59.6056 21.546 59.7733 21.5108 59.8743 21.3359L61.1962 18.9466H62.1386L60.6873 21.5094C60.611 21.6694 60.4951 21.8077 60.3504 21.9114V21.9283C60.3504 21.9283 60.5182 21.972 60.6873 22.3133L61.58 24.1681C61.6639 24.3514 61.7989 24.3697 62.0064 24.3697H62.1671V25.1229H61.7037C61.2403 25.1229 61.064 25.0623 60.8792 24.6589L59.843 22.515C59.7421 22.3133 59.5587 22.2879 59.3128 22.2879H58.8082V25.1229H57.9667L57.9681 19.8874Z" fill="white"/>
<path d="M65.4722 18.8389C67.1893 18.8389 68.5283 20.2126 68.5283 21.9884C68.5283 23.8078 67.1893 25.2324 65.4722 25.2324C63.755 25.2324 62.4246 23.8149 62.4246 21.9884C62.4246 20.2126 63.755 18.8389 65.4722 18.8389ZM65.4722 24.4045C66.6761 24.4045 67.6527 23.3551 67.6527 21.9898C67.6527 20.6682 66.6761 19.6541 65.4722 19.6541C64.2682 19.6541 63.3002 20.6696 63.3002 21.9898C63.3002 23.3551 64.2682 24.4002 65.4722 24.4002V24.4045Z" fill="white"/>
<path d="M69.643 19.6975H69.0957V18.9443H71.714C72.8085 18.9443 73.5832 19.706 73.5832 20.878C73.5832 22.0501 72.8085 22.8386 71.714 22.8386H70.4845V25.1221H69.643V19.6975ZM71.579 22.0868C72.2897 22.0868 72.7161 21.6228 72.7161 20.8795C72.7161 20.1362 72.2897 19.6975 71.5875 19.6975H70.4845V22.0868H71.579Z" fill="white"/>
<path d="M74.5695 19.6975H74.0222V18.9443H78.6448C79.0243 18.9443 79.1835 19.1108 79.1835 19.5085V24.1813C79.1803 24.2065 79.1827 24.2322 79.1907 24.2563C79.1987 24.2805 79.2121 24.3026 79.2298 24.321C79.2475 24.3393 79.2691 24.3536 79.2931 24.3626C79.3171 24.3716 79.3428 24.3752 79.3683 24.3731H79.7308V25.1263H78.8907C78.5041 25.1263 78.3434 24.9599 78.3434 24.5621V19.8879C78.3473 19.8626 78.3452 19.8367 78.3374 19.8123C78.3296 19.7879 78.3163 19.7656 78.2984 19.7471C78.2806 19.7285 78.2587 19.7143 78.2345 19.7055C78.2103 19.6967 78.1843 19.6934 78.1586 19.6961H75.411V25.1221H74.5695V19.6975Z" fill="white"/>
<path d="M83.3534 18.8389C85.0706 18.8389 86.4096 20.2126 86.4096 21.9884C86.4096 23.8078 85.0706 25.2324 83.3534 25.2324C81.6363 25.2324 80.3115 23.8092 80.3115 21.9898C80.3115 20.2126 81.6349 18.8389 83.3534 18.8389ZM83.3534 24.4045C84.5574 24.4045 85.5339 23.3551 85.5339 21.9898C85.5339 20.6682 84.5574 19.6541 83.3534 19.6541C82.1495 19.6541 81.1815 20.6696 81.1815 21.9898C81.1815 23.3551 82.1495 24.4002 83.3534 24.4002V24.4045Z" fill="white"/>
<path d="M87.5238 19.6975H86.9766V18.9443H89.5949C90.6894 18.9443 91.4641 19.706 91.4641 20.878C91.4641 22.0501 90.6894 22.8386 89.5949 22.8386H88.3653V25.1221H87.5238V19.6975ZM89.4598 22.0868C90.1706 22.0868 90.597 21.6228 90.597 20.8795C90.597 20.1362 90.1706 19.6975 89.4684 19.6975H88.3653V22.0868H89.4598Z" fill="white"/>
<path d="M91.3228 24.3689H91.4407C91.4721 24.3754 91.5046 24.3756 91.536 24.3694C91.5675 24.3632 91.5974 24.3508 91.6239 24.3329C91.6505 24.315 91.6731 24.292 91.6905 24.2652C91.7078 24.2384 91.7196 24.2084 91.725 24.1771L93.5857 18.9443H94.4698L96.3305 24.1771C96.336 24.2084 96.3477 24.2384 96.3651 24.2652C96.3824 24.292 96.4051 24.315 96.4316 24.3329C96.4581 24.3508 96.488 24.3632 96.5195 24.3694C96.551 24.3756 96.5834 24.3754 96.6148 24.3689H96.7328V25.122H96.2694C95.843 25.122 95.7136 25.0177 95.5701 24.6143L95.1237 23.3449H92.9318L92.4855 24.6143C92.3434 25.0163 92.2012 25.122 91.7861 25.122H91.3228V24.3689ZM94.9091 22.6101L94.2609 20.7328C94.16 20.4084 94.0249 19.8668 94.0249 19.8668H94.0079C94.0079 19.8668 93.8814 20.4098 93.7804 20.7328L93.1323 22.6143L94.9091 22.6101Z" fill="white"/>
<path d="M98.4316 19.6969H97.2447C97.1182 19.6969 97.0599 19.7575 97.0599 19.8887V20.2822H96.3022V19.4641C96.3022 19.0706 96.4288 18.9395 96.8069 18.9395H100.899C101.279 18.9395 101.404 19.0706 101.404 19.4641V20.278H100.655V19.8873C100.659 19.8619 100.656 19.8361 100.649 19.8117C100.641 19.7872 100.628 19.7649 100.61 19.7464C100.592 19.7279 100.57 19.7137 100.546 19.7048C100.522 19.696 100.496 19.6928 100.47 19.6954H99.2745V25.1214H98.433L98.4316 19.6969Z" fill="white"/>
<path d="M102.344 19.8874C102.348 19.862 102.346 19.8362 102.338 19.8118C102.331 19.7874 102.317 19.765 102.299 19.7465C102.282 19.728 102.26 19.7138 102.235 19.705C102.211 19.6961 102.185 19.6929 102.16 19.6956H101.797V18.9424H102.65C103.03 18.9424 103.189 19.1088 103.189 19.5066V22.8916C103.189 23.2414 103.139 23.776 103.139 23.776H103.156C103.156 23.776 103.476 23.2118 103.686 22.8831L106.279 18.9452H107.103V24.1779C107.1 24.2032 107.103 24.2288 107.111 24.253C107.119 24.2771 107.132 24.2992 107.15 24.3176C107.167 24.336 107.189 24.3502 107.213 24.3592C107.237 24.3683 107.263 24.3718 107.288 24.3697H107.651V25.1229H106.809C106.423 25.1229 106.262 24.9565 106.262 24.5587V21.1681C106.262 20.8267 106.313 20.2668 106.313 20.2668H106.296C106.296 20.2668 106.002 20.831 105.791 21.1681L103.182 25.1173H102.344V19.8874Z" fill="white"/>
<path d="M108.766 19.6975H108.219V18.9443H110.82C111.816 18.9443 112.546 19.5212 112.546 20.5198C112.546 21.194 112.201 21.6481 111.806 21.8498V21.8625C112.428 22.0558 112.782 22.6679 112.782 23.359C112.782 24.5226 111.915 25.1178 110.87 25.1178H109.309C108.93 25.1178 108.762 24.9514 108.762 24.5536L108.766 19.6975ZM110.829 21.5438C111.359 21.5438 111.696 21.1503 111.696 20.6072C111.696 20.0642 111.376 19.6975 110.82 19.6975H109.594V21.5438H110.829ZM109.784 24.3646H110.921C111.544 24.3646 111.916 23.9415 111.916 23.3153C111.916 22.689 111.521 22.256 110.921 22.256H109.594V24.1728C109.589 24.199 109.591 24.2258 109.599 24.2512C109.607 24.2765 109.621 24.2997 109.639 24.3189C109.658 24.3381 109.68 24.3527 109.706 24.3616C109.731 24.3705 109.758 24.3735 109.784 24.3703V24.3646Z" fill="white"/>
<path d="M113.954 19.8878C113.958 19.8625 113.956 19.8366 113.948 19.8122C113.941 19.7878 113.927 19.7655 113.909 19.747C113.892 19.7284 113.87 19.7142 113.846 19.7054C113.821 19.6966 113.795 19.6933 113.77 19.696H113.407V18.9428H114.26C114.64 18.9428 114.799 19.1092 114.799 19.507V21.6678H117.822V19.5056C117.822 19.1121 117.983 18.9414 118.37 18.9414H119.211V19.6946H118.849C118.823 19.6919 118.797 19.6951 118.773 19.704C118.748 19.7128 118.727 19.727 118.709 19.7455C118.691 19.7641 118.678 19.7864 118.67 19.8108C118.662 19.8352 118.66 19.8611 118.664 19.8864V25.1191H117.822V22.4111H114.796V25.1234H113.954V19.8878Z" fill="white"/>
<path d="M120.322 19.8874C120.326 19.862 120.324 19.8362 120.316 19.8118C120.308 19.7874 120.295 19.765 120.277 19.7465C120.259 19.728 120.237 19.7138 120.213 19.705C120.189 19.6961 120.163 19.6929 120.137 19.6956H119.775V18.9424H120.628C121.007 18.9424 121.166 19.1088 121.166 19.5066V21.2738H122.303C123.348 21.2738 124.198 21.8775 124.198 23.1554C124.198 24.4854 123.314 25.13 122.168 25.13H120.872C120.492 25.13 120.325 24.9635 120.325 24.5658L120.322 19.8874ZM121.35 24.3683H122.217C122.899 24.3683 123.328 23.9311 123.328 23.1779C123.328 22.4248 122.902 22.0228 122.217 22.0228H121.165V24.1751C121.161 24.2005 121.163 24.2265 121.171 24.251C121.179 24.2755 121.192 24.298 121.21 24.3167C121.228 24.3354 121.249 24.3499 121.274 24.3591C121.298 24.3683 121.324 24.3719 121.35 24.3697V24.3683ZM125.021 18.9424H125.863V24.1751C125.859 24.2003 125.862 24.226 125.87 24.2501C125.878 24.2743 125.891 24.2964 125.909 24.3148C125.927 24.3332 125.948 24.3474 125.972 24.3564C125.996 24.3654 126.022 24.369 126.048 24.3669H126.41V25.1201H125.557C125.178 25.1201 125.018 24.9537 125.018 24.5559L125.021 18.9424Z" fill="white"/>
<path d="M127.533 19.8871C127.537 19.8618 127.535 19.8359 127.527 19.8115C127.52 19.7871 127.506 19.7648 127.488 19.7462C127.471 19.7277 127.449 19.7135 127.424 19.7047C127.4 19.6958 127.374 19.6926 127.349 19.6953H126.986V18.9421H127.839C128.218 18.9421 128.378 19.1085 128.378 19.5063V22.8913C128.378 23.2411 128.328 23.7757 128.328 23.7757H128.345C128.345 23.7757 128.665 23.2115 128.875 22.8829L131.468 18.9449H132.294V24.1776C132.291 24.2029 132.293 24.2285 132.301 24.2527C132.309 24.2768 132.322 24.2989 132.34 24.3173C132.358 24.3357 132.379 24.3499 132.403 24.359C132.427 24.368 132.453 24.3716 132.479 24.3695H132.841V25.1226H132C131.613 25.1226 131.452 24.9562 131.452 24.5585V21.1678C131.452 20.8265 131.503 20.2665 131.503 20.2665H131.485C131.485 20.2665 131.191 20.8307 130.98 21.1678L128.371 25.117H127.533V19.8871ZM128.642 17.5359V17.4047H129.299V17.5274C129.297 17.6044 129.311 17.6809 129.34 17.7523C129.369 17.8236 129.413 17.8883 129.468 17.9424C129.523 17.9964 129.589 18.0386 129.662 18.0665C129.734 18.0943 129.811 18.1072 129.889 18.1043C129.968 18.1085 130.047 18.0963 130.121 18.0683C130.195 18.0404 130.262 17.9975 130.319 17.9422C130.375 17.887 130.419 17.8207 130.448 17.7476C130.477 17.6744 130.49 17.5961 130.487 17.5176V17.4033H131.135V17.5345C131.135 18.2524 130.545 18.6544 129.889 18.6544C129.232 18.6544 128.642 18.2538 128.642 17.5359Z" fill="white"/>
<path d="M136.468 24.1601C136.634 24.3234 136.856 24.4199 137.09 24.4309C137.453 24.4309 137.612 24.1855 137.764 23.7398L135.916 19.8893C135.899 19.8296 135.861 19.7777 135.809 19.7427C135.757 19.7077 135.694 19.6917 135.632 19.6975H135.464V18.9443H135.977C136.372 18.9443 136.49 19.067 136.66 19.4521L137.881 22.1221C138.057 22.5071 138.192 22.8837 138.192 22.8837H138.209C138.209 22.8837 138.31 22.5508 138.462 22.1221L139.396 19.4535C139.538 19.0417 139.68 18.9457 140.095 18.9457H140.55V19.6989H140.415C140.353 19.6891 140.29 19.7025 140.237 19.7364C140.185 19.7702 140.147 19.8222 140.131 19.8823L138.506 24.1347C138.296 24.6989 137.925 25.2278 137.193 25.2278C136.784 25.2204 136.39 25.0706 136.081 24.8047L136.468 24.1601Z" fill="white"/>
<path d="M141.463 19.8868C141.467 19.8615 141.465 19.8356 141.457 19.8112C141.449 19.7868 141.436 19.7645 141.418 19.746C141.4 19.7275 141.378 19.7132 141.354 19.7044C141.33 19.6956 141.304 19.6924 141.278 19.695H140.916V18.9418H141.768C142.148 18.9418 142.307 19.1083 142.307 19.506V21.6668H145.331V19.5046C145.331 19.1111 145.491 18.9404 145.878 18.9404H146.719V19.6936H146.357C146.331 19.691 146.305 19.6942 146.281 19.703C146.257 19.7118 146.235 19.7261 146.217 19.7446C146.199 19.7631 146.186 19.7854 146.178 19.8098C146.17 19.8342 146.168 19.8601 146.172 19.8854V25.1181H145.331V22.4101H142.307V25.1224H141.463V19.8868Z" fill="white"/>
<path d="M147.84 19.8874C147.844 19.862 147.841 19.8362 147.834 19.8118C147.826 19.7874 147.813 19.765 147.795 19.7465C147.777 19.728 147.755 19.7138 147.731 19.705C147.707 19.6961 147.681 19.6929 147.655 19.6956H147.292V18.9424H148.145C148.525 18.9424 148.684 19.1088 148.684 19.5066V22.8916C148.684 23.2414 148.634 23.776 148.634 23.776H148.651C148.651 23.776 148.971 23.2118 149.182 22.8831L151.774 18.9452H152.599V24.1779C152.596 24.2032 152.598 24.2288 152.606 24.253C152.614 24.2771 152.627 24.2992 152.645 24.3176C152.663 24.336 152.684 24.3502 152.708 24.3592C152.732 24.3683 152.758 24.3718 152.784 24.3697H153.146V25.1229H152.305C151.918 25.1229 151.757 24.9565 151.757 24.5587V21.1681C151.757 20.8267 151.808 20.2668 151.808 20.2668H151.791C151.791 20.2668 151.497 20.831 151.287 21.1681L148.677 25.1173H147.844L147.84 19.8874Z" fill="white"/>
<path d="M154.257 19.6975H153.71V18.9443H156.311C157.306 18.9443 158.037 19.5212 158.037 20.5198C158.037 21.194 157.692 21.6481 157.297 21.8498V21.8625C157.919 22.0558 158.273 22.6679 158.273 23.359C158.273 24.5226 157.406 25.1178 156.361 25.1178H154.798C154.418 25.1178 154.25 24.9514 154.25 24.5536L154.257 19.6975ZM156.32 21.5438C156.85 21.5438 157.187 21.1503 157.187 20.6072C157.187 20.0642 156.867 19.6975 156.311 19.6975H155.09V21.5438H156.32ZM155.275 24.3646H156.412C157.035 24.3646 157.407 23.9415 157.407 23.3153C157.407 22.689 157.012 22.256 156.412 22.256H155.09V24.1728C155.086 24.1986 155.088 24.225 155.096 24.25C155.103 24.275 155.117 24.2979 155.135 24.317C155.153 24.3361 155.175 24.3508 155.199 24.3601C155.224 24.3693 155.25 24.3728 155.277 24.3703L155.275 24.3646Z" fill="white"/>
<path d="M159.437 19.6975H158.889V18.9443H162.392C162.771 18.9443 162.931 19.1108 162.931 19.5085V20.2871H162.156V19.8879C162.16 19.8626 162.158 19.8367 162.15 19.8123C162.142 19.7879 162.129 19.7656 162.111 19.7471C162.093 19.7285 162.071 19.7143 162.047 19.7055C162.023 19.6967 161.997 19.6934 161.971 19.6961H160.278V21.6298H162.366V22.383H160.278V24.1771C160.275 24.2023 160.277 24.2279 160.285 24.2521C160.293 24.2763 160.307 24.2983 160.324 24.3167C160.342 24.3351 160.364 24.3493 160.388 24.3584C160.412 24.3674 160.437 24.371 160.463 24.3689H162.206C162.231 24.371 162.257 24.3674 162.281 24.3584C162.305 24.3493 162.326 24.3351 162.344 24.3167C162.362 24.2983 162.375 24.2763 162.383 24.2521C162.391 24.2279 162.394 24.2023 162.39 24.1771V23.7835H163.157V24.5621C163.157 24.9556 162.996 25.1263 162.618 25.1263H159.984C159.604 25.1263 159.437 24.9599 159.437 24.5621V19.6975Z" fill="white"/>
<path d="M164.246 19.6975H163.699V18.9443H166.317C167.412 18.9443 168.186 19.706 168.186 20.878C168.186 22.0501 167.412 22.8386 166.317 22.8386H165.087V25.1221H164.246V19.6975ZM166.182 22.0868C166.893 22.0868 167.319 21.6228 167.319 20.8795C167.319 20.1362 166.893 19.6975 166.191 19.6975H165.087V22.0868H166.182Z" fill="white"/>
<path d="M171.625 18.8389C172.425 18.8389 173.857 19.1802 173.857 20.1774V20.781H173.082V20.4312C173.082 19.915 172.24 19.6527 171.642 19.6527C170.446 19.6527 169.52 20.5892 169.52 21.9799C169.52 23.3269 170.455 24.4045 171.667 24.4045C172.022 24.3983 172.372 24.32 172.695 24.1744C173.018 24.0289 173.307 23.8191 173.545 23.5582L174 24.1887C173.704 24.5128 173.342 24.7721 172.939 24.9499C172.536 25.1277 172.1 25.22 171.659 25.2211C169.882 25.2211 168.644 23.7951 168.644 21.9771C168.644 20.1957 169.923 18.8389 171.625 18.8389Z" fill="white"/>
<path d="M175.061 19.8874C175.065 19.862 175.063 19.8362 175.055 19.8118C175.048 19.7874 175.034 19.765 175.016 19.7465C174.999 19.728 174.977 19.7138 174.952 19.705C174.928 19.6961 174.902 19.6929 174.877 19.6956H174.514V18.9424H175.367C175.747 18.9424 175.906 19.1088 175.906 19.5066V22.8916C175.906 23.2414 175.856 23.776 175.856 23.776H175.873C175.873 23.776 176.193 23.2118 176.403 22.8831L178.996 18.9452H179.813V24.1779C179.81 24.2032 179.813 24.2288 179.821 24.253C179.829 24.2771 179.842 24.2992 179.86 24.3176C179.877 24.336 179.899 24.3502 179.923 24.3592C179.947 24.3683 179.973 24.3718 179.998 24.3697H180.361V25.1229H179.529C179.142 25.1229 178.982 24.9565 178.982 24.5587V21.1681C178.982 20.8267 179.033 20.2668 179.033 20.2668H179.016C179.016 20.2668 178.722 20.831 178.511 21.1681L175.902 25.1173H175.069L175.061 19.8874Z" fill="white"/>
<path d="M182.894 19.6969H181.707C181.58 19.6969 181.522 19.7575 181.522 19.8887V20.2822H180.764V19.4641C180.764 19.0706 180.891 18.9395 181.269 18.9395H185.357C185.737 18.9395 185.862 19.0706 185.862 19.4641V20.278H185.113V19.8873C185.116 19.8619 185.114 19.8361 185.107 19.8117C185.099 19.7872 185.085 19.7649 185.068 19.7464C185.05 19.7279 185.028 19.7137 185.004 19.7048C184.979 19.696 184.954 19.6928 184.928 19.6954H183.732V25.1214H182.891L182.894 19.6969Z" fill="white"/>
<path d="M186.803 19.6975H186.256V18.9443H189.764C190.144 18.9443 190.303 19.1108 190.303 19.5085V20.2871H189.528V19.8879C189.532 19.8625 189.53 19.8365 189.522 19.8119C189.514 19.7874 189.501 19.765 189.483 19.7464C189.465 19.7279 189.443 19.7137 189.418 19.705C189.394 19.6963 189.368 19.6932 189.342 19.6961H187.649V21.6298H189.737V22.383H187.649V24.1771C187.646 24.2024 187.649 24.228 187.657 24.2522C187.665 24.2763 187.678 24.2984 187.696 24.3167C187.714 24.3351 187.736 24.3493 187.76 24.3583C187.784 24.3673 187.81 24.3709 187.835 24.3689H189.578C189.603 24.3712 189.629 24.3678 189.653 24.3588C189.678 24.3499 189.699 24.3357 189.717 24.3173C189.735 24.2989 189.749 24.2767 189.757 24.2525C189.765 24.2282 189.767 24.2024 189.764 24.1771V23.7835H190.53V24.5621C190.53 24.9556 190.37 25.1263 189.991 25.1263H187.348C186.968 25.1263 186.8 24.9599 186.8 24.5621L186.803 19.6975Z" fill="white"/>
<path d="M193.034 19.6969H191.847C191.72 19.6969 191.66 19.7575 191.66 19.8887V20.2822H190.901V19.4641C190.901 19.0706 191.028 18.9395 191.406 18.9395H195.498C195.878 18.9395 196.004 19.0706 196.004 19.4641V20.278H195.255V19.8873C195.259 19.8619 195.257 19.8361 195.249 19.8117C195.241 19.7872 195.228 19.7649 195.21 19.7464C195.192 19.7279 195.171 19.7137 195.146 19.7048C195.122 19.696 195.096 19.6928 195.07 19.6954H193.875V25.1214H193.034V19.6969Z" fill="white"/>
<path d="M57.9599 31.9475H57.4126V31.1943H62.0352C62.4147 31.1943 62.5739 31.3608 62.5739 31.7585V36.4313C62.5706 36.4565 62.5731 36.4822 62.5811 36.5063C62.5891 36.5305 62.6024 36.5526 62.6202 36.571C62.6379 36.5893 62.6595 36.6036 62.6835 36.6126C62.7074 36.6216 62.7331 36.6252 62.7587 36.6231H63.1212V37.3763H62.2797C61.893 37.3763 61.7324 37.2099 61.7324 36.8121V32.1407C61.7362 32.1154 61.7342 32.0895 61.7264 32.0651C61.7186 32.0407 61.7052 32.0184 61.6874 31.9999C61.6696 31.9814 61.6477 31.9672 61.6235 31.9583C61.5992 31.9495 61.5733 31.9463 61.5476 31.9489H58.8014V37.3763H57.9599V31.9475Z" fill="white"/>
<path d="M64.2336 31.9475H63.6807V31.1943H66.299C67.3935 31.1943 68.1682 31.956 68.1682 33.128C68.1682 34.3001 67.3935 35.0886 66.299 35.0886H65.0694V37.3763H64.2279L64.2336 31.9475ZM66.1696 34.3368C66.8804 34.3368 67.3068 33.8728 67.3068 33.1295C67.3068 32.3862 66.8804 31.9475 66.1782 31.9475H65.0751V34.3368H66.1696Z" fill="white"/>
<path d="M68.0334 36.6208H68.1514C68.1828 36.6274 68.2152 36.6275 68.2467 36.6214C68.2782 36.6152 68.3081 36.6028 68.3346 36.5848C68.3612 36.5669 68.3838 36.5439 68.4012 36.5171C68.4185 36.4904 68.4303 36.4604 68.4357 36.429L70.2964 31.1963H71.1805L73.0412 36.429C73.0467 36.4604 73.0584 36.4904 73.0758 36.5171C73.0931 36.5439 73.1158 36.5669 73.1423 36.5848C73.1688 36.6028 73.1987 36.6152 73.2302 36.6214C73.2617 36.6275 73.2941 36.6274 73.3255 36.6208H73.4435V37.3768H72.9801C72.5537 37.3768 72.4243 37.2725 72.2808 36.8691L71.8344 35.5997H69.6425L69.1962 36.8691C69.0541 37.271 68.9119 37.3768 68.4968 37.3768H68.0334V36.6208ZM71.6198 34.862L70.9716 32.9805C70.8707 32.6561 70.7356 32.1145 70.7356 32.1145H70.7186C70.7186 32.1145 70.5921 32.6575 70.4911 32.9805L69.843 34.862H71.6198Z" fill="white"/>
<path d="M74.3092 31.9475H73.762V31.1943H76.3632C77.3582 31.1943 78.0889 31.7712 78.0889 32.7698C78.0889 33.444 77.7435 33.8981 77.3483 34.0998V34.1168C77.9709 34.31 78.3248 34.9221 78.3248 35.6132C78.3248 36.7768 77.4577 37.3721 76.413 37.3721H74.8494C74.4699 37.3721 74.3021 37.2056 74.3021 36.8079L74.3092 31.9475ZM76.3718 33.7938C76.902 33.7938 77.2388 33.4003 77.2388 32.8572C77.2388 32.3142 76.919 31.9475 76.3632 31.9475H75.1422V33.7938H76.3718ZM75.327 36.6146H76.4641C77.0867 36.6146 77.4592 36.1915 77.4592 35.5653C77.4592 34.939 77.064 34.506 76.4641 34.506H75.1422V36.4228C75.138 36.4485 75.1397 36.4748 75.1473 36.4996C75.1549 36.5245 75.1681 36.5474 75.1859 36.5664C75.2037 36.5855 75.2257 36.6002 75.2502 36.6095C75.2746 36.6189 75.3009 36.6226 75.327 36.6203V36.6146Z" fill="white"/>
<path d="M79.4982 32.1413C79.502 32.116 79.4999 32.0901 79.4921 32.0657C79.4843 32.0413 79.471 32.0189 79.4532 32.0004C79.4353 31.9819 79.4135 31.9677 79.3892 31.9589C79.365 31.95 79.3391 31.9468 79.3134 31.9495H78.9509V31.1963H79.8038C80.1833 31.1963 80.3425 31.3627 80.3425 31.7605V35.1455C80.3425 35.4953 80.2928 36.0299 80.2928 36.0299H80.3127C80.3127 36.0299 80.6325 35.4657 80.8429 35.1371L83.4356 31.1991H84.2615V36.4318C84.2582 36.4571 84.2607 36.4827 84.2687 36.5069C84.2767 36.531 84.29 36.5531 84.3077 36.5715C84.3255 36.5899 84.3471 36.6041 84.3711 36.6131C84.395 36.6222 84.4207 36.6258 84.4463 36.6237H84.8087V37.3768H83.9672C83.5806 37.3768 83.42 37.2104 83.42 36.8127V33.4177C83.42 33.0764 83.4711 32.5165 83.4711 32.5165H83.4399C83.4399 32.5165 83.1456 33.0806 82.9353 33.4177L80.3255 37.367H79.4925L79.4982 32.1413Z" fill="white"/>
<path d="M87.3292 31.9481H86.1394C86.0129 31.9481 85.9547 32.0087 85.9547 32.1399V32.5334H85.197V31.721C85.197 31.3275 85.3235 31.1963 85.7016 31.1963H89.794C90.1735 31.1963 90.2986 31.3275 90.2986 31.721V32.5348H89.5509V32.1413C89.5548 32.116 89.5527 32.0901 89.5449 32.0657C89.5371 32.0413 89.5238 32.0189 89.5059 32.0004C89.4881 31.9819 89.4662 31.9677 89.442 31.9589C89.4178 31.95 89.3918 31.9468 89.3661 31.9495H88.1707V37.3768H87.3292V31.9481Z" fill="white"/>
<path d="M91.2372 31.9475H90.6885V31.1943H94.1909C94.5705 31.1943 94.7297 31.3608 94.7297 31.7585V32.5371H93.9578V32.1436C93.9616 32.1182 93.9596 32.0924 93.9518 32.068C93.944 32.0435 93.9306 32.0212 93.9128 32.0027C93.895 31.9842 93.8731 31.97 93.8489 31.9611C93.8246 31.9523 93.7987 31.9491 93.773 31.9517H92.0801V33.8855H94.1682V34.6386H92.0801V36.4327C92.0768 36.4579 92.0793 36.4836 92.0873 36.5077C92.0953 36.5319 92.1086 36.554 92.1263 36.5724C92.1441 36.5907 92.1657 36.605 92.1897 36.614C92.2136 36.623 92.2393 36.6266 92.2649 36.6245H94.0076C94.0331 36.6266 94.0588 36.623 94.0828 36.614C94.1068 36.605 94.1284 36.5907 94.1461 36.5724C94.1638 36.554 94.1772 36.5319 94.1852 36.5077C94.1932 36.4836 94.1956 36.4579 94.1924 36.4327V36.0392H94.9528V36.8121C94.9528 37.2056 94.7922 37.3763 94.4141 37.3763H91.7858C91.4063 37.3763 91.2386 37.2099 91.2386 36.8121L91.2372 31.9475Z" fill="white"/>
<path d="M95.3071 36.6203C96.3021 36.4792 96.6632 35.1407 96.6632 32.6302V31.9475H96.1074V31.1943H99.6013C99.9809 31.1943 100.14 31.3608 100.14 31.7585V36.4313C100.137 36.4565 100.139 36.4822 100.147 36.5063C100.155 36.5305 100.169 36.5526 100.186 36.571C100.204 36.5893 100.226 36.6036 100.25 36.6126C100.274 36.6216 100.299 36.6252 100.325 36.6231H100.687V37.3763H99.8345C99.4549 37.3763 99.2957 37.2099 99.2957 36.8121V32.1407C99.2996 32.1154 99.2975 32.0895 99.2897 32.0651C99.2819 32.0407 99.2686 32.0184 99.2507 31.9999C99.2329 31.9814 99.211 31.9672 99.1868 31.9583C99.1626 31.9495 99.1366 31.9463 99.1109 31.9489H97.4621V32.64C97.4621 35.602 96.9489 37.3213 95.3071 37.4186V36.6203Z" fill="white"/>
<path d="M101.801 32.1413C101.805 32.116 101.802 32.0901 101.795 32.0657C101.787 32.0413 101.774 32.0189 101.756 32.0004C101.738 31.9819 101.716 31.9677 101.692 31.9589C101.668 31.95 101.642 31.9468 101.616 31.9495H101.253V31.1963H102.106C102.486 31.1963 102.645 31.3627 102.645 31.7605V33.5277H103.815C104.858 33.5277 105.71 34.1145 105.71 35.4093C105.71 36.7478 104.817 37.3839 103.681 37.3839H102.345C101.966 37.3839 101.798 37.2174 101.798 36.8197L101.801 32.1413ZM102.828 36.6222H103.73C104.412 36.6222 104.841 36.185 104.841 35.4149C104.841 34.6801 104.415 34.2767 103.73 34.2767H102.644V36.429C102.64 36.4542 102.643 36.4799 102.651 36.504C102.659 36.5282 102.672 36.5503 102.69 36.5687C102.708 36.5871 102.729 36.6013 102.753 36.6103C102.777 36.6193 102.803 36.6229 102.828 36.6208V36.6222Z" fill="white"/>
<path d="M109.168 31.0908C109.968 31.0908 111.4 31.4321 111.4 32.4293V33.033H110.618V32.6832C110.618 32.167 109.776 31.9046 109.178 31.9046C107.983 31.9046 107.056 32.8412 107.056 34.2319C107.056 35.5788 107.991 36.6564 109.204 36.6564C109.558 36.6502 109.908 36.5719 110.231 36.4264C110.554 36.2808 110.843 36.0711 111.081 35.8101L111.536 36.4406C111.24 36.7648 110.879 37.0241 110.475 37.2019C110.072 37.3796 109.636 37.472 109.195 37.473C107.418 37.473 106.18 36.0471 106.18 34.229C106.183 32.4406 107.462 31.0908 109.168 31.0908Z" fill="white"/>
<path d="M114.001 31.9481H112.814C112.687 31.9481 112.629 32.0087 112.629 32.1399V32.5334H111.868V31.721C111.868 31.3275 111.995 31.1963 112.373 31.1963H116.465C116.845 31.1963 116.97 31.3275 116.97 31.721V32.5348H116.221V32.1413C116.225 32.116 116.223 32.0901 116.215 32.0657C116.207 32.0413 116.194 32.0189 116.176 32.0004C116.158 31.9819 116.136 31.9677 116.112 31.9589C116.088 31.95 116.062 31.9468 116.036 31.9495H114.841V37.3768H114.001V31.9481Z" fill="white"/>
<path d="M117.912 31.9475H117.365V31.1943H119.97C120.965 31.1943 121.696 31.7712 121.696 32.7698C121.696 33.444 121.351 33.8981 120.955 34.0998V34.1168C121.578 34.31 121.932 34.9221 121.932 35.6132C121.932 36.7768 121.065 37.3721 120.02 37.3721H118.456C118.077 37.3721 117.909 37.2056 117.909 36.8079L117.912 31.9475ZM119.97 33.7938C120.5 33.7938 120.837 33.4003 120.837 32.8572C120.837 32.3142 120.518 31.9475 119.962 31.9475H118.741V33.7938H119.97ZM118.926 36.6146H120.063C120.685 36.6146 121.058 36.1915 121.058 35.5653C121.058 34.939 120.663 34.506 120.063 34.506H118.741V36.4228C118.736 36.449 118.738 36.4758 118.746 36.5012C118.754 36.5265 118.768 36.5497 118.786 36.5689C118.805 36.5881 118.827 36.6027 118.853 36.6116C118.878 36.6205 118.905 36.6235 118.931 36.6203L118.926 36.6146Z" fill="white"/>
<path d="M122.244 36.6208H122.362C122.394 36.6274 122.426 36.6275 122.458 36.6214C122.489 36.6152 122.519 36.6028 122.546 36.5848C122.572 36.5669 122.595 36.5439 122.612 36.5171C122.629 36.4904 122.641 36.4604 122.647 36.429L124.507 31.1963H125.391L127.252 36.429C127.258 36.4604 127.269 36.4904 127.287 36.5171C127.304 36.5439 127.327 36.5669 127.353 36.5848C127.38 36.6028 127.41 36.6152 127.441 36.6214C127.473 36.6275 127.505 36.6274 127.536 36.6208H127.646V37.3768H127.183C126.756 37.3768 126.627 37.2725 126.483 36.8691L126.037 35.5997H123.859L123.413 36.8691C123.271 37.271 123.129 37.3768 122.713 37.3768H122.244V36.6208ZM125.831 34.862L125.183 32.9805C125.082 32.6561 124.947 32.1145 124.947 32.1145H124.93C124.93 32.1145 124.803 32.6575 124.702 32.9805L124.054 34.862H125.831Z" fill="white"/>
<path d="M57.9681 44.3906C57.9719 44.3653 57.9698 44.3394 57.962 44.315C57.9542 44.2906 57.9409 44.2683 57.9231 44.2498C57.9052 44.2313 57.8834 44.217 57.8591 44.2082C57.8349 44.1994 57.809 44.1962 57.7833 44.1988H57.4265V43.4414H58.2794C58.6589 43.4414 58.8181 43.6078 58.8181 44.0056V46.1664H61.833V44.0056C61.833 43.6121 61.9936 43.4414 62.3803 43.4414H63.2218V44.1946H62.8593C62.8336 44.1919 62.8077 44.1951 62.7835 44.204C62.7592 44.2128 62.7374 44.227 62.7195 44.2455C62.7017 44.2641 62.6884 44.2864 62.6806 44.3108C62.6728 44.3352 62.6707 44.3611 62.6745 44.3864V49.6191H61.833V46.9111H58.8096V49.6234H57.9681V44.3906Z" fill="white"/>
<path d="M64.3441 44.3906C64.348 44.3653 64.3459 44.3394 64.3381 44.315C64.3303 44.2906 64.317 44.2683 64.2991 44.2498C64.2813 44.2313 64.2594 44.217 64.2352 44.2082C64.211 44.1994 64.185 44.1962 64.1593 44.1988H63.7969V43.4414H64.6497C65.0293 43.4414 65.1885 43.6078 65.1885 44.0056V47.3906C65.1885 47.7404 65.1387 48.275 65.1387 48.275H65.1558C65.1558 48.275 65.4756 47.7108 65.686 47.3822L68.2759 43.4414H69.1003V48.6741C69.0971 48.6994 69.0995 48.725 69.1075 48.7492C69.1155 48.7733 69.1289 48.7954 69.1466 48.8138C69.1643 48.8322 69.1859 48.8464 69.2099 48.8554C69.2339 48.8645 69.2596 48.868 69.2851 48.8659H69.6504V49.6191H68.8089C68.4223 49.6191 68.2617 49.4527 68.2617 49.0549V45.6685C68.2617 45.3272 68.3128 44.7672 68.3128 44.7672H68.2958C68.2958 44.7672 68.0015 45.3314 67.7912 45.6685L65.1814 49.6177H64.3484L64.3441 44.3906Z" fill="white"/>
<path d="M71.5784 46.8269C71.6645 46.6603 71.796 46.521 71.958 46.4249V46.4038C71.958 46.4038 71.7973 46.3431 71.6296 46.0187L70.7767 44.3995C70.6843 44.2162 70.5578 44.1978 70.3503 44.1978H70.1812V43.4418H70.6076C71.071 43.4418 71.2146 43.5124 71.4164 43.9059L72.4114 45.8142C72.5294 46.0328 72.6957 46.0596 72.9246 46.0596H73.2529V43.4418H74.0575V46.0582H74.3688C74.5962 46.0582 74.781 46.0314 74.899 45.8128L75.894 43.9045C76.0958 43.511 76.2309 43.4404 76.7028 43.4404H77.1292V44.1936H76.9615C76.7596 44.1936 76.6331 44.2105 76.5351 44.3953L75.6822 46.0145C75.5144 46.3389 75.3538 46.3995 75.3538 46.3995V46.4165C75.5142 46.5119 75.6431 46.6516 75.7248 46.8184L77.3268 49.6252H76.4L74.9515 47.0258C74.9085 46.9387 74.8389 46.8673 74.7527 46.8217C74.6664 46.7762 74.5679 46.7587 74.4711 46.7719H74.0575V49.6252H73.2487V46.7719H72.845C72.7481 46.7587 72.6496 46.7762 72.5634 46.8217C72.4771 46.8673 72.4075 46.9387 72.3645 47.0258L70.916 49.6252H69.9893L71.5784 46.8269Z" fill="white"/>
<path d="M78.2079 44.1988H77.6606V43.4414H81.1645C81.5441 43.4414 81.7033 43.6078 81.7033 44.0056V44.7841H80.9286V44.3906C80.9324 44.3653 80.9303 44.3394 80.9225 44.315C80.9147 44.2906 80.9014 44.2683 80.8836 44.2498C80.8657 44.2313 80.8439 44.217 80.8196 44.2082C80.7954 44.1994 80.7695 44.1962 80.7438 44.1988H79.0494V46.1325H81.1375V46.8857H79.0494V48.6798C79.0461 48.705 79.0486 48.7306 79.0566 48.7548C79.0646 48.779 79.078 48.801 79.0957 48.8194C79.1134 48.8378 79.135 48.852 79.159 48.8611C79.183 48.8701 79.2086 48.8737 79.2342 48.8716H80.9769C81.0024 48.8737 81.0281 48.8701 81.0521 48.8611C81.0761 48.852 81.0977 48.8378 81.1154 48.8194C81.1331 48.801 81.1465 48.779 81.1545 48.7548C81.1625 48.7306 81.165 48.705 81.1617 48.6798V48.2863H81.9279V49.0648C81.9279 49.4583 81.7672 49.629 81.3891 49.629H78.7481C78.3685 49.629 78.2008 49.4626 78.2008 49.0648L78.2079 44.1988Z" fill="white"/>
<path d="M83.0133 44.1988H82.4661V43.4414H85.8676C86.2471 43.4414 86.4063 43.6078 86.4063 44.0056V44.7841H85.6402V44.3906C85.644 44.3653 85.6419 44.3394 85.6341 44.315C85.6263 44.2906 85.613 44.2683 85.5952 44.2498C85.5773 44.2313 85.5555 44.217 85.5312 44.2082C85.507 44.1994 85.4811 44.1962 85.4554 44.1988H83.8662V49.6248H83.0133V44.1988Z" fill="white"/>
<path d="M89.7375 43.3408C91.4547 43.3408 92.7937 44.7146 92.7937 46.4903C92.7937 48.3098 91.4547 49.7343 89.7375 49.7343C88.0204 49.7343 86.6899 48.3168 86.6899 46.4903C86.6899 44.7104 88.0204 43.3408 89.7375 43.3408ZM89.7375 48.9064C90.9415 48.9064 91.9181 47.857 91.9181 46.4917C91.9181 45.1702 90.9415 44.1561 89.7375 44.1561C88.5336 44.1561 87.5613 45.1702 87.5613 46.4903C87.5613 47.8556 88.5336 48.9064 89.7375 48.9064Z" fill="white"/>
<path d="M93.9081 44.1988H93.3608V43.4414H95.9792C97.0737 43.4414 97.8484 44.203 97.8484 45.3751C97.8484 46.5472 97.0737 47.3356 95.9792 47.3356H94.7496V49.6191H93.9081V44.1988ZM95.8441 46.5881C96.5549 46.5881 96.9813 46.1241 96.9813 45.3808C96.9813 44.6375 96.5549 44.1988 95.8527 44.1988H94.7496V46.5881H95.8441Z" fill="white"/>
<path d="M101.35 43.3408C103.067 43.3408 104.406 44.7146 104.406 46.4903C104.406 48.3098 103.067 49.7343 101.35 49.7343C99.6327 49.7343 98.3023 48.3168 98.3023 46.4903C98.2966 44.7104 99.6271 43.3408 101.35 43.3408ZM101.35 48.9064C102.554 48.9064 103.53 47.857 103.53 46.4917C103.53 45.1702 102.554 44.1561 101.35 44.1561C100.146 44.1561 99.1779 45.1716 99.1779 46.4917C99.1722 47.8556 100.14 48.9064 101.35 48.9064Z" fill="white"/>
<path d="M104.985 48.8716H105.12C105.944 47.6643 106.038 46.0634 106.038 44.715V44.1988H105.499V43.4414H108.993C109.373 43.4414 109.532 43.6078 109.532 44.0056V48.8716H109.717C110.096 48.8716 110.247 49.0211 110.247 49.4231V50.849H109.472V49.8166C109.472 49.6939 109.414 49.6234 109.296 49.6234H105.405C105.287 49.6234 105.229 49.684 105.229 49.8166V50.849H104.454V49.4231C104.454 49.0211 104.606 48.8716 104.985 48.8716ZM108.697 48.8716V44.3906C108.701 44.3653 108.699 44.3394 108.691 44.315C108.684 44.2906 108.67 44.2683 108.652 44.2498C108.635 44.2313 108.613 44.217 108.588 44.2082C108.564 44.1994 108.538 44.1962 108.513 44.1988H106.845V44.763C106.845 46.1114 106.703 47.7559 105.992 48.8674L108.697 48.8716Z" fill="white"/>
<path d="M113.651 43.3408C114.451 43.3408 115.883 43.6821 115.883 44.6793V45.283H115.108V44.9332C115.108 44.417 114.266 44.1546 113.668 44.1546C112.473 44.1546 111.546 45.0912 111.546 46.4819C111.546 47.8288 112.481 48.9064 113.694 48.9064C114.048 48.9002 114.398 48.8219 114.721 48.6764C115.044 48.5308 115.333 48.3211 115.571 48.0601L116.026 48.6906C115.73 49.0148 115.369 49.2741 114.965 49.4518C114.562 49.6296 114.126 49.722 113.685 49.723C111.908 49.723 110.67 48.2971 110.67 46.479C110.67 44.6977 111.949 43.3408 113.651 43.3408Z" fill="white"/>
<path d="M117.088 44.3906C117.092 44.3653 117.09 44.3394 117.082 44.315C117.074 44.2906 117.061 44.2683 117.043 44.2498C117.025 44.2313 117.003 44.217 116.979 44.2082C116.955 44.1994 116.929 44.1962 116.903 44.1988H116.541V43.4414H117.393C117.773 43.4414 117.932 43.6078 117.932 44.0056V46.0451H118.501C118.72 46.0451 118.887 46.0098 118.988 45.8349L120.31 43.4456H121.25L119.81 46.0098C119.733 46.1698 119.618 46.3081 119.473 46.4118V46.4287C119.473 46.4287 119.641 46.4724 119.81 46.8138L120.703 48.6685C120.786 48.8518 120.921 48.8702 121.129 48.8702H121.29V49.6234H120.823C120.36 49.6234 120.184 49.5627 119.999 49.1593L118.971 47.0155C118.87 46.8138 118.687 46.7884 118.441 46.7884H117.936V49.6234H117.095L117.088 44.3906Z" fill="white"/>
<path d="M124.591 43.3408C126.308 43.3408 127.647 44.7146 127.647 46.4903C127.647 48.3098 126.308 49.7343 124.591 49.7343C122.874 49.7343 121.544 48.3168 121.544 46.4903C121.544 44.7104 122.874 43.3408 124.591 43.3408ZM124.591 48.9064C125.795 48.9064 126.772 47.857 126.772 46.4917C126.772 45.1702 125.795 44.1561 124.591 44.1561C123.387 44.1561 122.419 45.1716 122.419 46.4917C122.419 47.8556 123.382 48.9064 124.591 48.9064Z" fill="white"/>
<path d="M128.771 44.3902C128.774 44.3649 128.772 44.3391 128.765 44.3146C128.757 44.2902 128.743 44.2679 128.726 44.2494C128.708 44.2309 128.686 44.2167 128.662 44.2078C128.637 44.199 128.612 44.1958 128.586 44.1984H128.223V43.441H129.076C129.456 43.441 129.615 43.6075 129.615 44.0052V47.3902C129.615 47.74 129.565 48.2746 129.565 48.2746H129.582C129.582 48.2746 129.902 47.7104 130.112 47.3818L132.702 43.441H133.528V48.6737C133.525 48.699 133.527 48.7246 133.535 48.7488C133.543 48.7729 133.557 48.795 133.575 48.8134C133.592 48.8318 133.614 48.846 133.638 48.855C133.662 48.8641 133.687 48.8677 133.713 48.8656H134.076V49.6187H133.233C132.846 49.6187 132.685 49.4523 132.685 49.0546V45.6681C132.685 45.3268 132.737 44.7668 132.737 44.7668H132.719C132.719 44.7668 132.425 45.331 132.215 45.6681L129.605 49.6173H128.772L128.771 44.3902ZM129.874 42.0306V41.8994H130.53V42.0306C130.529 42.1075 130.543 42.1841 130.572 42.2554C130.601 42.3268 130.644 42.3915 130.7 42.4455C130.755 42.4995 130.821 42.5418 130.893 42.5696C130.965 42.5975 131.043 42.6104 131.12 42.6075C131.199 42.6116 131.279 42.5994 131.353 42.5715C131.427 42.5436 131.494 42.5006 131.55 42.4454C131.607 42.3902 131.651 42.3238 131.68 42.2507C131.709 42.1776 131.722 42.0992 131.719 42.0207V41.9065H132.367V42.0306C132.367 42.7485 131.777 43.1505 131.12 43.1505C130.464 43.1505 129.874 42.7541 129.874 42.0306Z" fill="white"/>
<path d="M139.963 43.3408C141.68 43.3408 143.019 44.7146 143.019 46.4903C143.019 48.3098 141.68 49.7343 139.963 49.7343C138.246 49.7343 136.916 48.3168 136.916 46.4903C136.916 44.7104 138.246 43.3408 139.963 43.3408ZM139.963 48.9064C141.167 48.9064 142.144 47.857 142.144 46.4917C142.144 45.1702 141.167 44.1561 139.963 44.1561C138.759 44.1561 137.791 45.1716 137.791 46.4917C137.791 47.8556 138.759 48.9064 139.963 48.9064Z" fill="white"/>
<path d="M144.135 44.1988H143.588V43.4414H147.065C147.444 43.4414 147.603 43.6078 147.603 44.0056V44.7841H146.836V44.3906C146.839 44.3653 146.837 44.3394 146.83 44.315C146.822 44.2906 146.808 44.2683 146.791 44.2498C146.773 44.2313 146.751 44.217 146.727 44.2082C146.703 44.1994 146.677 44.1962 146.651 44.1988H144.975V45.9802H146.078C147.073 45.9802 148.068 46.4795 148.068 47.7743C148.068 49.0169 147.167 49.6205 146.078 49.6205H144.681C144.301 49.6205 144.133 49.4541 144.133 49.0564L144.135 44.1988ZM145.163 48.8885H146.125C146.79 48.8885 147.202 48.4654 147.202 47.7954C147.202 47.1255 146.79 46.7193 146.125 46.7193H144.971V48.6939C144.966 48.7198 144.968 48.7464 144.976 48.7716C144.984 48.7967 144.997 48.8197 145.016 48.8386C145.034 48.8576 145.057 48.8719 145.082 48.8806C145.107 48.8893 145.133 48.892 145.16 48.8885H145.163Z" fill="white"/>
<path d="M148.345 48.8716C149.34 48.7305 149.701 47.392 149.701 44.8815V44.1988H149.146V43.4414H152.64C153.019 43.4414 153.178 43.6078 153.178 44.0056V48.6784C153.175 48.7036 153.178 48.7292 153.186 48.7534C153.194 48.7776 153.207 48.7996 153.225 48.818C153.242 48.8364 153.264 48.8506 153.288 48.8597C153.312 48.8687 153.338 48.8723 153.363 48.8702H153.726V49.6234H152.873C152.493 49.6234 152.334 49.4569 152.334 49.0592V44.3906C152.338 44.3653 152.336 44.3394 152.328 44.315C152.32 44.2906 152.307 44.2683 152.289 44.2498C152.271 44.2313 152.249 44.217 152.225 44.2082C152.201 44.1994 152.175 44.1962 152.149 44.1988H150.499V44.8899C150.499 47.8518 149.986 49.5712 148.344 49.6685L148.345 48.8716Z" fill="white"/>
<path d="M154.115 48.8718H154.233C154.265 48.8783 154.297 48.8785 154.329 48.8723C154.36 48.8661 154.39 48.8537 154.417 48.8358C154.443 48.8179 154.466 48.7949 154.483 48.7681C154.501 48.7413 154.512 48.7114 154.518 48.68L156.378 43.4473H157.263L159.123 48.68C159.129 48.7114 159.14 48.7413 159.158 48.7681C159.175 48.7949 159.198 48.8179 159.224 48.8358C159.251 48.8537 159.281 48.8661 159.312 48.8723C159.344 48.8785 159.376 48.8783 159.408 48.8718H159.526V49.625H159.062C158.636 49.625 158.506 49.5206 158.363 49.1172L157.916 47.8478H155.736L155.29 49.1172C155.147 49.5192 155.005 49.625 154.59 49.625H154.127L154.115 48.8718ZM157.702 47.1088L157.054 45.2272C156.953 44.9028 156.818 44.3612 156.818 44.3612H156.801C156.801 44.3612 156.674 44.9042 156.573 45.2272L155.925 47.1088H157.702Z" fill="white"/>
<path d="M162.689 43.3408C163.489 43.3408 164.92 43.6821 164.92 44.6793V45.283H164.146V44.9332C164.146 44.417 163.304 44.1546 162.706 44.1546C161.51 44.1546 160.583 45.0912 160.583 46.4819C160.583 47.8288 161.519 48.9064 162.731 48.9064C163.086 48.9002 163.435 48.8219 163.758 48.6764C164.081 48.5308 164.371 48.3211 164.609 48.0601L165.064 48.6906C164.767 49.0148 164.406 49.2741 164.003 49.4518C163.6 49.6296 163.164 49.722 162.723 49.723C160.946 49.723 159.708 48.2971 159.708 46.479C159.708 44.6977 160.987 43.3408 162.689 43.3408Z" fill="white"/>
<path d="M167.531 44.1985H166.344C166.218 44.1985 166.159 44.2591 166.159 44.3903V44.7838H165.402V43.97C165.402 43.5765 165.528 43.4453 165.906 43.4453H169.999C170.378 43.4453 170.503 43.5765 170.503 43.97V44.7838H169.754V44.3903C169.758 44.365 169.756 44.3391 169.748 44.3147C169.741 44.2903 169.727 44.268 169.709 44.2495C169.691 44.2309 169.67 44.2167 169.645 44.2079C169.621 44.1991 169.595 44.1958 169.57 44.1985H168.374V49.6244H167.533L167.531 44.1985Z" fill="white"/>
<path d="M171.448 44.3906C171.452 44.3653 171.45 44.3394 171.442 44.315C171.435 44.2906 171.421 44.2683 171.403 44.2498C171.386 44.2313 171.364 44.217 171.339 44.2082C171.315 44.1994 171.289 44.1962 171.264 44.1988H170.901V43.4414H171.754C172.134 43.4414 172.293 43.6078 172.293 44.0056V47.3906C172.293 47.7404 172.243 48.275 172.243 48.275H172.26C172.26 48.275 172.58 47.7108 172.79 47.3822L175.38 43.4414H176.205V48.6741C176.201 48.6994 176.204 48.725 176.212 48.7492C176.22 48.7733 176.233 48.7954 176.251 48.8138C176.269 48.8322 176.29 48.8464 176.314 48.8554C176.338 48.8645 176.364 48.868 176.389 48.8659H176.752V49.6191H175.91C175.524 49.6191 175.363 49.4527 175.363 49.0549V45.6685C175.363 45.3272 175.414 44.7672 175.414 44.7672H175.397C175.397 44.7672 175.103 45.3314 174.893 45.6685L172.283 49.6177H171.45L171.448 44.3906Z" fill="white"/>
<path d="M24.8327 69L24.4972 68.756C24.365 68.6587 11.0801 58.9238 4.7916 47.3173C-1.51823 35.6742 0.190354 10.079 0.267113 8.99436L0.295542 8.59238L24.8313 0L25.0175 0.0648801L49.3698 8.59238L49.3982 8.99436C49.4736 10.0776 51.1836 35.6742 44.8737 47.3188C38.5824 58.9252 25.3018 68.6615 25.1596 68.7588L24.8327 69ZM1.4057 9.48237C1.21096 12.8279 0.0894308 36.1693 5.8122 46.7179C11.4156 57.0578 22.7545 65.9238 24.8369 67.5078C26.935 65.9281 38.254 57.0592 43.8603 46.7179C49.5816 36.1608 48.4572 12.8209 48.2668 9.48237L24.8313 1.27927L1.4057 9.48237Z" fill="white"/>
<path d="M6.58535 34.6163C6.59057 34.5831 6.58803 34.5492 6.57791 34.5172C6.56779 34.4851 6.55037 34.4558 6.527 34.4316C6.50363 34.4073 6.47494 34.3887 6.44315 34.3772C6.41137 34.3657 6.37734 34.3616 6.34371 34.3652H5.87036V33.3779H6.98052C7.47518 33.3779 7.69124 33.5951 7.69124 34.1085V36.77H8.42756C8.71185 36.77 8.93359 36.7249 9.06579 36.4964L10.7914 33.3779H12.0224L10.1361 36.7291C10.0367 36.9384 9.88563 37.1194 9.69692 37.2552V37.2778C9.69692 37.2778 9.91724 37.3342 10.1361 37.7799L11.3017 40.1974C11.4112 40.4372 11.586 40.4597 11.8518 40.4597H12.0608V41.447H11.4553C10.8511 41.447 10.6194 41.3666 10.3778 40.842L9.03594 38.0437C8.90374 37.7813 8.6621 37.7461 8.34369 37.7461H7.68414V41.447H6.58535V34.6163Z" fill="white"/>
<path d="M13.6325 40.1974C13.8503 40.4108 14.1399 40.5368 14.4456 40.5514C14.9189 40.5514 15.1279 40.2312 15.3255 39.6487L12.9175 34.6163C12.895 34.5397 12.8468 34.4731 12.7809 34.4274C12.7149 34.3817 12.6353 34.3598 12.555 34.3652H12.3347V33.3779H13.0056C13.5231 33.3779 13.6766 33.5373 13.8969 34.0408L15.469 37.5246C15.6993 38.0267 15.8756 38.5119 15.8756 38.5119H15.8983C15.8983 38.5119 16.0305 38.0775 16.2281 37.5246L17.4491 34.0408C17.6353 33.5035 17.8116 33.3779 18.3617 33.3779H18.9558V34.3652H18.7796C18.6984 34.3516 18.6149 34.3687 18.5457 34.4131C18.4766 34.4575 18.4266 34.5259 18.4057 34.605L16.2949 40.1565C16.0205 40.8871 15.5358 41.5839 14.5792 41.5839C14.0455 41.5756 13.5318 41.3814 13.1279 41.0352L13.6325 40.1974Z" fill="white"/>
<path d="M20.1414 34.3652H19.4307V33.3779H25.4676C25.9622 33.3779 26.1783 33.5951 26.1783 34.1085V40.2087C26.1739 40.2417 26.1771 40.2753 26.1875 40.3069C26.1979 40.3386 26.2154 40.3675 26.2386 40.3916C26.2617 40.4157 26.2901 40.4343 26.3215 40.4461C26.3529 40.4579 26.3865 40.4625 26.42 40.4597H26.8933V41.447H25.7945C25.2885 41.447 25.0838 41.2298 25.0838 40.7164V34.6163C25.089 34.5831 25.0865 34.5492 25.0763 34.5172C25.0662 34.4851 25.0488 34.4558 25.0254 34.4316C25.0021 34.4073 24.9734 34.3887 24.9416 34.3772C24.9098 34.3657 24.8758 34.3616 24.8421 34.3652H21.2416V41.447H20.1414V34.3652Z" fill="white"/>
<path d="M28.3456 34.6163C28.3508 34.5831 28.3483 34.5492 28.3382 34.5172C28.328 34.4851 28.3106 34.4558 28.2873 34.4316C28.2639 34.4073 28.2352 34.3887 28.2034 34.3772C28.1716 34.3657 28.1376 34.3616 28.104 34.3652H27.6306V33.3779H28.7408C29.2354 33.3779 29.4515 33.5951 29.4515 34.1085V36.9294H33.3989V34.1085C33.3989 33.5951 33.6078 33.3779 34.1096 33.3779H35.2098V34.3652H34.7365C34.7028 34.3616 34.6688 34.3657 34.637 34.3772C34.6052 34.3887 34.5765 34.4073 34.5532 34.4316C34.5298 34.4558 34.5124 34.4851 34.5023 34.5172C34.4921 34.5492 34.4896 34.5831 34.4948 34.6163V41.447H33.3946V37.9068H29.4444V41.4485H28.3456V34.6163Z" fill="white"/>
<path d="M39.9345 33.3818C42.1036 33.3818 43.7952 35.1167 43.7952 37.3593C43.7952 39.6569 42.1036 41.4495 39.9345 41.4495C37.7654 41.4495 36.0852 39.6597 36.0852 37.3593C36.0852 35.1195 37.7654 33.3818 39.9345 33.3818ZM39.9345 40.4086C41.4555 40.4086 42.6893 39.0828 42.6893 37.3593C42.6893 35.6907 41.4555 34.41 39.9345 34.41C38.4135 34.41 37.1911 35.6921 37.1911 37.3593C37.1911 39.0828 38.4135 40.4086 39.9345 40.4086Z" fill="white"/>
<path d="M34.6697 48.043L24.8702 58.2856L14.9954 48.043H16.6457L24.8702 56.5719L33.0279 48.043H34.6697Z" fill="white"/>
<path d="M11.5101 48.043L24.8831 61.861L38.1467 48.043H39.7984L24.8831 63.5747L9.86401 48.043H11.5101Z" fill="white"/>
<path d="M20.1218 48.042H21.7949L24.8567 51.2155L27.8901 48.042H29.5418L24.8567 52.9292L20.1218 48.042Z" fill="white"/>
<path d="M24.834 48.0271L24.3891 47.446C23.222 46.1089 21.6485 45.3106 19.6386 45.3106H5.87036V44.1357H19.64C21.7437 44.1357 23.5604 44.8621 24.8311 46.195C26.0976 44.8621 27.9157 44.1357 30.0251 44.1357H43.7947V45.3106H30.0251C28.0351 45.3798 26.3222 46.068 25.276 47.4432L24.834 48.0271Z" fill="white"/>
<path d="M13.2501 24.0991H12.0817V28.0088H13.2487L13.2501 24.0991ZM19.3325 24.0991H18.1655V28.0088H19.3311L19.3325 24.0991ZM25.4149 24.0991H24.2479V28.0088H25.4149V24.0991ZM31.4973 24.0991H30.3303V28.0088H31.4973V24.0991ZM37.5797 24.0991H36.4127V28.0088H37.5797V24.0991ZM15.4221 15.0723V13.4348L24.8321 5.67735L34.2421 13.4348V15.0723H35.4092V12.8494L24.8321 4.13574L14.2551 12.8494V15.0723H34.2421M4.22388 24.0991V15.0723H45.4389V24.0991H44.2719V16.2852H40.6202V20.2077H39.4532V16.2852H34.5406V20.2077H33.3736V16.2852H28.4554V20.2077H27.2912V16.2852H22.373V20.2077H21.2074V16.2852H16.2906V20.2077H15.1236V16.2852H10.2096V20.2077H9.04261V16.2852H5.39089V24.0991H4.22388ZM5.39089 24.0991H10.0319C10.1812 22.7084 11.3198 21.6252 12.6972 21.6252C14.0746 21.6252 15.2089 22.7084 15.361 24.0991H16.0802C16.2295 22.7084 17.3681 21.6252 18.7455 21.6252C20.1228 21.6252 21.2614 22.7098 21.4107 24.0991H22.1669C22.3161 22.7084 23.4533 21.6238 24.8321 21.6238C26.2109 21.6238 27.3481 22.7084 27.4973 24.0977H28.2393C28.3886 22.707 29.5272 21.6238 30.9046 21.6238C32.282 21.6238 33.4205 22.7084 33.5698 24.0977H34.3416C34.4909 22.707 35.6295 21.6238 37.0069 21.6238C38.3843 21.6238 39.5157 22.7084 39.6707 24.0991H44.2733H45.4404V24.8988L43.5242 28.4757V30.6068H42.3586V28.1625L43.8853 25.3092H38.5207V24.4094C38.5296 24.2064 38.4969 24.0038 38.4248 23.8138C38.3526 23.6237 38.2425 23.4501 38.1009 23.3034C37.9593 23.1567 37.7893 23.0399 37.601 22.9602C37.4127 22.8804 37.2101 22.8393 37.0054 22.8393C36.8007 22.8393 36.5982 22.8804 36.4099 22.9602C36.2216 23.0399 36.0516 23.1567 35.91 23.3034C35.7684 23.4501 35.6583 23.6237 35.5861 23.8138C35.5139 24.0038 35.4813 24.2064 35.4902 24.4094V25.3092H32.4184V24.4094C32.4273 24.2064 32.3946 24.0038 32.3225 23.8138C32.2503 23.6237 32.1402 23.4501 31.9986 23.3034C31.857 23.1567 31.687 23.0399 31.4987 22.9602C31.3104 22.8804 31.1078 22.8393 30.9031 22.8393C30.6984 22.8393 30.4959 22.8804 30.3076 22.9602C30.1193 23.0399 29.9493 23.1567 29.8077 23.3034C29.6661 23.4501 29.556 23.6237 29.4838 23.8138C29.4116 24.0038 29.379 24.2064 29.3879 24.4094V25.3092H26.346V24.4094C26.3548 24.2064 26.3222 24.0038 26.25 23.8138C26.1779 23.6237 26.0677 23.4501 25.9261 23.3034C25.7845 23.1567 25.6145 23.0399 25.4262 22.9602C25.238 22.8804 25.0354 22.8393 24.8307 22.8393C24.626 22.8393 24.4234 22.8804 24.2351 22.9602C24.0469 23.0399 23.8768 23.1567 23.7353 23.3034C23.5937 23.4501 23.4835 23.6237 23.4114 23.8138C23.3392 24.0038 23.3066 24.2064 23.3154 24.4094V25.3092H20.2593V24.4094C20.2682 24.2064 20.2355 24.0038 20.1634 23.8138C20.0912 23.6237 19.981 23.4501 19.8395 23.3034C19.6979 23.1567 19.5278 23.0399 19.3396 22.9602C19.1513 22.8804 18.9487 22.8393 18.744 22.8393C18.5393 22.8393 18.3367 22.8804 18.1485 22.9602C17.9602 23.0399 17.7902 23.1567 17.6486 23.3034C17.507 23.4501 17.3968 23.6237 17.3247 23.8138C17.2525 24.0038 17.2199 24.2064 17.2288 24.4094V25.3092H14.2139V24.4094C14.2227 24.2064 14.1901 24.0038 14.1179 23.8138C14.0458 23.6237 13.9356 23.4501 13.794 23.3034C13.6524 23.1567 13.4824 23.0399 13.2941 22.9602C13.1059 22.8804 12.9033 22.8393 12.6986 22.8393C12.4939 22.8393 12.2913 22.8804 12.103 22.9602C11.9148 23.0399 11.7447 23.1567 11.6032 23.3034C11.4616 23.4501 11.3514 23.6237 11.2792 23.8138C11.2071 24.0038 11.1745 24.2064 11.1833 24.4094V25.3092H5.78179L7.30559 28.1625V30.6068H6.14V28.4757L4.22388 24.9002V24.0991H5.39089Z" fill="white"/>
</g>
<defs>
<clipPath id="clip0_415_4793">
<rect width="196" height="69" fill="white"/>
</clipPath>
</defs>
</svg>
