<svg width="89" height="89" viewBox="0 0 89 89" fill="none" xmlns="http://www.w3.org/2000/svg">
<path fill-rule="evenodd" clip-rule="evenodd" d="M43.973 38.4605C40.7402 38.4605 38.1194 41.0812 38.1194 44.3141C38.1194 47.547 40.7402 50.1677 43.973 50.1677C47.2059 50.1677 49.8266 47.547 49.8266 44.3141C49.8266 41.0812 47.2059 38.4605 43.973 38.4605ZM34.0586 44.3141C34.0586 38.8385 38.4974 34.3997 43.973 34.3997C49.4486 34.3997 53.8875 38.8385 53.8875 44.3141C53.8875 49.7897 49.4486 54.2285 43.973 54.2285C38.4974 54.2285 34.0586 49.7897 34.0586 44.3141Z" fill="#A9B0F4"/>
<path fill-rule="evenodd" clip-rule="evenodd" d="M43.9729 60.0105C39.1151 60.0105 34.8253 62.4444 32.2567 66.1685C31.62 67.0916 30.3556 67.3238 29.4325 66.6871C28.5094 66.0505 28.2772 64.786 28.9139 63.8629C32.208 59.0868 37.7238 55.9497 43.9729 55.9497C50.2219 55.9497 55.7378 59.0868 59.0317 63.863C59.6684 64.7861 59.4361 66.0505 58.513 66.6872C57.5899 67.3238 56.3254 67.0916 55.6888 66.1684C53.1205 62.4444 48.8307 60.0105 43.9729 60.0105Z" fill="#A9B0F4"/>
<path fill-rule="evenodd" clip-rule="evenodd" d="M63.3253 26.6747C61.2139 26.6747 59.5022 28.3863 59.5022 30.4977C59.5022 32.6092 61.2139 34.3208 63.3253 34.3208C65.4367 34.3208 67.1484 32.6091 67.1484 30.4977C67.1484 28.3863 65.4367 26.6747 63.3253 26.6747ZM55.4414 30.4977C55.4414 26.1436 58.9711 22.6138 63.3253 22.6138C67.6795 22.6138 71.2092 26.1436 71.2092 30.4977C71.2092 34.8519 67.6795 38.3816 63.3253 38.3816C58.9711 38.3816 55.4414 34.8519 55.4414 30.4977Z" fill="#A9B0F4"/>
<path fill-rule="evenodd" clip-rule="evenodd" d="M57.3433 41.9612C59.177 41.1604 61.2007 40.7174 63.3223 40.7174C68.4339 40.7174 72.9456 43.2841 75.6393 47.1897C76.2759 48.1128 76.0437 49.3772 75.1206 50.0139C74.1975 50.6506 72.9331 50.4184 72.2964 49.4953C70.3283 46.6416 67.0427 44.7783 63.3223 44.7783C61.7702 44.7783 60.2991 45.1016 58.9686 45.6827C57.9409 46.1315 56.744 45.6622 56.2952 44.6346C55.8464 43.6069 56.3157 42.41 57.3433 41.9612Z" fill="#A9B0F4"/>
<path fill-rule="evenodd" clip-rule="evenodd" d="M24.077 26.5191C26.1885 26.5191 27.9001 28.2307 27.9001 30.3422C27.9001 32.4536 26.1885 34.1652 24.077 34.1652C21.9656 34.1652 20.254 32.4536 20.254 30.3422C20.254 28.2307 21.9656 26.5191 24.077 26.5191ZM31.9609 30.3422C31.9609 25.988 28.4312 22.4583 24.077 22.4583C19.7229 22.4583 16.1931 25.988 16.1931 30.3422C16.1931 34.6963 19.7229 38.2261 24.077 38.2261C28.4312 38.2261 31.9609 34.6963 31.9609 30.3422Z" fill="#A9B0F4"/>
<path fill-rule="evenodd" clip-rule="evenodd" d="M24.0787 44.6226C20.3582 44.6226 17.0726 46.4859 15.1044 49.3396C14.4677 50.2627 13.2032 50.4949 12.2801 49.8582C11.357 49.2215 11.1249 47.9571 11.7615 47.034C14.4553 43.1283 18.9669 40.5617 24.0787 40.5617C26.2004 40.5617 28.2239 41.005 30.0573 41.8054C31.085 42.2541 31.5544 43.451 31.1057 44.4787C30.657 45.5064 29.4602 45.9757 28.4325 45.527C27.1017 44.946 25.6305 44.6226 24.0787 44.6226Z" fill="#A9B0F4"/>
</svg>
