<svg width="89" height="89" viewBox="0 0 89 89" fill="none" xmlns="http://www.w3.org/2000/svg">
<path d="M53 44C53 51.732 50.0447 58 43.4999 58C36.9551 58 34 51.732 34 44C34 36.268 36.9551 30 43.4999 30C50.0447 30 53 36.268 53 44Z" stroke="#A9B0F4" stroke-width="4"/>
<path d="M79 44C79 51.732 76.0449 58 69.5001 58C62.9551 58 60 51.732 60 44C60 36.268 62.9551 30 69.5001 30C76.0449 30 79 36.268 79 44Z" stroke="#A9B0F4" stroke-width="4"/>
<path d="M17.9164 44.03C17.9164 44.03 10 45.3868 10 50.9329C10 55.3822 12.7314 58 17.9164 58C23.4289 58 27 55.7638 27 51.7681C27 43.2047 11.7959 44.8976 11.7959 36.7617C11.7959 31.8857 15.7718 30.0174 18.4644 30.0002C22.1468 29.9767 25.664 32.3125 25.664 36.7617C25.664 41.6296 17.9164 44.03 17.9164 44.03Z" stroke="#A9B0F4" stroke-width="4"/>
</svg>
