<svg width="89" height="89" viewBox="0 0 89 89" fill="none" xmlns="http://www.w3.org/2000/svg">
<path d="M51.2046 17.071C50.0265 17.071 49.0715 18.026 49.0715 19.2041C49.0715 20.3819 50.0265 21.3371 51.2046 21.3371V17.071ZM36.9932 21.3371C38.1713 21.3371 39.1263 20.3819 39.1263 19.2041C39.1263 18.026 38.1713 17.071 36.9932 17.071V21.3371ZM35.71 54.3217C34.5319 54.3217 33.5769 55.2767 33.5769 56.4548C33.5769 57.6329 34.5319 58.5878 35.71 58.5878V54.3217ZM53.263 58.5878C54.4411 58.5878 55.3961 57.6329 55.3961 56.4548C55.3961 55.2767 54.4411 54.3217 53.263 54.3217V58.5878ZM35.71 61.3399C34.5319 61.3399 33.5769 62.2949 33.5769 63.473C33.5769 64.6511 34.5319 65.6061 35.71 65.6061V61.3399ZM53.263 65.6061C54.4411 65.6061 55.3961 64.6511 55.3961 63.473C55.3961 62.2949 54.4411 61.3399 53.263 61.3399V65.6061ZM63.6797 21.3371V71.4997H67.9458V21.3371H63.6797ZM63.6797 71.4997H25.2583V75.7659H63.6797V71.4997ZM25.2583 71.4997V21.3371H20.9922V71.4997H25.2583ZM51.2046 21.3371H63.6797V17.071H51.2046V21.3371ZM25.2583 21.3371H36.9932V17.071H25.2583V21.3371ZM37.3887 32.6552V35.6338H41.6548V32.6552H37.3887ZM51.5414 35.6338V32.6552H47.2753V35.6338H51.5414ZM43.9302 42.7289H45.0428V38.4627H43.9302V42.7289ZM35.71 58.5878H53.263V54.3217H35.71V58.5878ZM35.71 65.6061H53.263V61.3399H35.71V65.6061ZM51.5414 32.6552C51.5414 28.7472 48.3732 25.579 44.4652 25.579V29.8451C46.0172 29.8451 47.2753 31.1032 47.2753 32.6552H51.5414ZM47.2753 35.6338C47.2753 37.1859 46.0172 38.4442 44.4652 38.4442V42.7103C48.3732 42.7103 51.5414 39.5421 51.5414 35.6338H47.2753ZM37.3887 35.6338C37.3887 39.5421 40.5569 42.7103 44.4652 42.7103V38.4442C42.9131 38.4442 41.6548 37.1859 41.6548 35.6338H37.3887ZM25.2583 71.4997H20.9922C20.9922 73.8557 22.9021 75.7659 25.2583 75.7659V71.4997ZM45.0428 42.7289C48.4045 42.7289 51.13 45.4541 51.13 48.816H55.3961C55.3961 43.0981 50.7607 38.4627 45.0428 38.4627V42.7289ZM63.6797 71.4997V75.7659C66.0359 75.7659 67.9458 73.8557 67.9458 71.4997H63.6797ZM41.6548 32.6552C41.6548 31.1032 42.9131 29.8451 44.4652 29.8451V25.579C40.5569 25.579 37.3887 28.7472 37.3887 32.6552H41.6548ZM37.843 48.816C37.843 45.4541 40.5685 42.7289 43.9302 42.7289V38.4627C38.2123 38.4627 33.5769 43.0981 33.5769 48.816H37.843ZM67.9458 21.3371C67.9458 18.9809 66.0359 17.071 63.6797 17.071V21.3371H67.9458ZM25.2583 21.3371V17.071C22.9021 17.071 20.9922 18.9809 20.9922 21.3371H25.2583Z" fill="#A9B0F4"/>
<path fill-rule="evenodd" clip-rule="evenodd" d="M34.8203 18.2661C34.8203 15.91 36.7303 14 39.0865 14H49.8456C52.2017 14 54.1118 15.91 54.1118 18.2661V20.1422C54.1118 22.4983 52.2017 24.4083 49.8456 24.4083H39.0865C36.7303 24.4083 34.8203 22.4983 34.8203 20.1422V18.2661ZM49.8456 18.2661H39.0865V20.1422H49.8456V18.2661Z" fill="#A9B0F4"/>
</svg>
