<svg width="89" height="89" viewBox="0 0 89 89" fill="none" xmlns="http://www.w3.org/2000/svg">
<path d="M66.1793 60.9223C58.703 58.7676 45.1387 57.0031 34.9568 55.8921M34.9568 55.8921C34.9568 55.8921 40.9541 64.7541 40.4083 69.3545C40.0637 72.2588 36.4294 72.646 33.4844 71.1292C32.6424 66.7177 28.173 57.1237 27.0155 55.1725M34.9568 55.8921C33.4638 55.7293 31.5245 55.565 29.808 55.4192M54.5247 17.3055C48.6191 24.6636 34.9382 34.5938 26.4735 40.3967M26.4735 40.3967C22.9615 42.8043 20.3475 44.5014 19.5587 45.0096C19.394 45.116 19.2089 45.2125 19.1312 45.396C18.9565 45.8091 18.8243 46.9589 19.6426 50.1294C20.404 53.0792 21.0358 54.0905 21.4028 54.4344C21.5954 54.6147 21.8798 54.6247 22.1381 54.6562C22.7639 54.7325 24.2168 54.8992 27.0155 55.1725M26.4735 40.3967C25.6479 46.0401 28.3526 52.7633 29.808 55.4192M53.9366 34.8665C54.2799 36.6519 54.699 38.5044 55.1875 40.3967C55.6758 42.289 56.2054 44.1115 56.7678 45.8368M53.9366 34.8665C52.035 24.9832 52.4494 17.1676 56.2327 16.1317C60.6993 14.9087 66.2212 22.2449 69.8685 36.3768C73.5158 50.5089 72.2598 59.701 67.7932 60.924C64.0099 61.9599 59.8822 55.3881 56.7678 45.8368M53.9366 34.8665C55.8193 34.5214 59.7956 34.9556 60.6386 39.4544C61.4818 43.9532 58.4094 45.5839 56.7678 45.8368M27.0155 55.1725C27.7509 55.2445 28.736 55.3283 29.808 55.4192" stroke="#A9B0F4" stroke-width="4"/>
</svg>
