<svg width="89" height="89" viewBox="0 0 89 89" fill="none" xmlns="http://www.w3.org/2000/svg">
<path fill-rule="evenodd" clip-rule="evenodd" d="M45.1834 16.4444C29.9775 16.4444 17.6507 28.7712 17.6507 43.977C17.6507 59.1829 29.9775 71.5097 45.1834 71.5097C60.3892 71.5097 72.716 59.1829 72.716 43.977C72.716 28.7712 60.3892 16.4444 45.1834 16.4444ZM13.543 43.977C13.543 26.5025 27.7089 12.3366 45.1834 12.3366C62.6579 12.3366 76.8238 26.5025 76.8238 43.977C76.8238 61.4516 62.6579 75.6174 45.1834 75.6174C27.7089 75.6174 13.543 61.4516 13.543 43.977Z" fill="#A9B0F4"/>
<path fill-rule="evenodd" clip-rule="evenodd" d="M45.1828 13.3141C46.3171 13.3141 47.2367 14.2336 47.2367 15.368V18.2824C47.2367 19.4167 46.3171 20.3363 45.1828 20.3363C44.0485 20.3363 43.1289 19.4167 43.1289 18.2824V15.368C43.1289 14.2336 44.0485 13.3141 45.1828 13.3141ZM45.1828 68.67C46.3171 68.67 47.2367 69.5896 47.2367 70.7239V72.9651C47.2367 74.0994 46.3171 75.019 45.1828 75.019C44.0485 75.019 43.1289 74.0994 43.1289 72.9651V70.7239C43.1289 69.5896 44.0485 68.67 45.1828 68.67Z" fill="#A9B0F4"/>
<path fill-rule="evenodd" clip-rule="evenodd" d="M14.332 44.1667C14.332 43.0324 15.2516 42.1128 16.3859 42.1128H19.3004C20.4347 42.1128 21.3542 43.0324 21.3542 44.1667C21.3542 45.301 20.4347 46.2206 19.3004 46.2206H16.3859C15.2516 46.2206 14.332 45.301 14.332 44.1667ZM69.688 44.1667C69.688 43.0324 70.6075 42.1128 71.7418 42.1128H73.983C75.1173 42.1128 76.0369 43.0324 76.0369 44.1667C76.0369 45.301 75.1173 46.2206 73.983 46.2206H71.7418C70.6075 46.2206 69.688 45.301 69.688 44.1667Z" fill="#A9B0F4"/>
<path fill-rule="evenodd" clip-rule="evenodd" d="M60.5462 35.5274C60.9478 36.223 60.9071 37.0888 60.442 37.7436L49.6503 52.9382C49.3043 53.4254 48.7634 53.7377 48.1685 53.7937L29.6138 55.5422C28.8141 55.6176 28.0439 55.2199 27.6424 54.5243C27.2408 53.8288 27.2815 52.9629 27.7465 52.3081L38.538 37.1135C38.884 36.6264 39.425 36.314 40.0199 36.258L58.5748 34.5095C59.3744 34.4342 60.1446 34.8318 60.5462 35.5274ZM40.034 42.1012L33.6912 51.032L44.5969 50.0044L40.034 42.1012ZM48.1544 47.9505L43.5914 40.0474L54.4973 39.0197L48.1544 47.9505Z" fill="#A9B0F4"/>
</svg>
