<svg width="89" height="89" viewBox="0 0 89 89" fill="none" xmlns="http://www.w3.org/2000/svg">
<path fill-rule="evenodd" clip-rule="evenodd" d="M39.3187 38.3568L36.959 44.7569L38.1496 45.1427C38.1493 45.1426 38.15 45.1428 38.1496 45.1427C38.15 45.1428 38.1515 45.1433 38.1518 45.1434C39.2457 45.4977 39.9812 46.4998 39.9812 47.6257L39.981 71.6429L50.0511 71.6429L51.4001 67.8926C49.4346 67.6257 47.9217 65.9711 47.9217 63.9706V38.3571L39.3187 38.3568ZM35.1407 36.8753C35.777 35.1493 37.4477 34 39.3186 34H47.9217C50.375 34 52.3644 35.9506 52.3644 38.3571V63.5925C54.9294 63.839 56.6476 66.4006 55.7668 68.8499L54.2409 73.0924C53.614 74.8347 51.935 76 50.0511 76H39.981C37.5277 76 35.5383 74.0494 35.5383 71.6429L35.5385 48.8853L33.8302 48.3317C32.407 47.8699 31.6486 46.3465 32.1596 44.9605M32.1596 44.9605L35.1407 36.8753C35.1407 36.8754 35.1407 36.8753 35.1407 36.8753" fill="#A9B0F4"/>
<path fill-rule="evenodd" clip-rule="evenodd" d="M44.4948 17.4914C42.2823 17.4914 40.4887 19.2861 40.4887 21.5C40.4887 23.7139 42.2823 25.5086 44.4948 25.5086H44.5052C46.7177 25.5086 48.5113 23.7139 48.5113 21.5C48.5113 19.2861 46.7177 17.4914 44.5052 17.4914H44.4948ZM36 21.5C36 16.8056 39.8033 13 44.4948 13H44.5052C49.1967 13 53 16.8056 53 21.5C53 26.1944 49.1967 30 44.5052 30H44.4948C39.8033 30 36 26.1944 36 21.5Z" fill="#A9B0F4"/>
</svg>
