<svg width="54" height="54" viewBox="0 0 54 54" fill="none" xmlns="http://www.w3.org/2000/svg">
<circle cx="27" cy="27" r="27" fill="#A9B0F4"/>
<path d="M12.6999 25.4366C14.4464 27.8137 16.1897 30.1927 17.9297 32.5735C20.0012 35.3977 22.0822 38.2113 24.1392 41.0463C24.3073 41.322 24.5473 41.5467 24.8333 41.6965C25.1193 41.8462 25.4406 41.9153 25.7626 41.8963C25.8786 41.8935 25.9947 41.8971 26.1103 41.9071C26.4688 41.9571 26.8336 41.8878 27.1483 41.7098C27.4631 41.5318 27.7103 41.255 27.8518 40.9223C29.9033 37.0231 31.9755 33.1329 34.0373 29.2383C36.038 25.4602 38.0385 21.6804 40.039 17.899C40.1545 17.6759 40.2087 17.4261 40.1959 17.1751C40.1832 16.924 40.1041 16.6807 39.9667 16.47C39.8292 16.2593 39.6384 16.0887 39.4136 15.9757C39.1888 15.8627 38.9382 15.8113 38.6873 15.8268C38.4482 15.8449 38.2177 15.9232 38.0173 16.0544C37.8168 16.1856 37.653 16.3655 37.5409 16.5773L26.7688 36.9213C26.4829 37.4604 26.1971 37.9994 25.8838 38.5852C25.7619 38.4336 25.6676 38.3256 25.5828 38.2071L21.7201 32.9279L16.0934 25.275C15.7001 24.7337 15.3118 24.192 14.9087 23.6562C14.7569 23.4392 14.5475 23.2687 14.3042 23.1641C14.0609 23.0595 13.7933 23.0248 13.5316 23.0641C13.2873 23.0917 13.0557 23.1865 12.8623 23.3381C12.669 23.4896 12.5217 23.6919 12.4367 23.9224C12.3402 24.1748 12.3137 24.4488 12.36 24.7153C12.4064 24.9819 12.5238 25.2311 12.6999 25.4366Z" fill="white"/>
</svg>
