<svg width="43" height="36" viewBox="0 0 43 36" fill="none" xmlns="http://www.w3.org/2000/svg">
<path d="M26.7922 31.9936C28.9944 30.2406 31.1985 28.4906 33.4044 26.7438C36.0209 24.6644 38.6271 22.5762 41.2544 20.5105C41.5108 20.3404 41.7167 20.1025 41.8502 19.8223C41.9837 19.5421 42.0396 19.2302 42.0119 18.9201C42.0059 18.8083 42.0058 18.6962 42.0118 18.5844C42.0485 18.2371 41.9718 17.8872 41.7936 17.5887C41.6153 17.2902 41.3455 17.0596 41.0256 16.9327C37.2663 15.0657 33.5148 13.1784 29.7593 11.3013C26.1163 9.47983 22.4717 7.65851 18.8255 5.83733C18.6105 5.73232 18.3719 5.68726 18.1342 5.70672C17.8965 5.72619 17.6681 5.80949 17.4724 5.94813C17.2766 6.08677 17.1206 6.27577 17.0201 6.49583C16.9197 6.7159 16.8784 6.95915 16.9006 7.20074C16.9249 7.43085 17.0061 7.65096 17.1365 7.84056C17.267 8.03015 17.4425 8.18306 17.6467 8.28504L37.2635 18.0923C37.7833 18.3526 38.303 18.6128 38.868 18.8983C38.7278 19.0202 38.6283 19.1142 38.5185 19.1994L33.6271 23.0772L26.5374 28.7247C26.0357 29.1197 25.5336 29.5098 25.0375 29.914C24.8362 30.0667 24.6808 30.2735 24.5888 30.5113C24.4969 30.749 24.4721 31.0081 24.5171 31.2595C24.5506 31.4943 24.6475 31.7151 24.797 31.8972C24.9465 32.0793 25.1427 32.2156 25.3639 32.291C25.6062 32.3769 25.8668 32.3945 26.1182 32.3422C26.3696 32.2898 26.6025 32.1694 26.7922 31.9936Z" fill="black"/>
<rect y="17.4484" width="42.0851" height="2.67605" rx="1.33802" fill="black"/>
</svg>
