<svg width="73" height="58" viewBox="0 0 73 58" fill="none" xmlns="http://www.w3.org/2000/svg">
<path d="M45.17 52.1894C48.8828 49.2844 52.5988 46.3845 56.3179 43.4898C60.7292 40.0439 65.1232 36.5835 69.5526 33.1602C69.9848 32.8784 70.3321 32.4842 70.5571 32.0198C70.7822 31.5555 70.8764 31.0386 70.8298 30.5248C70.8195 30.3395 70.8194 30.1538 70.8295 29.9684C70.8914 29.393 70.7621 28.8131 70.4617 28.3184C70.1612 27.8237 69.7062 27.4417 69.1669 27.2314C62.8289 24.1374 56.504 21.01 50.1725 17.8993C44.0305 14.8809 37.8858 11.8627 31.7385 8.84475C31.376 8.67074 30.9739 8.59606 30.5731 8.62832C30.1723 8.66057 29.7872 8.79862 29.4572 9.02836C29.1273 9.2581 28.8642 9.57131 28.6948 9.93599C28.5254 10.3007 28.4559 10.7038 28.4933 11.1041C28.5343 11.4854 28.6711 11.8502 28.891 12.1644C29.1109 12.4786 29.4068 12.732 29.7511 12.901L62.8242 29.153C63.7005 29.5843 64.5768 30.0156 65.5293 30.4886C65.293 30.6907 65.1252 30.8465 64.94 30.9877L56.6934 37.4137L44.7404 46.7724C43.8946 47.4269 43.0481 48.0734 42.2117 48.7433C41.8723 48.9963 41.6103 49.3391 41.4553 49.733C41.3003 50.127 41.2584 50.5564 41.3344 50.9728C41.3908 51.362 41.5542 51.7278 41.8062 52.0296C42.0582 52.3315 42.3891 52.5574 42.762 52.6823C43.1705 52.8246 43.6099 52.8539 44.0338 52.7671C44.4576 52.6804 44.8502 52.4808 45.17 52.1894Z" fill="white"/>
<rect y="28.0857" width="70.9535" height="4.43459" rx="2.2173" fill="white"/>
</svg>
