<svg width="27" height="29" viewBox="0 0 27 29" fill="none" xmlns="http://www.w3.org/2000/svg">
<path d="M10.9059 27.6288C13.2283 25.8103 15.5528 23.995 17.8791 22.1829C20.6385 20.0258 23.3871 17.8596 26.1578 15.7166C26.4281 15.5402 26.6454 15.2935 26.7863 15.003C26.9272 14.7126 26.9864 14.3893 26.9576 14.068C26.9513 13.9522 26.9513 13.836 26.9577 13.7202C26.9967 13.3603 26.9162 12.9978 26.7287 12.6886C26.5411 12.3795 26.2569 12.1409 25.92 12.0096C21.9598 10.0785 18.008 8.12655 14.052 6.185C10.2143 4.30104 6.37506 2.41723 2.53412 0.533564C2.30763 0.42496 2.05628 0.378485 1.80573 0.398877C1.55518 0.419269 1.31442 0.505803 1.10802 0.64964C0.90162 0.793477 0.736982 0.989463 0.630919 1.21759C0.524856 1.44571 0.481168 1.6978 0.504315 1.94811C0.5297 2.18652 0.615018 2.41452 0.752321 2.61086C0.889624 2.8072 1.07444 2.96547 1.28955 3.07095L21.9541 13.2147C22.5016 13.4839 23.0492 13.7531 23.6443 14.0483C23.4965 14.1748 23.3915 14.2723 23.2757 14.3607L18.1172 18.3834L10.6404 24.2419C10.1113 24.6516 9.58181 25.0564 9.05862 25.4757C8.8463 25.634 8.68234 25.8485 8.58523 26.095C8.48811 26.3414 8.4617 26.6099 8.50899 26.8703C8.54403 27.1136 8.64593 27.3422 8.80331 27.5308C8.96069 27.7194 9.16738 27.8605 9.40038 27.9384C9.65569 28.0271 9.93034 28.0452 10.1953 27.9907C10.4603 27.9362 10.7058 27.8112 10.9059 27.6288Z" fill="white"/>
</svg>
