<svg width="27" height="29" viewBox="0 0 27 29" fill="none" xmlns="http://www.w3.org/2000/svg">
<path d="M16.0941 27.6288C13.7717 25.8103 11.4472 23.995 9.12086 22.1829C6.36146 20.0258 3.61294 17.8596 0.842243 15.7166C0.571907 15.5402 0.354609 15.2935 0.213691 15.003C0.0727718 14.7126 0.01356 14.3893 0.0424154 14.068C0.0487355 13.9522 0.0486951 13.836 0.0422914 13.7202C0.00327735 13.3603 0.0837584 12.9978 0.271317 12.6886C0.458875 12.3795 0.743075 12.1409 1.08003 12.0096C5.04017 10.0785 8.99204 8.12655 12.948 6.185C16.7857 4.30104 20.6249 2.41723 24.4659 0.533564C24.6924 0.42496 24.9437 0.378485 25.1943 0.398877C25.4448 0.419269 25.6856 0.505803 25.892 0.64964C26.0984 0.793477 26.263 0.989463 26.3691 1.21759C26.4751 1.44571 26.5188 1.6978 26.4957 1.94811C26.4703 2.18652 26.385 2.41452 26.2477 2.61086C26.1104 2.8072 25.9256 2.96547 25.7105 3.07095L5.04587 13.2147C4.49835 13.4839 3.95084 13.7531 3.3557 14.0483C3.50353 14.1748 3.6085 14.2723 3.72434 14.3607L8.88276 18.3834L16.3596 24.2419C16.8887 24.6516 17.4182 25.0564 17.9414 25.4757C18.1537 25.634 18.3177 25.8485 18.4148 26.095C18.5119 26.3414 18.5383 26.6099 18.491 26.8703C18.456 27.1136 18.3541 27.3422 18.1967 27.5308C18.0393 27.7194 17.8326 27.8605 17.5996 27.9384C17.3443 28.0271 17.0697 28.0452 16.8047 27.9907C16.5397 27.9362 16.2942 27.8112 16.0941 27.6288Z" fill="white"/>
</svg>
