<svg width="43" height="35" viewBox="0 0 43 35" fill="none" xmlns="http://www.w3.org/2000/svg">
<path fill-rule="evenodd" clip-rule="evenodd" d="M0 2.91665C0 1.30583 1.28345 0 2.86667 0H40.1333C41.7165 0 43 1.30583 43 2.91665C43 4.52747 41.7165 5.8333 40.1333 5.8333H2.86667C1.28345 5.8333 0 4.52747 0 2.91665ZM0 17.4997C0 15.8889 1.28345 14.5831 2.86667 14.5831H40.1333C41.7165 14.5831 43 15.8889 43 17.4997C43 19.1105 41.7165 20.4164 40.1333 20.4164H2.86667C1.28345 20.4164 0 19.1105 0 17.4997ZM2.86667 29.1666C1.28345 29.1666 0 30.4725 0 32.0833C0 33.6941 1.28345 34.9999 2.86667 34.9999H40.1333C41.7165 34.9999 43 33.6941 43 32.0833C43 30.4725 41.7165 29.1666 40.1333 29.1666H2.86667Z" fill="white"/>
</svg>
