<svg width="142" height="67" viewBox="0 0 142 67" fill="none" xmlns="http://www.w3.org/2000/svg">
<g clip-path="url(#clip0_501_4684)">
<mask id="mask0_501_4684" style="mask-type:luminance" maskUnits="userSpaceOnUse" x="0" y="0" width="142" height="67">
<path d="M142 0H0V67H142V0Z" fill="white"/>
</mask>
<g mask="url(#mask0_501_4684)">
<path d="M48.6326 33.3749C48.4982 32.599 48.3592 31.8231 48.2217 31.0472C47.898 29.2438 48.1041 30.5167 47.8506 28.6767C47.4138 25.4755 47.0213 22.1218 46.6548 18.413C46.4608 16.4496 46.3188 14.4496 46.1829 12.5075C46.1177 11.5746 46.0505 10.6427 45.9813 9.71179C45.9675 9.53648 45.9553 9.35965 45.9431 9.18282C45.9049 8.62185 45.8652 8.04105 45.7751 7.47093C45.6545 6.71941 45.039 6.15386 44.2097 6.03343C43.8322 5.96816 43.4437 6.02604 43.1018 6.19847C42.7599 6.37091 42.4827 6.64873 42.3114 6.99075C42.1339 7.373 42.0412 7.78897 42.0395 8.21026C42.0472 9.6249 42.0701 11.0639 42.0945 12.4542C42.1067 13.1808 42.1179 13.9084 42.1281 14.6371V14.7011C42.142 15.1586 42.1329 15.6165 42.1006 16.0731C41.8593 18.7789 41.1598 21.4008 40.5734 23.381C39.9182 25.6081 39.1561 27.3185 38.1741 28.7621C37.5342 29.7026 36.7202 30.7438 35.5412 31.3978C34.6111 31.9084 33.9315 31.8032 33.1984 31.038C32.4653 30.2728 32.0881 29.349 31.8041 28.5365C31.1229 26.5837 30.7976 24.4206 30.7808 21.7362C30.7518 17.3962 31.1535 13.849 32.0423 10.5715C32.3309 9.51209 31.8346 8.53496 30.8343 8.19959C29.866 7.87185 28.8489 8.3627 28.435 9.36422C28.3525 9.55935 28.2823 9.75904 28.209 9.95569C27.2765 12.7169 26.7367 15.5951 26.6054 18.506C26.4129 22.1203 26.6054 25.0609 27.1979 27.7651C27.7462 30.2499 28.522 32.0075 29.7102 33.4603C31.1886 35.2667 32.98 36.0914 35.0402 35.9084C36.4529 35.7834 37.7893 35.1722 39.1195 34.038C40.5367 32.8337 41.7158 31.2941 42.7329 29.349C42.9818 28.8703 43.2063 28.3886 43.4446 27.881C43.5525 28.5568 43.6614 29.2316 43.7714 29.9054C44.1181 32.0548 43.9379 31.1401 44.3197 33.3215C44.4656 34.2269 44.722 35.111 45.0833 35.9542C45.2295 36.3007 45.4751 36.5964 45.7892 36.8039C46.1034 37.0114 46.472 37.1215 46.8488 37.1203C47.0616 37.1192 47.2731 37.0868 47.4765 37.0243C48.4371 36.7286 48.9915 35.852 48.8891 34.7895C48.856 34.487 48.805 34.1867 48.7364 33.8901C48.6998 33.7209 48.6631 33.5456 48.6341 33.3749" fill="white"/>
<path d="M141.726 32.9266C141.592 32.1522 140.372 24.1827 140.005 20.4708C139.81 18.5059 139.669 16.4998 139.533 14.5592C139.468 13.6278 139.402 12.6979 139.33 11.7681L139.293 11.2376C139.255 10.6766 139.216 10.0943 139.124 9.52568C139.003 8.77263 138.389 8.20861 137.558 8.08665C137.181 8.02139 136.792 8.07926 136.451 8.25169C136.109 8.42413 135.831 8.70195 135.66 9.04397C135.483 9.42635 135.39 9.84224 135.388 10.2635C135.388 11.6796 135.419 13.1187 135.443 14.5104C135.455 15.2381 135.467 15.9652 135.477 16.6918V16.7528C135.492 17.2103 135.483 17.6682 135.451 18.1248C135.21 20.8306 134.509 23.4601 133.924 25.4418C133.268 27.669 132.505 29.3793 131.523 30.8229C130.883 31.7635 130.069 32.8046 128.89 33.4601C127.958 33.9708 127.279 33.8656 126.546 33.0989C125.813 32.3321 125.434 31.4113 125.151 30.5988C124.47 28.6446 124.143 26.483 124.127 23.7955C124.097 19.454 124.499 15.9053 125.39 12.6278C125.677 11.5607 125.18 10.5897 124.181 10.2528C123.212 9.92659 122.196 10.4159 121.779 11.419C121.697 11.6156 121.626 11.8138 121.555 12.0104C120.621 14.7725 120.082 17.6518 119.951 20.5638C119.759 24.1796 119.951 27.1187 120.544 29.826C121.092 32.3123 121.866 34.0699 123.056 35.5242C124.534 37.3306 126.327 38.1553 128.387 37.9723C129.802 37.8473 131.136 37.236 132.468 36.1019C133.885 34.8961 135.065 33.358 136.083 31.4098C136.332 30.9327 136.558 30.451 136.795 29.9418C136.905 30.6156 137.03 30.6903 137.406 32.8732C137.551 33.7791 137.808 34.6638 138.169 35.5074C138.316 35.8541 138.562 36.1498 138.876 36.3573C139.191 36.5648 139.559 36.6748 139.936 36.6735C140.149 36.6725 140.36 36.6402 140.563 36.5775C141.525 36.2818 142.079 35.4037 141.977 34.3412C141.943 34.0382 141.892 33.7374 141.824 33.4403C141.787 33.2711 141.751 33.0973 141.722 32.9266" fill="white"/>
<path d="M118.19 32.6415C118.054 31.8595 116.298 20.5104 115.93 16.7985C115.736 14.8335 115.302 11.4159 115.291 11.239C115.253 10.6781 115.214 10.0957 115.122 9.52714C115.001 8.77409 114.387 8.21007 113.557 8.08812C113.179 8.02285 112.791 8.08072 112.449 8.25316C112.107 8.42559 111.829 8.70341 111.658 9.04544C111.48 9.42757 111.388 9.84362 111.386 10.2649C111.386 11.6811 111.386 12.2939 111.403 13.021V13.0805C111.417 13.538 111.408 13.9959 111.376 14.4524C111.134 17.1582 110.435 19.7878 109.848 21.7695C109.193 23.9967 108.431 25.707 107.448 27.1506C106.808 28.0912 105.995 29.1323 104.815 29.7878C103.883 30.2985 103.205 30.1933 102.47 29.4281C101.736 28.6628 101.368 27.736 101.076 26.9265C99.6771 23.0332 100.587 15.5241 101.478 12.2467C101.765 11.1796 101.268 10.2101 100.27 9.87166C99.2999 9.54544 98.2843 10.0363 97.8673 11.0378C97.7849 11.2345 97.7146 11.4342 97.6413 11.6308C96.725 14.297 95.5841 22.0683 96.4684 26.1537C97.0075 28.643 97.7925 30.3976 98.9822 31.8518C100.459 33.6582 102.254 34.4829 104.312 34.3C105.726 34.1765 107.061 33.5637 108.394 32.4296C109.812 31.2238 110.991 29.6857 112.009 27.739C112.258 27.2604 112.483 26.7787 112.72 26.2695C112.83 26.9433 113.494 30.4037 113.877 32.5866C114.023 33.4925 114.279 34.3772 114.641 35.2207C114.787 35.5677 115.033 35.8636 115.347 36.0712C115.662 36.2787 116.031 36.3886 116.408 36.3869C116.62 36.3867 116.831 36.3543 117.034 36.2909C117.996 35.9967 118.551 35.1186 118.448 34.0561C118.415 33.7531 118.364 33.4522 118.296 33.1552C118.259 32.986 118.222 32.8107 118.193 32.6415" fill="white"/>
<path d="M117.842 5.00144C118.04 5.28506 118.304 5.51648 118.611 5.6758C118.918 5.83512 119.26 5.91757 119.606 5.91607C119.67 5.91607 119.734 5.91607 119.798 5.91607C122.839 5.64625 125.371 5.44961 127.767 5.29717C130.486 5.12491 133.258 5.02278 135.938 4.92369C137.16 4.87796 138.42 4.83223 139.66 4.77125C139.834 4.76538 140.008 4.74755 140.179 4.7179C140.563 4.6528 140.917 4.47167 141.194 4.19902C141.471 3.92637 141.657 3.57536 141.728 3.19351C141.782 2.90233 141.772 2.60273 141.697 2.31603C141.623 2.02934 141.486 1.7626 141.296 1.5348C141.106 1.30701 140.868 1.12377 140.6 0.998114C140.331 0.872463 140.038 0.807496 139.741 0.807837C137.235 0.749911 134.651 0.768203 132.056 0.86424C129.25 0.967898 126.405 1.16912 123.647 1.35052L120.777 1.54259C120.379 1.56851 119.951 1.60204 119.43 1.64778C119.054 1.67866 118.693 1.80754 118.382 2.02155C118.071 2.23555 117.823 2.52718 117.66 2.86729C117.499 3.19622 117.428 3.56164 117.453 3.92687C117.478 4.2921 117.599 4.64429 117.804 4.94808L117.842 5.00144Z" fill="white"/>
<path d="M82.053 13.9085C82.7724 13.503 83.0977 12.6737 82.8808 11.7957C82.7878 11.404 82.5709 11.0526 82.2623 10.7935C81.9537 10.5343 81.5698 10.3812 81.1672 10.3567C80.5902 10.3251 80.0115 10.3765 79.4491 10.5091C78.2747 10.8033 77.0895 11.1356 75.9365 11.4558L74.7147 11.7972C74.3619 11.8948 74.0107 11.9954 73.6456 12.1021L73.4746 12.1509C73.5265 11.5564 73.5774 10.9613 73.6273 10.3658C73.7159 9.38005 73.8019 8.39326 73.8854 7.40546C74.0015 6.02283 74.1191 4.53503 74.2565 2.72253C74.2936 2.10636 74.1214 1.49573 73.7678 0.989298C73.5932 0.715753 73.3588 0.485291 73.0821 0.31525C72.8054 0.145208 72.4937 0.0400173 72.1703 0.00759063C71.8536 -0.0185581 71.5351 0.0277095 71.2389 0.142877C70.9428 0.258044 70.6769 0.43908 70.4614 0.672225C70.161 0.991348 69.9103 1.3536 69.7176 1.74692C69.2992 2.60363 68.9051 3.4832 68.5447 4.3582C67.1615 7.73718 65.9514 11.1842 64.9191 14.6859C64.8994 14.747 64.8609 14.8004 64.8091 14.8384C64.5037 14.9603 64.1982 15.0655 63.8622 15.1753L63.7798 15.2027C63.7798 15.1372 63.7675 15.0747 63.763 15.0106L63.5491 12.2286L63.3017 9.02741C63.2625 8.32035 62.9557 7.65454 62.4434 7.1646C62.2154 6.94002 61.9398 6.76944 61.6368 6.66548C61.3339 6.56153 61.0114 6.52684 60.6932 6.56399C60.3795 6.60518 60.0791 6.71667 59.8147 6.89011C59.5502 7.06354 59.3284 7.29444 59.166 7.56552C58.9834 7.85699 58.8386 8.17048 58.7353 8.49844C58.5694 9.04113 58.4024 9.58381 58.2344 10.1265C57.4464 12.689 56.6308 15.3384 55.8809 17.9603C55.8428 18.1272 55.765 18.2824 55.6542 18.4129C55.5434 18.5434 55.4027 18.6454 55.2441 18.7103C55.2273 18.5914 55.2105 18.4771 55.1983 18.3643L54.8501 15.0762C54.5034 11.814 54.146 8.44204 53.781 5.12649C53.7314 4.69138 53.5808 4.27381 53.3412 3.90698C53.1182 3.59577 52.8004 3.36484 52.4351 3.24864C52.0699 3.13243 51.6768 3.13718 51.3145 3.26216C50.9058 3.37927 50.5496 3.63248 50.3051 3.9797C50.0606 4.32692 49.9426 4.74721 49.9706 5.1707C49.9828 5.53046 49.9935 5.89021 50.0057 6.24997C50.0668 8.19509 50.1309 10.2134 50.2989 12.1814C50.4776 14.2713 50.7281 16.3887 50.9694 18.4314C51.0656 19.2408 51.1618 20.0503 51.2535 20.8612C51.2672 20.9786 51.2535 21.0137 51.1527 21.0747C50.583 21.4512 49.9935 21.8369 49.433 22.285C48.5884 22.9527 48.3914 24.0442 48.9672 24.8765C49.5689 25.75 50.6349 25.9542 51.6169 25.3841L51.8292 25.2606C51.9208 25.8704 52.0115 26.4751 52.1011 27.0747C52.3271 28.5838 52.5592 30.1433 52.8005 31.6768C52.9105 32.3795 53.0647 33.3048 53.2847 34.2271C53.3866 34.6796 53.6391 35.0842 54.0011 35.3749C54.3631 35.6656 54.8131 35.8252 55.2777 35.8277C55.7326 35.8388 56.1787 35.7015 56.5483 35.4365C56.918 35.1716 57.1909 34.7935 57.3257 34.3597C57.4335 34.0201 57.4982 33.6682 57.5181 33.3125C57.7106 29.8506 58.2909 26.1265 59.3508 21.5747C59.3508 21.5503 59.3661 21.5061 59.3768 21.4741C59.6211 21.3536 59.8716 21.2423 60.1404 21.1265C60.1618 21.2789 60.1831 21.4451 60.203 21.6021C60.2839 22.2119 60.3557 22.7866 60.4458 23.3658C60.4718 23.5548 60.4993 23.7454 60.5252 23.9344C60.6169 24.5899 60.71 25.2652 60.8444 25.9268L60.8689 26.0427C61.0888 27.1234 61.3148 28.2393 61.6478 29.3125C61.9532 30.2926 62.758 30.8369 63.8577 30.7744C64.9893 30.7225 65.7484 30.1478 66.0507 29.1158C66.179 28.6768 66.2722 28.2241 66.3562 27.7866L66.3791 27.6737C66.6174 26.5203 66.8541 25.3663 67.0893 24.2119C67.4741 22.343 67.8595 20.473 68.2454 18.6021C68.3416 18.1372 68.4424 17.9923 68.8272 17.9466L68.7891 18.6798C68.7494 19.442 68.7081 20.192 68.673 20.9466C68.2988 28.7378 68.1324 27.9862 68.5203 35.6631C68.5374 36.2098 68.6189 36.7527 68.7631 37.2805C68.8893 37.6975 69.147 38.0628 69.4978 38.3221C69.8486 38.5813 70.2738 38.7207 70.7103 38.7195C70.8254 38.7193 70.9403 38.7101 71.0539 38.692C71.5492 38.6198 72.0014 38.3709 72.3268 37.9914C72.6523 37.6119 72.8289 37.1275 72.824 36.628C72.8208 36.4496 72.808 36.2715 72.7858 36.0945C72.7705 35.9573 72.7568 35.8277 72.7522 35.6997C72.7186 34.7515 72.6636 33.0884 72.6331 31.7362C72.4804 25.0533 72.6988 23.7622 73.1218 16.8826C73.1356 16.6661 73.1661 16.625 73.3539 16.5777C75.3775 16.0228 77.7753 15.3582 80.2158 14.6463C80.8531 14.4709 81.468 14.2229 82.0484 13.907" fill="white"/>
<path d="M93.4278 35.1081C93.4186 34.8962 93.411 34.6828 93.4049 34.4694C93.3728 33.4572 93.3193 32.6721 93.2827 31.6584C93.2033 29.4282 93.2277 30.2331 93.1972 27.9663C93.1422 23.9556 93.104 19.6477 93.1819 15.3139C93.2308 12.5593 93.3545 9.75899 93.4751 7.05014C93.5301 5.81691 93.5591 4.82149 93.608 3.56691C93.6159 3.37164 93.6103 3.17605 93.5912 2.98155C93.5562 2.59471 93.3998 2.22876 93.1442 1.93588C92.8886 1.64299 92.5469 1.43812 92.1678 1.35045C91.9089 1.28146 91.6379 1.27 91.374 1.31688C91.1101 1.36376 90.8598 1.46785 90.6406 1.62179C90.397 1.8053 90.1959 2.03903 90.051 2.30708C89.906 2.57513 89.8206 2.8712 89.8006 3.17515C89.7405 3.74222 89.6795 4.30878 89.6173 4.87484C89.402 6.85655 89.205 8.61264 89.1164 10.6325C88.9897 13.4694 88.9515 16.3565 88.9148 19.1477C88.9026 20.1162 88.8889 21.0816 88.8736 22.044C88.8598 22.8169 88.8828 23.6462 88.8843 23.9404L80.1791 25.7056C80.1791 25.6096 80.2203 24.57 80.2203 24.57C80.2325 23.9409 80.2442 23.3118 80.2554 22.6828C80.2814 21.2224 80.2753 20.6218 80.3181 19.137C80.3369 18.785 80.2651 18.434 80.1095 18.1175C79.9539 17.801 79.7197 17.5296 79.4292 17.3291C79.1647 17.1536 78.8583 17.0512 78.5412 17.0321C78.2242 17.0131 77.9077 17.0782 77.624 17.2209C77.3031 17.3745 77.0291 17.611 76.8304 17.9058C76.6317 18.2006 76.5155 18.543 76.4939 18.8977C76.4511 19.3276 76.4053 19.7559 76.361 20.1843C76.2083 21.6492 75.9349 29.3581 75.8845 33.1782C75.8677 34.3581 75.8143 34.1812 75.8937 34.855C75.9497 35.3193 76.1655 35.7498 76.5043 36.0728C76.843 36.3959 77.2836 36.5916 77.7508 36.6264H77.7783C78.2389 36.6687 78.7003 36.5538 79.0871 36.3005C79.4738 36.0471 79.7629 35.6702 79.9072 35.2315C80.0097 34.8945 80.0612 34.5441 80.06 34.1919C80.0844 32.4983 80.1058 31.8581 80.1149 31.4053L80.1241 29.7041C83.112 29.4613 86.0747 28.9729 88.982 28.2437C89.011 29.0715 89.0416 31.2056 89.0706 32.0334C89.1546 34.4328 89.15 33.5776 89.2539 36.0166C89.2662 36.5805 89.3779 37.1377 89.5838 37.6629C89.7103 37.9657 89.912 38.2314 90.1699 38.4348C90.4277 38.6383 90.7332 38.773 91.0575 38.8261C91.3998 38.8821 91.7507 38.8497 92.0768 38.732C92.403 38.6144 92.6935 38.4153 92.9207 38.1538C93.2856 37.7357 93.4791 37.1958 93.4629 36.6416C93.4629 36.1233 93.443 35.6004 93.4247 35.0928" fill="white"/>
<path d="M24.7228 30.881C24.5212 28.3307 24.3364 25.6173 24.1272 22.0837C23.9103 18.445 23.9485 10.6508 24.0142 9.03039L24.0554 7.97856C24.0661 7.7438 24.092 7.50905 24.118 7.27582C24.1501 6.98466 24.1822 6.6935 24.1852 6.40387C24.1953 5.95654 24.0408 5.52103 23.7509 5.17973C23.4611 4.83843 23.0559 4.615 22.6122 4.55173C22.1731 4.48357 21.7241 4.57401 21.3459 4.80678C20.9677 5.03955 20.685 5.39938 20.5489 5.82155C20.5029 5.95753 20.4667 6.0966 20.4404 6.23771C19.9976 8.38862 19.7517 12.9222 19.7563 14.878C19.7563 15.7214 19.7563 16.5639 19.7563 17.4054V17.7911L13.0365 18.9405C13.0242 18.788 13.0151 18.6493 13.009 18.5151L12.9265 16.5609C12.8547 14.8551 12.7814 13.1478 12.7234 11.4405C12.6714 9.8932 12.6287 8.34441 12.5859 6.79563L12.508 4.02734C12.5049 3.80321 12.4788 3.57999 12.4301 3.36118C12.3443 2.99159 12.1455 2.65778 11.8612 2.40597C11.5769 2.15415 11.2212 1.9968 10.8434 1.95569C10.4769 1.90773 10.1045 1.97342 9.77663 2.14385C9.4488 2.31428 9.1814 2.5812 9.01068 2.90844C8.85237 3.24424 8.75564 3.60564 8.72509 3.97551C8.49535 6.58171 8.4377 9.20017 8.55252 11.8139L8.85796 19.3932C8.85973 19.4528 8.85615 19.5125 8.84727 19.5715L7.89275 19.7316C6.58697 19.9481 5.29647 20.1615 4.01818 20.3719C3.69899 20.4237 3.37674 20.4694 3.05755 20.5243C2.57648 20.5929 2.09693 20.6615 1.62043 20.7484C0.594138 20.9283 -0.0671514 21.753 4.65353e-05 22.7469C0.0779351 23.8139 0.977471 24.5243 2.09846 24.4572C3.279 24.3841 4.56798 24.2789 6.03717 24.1356C6.78093 24.0639 7.52164 23.9725 8.28831 23.8795L9.07483 23.7834V23.8216C9.09621 24.0761 9.11606 24.3094 9.13286 24.5441L9.31918 27.3932C9.45205 29.4344 9.58492 31.477 9.73001 33.5197C9.81553 34.7164 9.92244 35.6813 10.0629 36.5578C10.1571 37.0582 10.3519 37.5342 10.6357 37.9572C10.833 38.2683 11.1215 38.5112 11.4619 38.653C11.8023 38.7948 12.1782 38.8286 12.5386 38.7499C12.913 38.6981 13.2622 38.532 13.5383 38.2744C13.8144 38.0168 14.004 37.6802 14.0811 37.3109C14.1688 36.9019 14.1996 36.4828 14.1727 36.0655C14.1574 35.7499 14.1223 35.4374 14.0841 35.1219C14.0551 34.8749 14.0276 34.6295 14.0093 34.381C13.7751 31.0131 13.5455 27.6457 13.3205 24.2789L13.2564 23.3353C13.2564 23.2712 13.2564 23.2072 13.2564 23.1432L19.9136 21.9953C19.9258 22.1097 19.9365 22.2164 19.9441 22.3246C20.0159 23.3185 20.0831 24.3063 20.1518 25.3063C20.3045 27.6188 20.474 30.0106 20.6756 32.3627C20.7795 33.5822 20.9811 34.8017 21.1888 35.9755L21.3232 36.7728C21.4281 37.4514 21.6987 38.0937 22.1112 38.6432C22.2945 38.8948 22.534 39.1002 22.8108 39.2431C23.0876 39.386 23.394 39.4625 23.7057 39.4664C23.9136 39.4657 24.1201 39.4307 24.3165 39.3627C24.7251 39.2277 25.0771 38.961 25.3171 38.6044C25.5571 38.2479 25.6714 37.8218 25.6422 37.3932C25.6247 37.0205 25.5736 36.6501 25.4895 36.2865C25.0466 34.4161 24.8557 32.5045 24.7258 30.881" fill="white"/>
<path d="M17.8366 52.1038L17.8228 46.6678L15.1456 51.1434H14.2094L11.5307 46.7715V52.1038H9.55444V43.0215H11.297L14.7027 48.6663L18.0565 43.0215H19.7991L19.8128 52.1038H17.8366Z" fill="white"/>
<path d="M23.8614 51.6495C23.125 51.2641 22.5089 50.6841 22.0806 49.9727C21.6594 49.2402 21.4377 48.4103 21.4377 47.5657C21.4377 46.7211 21.6594 45.8912 22.0806 45.1587C22.5089 44.4474 23.125 43.8673 23.8614 43.4819C24.6518 43.081 25.5259 42.8721 26.4126 42.8721C27.2992 42.8721 28.1733 43.081 28.9638 43.4819C29.7061 43.8767 30.3269 44.4656 30.7598 45.1855C31.1927 45.9054 31.4213 46.7292 31.4213 47.5688C31.4213 48.4083 31.1927 49.2321 30.7598 49.952C30.3269 50.6719 29.7061 51.2608 28.9638 51.6556C28.1733 52.0565 27.2992 52.2654 26.4126 52.2654C25.5259 52.2654 24.6518 52.0565 23.8614 51.6556M27.8719 50.1053C28.3018 49.8627 28.6556 49.5053 28.8936 49.0733C29.1363 48.6088 29.2631 48.0927 29.2631 47.5688C29.2631 47.0448 29.1363 46.5287 28.8936 46.0642C28.6556 45.6322 28.3018 45.2748 27.8719 45.0322C27.4251 44.7891 26.9244 44.6617 26.4156 44.6617C25.9068 44.6617 25.4062 44.7891 24.9594 45.0322C24.5302 45.2753 24.1771 45.6326 23.9392 46.0642C23.6965 46.5287 23.5697 47.0448 23.5697 47.5688C23.5697 48.0927 23.6965 48.6088 23.9392 49.0733C24.1771 49.5049 24.5302 49.8622 24.9594 50.1053C25.4062 50.3484 25.9068 50.4758 26.4156 50.4758C26.9244 50.4758 27.4251 50.3484 27.8719 50.1053Z" fill="white"/>
<path d="M40.8729 43.0215V52.1038H38.7912V44.7334H35.6727L35.607 46.6282C35.591 47.6795 35.4888 48.7277 35.3015 49.7623C35.1366 50.5632 34.8612 51.1775 34.4753 51.6053C34.0894 52.0332 33.5498 52.2471 32.8564 52.2471C32.5055 52.2387 32.1565 52.1906 31.8164 52.1038L31.9477 50.3264C32.0696 50.3625 32.1963 50.38 32.3234 50.3782C32.8274 50.3782 33.1772 50.0825 33.3772 49.4895C33.5773 48.8965 33.7025 47.9651 33.7545 46.7059L33.8843 43.0215H40.8729Z" fill="white"/>
<path d="M44.9352 51.6495C44.198 51.2646 43.5814 50.6845 43.1529 49.9727C42.7317 49.2402 42.51 48.4103 42.51 47.5657C42.51 46.7211 42.7317 45.8912 43.1529 45.1587C43.5814 44.4469 44.198 43.8668 44.9352 43.4819C45.7256 43.081 46.5997 42.8721 47.4864 42.8721C48.373 42.8721 49.2471 43.081 50.0376 43.4819C50.7795 43.8771 51.3998 44.4661 51.8324 45.1859C52.2649 45.9058 52.4934 46.7294 52.4934 47.5688C52.4934 48.4081 52.2649 49.2317 51.8324 49.9516C51.3998 50.6714 50.7795 51.2604 50.0376 51.6556C49.2471 52.0565 48.373 52.2654 47.4864 52.2654C46.5997 52.2654 45.7256 52.0565 44.9352 51.6556M48.9456 50.1053C49.3748 49.8622 49.728 49.5049 49.9658 49.0733C50.2086 48.6088 50.3354 48.0927 50.3354 47.5688C50.3354 47.0448 50.2086 46.5287 49.9658 46.0642C49.728 45.6326 49.3748 45.2753 48.9456 45.0322C48.4989 44.7891 47.9982 44.6617 47.4894 44.6617C46.9806 44.6617 46.48 44.7891 46.0332 45.0322C45.6033 45.2744 45.25 45.6319 45.013 46.0642C44.7693 46.5284 44.6419 47.0447 44.6419 47.5688C44.6419 48.0929 44.7693 48.6091 45.013 49.0733C45.25 49.5056 45.6033 49.8631 46.0332 50.1053C46.48 50.3484 46.9806 50.4758 47.4894 50.4758C47.9982 50.4758 48.4989 50.3484 48.9456 50.1053Z" fill="white"/>
<path d="M63.2269 50.3919V53.9864H61.269V52.1038H54.847V53.9864H52.8967L52.9105 50.3919H53.274C53.8207 50.3736 54.2066 49.9752 54.4316 49.1968C54.6566 48.4183 54.7951 47.3071 54.847 45.8629L54.9509 43.0215H61.9455V50.3919H63.2269ZM56.4338 48.7806C56.2953 49.5103 56.083 50.0489 55.7969 50.3965H59.867V44.7334H56.7453L56.7056 46.0581C56.6801 46.9709 56.5892 47.8807 56.4338 48.7806Z" fill="white"/>
<path d="M71.6831 50.4175V52.1034H64.6365V43.0211H71.509V44.7071H66.7288V46.6797H70.9546V48.3229H66.7288V50.4251L71.6831 50.4175ZM66.1179 41.9632C65.9515 41.7905 65.8585 41.5602 65.8585 41.3207C65.8585 41.0811 65.9515 40.8508 66.1179 40.6781C66.204 40.5949 66.3059 40.5296 66.4176 40.4861C66.5293 40.4427 66.6486 40.4219 66.7685 40.4251C66.8894 40.4201 67.0101 40.4396 67.1233 40.4823C67.2365 40.5251 67.3399 40.5903 67.4273 40.6739C67.5146 40.7576 67.5841 40.858 67.6316 40.9691C67.679 41.0803 67.7035 41.1998 67.7035 41.3207C67.7035 41.4415 67.679 41.5611 67.6316 41.6722C67.5841 41.7833 67.5146 41.8837 67.4273 41.9674C67.3399 42.0511 67.2365 42.1162 67.1233 42.159C67.0101 42.2017 66.8894 42.2212 66.7685 42.2162C66.6486 42.2197 66.5292 42.1991 66.4174 42.1557C66.3057 42.1122 66.2038 42.0467 66.1179 41.9632ZM68.7508 41.9632C68.6219 41.8378 68.5338 41.6767 68.4977 41.5007C68.4617 41.3247 68.4795 41.1419 68.5488 40.9761C68.6181 40.8103 68.7357 40.6692 68.8864 40.5709C69.0371 40.4726 69.2138 40.4218 69.3938 40.4251C69.5137 40.4218 69.633 40.4424 69.7447 40.4859C69.8565 40.5294 69.9584 40.5947 70.0444 40.6781C70.2108 40.8508 70.3037 41.0811 70.3037 41.3207C70.3037 41.5602 70.2108 41.7905 70.0444 41.9632C69.9586 42.0469 69.8567 42.1124 69.7449 42.1559C69.6331 42.1994 69.5137 42.2199 69.3938 42.2162C69.275 42.2201 69.1566 42.1997 69.0461 42.1561C68.9355 42.1126 68.835 42.0469 68.7508 41.9632Z" fill="white"/>
<path d="M81.5488 48.4453H80.2232V52.1038H78.1569V48.4453H76.8038L74.7634 52.1038H72.332L75.0627 47.3553L72.5016 43.0215H74.7237L76.7656 46.6937H78.1569V43.0215H80.2232V46.6937H81.5748L83.6289 43.0215H85.8526L83.3036 47.3553L86.0206 52.1038H83.5908L81.5488 48.4453Z" fill="white"/>
<path d="M95.381 43.0215V52.1038H93.2749V48.3797H89.1407V52.1038H87.0347V43.0215H89.1407V46.6023H93.2749V43.0215H95.381Z" fill="white"/>
<path d="M103.819 50.1523H99.5932L98.7884 52.0989H96.6289L100.685 43.0166H102.765L106.835 52.0989H104.625L103.819 50.1523ZM103.156 48.5562L101.713 45.0837L100.27 48.5608L103.156 48.5562Z" fill="white"/>
<path d="M114.847 43.0214V52.1037H112.762V49.6952H110.838L109.227 52.1037H107.003L108.902 49.3598C108.322 49.1381 107.827 48.741 107.484 48.2241C107.143 47.6764 106.971 47.0399 106.991 46.3949C106.974 45.7581 107.141 45.1299 107.472 44.5854C107.803 44.0714 108.277 43.6654 108.836 43.4177C109.491 43.1317 110.201 42.9923 110.916 43.0092L114.847 43.0214ZM109.601 45.1555C109.285 45.4314 109.128 45.843 109.128 46.3872C109.128 46.9314 109.28 47.3217 109.586 47.6067C109.891 47.8918 110.334 48.0351 110.924 48.0351H112.77V44.7333H110.97C110.371 44.7333 109.914 44.872 109.595 45.1494" fill="white"/>
<path d="M11.3427 64.634C10.6103 64.2475 9.99846 63.6674 9.57421 62.9571C9.15233 62.2201 8.93042 61.386 8.93042 60.5372C8.93042 59.6883 9.15233 58.8542 9.57421 58.1172C9.99803 57.4066 10.61 56.8264 11.3427 56.4404C12.1212 56.0287 12.9909 55.8191 13.8718 55.8306C14.6056 55.8201 15.3335 55.9613 16.0099 56.2453C16.6316 56.5116 17.1815 56.9205 17.6151 57.4389L16.2635 58.6858C15.987 58.347 15.6373 58.075 15.2406 57.8902C14.8439 57.7054 14.4104 57.6126 13.9726 57.6187C13.446 57.6096 12.926 57.7373 12.4637 57.9892C12.0287 58.2287 11.6707 58.5866 11.4313 59.0212C11.1875 59.4856 11.0602 60.0022 11.0602 60.5265C11.0602 61.0508 11.1875 61.5674 11.4313 62.0318C11.6708 62.466 12.0288 62.8233 12.4637 63.0623C12.926 63.3142 13.446 63.4419 13.9726 63.4328C14.4114 63.4386 14.8458 63.3446 15.2427 63.1579C15.6397 62.9712 15.9887 62.6966 16.2635 62.355L17.6151 63.602C17.1834 64.1279 16.6306 64.5416 16.0038 64.8078C15.3264 65.0993 14.5958 65.2478 13.8581 65.2437C12.9817 65.2542 12.1167 65.0445 11.3427 64.634Z" fill="white"/>
<path d="M25.8575 57.7105H22.9451V65.0809H20.865V57.7105H17.9663V55.9971H25.8575V57.7105Z" fill="white"/>
<path d="M28.8399 64.6252C28.1035 64.2398 27.4875 63.6597 27.0591 62.9483C26.6379 62.2158 26.4163 61.3859 26.4163 60.5413C26.4163 59.6967 26.6379 58.8668 27.0591 58.1343C27.4879 57.4233 28.1038 56.8433 28.8399 56.4575C29.6306 56.0566 30.505 55.8477 31.3919 55.8477C32.2788 55.8477 33.1531 56.0566 33.9439 56.4575C34.6857 56.8527 35.3061 57.4417 35.7386 58.1615C36.1712 58.8814 36.3996 59.705 36.3996 60.5444C36.3996 61.3837 36.1712 62.2073 35.7386 62.9272C35.3061 63.647 34.6857 64.236 33.9439 64.6313C33.1534 65.0331 32.2789 65.2425 31.3919 65.2425C30.5048 65.2425 29.6303 65.0331 28.8399 64.6313M32.8504 63.0809C33.2803 62.8389 33.6341 62.482 33.8721 62.0505C34.1149 61.5857 34.2416 61.0693 34.2416 60.5451C34.2416 60.021 34.1149 59.5046 33.8721 59.0398C33.6341 58.6078 33.2803 58.2504 32.8504 58.0078C32.4039 57.7647 31.9035 57.6373 31.3949 57.6373C30.8864 57.6373 30.3859 57.7647 29.9395 58.0078C29.5096 58.25 29.1562 58.6075 28.9193 59.0398C28.6755 59.5043 28.5482 60.0208 28.5482 60.5451C28.5482 61.0695 28.6755 61.586 28.9193 62.0505C29.1563 62.4823 29.5097 62.8392 29.9395 63.0809C30.3859 63.324 30.8864 63.4514 31.3949 63.4514C31.9035 63.4514 32.4039 63.324 32.8504 63.0809Z" fill="white"/>
<path d="M45.8516 55.9971V65.0794H43.7715V57.7105H40.6513L40.5857 59.6038C40.5697 60.6551 40.4675 61.7033 40.2802 62.7379C40.1153 63.5387 39.8404 64.1531 39.4555 64.5809C39.0707 65.0088 38.5311 65.2227 37.8367 65.2227C37.4857 65.2144 37.1368 65.1663 36.7966 65.0794L36.9264 63.302C37.0488 63.3381 37.176 63.3556 37.3037 63.3538C37.8056 63.3538 38.1564 63.0575 38.3559 62.4651C38.5555 61.8726 38.6812 60.9447 38.7332 59.6815L38.863 55.9971H45.8516Z" fill="white"/>
<path d="M48.1255 55.9971H50.2193V61.9132L54.5612 55.9971H56.5375V65.0809H54.4574V59.177L50.1155 65.0809H48.1255V55.9971Z" fill="white"/>
<path d="M68.3414 63.3675V67.0001H66.4049V65.0809H58.7993V55.9971H60.8916V63.3675H64.9479V55.9971H67.0418V63.3675H68.3414Z" fill="white"/>
<path d="M75.9731 63.1343H71.7473L70.9409 65.0794H68.783L72.8393 55.9971H74.9194L78.9879 65.0794H76.778L75.9731 63.1343ZM75.3088 61.5382L73.8671 58.0596L72.4239 61.5382H75.3088Z" fill="white"/>
<path d="M89.9151 56.4023C90.4834 56.6383 90.9656 57.0424 91.2969 57.5602C91.6281 58.0781 91.7924 58.6848 91.7676 59.2987C91.7817 59.9149 91.6144 60.5217 91.2866 61.0441C90.952 61.5523 90.4735 61.9498 89.9121 62.1859C89.2482 62.4611 88.5338 62.5941 87.8152 62.5761H85.9825V65.0792H83.8765V55.9968H87.8152C88.5361 55.9809 89.2521 56.1192 89.9151 56.4023ZM89.1408 60.4572C89.3072 60.3146 89.4384 60.1356 89.5242 59.9341C89.61 59.7327 89.6482 59.5142 89.6356 59.2956C89.6356 58.7875 89.4707 58.3962 89.1408 58.1218C88.8109 57.8474 88.3299 57.7113 87.6976 57.7133H85.9825V60.8657H87.6976C88.3309 60.8657 88.8119 60.7296 89.1408 60.4572Z" fill="white"/>
<path d="M95.0757 64.6251C94.3393 64.2397 93.7233 63.6596 93.295 62.9483C92.8737 62.2158 92.6521 61.3859 92.6521 60.5413C92.6521 59.6967 92.8737 58.8668 93.295 58.1343C93.7237 57.4233 94.3397 56.8433 95.0757 56.4574C95.8662 56.0566 96.7403 55.8477 97.6269 55.8477C98.5136 55.8477 99.3877 56.0566 100.178 56.4574C100.92 56.8527 101.54 57.4417 101.973 58.1615C102.405 58.8814 102.634 59.705 102.634 60.5443C102.634 61.3837 102.405 62.2073 101.973 62.9272C101.54 63.647 100.92 64.236 100.178 64.6312C99.388 65.033 98.5138 65.2425 97.6269 65.2425C96.7401 65.2425 95.8659 65.033 95.0757 64.6312M99.0862 63.0809C99.516 62.8392 99.8694 62.4823 100.106 62.0504C100.35 61.586 100.478 61.0694 100.478 60.5451C100.478 60.0208 100.35 59.5042 100.106 59.0398C99.8695 58.6075 99.5161 58.25 99.0862 58.0078C98.6395 57.7647 98.1388 57.6373 97.63 57.6373C97.1212 57.6373 96.6205 57.7647 96.1738 58.0078C95.7446 58.2509 95.3914 58.6082 95.1536 59.0398C94.9108 59.5045 94.7841 60.0209 94.7841 60.5451C94.7841 61.0693 94.9108 61.5857 95.1536 62.0504C95.3915 62.4816 95.7447 62.8384 96.1738 63.0809C96.6205 63.324 97.1212 63.4514 97.63 63.4514C98.1388 63.4514 98.6395 63.324 99.0862 63.0809Z" fill="white"/>
<path d="M106.021 64.634C105.289 64.2471 104.678 63.667 104.254 62.9571C103.832 62.2201 103.61 61.386 103.61 60.5372C103.61 59.6884 103.832 58.8542 104.254 58.1172C104.678 57.407 105.289 56.8269 106.021 56.4404C106.8 56.0287 107.669 55.8191 108.55 55.8306C109.284 55.8201 110.012 55.9613 110.688 56.2453C111.31 56.5115 111.861 56.9205 112.295 57.4389L110.942 58.6858C110.665 58.347 110.316 58.075 109.919 57.8902C109.522 57.7054 109.089 57.6126 108.651 57.6187C108.125 57.6095 107.605 57.7371 107.144 57.9892C106.708 58.2287 106.35 58.5865 106.11 59.0212C105.866 59.4856 105.739 60.0022 105.739 60.5265C105.739 61.0508 105.866 61.5674 106.11 62.0318C106.35 62.4661 106.708 62.8234 107.144 63.0623C107.605 63.3144 108.125 63.442 108.651 63.4328C109.09 63.4386 109.524 63.3446 109.921 63.1579C110.318 62.9712 110.667 62.6966 110.942 62.355L112.295 63.602C111.863 64.1283 111.31 64.542 110.682 64.8078C110.006 65.0915 109.278 65.2332 108.544 65.2239C107.667 65.2346 106.802 65.0249 106.027 64.6142" fill="white"/>
<path d="M115.266 64.634C114.533 64.2475 113.921 63.6674 113.497 62.9571C113.075 62.2201 112.853 61.386 112.853 60.5372C112.853 59.6883 113.075 58.8542 113.497 58.1172C113.921 57.4066 114.533 56.8264 115.266 56.4404C116.043 56.0285 116.913 55.8188 117.793 55.8306C118.527 55.8203 119.255 55.9615 119.931 56.2452C120.553 56.5116 121.103 56.9205 121.536 57.4388L120.192 58.6965C119.916 58.3576 119.566 58.0856 119.17 57.9008C118.773 57.716 118.339 57.6232 117.902 57.6294C117.375 57.6201 116.856 57.7478 116.394 57.9998C115.959 58.2397 115.601 58.5975 115.36 59.0318C115.118 59.4966 114.991 60.013 114.991 60.5372C114.991 61.0613 115.118 61.5777 115.36 62.0425C115.601 62.4764 115.959 62.8336 116.394 63.073C116.856 63.3255 117.375 63.4537 117.902 63.4449C118.34 63.4509 118.775 63.357 119.172 63.1702C119.569 62.9835 119.918 62.7088 120.192 62.3672L121.546 63.6141C121.114 64.1404 120.56 64.5542 119.933 64.8199C119.256 65.1037 118.528 65.2453 117.795 65.2361C116.918 65.247 116.053 65.0373 115.279 64.6263" fill="white"/>
<path d="M122.916 55.9971H125.008V61.9132L129.351 55.9971H131.326V65.0809H129.246V59.177L124.904 65.0809H122.916V55.9971Z" fill="white"/>
<path d="M133.589 55.9971H135.681V61.9132L140.023 55.9971H142V65.0809H139.919V59.177L135.578 65.0809H133.589V55.9971Z" fill="white"/>
</g>
</g>
<defs>
<clipPath id="clip0_501_4684">
<rect width="142" height="67" fill="white"/>
</clipPath>
</defs>
</svg>
