<svg width="43" height="40" viewBox="0 0 43 40" fill="none" xmlns="http://www.w3.org/2000/svg">
<path d="M26.7919 35.9929C28.9941 33.9894 31.1982 31.9895 33.4041 29.9931C36.0207 27.6167 38.6269 25.2302 41.2541 22.8693C41.5105 22.675 41.7165 22.4031 41.85 22.0828C41.9834 21.7626 42.0394 21.4061 42.0117 21.0518C42.0056 20.924 42.0055 20.7959 42.0115 20.6681C42.0482 20.2712 41.9716 19.8713 41.7933 19.5301C41.6151 19.189 41.3452 18.9255 41.0254 18.7805C37.266 16.6467 33.5145 14.4898 29.7591 12.3445C26.1161 10.2629 22.4714 8.18136 18.8252 6.10002C18.6102 5.98001 18.3717 5.9285 18.134 5.95075C17.8962 5.973 17.6679 6.0682 17.4721 6.22664C17.2764 6.38508 17.1203 6.60109 17.0199 6.85259C16.9194 7.1041 16.8782 7.3821 16.9004 7.65819C16.9247 7.92118 17.0058 8.17273 17.1363 8.38942C17.2667 8.6061 17.4422 8.78085 17.6464 8.8974L37.2633 20.1057C37.783 20.4031 38.3028 20.7006 38.8678 21.0268C38.7276 21.1662 38.6281 21.2736 38.5182 21.371L33.6269 25.8027L26.5371 32.257C26.0355 32.7084 25.5334 33.1543 25.0373 33.6162C24.8359 33.7907 24.6805 34.0271 24.5886 34.2988C24.4966 34.5705 24.4718 34.8667 24.5169 35.1539C24.5504 35.4222 24.6472 35.6746 24.7967 35.8827C24.9462 36.0908 25.1425 36.2467 25.3636 36.3328C25.606 36.4309 25.8666 36.4511 26.118 36.3913C26.3694 36.3315 26.6022 36.1938 26.7919 35.9929Z" fill="#A9B0F4"/>
<rect x="0.000244141" y="19.3696" width="42.0851" height="3.05834" rx="1.52917" fill="#A9B0F4"/>
</svg>
