<svg width="43" height="40" viewBox="0 0 43 40" fill="none" xmlns="http://www.w3.org/2000/svg">
<path d="M16.2081 35.9929C14.0059 33.9894 11.8018 31.9895 9.59585 29.9931C6.97933 27.6167 4.37312 25.2302 1.74585 22.8693C1.48948 22.675 1.2835 22.4031 1.15003 22.0828C1.01656 21.7626 0.960649 21.4061 0.988299 21.0518C0.994394 20.924 0.994454 20.7959 0.988476 20.6681C0.951758 20.2712 1.02843 19.8713 1.20666 19.5301C1.3849 19.189 1.65477 18.9255 1.97461 18.7805C5.73396 16.6467 9.48547 14.4898 13.2409 12.3445C16.8839 10.2629 20.5286 8.18136 24.1748 6.10002C24.3898 5.98001 24.6283 5.9285 24.866 5.95075C25.1038 5.973 25.3321 6.0682 25.5279 6.22664C25.7236 6.38508 25.8797 6.60109 25.9801 6.85259C26.0806 7.1041 26.1218 7.3821 26.0996 7.65819C26.0753 7.92118 25.9942 8.17273 25.8637 8.38942C25.7333 8.6061 25.5578 8.78085 25.3536 8.8974L5.73672 20.1057C5.21697 20.4031 4.69721 20.7006 4.13225 21.0268C4.27241 21.1662 4.37193 21.2736 4.48178 21.371L9.37313 25.8027L16.4629 32.257C16.9645 32.7084 17.4666 33.1543 17.9627 33.6162C18.1641 33.7907 18.3195 34.0271 18.4114 34.2988C18.5034 34.5705 18.5282 34.8667 18.4831 35.1539C18.4496 35.4222 18.3528 35.6746 18.2033 35.8827C18.0538 36.0908 17.8575 36.2467 17.6364 36.3328C17.394 36.4309 17.1334 36.4511 16.882 36.3913C16.6306 36.3315 16.3978 36.1938 16.2081 35.9929Z" fill="#A9B0F4"/>
<rect width="42.0851" height="3.05834" rx="1.52917" transform="matrix(-1 0 0 1 42.9998 19.3696)" fill="#A9B0F4"/>
</svg>
