<svg width="40" height="40" viewBox="0 0 40 40" fill="none" xmlns="http://www.w3.org/2000/svg">
<path fill-rule="evenodd" clip-rule="evenodd" d="M18.3333 6.66659C11.8899 6.66659 6.66659 11.8899 6.66659 18.3333C6.66659 24.7766 11.8899 29.9999 18.3333 29.9999C24.7766 29.9999 29.9999 24.7766 29.9999 18.3333C29.9999 11.8899 24.7766 6.66659 18.3333 6.66659ZM3.33325 18.3333C3.33325 10.049 10.049 3.33325 18.3333 3.33325C26.6175 3.33325 33.3333 10.049 33.3333 18.3333C33.3333 26.6175 26.6175 33.3333 18.3333 33.3333C10.049 33.3333 3.33325 26.6175 3.33325 18.3333Z" fill="#8A94F3"/>
<path fill-rule="evenodd" clip-rule="evenodd" d="M26.5712 26.5712C27.222 25.9203 28.2773 25.9203 28.9282 26.5712L36.1782 33.8212C36.8291 34.472 36.8291 35.5273 36.1782 36.1782C35.5273 36.8291 34.472 36.8291 33.8212 36.1782L26.5712 28.9282C25.9203 28.2773 25.9203 27.222 26.5712 26.5712Z" fill="#8A94F3"/>
</svg>
