<svg width="30" height="30" viewBox="0 0 30 30" fill="none" xmlns="http://www.w3.org/2000/svg">
<path fill-rule="evenodd" clip-rule="evenodd" d="M4.32092 14.2601C10.5437 11.3735 14.6932 9.4705 16.7695 8.55105C22.6975 5.92584 23.9293 5.46981 24.7322 5.45475C24.9087 5.45144 25.3036 5.49803 25.5593 5.71899C25.7753 5.90555 25.8347 6.15758 25.8631 6.33447C25.8915 6.51136 25.927 6.91431 25.8988 7.22917C25.5776 10.8229 24.1876 19.5439 23.4804 23.5689C23.1812 25.2721 22.592 25.8431 22.0216 25.899C20.782 26.0205 19.8407 25.0268 18.6401 24.1888C16.7613 22.8776 15.7 22.0614 13.8763 20.7819C11.7688 19.3032 13.135 18.4905 14.3361 17.1623C14.6504 16.8147 20.1122 11.5253 20.2179 11.0455C20.2311 10.9855 20.2434 10.7618 20.1186 10.6437C19.9937 10.5256 19.8095 10.566 19.6766 10.5981C19.4882 10.6436 16.4869 12.7557 10.6727 16.9344C9.8208 17.5573 9.04917 17.8607 8.35781 17.8448C7.59565 17.8273 6.12955 17.386 5.03965 17.0088C3.70286 16.5461 2.64039 16.3015 2.73291 15.5158C2.7811 15.1065 3.31044 14.688 4.32092 14.2601Z" fill="#8A94F3"/>
</svg>
