<svg width="101" height="95" viewBox="0 0 101 95" fill="none" xmlns="http://www.w3.org/2000/svg">
<path d="M49.1505 82.4652C38.374 82.6815 30.6458 77.6218 26.136 71.1635C18.6209 60.4001 20.0476 45.7545 31.2205 45.1733C35.6675 39.8213 41.4587 39.8461 45.6596 41.5734C48.7972 37.7952 70.9249 44.6102 73.1839 59.4754C75.5238 74.8228 66.6282 82.1167 49.1505 82.4652Z" stroke="#3344E5" stroke-width="4" stroke-linecap="round" stroke-linejoin="round"/>
<path d="M45.6565 41.5736C40.3723 46.0421 45.1347 55.8361 58.8043 63.6667C52.962 63.9028 49.1474 68.9261 48.7048 73.4409" stroke="#3344E5" stroke-width="4" stroke-linecap="round" stroke-linejoin="round"/>
<path d="M45.66 41.5735C43.7709 32.3129 35.6266 14.7164 45.5213 13.2417C56.785 11.5623 58.8078 41.4216 58.8078 41.4216C58.8078 41.4216 64.1763 10.6095 76.3515 14.4703C87.1941 17.9084 70.2267 40.8585 72.1423 55.836" stroke="#3344E5" stroke-width="4" stroke-linecap="round" stroke-linejoin="round"/>
<path d="M30.6445 63.2521C30.6445 63.2521 34.3633 71.4492 40.3147 67.8394C43.1434 66.1237 41.9561 62.5552 41.9561 62.5552C41.9561 62.5552 44.9466 64.725 48.3401 61.5132C50.7477 59.236 48.7133 56.0638 48.7133 56.0638" stroke="#3344E5" stroke-width="4" stroke-linecap="round" stroke-linejoin="round"/>
<path d="M41.9563 62.5486C41.9563 62.5486 36.5878 47.2804 31.2227 45.1733" stroke="#3344E5" stroke-width="4" stroke-linecap="round" stroke-linejoin="round"/>
</svg>
