<svg width="101" height="95" viewBox="0 0 101 95" fill="none" xmlns="http://www.w3.org/2000/svg">
<path d="M46.668 75.7614C29.6827 62.502 19.874 39.9372 24.5733 31.0503C29.2726 22.1634 43.2856 22.3368 45.5944 41.6492C53.7628 23.2286 60.716 16.919 68.6143 18.9777C80.4468 22.04 84.2476 51.7247 46.668 75.7614Z" stroke="#3344E5" stroke-width="4" stroke-linecap="round" stroke-linejoin="round"/>
<path d="M13.7188 30.7202C13.7188 30.7202 13.6788 44.4947 18.8365 55.4171" stroke="#3344E5" stroke-width="4" stroke-linecap="round" stroke-linejoin="round"/>
<path d="M6.32422 42.3394C6.32422 42.3394 7.54281 51.1413 11.3136 59.1763" stroke="#3344E5" stroke-width="4" stroke-linecap="round" stroke-linejoin="round"/>
<path d="M85.154 24.3555C85.154 24.3555 88.0913 38.3352 81.8633 51.4113" stroke="#3344E5" stroke-width="4" stroke-linecap="round" stroke-linejoin="round"/>
<path d="M93.0551 20.4579C93.0551 20.4579 95.5056 35.101 92.5 43.9929" stroke="#3344E5" stroke-width="4" stroke-linecap="round" stroke-linejoin="round"/>
</svg>
