<svg width="587" height="330" viewBox="0 0 587 330" fill="none" xmlns="http://www.w3.org/2000/svg">
<path d="M36.8235 19.7761H11.8007L12.0697 1.00898C12.0697 0.605391 11.8007 0.336328 11.3971 0.336328H6.15034C5.74675 0.336328 5.47769 0.605391 5.47769 1.00898L5.81401 24.1484L5.47769 46.7496C5.47769 47.1532 5.74675 47.4223 6.15034 47.4223H11.3971C11.8007 47.4223 12.0697 47.1532 12.0697 46.7496L11.7334 24.552H36.8907L36.6217 46.7496C36.6217 47.1532 36.8907 47.4223 37.2943 47.4223H42.4738C42.8774 47.4223 43.1464 47.1532 43.1464 46.7496L42.8774 24.1484L43.1464 1.00898C43.1464 0.605391 42.8774 0.336328 42.4738 0.336328H37.2943C36.8907 0.336328 36.6217 0.605391 36.6217 1.00898L36.8235 19.7761Z" fill="white"/>
<path d="M55.9936 40.763L56.1282 29.0588L56.2627 13.4531C56.2627 13.0495 55.9936 12.7805 55.59 12.7805H50.6796C50.2761 12.7805 50.007 13.0495 50.007 13.4531L50.2088 29.4623L50.007 46.7496C50.007 47.1532 50.2761 47.4223 50.6796 47.4223H56.8008C57.1371 47.4223 57.4062 47.2205 57.608 46.9514L73.6845 19.5743L73.55 30.135L73.4154 46.7496C73.4154 47.1532 73.6845 47.4223 74.0881 47.4223H78.9312C79.3348 47.4223 79.6039 47.1532 79.6039 46.7496L79.4021 29.5296L79.6039 13.4531C79.6039 13.0495 79.3348 12.7805 78.9312 12.7805H72.9446C72.6082 12.7805 72.3392 12.9823 72.1374 13.2513L55.9936 40.763Z" fill="white"/>
<path d="M123.335 13.1841L113.986 26.5027H110.151L110.286 13.4531C110.286 13.0495 110.017 12.7805 109.613 12.7805H104.636C104.232 12.7805 103.963 13.0495 103.963 13.4531L104.097 26.5027H100.263L90.9134 13.1841C90.7116 12.8477 90.4426 12.7805 90.1062 12.7805H85.3304C84.7922 12.7805 84.5905 13.1841 84.9268 13.5877L95.4202 27.9825L83.4469 46.6151C83.1779 47.0859 83.3124 47.4223 83.8505 47.4223H89.5008C89.8372 47.4223 90.1062 47.2205 90.308 46.9514L93.2004 41.9738L100.196 30.9422H104.165L103.963 46.7496C103.963 47.1532 104.232 47.4223 104.636 47.4223H109.613C110.017 47.4223 110.286 47.1532 110.286 46.7496L110.084 30.9422H114.053L120.981 41.9738L123.941 46.9514C124.143 47.2205 124.412 47.4223 124.748 47.4223H130.398C130.936 47.4223 131.071 47.0859 130.802 46.6151L118.829 27.9825L129.322 13.5877C129.658 13.1841 129.457 12.7805 128.918 12.7805H124.143C123.806 12.7805 123.537 12.8477 123.335 13.1841Z" fill="white"/>
<path d="M157.619 26.839H140.668L140.87 13.4531C140.87 13.0495 140.601 12.7805 140.198 12.7805H135.287C134.884 12.7805 134.615 13.0495 134.615 13.4531L134.816 29.5296L134.615 46.7496C134.615 47.1532 134.884 47.4223 135.287 47.4223H140.198C140.601 47.4223 140.87 47.1532 140.87 46.7496L140.668 31.3458H157.619L157.418 46.7496C157.418 47.1532 157.687 47.4223 158.09 47.4223H163.001C163.404 47.4223 163.673 47.1532 163.673 46.7496L163.471 29.5296L163.673 13.4531C163.673 13.0495 163.404 12.7805 163.001 12.7805H158.09C157.687 12.7805 157.418 13.0495 157.418 13.4531L157.619 26.839Z" fill="white"/>
<path d="M176.139 40.763L176.273 29.0588L176.408 13.4531C176.408 13.0495 176.139 12.7805 175.735 12.7805H170.825C170.421 12.7805 170.152 13.0495 170.152 13.4531L170.354 29.4623L170.152 46.7496C170.152 47.1532 170.421 47.4223 170.825 47.4223H176.946C177.282 47.4223 177.552 47.2205 177.753 46.9514L193.83 19.5743L193.695 30.135L193.561 46.7496C193.561 47.1532 193.83 47.4223 194.233 47.4223H199.077C199.48 47.4223 199.749 47.1532 199.749 46.7496L199.547 29.5296L199.749 13.4531C199.749 13.0495 199.48 12.7805 199.077 12.7805H193.09C192.754 12.7805 192.484 12.9823 192.283 13.2513L176.139 40.763Z" fill="white"/>
<path d="M221.149 9.14813C214.96 9.14813 211.193 5.44852 211.193 0H216.104C216.104 3.22875 217.785 5.44852 221.216 5.44852C224.579 5.44852 226.328 3.22875 226.395 0H231.373C231.373 5.44852 227.472 9.14813 221.149 9.14813ZM212.202 40.763L212.337 29.0588L212.471 13.4531C212.471 13.0495 212.202 12.7805 211.799 12.7805H206.888C206.485 12.7805 206.216 13.0495 206.216 13.4531L206.417 29.4623L206.216 46.7496C206.216 47.1532 206.485 47.4223 206.888 47.4223H213.009C213.346 47.4223 213.615 47.2205 213.817 46.9514L229.893 19.5743L229.759 30.135L229.624 46.7496C229.624 47.1532 229.893 47.4223 230.297 47.4223H235.14C235.543 47.4223 235.812 47.1532 235.812 46.7496L235.611 29.5296L235.812 13.4531C235.812 13.0495 235.543 12.7805 235.14 12.7805H229.153C228.817 12.7805 228.548 12.9823 228.346 13.2513L212.202 40.763Z" fill="white"/>
<path d="M286.442 19.7761H261.419L261.688 1.00898C261.688 0.605391 261.419 0.336328 261.016 0.336328H255.769C255.365 0.336328 255.096 0.605391 255.096 1.00898L255.432 24.1484L255.096 46.7496C255.096 47.1532 255.365 47.4223 255.769 47.4223H261.016C261.419 47.4223 261.688 47.1532 261.688 46.7496L261.352 24.552H286.509L286.24 46.7496C286.24 47.1532 286.509 47.4223 286.913 47.4223H292.092C292.496 47.4223 292.765 47.1532 292.765 46.7496L292.496 24.1484L292.765 1.00898C292.765 0.605391 292.496 0.336328 292.092 0.336328H286.913C286.509 0.336328 286.24 0.605391 286.24 1.00898L286.442 19.7761Z" fill="white"/>
<path d="M314.827 48.2295C325.388 48.2295 331.24 40.9648 331.24 30.0677C331.24 19.1707 325.388 11.9733 314.827 11.9733C304.334 11.9733 298.347 19.238 298.347 30.2023C298.347 41.0993 304.334 48.2295 314.827 48.2295ZM314.827 43.9245C308.101 43.9245 304.67 38.9468 304.67 30.2023C304.67 21.4577 308.034 16.2783 314.827 16.2783C321.554 16.2783 324.917 21.4577 324.917 30.2023C324.917 38.9468 321.621 43.9245 314.827 43.9245Z" fill="white"/>
<path d="M356.927 28.857C361.3 27.848 364.058 25.4937 364.058 21.3232C364.058 15.5384 359.214 12.7805 350.873 12.7805H337.151C336.748 12.7805 336.479 13.0495 336.479 13.4531L336.613 29.5296L336.411 46.7496C336.411 47.1532 336.68 47.4223 337.084 47.4223H350.941C357.129 47.4223 365.134 45.6734 365.134 37.6688C365.134 33.0947 362.779 30.2023 356.927 28.9242V28.857ZM350.806 17.0182C355.111 17.0182 357.936 18.6998 357.936 22.0631C357.936 25.6282 355.178 27.108 350.806 27.108H342.533L342.667 17.0182H350.806ZM342.533 31.2113H350.873C355.178 31.2113 358.878 33.0274 358.878 37.1306C358.878 41.3684 355.649 43.1845 350.806 43.1845H342.667L342.533 31.2113Z" fill="white"/>
<path d="M369.913 13.4531L370.115 29.5296L369.913 46.7496C369.913 47.1532 370.182 47.4223 370.585 47.4223H375.63C376.034 47.4223 376.303 47.1532 376.303 46.7496L376.101 29.5296L376.168 17.2873H390.832C391.236 17.2873 391.505 17.0182 391.505 16.6146V13.4531C391.505 13.0495 391.236 12.7805 390.832 12.7805H370.585C370.182 12.7805 369.913 13.0495 369.913 13.4531Z" fill="white"/>
<path d="M408.434 48.2295C418.995 48.2295 424.847 40.9648 424.847 30.0677C424.847 19.1707 418.995 11.9733 408.434 11.9733C397.941 11.9733 391.954 19.238 391.954 30.2023C391.954 41.0993 397.941 48.2295 408.434 48.2295ZM408.434 43.9245C401.708 43.9245 398.277 38.9468 398.277 30.2023C398.277 21.4577 401.641 16.2783 408.434 16.2783C415.161 16.2783 418.524 21.4577 418.524 30.2023C418.524 38.9468 415.228 43.9245 408.434 43.9245Z" fill="white"/>
<path d="M447.104 12.1078C442.193 12.1078 438.426 14.4621 436.072 18.2963L436.207 13.4531C436.207 13.0495 435.938 12.7805 435.534 12.7805H430.624C430.22 12.7805 429.951 13.0495 429.951 13.4531L430.22 32.2202L429.951 58.1848C429.951 58.5884 430.22 58.8574 430.624 58.8574H435.669C436.072 58.8574 436.341 58.5884 436.341 58.1848L436.207 42.3773C438.494 46.077 442.193 48.0949 446.969 48.0949C456.117 48.0949 461.431 40.023 461.431 30.0005C461.431 19.9106 456.454 12.1078 447.104 12.1078ZM445.422 43.7899C439.301 43.7899 435.803 38.6777 435.87 29.7987C435.938 20.9196 439.637 16.4128 445.557 16.4128C452.081 16.4128 455.176 22.1304 455.176 30.4713C455.176 38.2741 452.081 43.7899 445.422 43.7899Z" fill="white"/>
<path d="M482.006 48.2295C492.567 48.2295 498.419 40.9648 498.419 30.0677C498.419 19.1707 492.567 11.9733 482.006 11.9733C471.513 11.9733 465.526 19.238 465.526 30.2023C465.526 41.0993 471.513 48.2295 482.006 48.2295ZM482.006 43.9245C475.28 43.9245 471.849 38.9468 471.849 30.2023C471.849 21.4577 475.212 16.2783 482.006 16.2783C488.733 16.2783 492.096 21.4577 492.096 30.2023C492.096 38.9468 488.8 43.9245 482.006 43.9245Z" fill="white"/>
<path d="M529.076 12.7805H506.542C506.139 12.7805 505.87 12.9823 505.87 13.4531C505.668 20.8523 505.197 28.9242 504.592 33.5655C504.121 38.0723 503.179 41.032 501.296 42.9827H499.278C498.874 42.9827 498.605 43.2518 498.605 43.6554V55.0233C498.605 55.4269 498.874 55.6959 499.278 55.6959H503.448C503.852 55.6959 504.121 55.4941 504.121 55.0233L504.323 47.4223H528.875L529.076 55.0233C529.076 55.4941 529.345 55.6959 529.749 55.6959H533.852C534.256 55.6959 534.525 55.4269 534.525 55.0233V43.6554C534.525 43.2518 534.256 42.9827 533.852 42.9827H530.22L529.816 29.0588L529.749 13.4531C529.749 12.9823 529.48 12.7805 529.076 12.7805ZM524.031 42.9827H507.282C508.426 40.6957 509.368 38.2069 509.906 33.6328C510.309 29.6641 510.78 23.2066 510.982 17.22H523.762L524.031 29.0588V42.9827Z" fill="white"/>
<path d="M586.327 25.2246H550.004C549.6 25.2246 549.331 25.4937 549.331 25.8973V29.126C549.331 29.5296 549.6 29.7987 550.004 29.7987H586.327C586.731 29.7987 587 29.5296 587 29.126V25.8973C587 25.4937 586.731 25.2246 586.327 25.2246Z" fill="white"/>
<path d="M23.4376 115.674L12.8769 88.4319C12.7424 88.0283 12.4733 87.8938 12.137 87.8938H5.88128C5.47769 87.8938 5.20862 88.1628 5.20862 88.5664L5.34315 105.517L5.14136 121.863C5.14136 122.266 5.41042 122.536 5.81401 122.536H9.51362C9.91722 122.536 10.1863 122.266 10.1863 121.863L10.119 106.325L9.91722 94.4858L20.6124 121.997C20.747 122.401 21.016 122.536 21.3524 122.536H24.6484C24.9847 122.536 25.2538 122.401 25.3883 121.997L35.949 94.7549L35.8817 98.3872L35.8145 106.325V121.863C35.8145 122.266 36.0835 122.536 36.4871 122.536H41.0612C41.4648 122.536 41.7338 122.266 41.7338 121.863L41.5321 105.517L41.7338 88.5664C41.7338 88.1628 41.4648 87.8938 41.0612 87.8938H34.7382C34.4019 87.8938 34.1328 88.0283 33.9983 88.4319L23.4376 115.674Z" fill="white"/>
<path d="M63.3697 123.343C73.9304 123.343 79.7825 116.078 79.7825 105.181C79.7825 94.284 73.9304 87.0866 63.3697 87.0866C52.8763 87.0866 46.8897 94.3512 46.8897 105.316C46.8897 116.213 52.8763 123.343 63.3697 123.343ZM63.3697 119.038C56.6432 119.038 53.2126 114.06 53.2126 105.316C53.2126 96.571 56.5759 91.3916 63.3697 91.3916C70.0963 91.3916 73.4596 96.571 73.4596 105.316C73.4596 114.06 70.1636 119.038 63.3697 119.038Z" fill="white"/>
<path d="M110.847 87.8938H87.9091C87.5055 87.8938 87.2364 88.0955 87.2364 88.5664C87.0346 96.1674 86.5638 106.728 86.0929 111.571C85.622 117.02 84.6803 118.634 81.9224 118.634C81.5861 118.634 81.2498 118.567 80.9134 118.567C80.4426 118.432 80.1735 118.634 80.1735 119.105V121.997C80.1735 122.334 80.308 122.67 80.7116 122.805C81.317 122.939 82.1242 123.074 83.0659 123.074C89.1871 123.074 90.8015 119.105 91.4069 111.975C91.8105 107.266 92.2813 97.9836 92.4831 92.3333H105.264L105.533 104.979L105.398 121.863C105.398 122.266 105.667 122.536 106.071 122.536H111.048C111.452 122.536 111.721 122.266 111.721 121.863L111.385 104.979L111.519 88.5664C111.519 88.1628 111.25 87.8938 110.847 87.8938Z" fill="white"/>
<path d="M133.329 123.343C143.889 123.343 149.741 116.078 149.741 105.181C149.741 94.284 143.889 87.0866 133.329 87.0866C122.835 87.0866 116.849 94.3512 116.849 105.316C116.849 116.213 122.835 123.343 133.329 123.343ZM133.329 119.038C126.602 119.038 123.171 114.06 123.171 105.316C123.171 96.571 126.535 91.3916 133.329 91.3916C140.055 91.3916 143.418 96.571 143.418 105.316C143.418 114.06 140.122 119.038 133.329 119.038Z" fill="white"/>
<path d="M180.399 87.8938H157.865C157.461 87.8938 157.192 88.0955 157.192 88.5664C156.99 95.9656 156.519 104.038 155.914 108.679C155.443 113.186 154.501 116.145 152.618 118.096H150.6C150.197 118.096 149.927 118.365 149.927 118.769V130.137C149.927 130.54 150.197 130.809 150.6 130.809H154.771C155.174 130.809 155.443 130.607 155.443 130.137L155.645 122.536H180.197L180.399 130.137C180.399 130.607 180.668 130.809 181.071 130.809H185.175C185.578 130.809 185.847 130.54 185.847 130.137V118.769C185.847 118.365 185.578 118.096 185.175 118.096H181.542L181.139 104.172L181.071 88.5664C181.071 88.0955 180.802 87.8938 180.399 87.8938ZM175.354 118.096H158.605C159.748 115.809 160.69 113.32 161.228 108.746C161.632 104.777 162.103 98.3199 162.304 92.3333H175.085L175.354 104.172V118.096Z" fill="white"/>
<path d="M203.948 119.038C197.221 119.038 193.79 114.531 193.589 105.988H219.015C219.419 105.988 219.688 105.719 219.688 105.316C219.486 93.9477 213.634 87.0866 203.544 87.0866C193.387 87.0866 187.333 94.4858 187.333 105.316C187.333 115.876 193.118 123.343 203.88 123.343C212.759 123.343 218.006 118.231 219.15 111.235C219.217 110.764 218.88 110.495 218.477 110.495H213.903C213.499 110.495 213.297 110.697 213.163 111.1C212.087 116.213 209.06 119.038 203.948 119.038ZM203.611 91.3243C209.732 91.3243 212.894 96.1002 213.096 101.818H193.79C194.598 95.1584 197.826 91.3243 203.611 91.3243Z" fill="white"/>
<path d="M259.18 88.2973L249.831 101.616H245.996L246.131 88.5664C246.131 88.1628 245.862 87.8938 245.458 87.8938H240.481C240.077 87.8938 239.808 88.1628 239.808 88.5664L239.942 101.616H236.108L226.758 88.2973C226.557 87.961 226.288 87.8938 225.951 87.8938H221.175C220.637 87.8938 220.435 88.2973 220.772 88.7009L231.265 103.096L219.292 121.728C219.023 122.199 219.157 122.536 219.696 122.536H225.346C225.682 122.536 225.951 122.334 226.153 122.065L229.045 117.087L236.041 106.055H240.01L239.808 121.863C239.808 122.266 240.077 122.536 240.481 122.536H245.458C245.862 122.536 246.131 122.266 246.131 121.863L245.929 106.055H249.898L256.826 117.087L259.786 122.065C259.988 122.334 260.257 122.536 260.593 122.536H266.243C266.781 122.536 266.916 122.199 266.647 121.728L254.674 103.096L265.167 88.7009C265.503 88.2973 265.302 87.8938 264.763 87.8938H259.988C259.651 87.8938 259.382 87.961 259.18 88.2973Z" fill="white"/>
<path d="M293.464 101.952H276.513L276.715 88.5664C276.715 88.1628 276.446 87.8938 276.043 87.8938H271.132C270.729 87.8938 270.46 88.1628 270.46 88.5664L270.661 104.643L270.46 121.863C270.46 122.266 270.729 122.536 271.132 122.536H276.043C276.446 122.536 276.715 122.266 276.715 121.863L276.513 106.459H293.464L293.263 121.863C293.263 122.266 293.532 122.536 293.935 122.536H298.846C299.249 122.536 299.518 122.266 299.518 121.863L299.316 104.643L299.518 88.5664C299.518 88.1628 299.249 87.8938 298.846 87.8938H293.935C293.532 87.8938 293.263 88.1628 293.263 88.5664L293.464 101.952Z" fill="white"/>
<path d="M330.078 93.1405C327.791 89.3063 324.025 87.2211 319.181 87.2211C310.033 87.2211 304.719 95.293 304.719 105.316C304.719 115.338 309.697 123.208 319.047 123.208C324.092 123.208 327.791 120.854 330.146 116.952L330.011 121.863C330.011 122.266 330.28 122.536 330.684 122.536H335.527C335.931 122.536 336.2 122.266 336.2 121.863L335.998 104.845L336.2 88.5664C336.2 88.1628 335.931 87.8938 335.527 87.8938H330.617C330.213 87.8938 329.944 88.1628 329.944 88.5664L330.078 93.1405ZM320.661 118.903C314.069 118.97 310.975 113.186 310.975 104.845C310.975 96.9746 314.069 91.3916 320.796 91.4588C326.85 91.5261 330.347 96.6383 330.28 105.517C330.213 114.396 326.581 118.903 320.661 118.903Z" fill="white"/>
<path d="M355.77 87.8938C346.622 87.8938 341.577 91.3243 341.577 98.2527C341.577 103.97 344.671 107.266 350.053 108.477L341.913 121.728C341.644 122.199 341.846 122.536 342.384 122.536H347.362C347.698 122.536 347.967 122.334 348.169 122.065L351.196 116.683L355.568 109.015H363.371L363.169 121.863C363.169 122.266 363.438 122.536 363.842 122.536H368.887C369.291 122.536 369.56 122.266 369.56 121.863L369.358 104.71L369.56 88.5664C369.56 88.1628 369.291 87.8938 368.887 87.8938H355.77ZM347.833 98.3199C347.833 94.4858 350.591 92.1315 355.501 92.1315H363.304L363.438 104.71H355.501C350.658 104.71 347.833 102.625 347.833 98.3199Z" fill="white"/>
<path d="M5.47534 225.998L5.81167 248.263L5.47534 271.739C5.47534 272.142 5.7444 272.412 6.148 272.412H11.3274C11.731 272.412 12.0001 272.142 12.0001 271.739L11.7983 254.25H21.6191C31.6417 254.25 38.301 249.407 38.301 239.586C38.301 230.169 31.8435 225.326 21.5518 225.326H6.148C5.7444 225.326 5.47534 225.595 5.47534 225.998ZM11.731 248.532L11.9328 230.034H21.7536C28.3456 230.034 32.1125 233.128 32.1125 239.72C32.1125 246.851 28.0093 249.541 22.0227 249.541H11.731V248.532Z" fill="white"/>
<path d="M56.5357 273.219C67.0964 273.219 72.9485 265.954 72.9485 255.057C72.9485 244.16 67.0964 236.963 56.5357 236.963C46.0423 236.963 40.0556 244.227 40.0556 255.192C40.0556 266.089 46.0423 273.219 56.5357 273.219ZM56.5357 268.914C49.8092 268.914 46.3786 263.936 46.3786 255.192C46.3786 246.447 49.7419 241.268 56.5357 241.268C63.2623 241.268 66.6256 246.447 66.6256 255.192C66.6256 263.936 63.3295 268.914 56.5357 268.914Z" fill="white"/>
<path d="M93.3169 273.219C102.196 273.219 107.779 267.636 108.452 260.035C108.519 259.631 108.25 259.429 107.846 259.429H103.407C103.003 259.429 102.734 259.631 102.667 260.102C102.061 265.82 98.429 268.981 93.3841 268.914C86.5903 268.914 83.4288 264.003 83.4288 255.124C83.4288 246.447 86.5903 241.335 93.4514 241.268C97.8909 241.268 101.389 243.891 102.33 249.138C102.398 249.541 102.6 249.743 103.003 249.743H107.375C107.779 249.743 108.048 249.474 107.981 249.07C107.174 241.806 101.927 236.963 93.4514 236.963C82.8907 236.963 77.0386 244.295 77.0386 255.192C77.0386 266.089 82.8907 273.219 93.3169 273.219Z" fill="white"/>
<path d="M128.329 273.219C137.208 273.219 142.791 267.636 143.464 260.035C143.531 259.631 143.262 259.429 142.859 259.429H138.419C138.015 259.429 137.746 259.631 137.679 260.102C137.074 265.82 133.441 268.981 128.396 268.914C121.603 268.914 118.441 264.003 118.441 255.124C118.441 246.447 121.603 241.335 128.464 241.268C132.903 241.268 136.401 243.891 137.343 249.138C137.41 249.541 137.612 249.743 138.015 249.743H142.388C142.791 249.743 143.06 249.474 142.993 249.07C142.186 241.806 136.939 236.963 128.464 236.963C117.903 236.963 112.051 244.295 112.051 255.192C112.051 266.089 117.903 273.219 128.329 273.219Z" fill="white"/>
<path d="M154.196 265.752L154.331 254.048L154.465 238.442C154.465 238.039 154.196 237.77 153.793 237.77H148.882C148.479 237.77 148.21 238.039 148.21 238.442L148.412 254.452L148.21 271.739C148.21 272.142 148.479 272.412 148.882 272.412H155.004C155.34 272.412 155.609 272.21 155.811 271.941L171.887 244.564L171.753 255.124L171.618 271.739C171.618 272.142 171.887 272.412 172.291 272.412H177.134C177.538 272.412 177.807 272.142 177.807 271.739L177.605 254.519L177.807 238.442C177.807 238.039 177.538 237.77 177.134 237.77H171.147C170.811 237.77 170.542 237.972 170.34 238.241L154.196 265.752Z" fill="white"/>
<path d="M190.26 265.752L190.394 254.048L190.529 238.442C190.529 238.039 190.26 237.77 189.856 237.77H184.946C184.542 237.77 184.273 238.039 184.273 238.442L184.475 254.452L184.273 271.739C184.273 272.142 184.542 272.412 184.946 272.412H191.067C191.403 272.412 191.672 272.21 191.874 271.941L207.951 244.564L207.816 255.124L207.682 271.739C207.682 272.142 207.951 272.412 208.354 272.412H213.197C213.601 272.412 213.87 272.142 213.87 271.739L213.668 254.519L213.87 238.442C213.87 238.039 213.601 237.77 213.197 237.77H207.211C206.874 237.77 206.605 237.972 206.403 238.241L190.26 265.752Z" fill="white"/>
<path d="M261.002 267.568H237.862V265.416C237.862 252.837 262.011 254.99 262.011 238.173C261.876 229.765 256.697 224.518 247.145 224.518C237.324 224.586 232.01 230.303 231.808 240.662C231.808 241.066 232.077 241.335 232.481 241.335H236.853C237.257 241.335 237.526 241.133 237.526 240.662C237.862 233.196 241.293 229.294 247.145 229.227C253.266 229.227 256.226 233.128 256.158 238.375C256.158 250.483 231.943 248.061 231.943 266.29V271.739C231.943 272.142 232.212 272.412 232.616 272.412H261.002C261.405 272.412 261.674 272.142 261.674 271.739V268.241C261.674 267.837 261.405 267.568 261.002 267.568Z" fill="white"/>
<path d="M283.051 273.286C293.275 273.286 300.001 264.407 300.001 248.936C300.001 233.061 293.275 224.451 283.051 224.451C272.759 224.451 266.1 233.196 266.1 248.936C266.1 264.34 272.826 273.286 283.051 273.286ZM283.051 268.308C276.593 268.308 272.557 261.716 272.557 248.936C272.557 236.021 276.391 229.429 283.051 229.429C289.575 229.429 293.477 236.088 293.477 248.936C293.477 261.784 289.575 268.308 283.051 268.308Z" fill="white"/>
<path d="M333.457 267.568H310.317V265.416C310.317 252.837 334.466 254.99 334.466 238.173C334.331 229.765 329.152 224.518 319.6 224.518C309.779 224.586 304.465 230.303 304.263 240.662C304.263 241.066 304.532 241.335 304.936 241.335H309.308C309.712 241.335 309.981 241.133 309.981 240.662C310.317 233.196 313.748 229.294 319.6 229.227C325.721 229.227 328.681 233.128 328.613 238.375C328.613 250.483 304.398 248.061 304.398 266.29V271.739C304.398 272.142 304.667 272.412 305.071 272.412H333.457C333.86 272.412 334.129 272.142 334.129 271.739V268.241C334.129 267.837 333.86 267.568 333.457 267.568Z" fill="white"/>
<path d="M353.827 273.084C363.513 273.084 370.307 267.367 370.307 258.42C370.307 252.434 366.877 248.263 361.025 246.985C365.733 245.505 369.164 242.411 369.164 236.761C369.164 229.227 362.975 224.653 354.702 224.653C345.486 224.653 339.365 229.496 338.827 238.779C338.827 239.182 339.096 239.451 339.5 239.451H344.141C344.544 239.451 344.813 239.25 344.881 238.779C345.284 232.389 348.446 229.092 354.432 229.092C359.276 229.092 362.908 232.119 362.908 237.299C362.908 242.075 359.612 245.169 352.684 245.169H350.531C350.127 245.169 349.858 245.438 349.858 245.842V248.801C349.858 249.205 350.127 249.474 350.531 249.474H352.684C360.15 249.474 363.984 252.501 363.917 258.488C363.85 264.541 360.486 268.645 353.962 268.645C347.571 268.645 344.612 264.878 344.275 258.286C344.275 257.815 344.006 257.613 343.603 257.613H338.76C338.356 257.613 338.087 257.882 338.154 258.286C338.827 268.039 344.141 273.084 353.827 273.084Z" fill="white"/>
<path d="M89.0898 198.226C97.9689 198.226 103.552 192.643 104.225 185.042C104.292 184.638 104.023 184.436 103.619 184.436H99.1796C98.7761 184.436 98.507 184.638 98.4397 185.109C97.8343 190.827 94.202 193.988 89.1571 193.921C82.3632 193.921 79.2018 189.011 79.2018 180.131C79.2018 171.454 82.3632 166.342 89.2243 166.275C93.6639 166.275 97.1617 168.898 98.1034 174.145C98.1707 174.548 98.3725 174.75 98.7761 174.75H103.148C103.552 174.75 103.821 174.481 103.754 174.078C102.947 166.813 97.6998 161.97 89.2243 161.97C78.6636 161.97 72.8115 169.302 72.8115 180.199C72.8115 191.096 78.6636 198.226 89.0898 198.226Z" fill="white"/>
<path d="M105.113 163.45V166.611C105.113 167.015 105.382 167.284 105.786 167.284H116.952L117.086 179.526L116.885 196.746C116.885 197.15 117.154 197.419 117.557 197.419H122.602C123.006 197.419 123.275 197.15 123.275 196.746L123.073 179.526L123.208 167.284H134.441C134.845 167.284 135.114 167.015 135.114 166.611V163.45C135.114 163.046 134.845 162.777 134.441 162.777H105.786C105.382 162.777 105.113 163.046 105.113 163.45Z" fill="white"/>
<path d="M152.156 198.226C162.717 198.226 168.569 190.961 168.569 180.064C168.569 169.167 162.717 161.97 152.156 161.97C141.663 161.97 135.676 169.234 135.676 180.199C135.676 191.096 141.663 198.226 152.156 198.226ZM152.156 193.921C145.429 193.921 141.999 188.943 141.999 180.199C141.999 171.454 145.362 166.275 152.156 166.275C158.883 166.275 162.246 171.454 162.246 180.199C162.246 188.943 158.95 193.921 152.156 193.921Z" fill="white"/>
<path d="M199.633 162.777H176.695C176.292 162.777 176.023 162.979 176.023 163.45C175.821 171.051 175.35 181.611 174.879 186.454C174.408 191.903 173.467 193.517 170.709 193.517C170.372 193.517 170.036 193.45 169.7 193.45C169.229 193.316 168.96 193.517 168.96 193.988V196.881C168.96 197.217 169.094 197.553 169.498 197.688C170.103 197.822 170.911 197.957 171.852 197.957C177.973 197.957 179.588 193.988 180.193 186.858C180.597 182.149 181.068 172.867 181.269 167.216H194.05L194.319 179.862L194.184 196.746C194.184 197.15 194.454 197.419 194.857 197.419H199.835C200.238 197.419 200.507 197.15 200.507 196.746L200.171 179.862L200.306 163.45C200.306 163.046 200.037 162.777 199.633 162.777Z" fill="white"/>
<path d="M212.965 190.759L213.1 179.055L213.234 163.45C213.234 163.046 212.965 162.777 212.562 162.777H207.651C207.248 162.777 206.979 163.046 206.979 163.45L207.18 179.459L206.979 196.746C206.979 197.15 207.248 197.419 207.651 197.419H213.772C214.109 197.419 214.378 197.217 214.58 196.948L230.656 169.571L230.522 180.131L230.387 196.746C230.387 197.15 230.656 197.419 231.06 197.419H235.903C236.306 197.419 236.575 197.15 236.575 196.746L236.374 179.526L236.575 163.45C236.575 163.046 236.306 162.777 235.903 162.777H229.916C229.58 162.777 229.311 162.979 229.109 163.248L212.965 190.759Z" fill="white"/>
<path d="M270.89 162.777H265.845C265.441 162.777 265.172 163.046 265.172 163.45L265.374 179.526L265.24 192.979H249.365L249.23 179.526L249.432 163.45C249.432 163.046 249.163 162.777 248.759 162.777H243.715C243.311 162.777 243.042 163.046 243.042 163.45L243.244 179.526L243.042 196.746C243.042 197.15 243.311 197.419 243.715 197.419H270.083L270.284 205.02C270.284 205.491 270.554 205.692 270.957 205.692H275.06C275.464 205.692 275.733 205.423 275.733 205.02V193.652C275.733 193.248 275.464 192.979 275.06 192.979H271.495L271.361 179.526L271.563 163.45C271.563 163.046 271.293 162.777 270.89 162.777Z" fill="white"/>
<path d="M302.595 168.024C300.308 164.189 296.541 162.104 291.698 162.104C282.55 162.104 277.236 170.176 277.236 180.199C277.236 190.221 282.214 198.091 291.564 198.091C296.608 198.091 300.308 195.737 302.662 191.836L302.528 196.746C302.528 197.15 302.797 197.419 303.2 197.419H308.044C308.447 197.419 308.716 197.15 308.716 196.746L308.514 179.728L308.716 163.45C308.716 163.046 308.447 162.777 308.044 162.777H303.133C302.73 162.777 302.461 163.046 302.461 163.45L302.595 168.024ZM293.178 193.786C286.586 193.854 283.492 188.069 283.492 179.728C283.492 171.858 286.586 166.275 293.312 166.342C299.366 166.409 302.864 171.521 302.797 180.401C302.73 189.28 299.097 193.786 293.178 193.786Z" fill="white"/>
<path d="M39.5325 161.381C40.6306 154.417 42.5471 141.59 49.2607 142.832C59.1094 144.653 50.6162 162.089 51.2917 175.466C51.6845 183.247 54.6441 205.31 27.7003 205.31C-1.87858 205.31 -1.78633 175.217 7.49697 170.075C5.14453 164.237 -2.03928 146.29 6.14443 144.177C12.1855 142.616 14.0306 149.492 18.2161 162.87C19.4244 159.415 26.815 158.582 29.4933 161.381C33.5807 158.243 39.5325 161.381 39.5325 161.381ZM39.5325 161.381C39.7006 169.72 41.9667 182.409 34.2725 182.403C31.996 182.403 28.7493 181.819 28.2865 176.023M7.49698 170.073C7.49698 170.073 25.5666 159.726 29.6153 170.073C32.8888 178.428 14.1228 183.378 14.1228 183.378C14.1228 183.378 27.0174 183.365 30.276 192.845" stroke="#96F400" stroke-width="4" stroke-linecap="round" stroke-linejoin="round"/>
</svg>
