<svg width="553" height="311" viewBox="0 0 553 311" fill="none" xmlns="http://www.w3.org/2000/svg">
<path d="M34.8782 18.6239H11.3133L11.5667 0.950197C11.5667 0.570119 11.3133 0.316732 10.9332 0.316732H5.99219C5.61211 0.316732 5.35873 0.570119 5.35873 0.950197L5.67546 22.7414L5.35873 44.0259C5.35873 44.4059 5.61211 44.6593 5.99219 44.6593H10.9332C11.3133 44.6593 11.5667 44.4059 11.5667 44.0259L11.25 23.1215H34.9416L34.6882 44.0259C34.6882 44.4059 34.9416 44.6593 35.3216 44.6593H40.1993C40.5794 44.6593 40.8328 44.4059 40.8328 44.0259L40.5794 22.7414L40.8328 0.950197C40.8328 0.570119 40.5794 0.316732 40.1993 0.316732H35.3216C34.9416 0.316732 34.6882 0.570119 34.6882 0.950197L34.8782 18.6239Z" fill="white"/>
<path d="M52.9315 38.388L53.0582 27.3657L53.1849 12.6693C53.1849 12.2892 52.9315 12.0358 52.5514 12.0358H47.9271C47.547 12.0358 47.2936 12.2892 47.2936 12.6693L47.4837 27.7458L47.2936 44.0259C47.2936 44.4059 47.547 44.6593 47.9271 44.6593H53.6916C54.0084 44.6593 54.2618 44.4693 54.4518 44.2159L69.5916 18.4338L69.4649 28.3793L69.3382 44.0259C69.3382 44.4059 69.5916 44.6593 69.9717 44.6593H74.5327C74.9127 44.6593 75.1661 44.4059 75.1661 44.0259L74.9761 27.8091L75.1661 12.6693C75.1661 12.2892 74.9127 12.0358 74.5327 12.0358H68.8948C68.5781 12.0358 68.3247 12.2259 68.1347 12.4793L52.9315 38.388Z" fill="white"/>
<path d="M116.35 12.4159L107.545 24.9585H103.934L104.061 12.6693C104.061 12.2892 103.807 12.0358 103.427 12.0358H98.7394C98.3594 12.0358 98.106 12.2892 98.106 12.6693L98.2327 24.9585H94.6219L85.8167 12.4159C85.6267 12.0992 85.3733 12.0358 85.0566 12.0358H80.559C80.0522 12.0358 79.8622 12.4159 80.1789 12.796L90.061 26.3522L78.7853 43.8992C78.5319 44.3426 78.6586 44.6593 79.1654 44.6593H84.4865C84.8032 44.6593 85.0566 44.4693 85.2466 44.2159L87.9705 39.5283L94.5586 29.1394H98.296L98.106 44.0259C98.106 44.4059 98.3594 44.6593 98.7394 44.6593H103.427C103.807 44.6593 104.061 44.4059 104.061 44.0259L103.871 29.1394H107.608L114.133 39.5283L116.92 44.2159C117.11 44.4693 117.363 44.6593 117.68 44.6593H123.001C123.508 44.6593 123.635 44.3426 123.381 43.8992L112.106 26.3522L121.988 12.796C122.304 12.4159 122.114 12.0358 121.608 12.0358H117.11C116.793 12.0358 116.54 12.0992 116.35 12.4159Z" fill="white"/>
<path d="M148.636 25.2753H132.673L132.863 12.6693C132.863 12.2892 132.61 12.0358 132.229 12.0358H127.605C127.225 12.0358 126.972 12.2892 126.972 12.6693L127.162 27.8091L126.972 44.0259C126.972 44.4059 127.225 44.6593 127.605 44.6593H132.229C132.61 44.6593 132.863 44.4059 132.863 44.0259L132.673 29.5195H148.636L148.446 44.0259C148.446 44.4059 148.7 44.6593 149.08 44.6593H153.704C154.084 44.6593 154.337 44.4059 154.337 44.0259L154.147 27.8091L154.337 12.6693C154.337 12.2892 154.084 12.0358 153.704 12.0358H149.08C148.7 12.0358 148.446 12.2892 148.446 12.6693L148.636 25.2753Z" fill="white"/>
<path d="M166.077 38.388L166.204 27.3657L166.33 12.6693C166.33 12.2892 166.077 12.0358 165.697 12.0358H161.072C160.692 12.0358 160.439 12.2892 160.439 12.6693L160.629 27.7458L160.439 44.0259C160.439 44.4059 160.692 44.6593 161.072 44.6593H166.837C167.154 44.6593 167.407 44.4693 167.597 44.2159L182.737 18.4338L182.61 28.3793L182.484 44.0259C182.484 44.4059 182.737 44.6593 183.117 44.6593H187.678C188.058 44.6593 188.311 44.4059 188.311 44.0259L188.121 27.8091L188.311 12.6693C188.311 12.2892 188.058 12.0358 187.678 12.0358H182.04C181.723 12.0358 181.47 12.2259 181.28 12.4793L166.077 38.388Z" fill="white"/>
<path d="M208.464 8.61513C202.636 8.61513 199.089 5.13107 199.089 0H203.713C203.713 3.04064 205.297 5.13107 208.527 5.13107C211.695 5.13107 213.342 3.04064 213.405 0H218.093C218.093 5.13107 214.419 8.61513 208.464 8.61513ZM200.039 38.388L200.166 27.3657L200.292 12.6693C200.292 12.2892 200.039 12.0358 199.659 12.0358H195.035C194.655 12.0358 194.401 12.2892 194.401 12.6693L194.591 27.7458L194.401 44.0259C194.401 44.4059 194.655 44.6593 195.035 44.6593H200.799C201.116 44.6593 201.369 44.4693 201.559 44.2159L216.699 18.4338L216.572 28.3793L216.446 44.0259C216.446 44.4059 216.699 44.6593 217.079 44.6593H221.64C222.02 44.6593 222.274 44.4059 222.274 44.0259L222.084 27.8091L222.274 12.6693C222.274 12.2892 222.02 12.0358 221.64 12.0358H216.002C215.686 12.0358 215.432 12.2259 215.242 12.4793L200.039 38.388Z" fill="white"/>
<path d="M269.953 18.6239H246.388L246.642 0.950197C246.642 0.570119 246.388 0.316732 246.008 0.316732H241.067C240.687 0.316732 240.434 0.570119 240.434 0.950197L240.751 22.7414L240.434 44.0259C240.434 44.4059 240.687 44.6593 241.067 44.6593H246.008C246.388 44.6593 246.642 44.4059 246.642 44.0259L246.325 23.1215H270.017L269.763 44.0259C269.763 44.4059 270.017 44.6593 270.397 44.6593H275.274C275.654 44.6593 275.908 44.4059 275.908 44.0259L275.654 22.7414L275.908 0.950197C275.908 0.570119 275.654 0.316732 275.274 0.316732H270.397C270.017 0.316732 269.763 0.570119 269.763 0.950197L269.953 18.6239Z" fill="white"/>
<path d="M296.685 45.4195C306.63 45.4195 312.142 38.5781 312.142 28.3159C312.142 18.0538 306.63 11.2757 296.685 11.2757C286.803 11.2757 281.165 18.1171 281.165 28.4426C281.165 38.7047 286.803 45.4195 296.685 45.4195ZM296.685 41.3653C290.35 41.3653 287.12 36.6777 287.12 28.4426C287.12 20.2076 290.287 15.3299 296.685 15.3299C303.02 15.3299 306.187 20.2076 306.187 28.4426C306.187 36.6777 303.083 41.3653 296.685 41.3653Z" fill="white"/>
<path d="M336.332 27.1757C340.45 26.2255 343.047 24.0083 343.047 20.0809C343.047 14.6331 338.486 12.0358 330.631 12.0358H317.708C317.328 12.0358 317.075 12.2892 317.075 12.6693L317.201 27.8091L317.011 44.0259C317.011 44.4059 317.265 44.6593 317.645 44.6593H330.694C336.522 44.6593 344.06 43.0123 344.06 35.4741C344.06 31.1665 341.843 28.4426 336.332 27.239V27.1757ZM330.567 16.0267C334.622 16.0267 337.282 17.6103 337.282 20.7777C337.282 24.135 334.685 25.5287 330.567 25.5287H322.776L322.903 16.0267H330.567ZM322.776 29.3928H330.631C334.685 29.3928 338.169 31.1032 338.169 34.9673C338.169 38.9581 335.128 40.6685 330.567 40.6685H322.903L322.776 29.3928Z" fill="white"/>
<path d="M348.561 12.6693L348.751 27.8091L348.561 44.0259C348.561 44.4059 348.814 44.6593 349.194 44.6593H353.945C354.325 44.6593 354.579 44.4059 354.579 44.0259L354.389 27.8091L354.452 16.2801H368.262C368.642 16.2801 368.895 16.0267 368.895 15.6466V12.6693C368.895 12.2892 368.642 12.0358 368.262 12.0358H349.194C348.814 12.0358 348.561 12.2892 348.561 12.6693Z" fill="white"/>
<path d="M384.838 45.4195C394.784 45.4195 400.295 38.5781 400.295 28.3159C400.295 18.0538 394.784 11.2757 384.838 11.2757C374.956 11.2757 369.318 18.1171 369.318 28.4426C369.318 38.7047 374.956 45.4195 384.838 45.4195ZM384.838 41.3653C378.503 41.3653 375.273 36.6777 375.273 28.4426C375.273 20.2076 378.44 15.3299 384.838 15.3299C391.173 15.3299 394.34 20.2076 394.34 28.4426C394.34 36.6777 391.236 41.3653 384.838 41.3653Z" fill="white"/>
<path d="M421.254 11.4024C416.63 11.4024 413.083 13.6195 410.866 17.2303L410.992 12.6693C410.992 12.2892 410.739 12.0358 410.359 12.0358H405.735C405.355 12.0358 405.101 12.2892 405.101 12.6693L405.354 30.343L405.101 54.7948C405.101 55.1749 405.355 55.4282 405.735 55.4282H410.486C410.866 55.4282 411.119 55.1749 411.119 54.7948L410.992 39.9083C413.146 43.3924 416.63 45.2928 421.128 45.2928C429.743 45.2928 434.747 37.6912 434.747 28.2526C434.747 18.7506 430.06 11.4024 421.254 11.4024ZM419.671 41.2386C413.906 41.2386 410.612 36.4243 410.676 28.0625C410.739 19.7008 414.223 15.4566 419.798 15.4566C425.942 15.4566 428.856 20.841 428.856 28.696C428.856 36.0442 425.942 41.2386 419.671 41.2386Z" fill="white"/>
<path d="M454.123 45.4195C464.069 45.4195 469.58 38.5781 469.58 28.3159C469.58 18.0538 464.069 11.2757 454.123 11.2757C444.241 11.2757 438.604 18.1171 438.604 28.4426C438.604 38.7047 444.241 45.4195 454.123 45.4195ZM454.123 41.3653C447.789 41.3653 444.558 36.6777 444.558 28.4426C444.558 20.2076 447.725 15.3299 454.123 15.3299C460.458 15.3299 463.625 20.2076 463.625 28.4426C463.625 36.6777 460.521 41.3653 454.123 41.3653Z" fill="white"/>
<path d="M498.451 12.0358H477.23C476.85 12.0358 476.597 12.2259 476.597 12.6693C476.407 19.6374 475.963 27.239 475.393 31.6099C474.95 35.8542 474.063 38.6414 472.289 40.4785H470.389C470.009 40.4785 469.755 40.7318 469.755 41.1119V51.8175C469.755 52.1976 470.009 52.451 470.389 52.451H474.316C474.696 52.451 474.95 52.2609 474.95 51.8175L475.14 44.6593H498.261L498.451 51.8175C498.451 52.2609 498.705 52.451 499.085 52.451H502.949C503.329 52.451 503.582 52.1976 503.582 51.8175V41.1119C503.582 40.7318 503.329 40.4785 502.949 40.4785H499.528L499.148 27.3657L499.085 12.6693C499.085 12.2259 498.831 12.0358 498.451 12.0358ZM493.7 40.4785H477.927C479.004 38.3247 479.891 35.9808 480.397 31.6733C480.777 27.9358 481.221 21.8546 481.411 16.2167H493.447L493.7 27.3657V40.4785Z" fill="white"/>
<path d="M552.367 23.755H518.159C517.779 23.755 517.526 24.0083 517.526 24.3884V27.4291C517.526 27.8091 517.779 28.0625 518.159 28.0625H552.367C552.747 28.0625 553 27.8091 553 27.4291V24.3884C553 24.0083 552.747 23.755 552.367 23.755Z" fill="white"/>
<path d="M22.2723 108.935L12.3268 83.2796C12.2002 82.8995 11.9468 82.7728 11.63 82.7728H5.7388C5.35873 82.7728 5.10534 83.0262 5.10534 83.4063L5.23203 99.3696L5.04199 114.763C5.04199 115.143 5.29538 115.396 5.67546 115.396H9.15952C9.5396 115.396 9.79298 115.143 9.79298 114.763L9.72964 100.13L9.5396 88.9808L19.6117 114.89C19.7384 115.27 19.9918 115.396 20.3085 115.396H23.4125C23.7292 115.396 23.9826 115.27 24.1093 114.89L34.0547 89.2342L33.9914 92.6549L33.928 100.13V114.763C33.928 115.143 34.1814 115.396 34.5615 115.396H38.869C39.2491 115.396 39.5025 115.143 39.5025 114.763L39.3125 99.3696L39.5025 83.4063C39.5025 83.0262 39.2491 82.7728 38.869 82.7728H32.9145C32.5977 82.7728 32.3444 82.8995 32.2177 83.2796L22.2723 108.935Z" fill="white"/>
<path d="M59.8778 116.156C69.8232 116.156 75.3344 109.315 75.3344 99.0529C75.3344 88.7907 69.8232 82.0127 59.8778 82.0127C49.9958 82.0127 44.3579 88.8541 44.3579 99.1796C44.3579 109.442 49.9958 116.156 59.8778 116.156ZM59.8778 112.102C53.5432 112.102 50.3125 107.415 50.3125 99.1796C50.3125 90.9445 53.4798 86.0669 59.8778 86.0669C66.2125 86.0669 69.3798 90.9445 69.3798 99.1796C69.3798 107.415 66.2758 112.102 59.8778 112.102Z" fill="white"/>
<path d="M104.589 82.7728H82.9874C82.6074 82.7728 82.354 82.9629 82.354 83.4063C82.1639 90.5645 81.7205 100.51 81.2771 105.071C80.8336 110.202 79.9468 111.722 77.3496 111.722C77.0329 111.722 76.7161 111.659 76.3994 111.659C75.956 111.532 75.7026 111.722 75.7026 112.166V114.89C75.7026 115.206 75.8293 115.523 76.2094 115.65C76.7795 115.776 77.5396 115.903 78.4265 115.903C84.191 115.903 85.7113 112.166 86.2814 105.451C86.6615 101.017 87.105 92.2748 87.295 86.9537H99.3308L99.5842 98.8629L99.4575 114.763C99.4575 115.143 99.7109 115.396 100.091 115.396H104.779C105.159 115.396 105.412 115.143 105.412 114.763L105.095 98.8629L105.222 83.4063C105.222 83.0262 104.969 82.7728 104.589 82.7728Z" fill="white"/>
<path d="M125.761 116.156C135.706 116.156 141.217 109.315 141.217 99.0529C141.217 88.7907 135.706 82.0127 125.761 82.0127C115.879 82.0127 110.241 88.8541 110.241 99.1796C110.241 109.442 115.879 116.156 125.761 116.156ZM125.761 112.102C119.426 112.102 116.195 107.415 116.195 99.1796C116.195 90.9445 119.363 86.0669 125.761 86.0669C132.095 86.0669 135.263 90.9445 135.263 99.1796C135.263 107.415 132.159 112.102 125.761 112.102Z" fill="white"/>
<path d="M170.088 82.7728H148.867C148.487 82.7728 148.234 82.9629 148.234 83.4063C148.044 90.3744 147.6 97.976 147.03 102.347C146.587 106.591 145.7 109.378 143.926 111.215H142.026C141.646 111.215 141.392 111.469 141.392 111.849V122.554C141.392 122.935 141.646 123.188 142.026 123.188H145.953C146.333 123.188 146.587 122.998 146.587 122.554L146.777 115.396H169.898L170.088 122.554C170.088 122.998 170.342 123.188 170.722 123.188H174.586C174.966 123.188 175.22 122.935 175.22 122.554V111.849C175.22 111.469 174.966 111.215 174.586 111.215H171.165L170.785 98.1027L170.722 83.4063C170.722 82.9629 170.469 82.7728 170.088 82.7728ZM165.337 111.215H149.564C150.641 109.062 151.528 106.718 152.035 102.41C152.415 98.6728 152.858 92.5915 153.048 86.9537H165.084L165.337 98.1027V111.215Z" fill="white"/>
<path d="M192.265 112.102C185.931 112.102 182.7 107.858 182.51 99.813H206.455C206.835 99.813 207.088 99.5597 207.088 99.1796C206.898 88.474 201.387 82.0127 191.885 82.0127C182.32 82.0127 176.619 88.9808 176.619 99.1796C176.619 109.125 182.066 116.156 192.202 116.156C200.564 116.156 205.505 111.342 206.581 104.754C206.645 104.311 206.328 104.057 205.948 104.057H201.64C201.26 104.057 201.07 104.247 200.944 104.627C199.93 109.442 197.08 112.102 192.265 112.102ZM191.948 86.0035C197.713 86.0035 200.69 90.5011 200.88 95.8856H182.7C183.46 89.6143 186.501 86.0035 191.948 86.0035Z" fill="white"/>
<path d="M244.28 83.1529L235.475 95.6955H231.864L231.991 83.4063C231.991 83.0262 231.737 82.7728 231.357 82.7728H226.67C226.29 82.7728 226.036 83.0262 226.036 83.4063L226.163 95.6955H222.552L213.747 83.1529C213.557 82.8362 213.304 82.7728 212.987 82.7728H208.489C207.983 82.7728 207.792 83.1529 208.109 83.533L217.991 97.0891L206.716 114.636C206.462 115.08 206.589 115.396 207.096 115.396H212.417C212.734 115.396 212.987 115.206 213.177 114.953L215.901 110.265L222.489 99.8764H226.226L226.036 114.763C226.036 115.143 226.29 115.396 226.67 115.396H231.357C231.737 115.396 231.991 115.143 231.991 114.763L231.801 99.8764H235.538L242.063 110.265L244.85 114.953C245.04 115.206 245.294 115.396 245.61 115.396H250.931C251.438 115.396 251.565 115.08 251.312 114.636L240.036 97.0891L249.918 83.533C250.235 83.1529 250.045 82.7728 249.538 82.7728H245.04C244.724 82.7728 244.47 82.8362 244.28 83.1529Z" fill="white"/>
<path d="M276.567 96.0123H260.603L260.793 83.4063C260.793 83.0262 260.54 82.7728 260.16 82.7728H255.535C255.155 82.7728 254.902 83.0262 254.902 83.4063L255.092 98.5461L254.902 114.763C254.902 115.143 255.155 115.396 255.535 115.396H260.16C260.54 115.396 260.793 115.143 260.793 114.763L260.603 100.256H276.567L276.376 114.763C276.376 115.143 276.63 115.396 277.01 115.396H281.634C282.014 115.396 282.268 115.143 282.268 114.763L282.078 98.5461L282.268 83.4063C282.268 83.0262 282.014 82.7728 281.634 82.7728H277.01C276.63 82.7728 276.376 83.0262 276.376 83.4063L276.567 96.0123Z" fill="white"/>
<path d="M311.047 87.7139C308.894 84.1031 305.346 82.1394 300.785 82.1394C292.17 82.1394 287.166 89.741 287.166 99.1796C287.166 108.618 291.853 116.03 300.659 116.03C305.41 116.03 308.894 113.813 311.111 110.139L310.984 114.763C310.984 115.143 311.237 115.396 311.617 115.396H316.178C316.559 115.396 316.812 115.143 316.812 114.763L316.622 98.7362L316.812 83.4063C316.812 83.0262 316.559 82.7728 316.178 82.7728H311.554C311.174 82.7728 310.921 83.0262 310.921 83.4063L311.047 87.7139ZM302.179 111.976C295.971 112.039 293.057 106.591 293.057 98.7362C293.057 91.3246 295.971 86.0668 302.306 86.1302C308.007 86.1935 311.301 91.0079 311.237 99.3696C311.174 107.731 307.753 111.976 302.179 111.976Z" fill="white"/>
<path d="M335.242 82.7728C326.627 82.7728 321.876 86.0035 321.876 92.5282C321.876 97.9127 324.79 101.017 329.858 102.157L322.193 114.636C321.939 115.08 322.13 115.396 322.636 115.396H327.324C327.641 115.396 327.894 115.206 328.084 114.953L330.935 109.885L335.052 102.664H342.4L342.21 114.763C342.21 115.143 342.464 115.396 342.844 115.396H347.595C347.975 115.396 348.228 115.143 348.228 114.763L348.038 98.6095L348.228 83.4063C348.228 83.0262 347.975 82.7728 347.595 82.7728H335.242ZM327.767 92.5916C327.767 88.9808 330.365 86.7637 334.989 86.7637H342.337L342.464 98.6095H334.989C330.428 98.6095 327.767 96.6457 327.767 92.5916Z" fill="white"/>
<path d="M5.35693 212.831L5.67367 233.799L5.35693 255.907C5.35693 256.287 5.61032 256.54 5.9904 256.54H10.8681C11.2482 256.54 11.5015 256.287 11.5015 255.907L11.3115 239.437H20.5601C29.9987 239.437 36.27 234.876 36.27 225.627C36.27 216.758 30.1888 212.198 20.4968 212.198H5.9904C5.61032 212.198 5.35693 212.451 5.35693 212.831ZM11.2482 234.052L11.4382 216.632H20.6868C26.8948 216.632 30.4422 219.546 30.4422 225.754C30.4422 232.468 26.578 235.002 20.9402 235.002H11.2482V234.052Z" fill="white"/>
<path d="M53.4424 257.3C63.3878 257.3 68.899 250.459 68.899 240.197C68.899 229.935 63.3878 223.156 53.4424 223.156C43.5603 223.156 37.9225 229.998 37.9225 240.323C37.9225 250.586 43.5603 257.3 53.4424 257.3ZM53.4424 253.246C47.1078 253.246 43.8771 248.558 43.8771 240.323C43.8771 232.088 47.0444 227.211 53.4424 227.211C59.7771 227.211 62.9444 232.088 62.9444 240.323C62.9444 248.558 59.8404 253.246 53.4424 253.246Z" fill="white"/>
<path d="M88.0806 257.3C96.4423 257.3 101.7 252.043 102.334 244.884C102.397 244.504 102.144 244.314 101.763 244.314H97.5826C97.2025 244.314 96.9491 244.504 96.8858 244.948C96.3156 250.332 92.8949 253.309 88.1439 253.246C81.7459 253.246 78.7687 248.622 78.7687 240.26C78.7687 232.088 81.7459 227.274 88.2073 227.211C92.3882 227.211 95.6822 229.681 96.569 234.622C96.6324 235.002 96.8224 235.192 97.2025 235.192H101.32C101.7 235.192 101.953 234.939 101.89 234.559C101.13 227.717 96.1889 223.156 88.2073 223.156C78.2619 223.156 72.7507 230.061 72.7507 240.323C72.7507 250.586 78.2619 257.3 88.0806 257.3Z" fill="white"/>
<path d="M121.053 257.3C129.415 257.3 134.672 252.043 135.306 244.884C135.369 244.504 135.116 244.314 134.736 244.314H130.555C130.175 244.314 129.921 244.504 129.858 244.948C129.288 250.332 125.867 253.309 121.116 253.246C114.718 253.246 111.741 248.622 111.741 240.26C111.741 232.088 114.718 227.274 121.18 227.211C125.361 227.211 128.655 229.681 129.541 234.622C129.605 235.002 129.795 235.192 130.175 235.192H134.292C134.672 235.192 134.926 234.939 134.863 234.559C134.102 227.717 129.161 223.156 121.18 223.156C111.234 223.156 105.723 230.061 105.723 240.323C105.723 250.586 111.234 257.3 121.053 257.3Z" fill="white"/>
<path d="M145.413 250.269L145.54 239.247L145.667 224.55C145.667 224.17 145.413 223.917 145.033 223.917H140.409C140.029 223.917 139.775 224.17 139.775 224.55L139.965 239.627L139.775 255.907C139.775 256.287 140.029 256.54 140.409 256.54H146.173C146.49 256.54 146.743 256.35 146.933 256.097L162.073 230.315L161.947 240.26L161.82 255.907C161.82 256.287 162.073 256.54 162.453 256.54H167.014C167.394 256.54 167.648 256.287 167.648 255.907L167.458 239.69L167.648 224.55C167.648 224.17 167.394 223.917 167.014 223.917H161.377C161.06 223.917 160.806 224.107 160.616 224.36L145.413 250.269Z" fill="white"/>
<path d="M179.375 250.269L179.502 239.247L179.629 224.55C179.629 224.17 179.375 223.917 178.995 223.917H174.371C173.991 223.917 173.737 224.17 173.737 224.55L173.928 239.627L173.737 255.907C173.737 256.287 173.991 256.54 174.371 256.54H180.135C180.452 256.54 180.706 256.35 180.896 256.097L196.035 230.315L195.909 240.26L195.782 255.907C195.782 256.287 196.035 256.54 196.416 256.54H200.977C201.357 256.54 201.61 256.287 201.61 255.907L201.42 239.69L201.61 224.55C201.61 224.17 201.357 223.917 200.977 223.917H195.339C195.022 223.917 194.769 224.107 194.579 224.36L179.375 250.269Z" fill="white"/>
<path d="M245.996 251.979H224.204V249.952C224.204 238.106 246.946 240.133 246.946 224.297C246.819 216.378 241.941 211.437 232.946 211.437C223.698 211.501 218.693 216.885 218.503 226.641C218.503 227.021 218.757 227.274 219.137 227.274H223.254C223.634 227.274 223.888 227.084 223.888 226.641C224.204 219.609 227.435 215.935 232.946 215.872C238.711 215.872 241.498 219.546 241.435 224.487C241.435 235.889 218.63 233.609 218.63 250.776V255.907C218.63 256.287 218.883 256.54 219.263 256.54H245.996C246.376 256.54 246.629 256.287 246.629 255.907V252.613C246.629 252.233 246.376 251.979 245.996 251.979Z" fill="white"/>
<path d="M266.76 257.364C276.389 257.364 282.723 249.002 282.723 234.432C282.723 219.482 276.389 211.374 266.76 211.374C257.068 211.374 250.797 219.609 250.797 234.432C250.797 248.939 257.131 257.364 266.76 257.364ZM266.76 252.676C260.679 252.676 256.878 246.468 256.878 234.432C256.878 222.27 260.489 216.062 266.76 216.062C272.905 216.062 276.579 222.333 276.579 234.432C276.579 246.531 272.905 252.676 266.76 252.676Z" fill="white"/>
<path d="M314.229 251.979H292.438V249.952C292.438 238.106 315.179 240.133 315.179 224.297C315.053 216.378 310.175 211.437 301.18 211.437C291.931 211.501 286.927 216.885 286.737 226.641C286.737 227.021 286.99 227.274 287.37 227.274H291.488C291.868 227.274 292.121 227.084 292.121 226.641C292.438 219.609 295.669 215.935 301.18 215.872C306.944 215.872 309.732 219.546 309.668 224.487C309.668 235.889 286.864 233.609 286.864 250.776V255.907C286.864 256.287 287.117 256.54 287.497 256.54H314.229C314.609 256.54 314.863 256.287 314.863 255.907V252.613C314.863 252.233 314.609 251.979 314.229 251.979Z" fill="white"/>
<path d="M333.413 257.174C342.535 257.174 348.933 251.789 348.933 243.364C348.933 237.726 345.702 233.799 340.191 232.595C344.625 231.201 347.856 228.288 347.856 222.966C347.856 215.872 342.028 211.564 334.236 211.564C325.558 211.564 319.793 216.125 319.287 224.867C319.287 225.247 319.54 225.5 319.92 225.5H324.291C324.671 225.5 324.924 225.31 324.988 224.867C325.368 218.849 328.345 215.745 333.983 215.745C338.544 215.745 341.965 218.596 341.965 223.473C341.965 227.971 338.861 230.885 332.336 230.885H330.309C329.929 230.885 329.675 231.138 329.675 231.518V234.305C329.675 234.686 329.929 234.939 330.309 234.939H332.336C339.367 234.939 342.978 237.79 342.915 243.427C342.852 249.129 339.684 252.993 333.54 252.993C327.522 252.993 324.734 249.445 324.418 243.237C324.418 242.794 324.164 242.604 323.784 242.604H319.223C318.843 242.604 318.59 242.857 318.653 243.237C319.287 252.423 324.291 257.174 333.413 257.174Z" fill="white"/>
<path d="M84.0999 186.676C92.4616 186.676 97.7194 181.419 98.3529 174.261C98.4162 173.88 98.1628 173.69 97.7827 173.69H93.6019C93.2218 173.69 92.9684 173.88 92.9051 174.324C92.3349 179.708 88.9142 182.686 84.1632 182.622C77.7652 182.622 74.7879 177.998 74.7879 169.636C74.7879 161.465 77.7652 156.65 84.2266 156.587C88.4074 156.587 91.7015 159.057 92.5883 163.998C92.6517 164.379 92.8417 164.569 93.2218 164.569H97.3393C97.7194 164.569 97.9728 164.315 97.9094 163.935C97.1493 157.094 92.2082 152.533 84.2266 152.533C74.2812 152.533 68.77 159.437 68.77 169.7C68.77 179.962 74.2812 186.676 84.0999 186.676Z" fill="white"/>
<path d="M99.1897 153.926V156.904C99.1897 157.284 99.4431 157.537 99.8232 157.537H110.339L110.465 169.066L110.275 185.283C110.275 185.663 110.529 185.916 110.909 185.916H115.66C116.04 185.916 116.293 185.663 116.293 185.283L116.103 169.066L116.23 157.537H126.809C127.189 157.537 127.442 157.284 127.442 156.904V153.926C127.442 153.546 127.189 153.293 126.809 153.293H99.8232C99.4431 153.293 99.1897 153.546 99.1897 153.926Z" fill="white"/>
<path d="M143.492 186.676C153.437 186.676 158.948 179.835 158.948 169.573C158.948 159.311 153.437 152.533 143.492 152.533C133.61 152.533 127.972 159.374 127.972 169.7C127.972 179.962 133.61 186.676 143.492 186.676ZM143.492 182.622C137.157 182.622 133.926 177.935 133.926 169.7C133.926 161.465 137.094 156.587 143.492 156.587C149.826 156.587 152.994 161.465 152.994 169.7C152.994 177.935 149.89 182.622 143.492 182.622Z" fill="white"/>
<path d="M188.203 153.293H166.601C166.221 153.293 165.968 153.483 165.968 153.926C165.778 161.084 165.334 171.03 164.891 175.591C164.448 180.722 163.561 182.242 160.963 182.242C160.647 182.242 160.33 182.179 160.013 182.179C159.57 182.052 159.316 182.242 159.316 182.686V185.41C159.316 185.726 159.443 186.043 159.823 186.17C160.393 186.296 161.154 186.423 162.04 186.423C167.805 186.423 169.325 182.686 169.895 175.971C170.275 171.537 170.719 162.795 170.909 157.474H182.945L183.198 169.383L183.071 185.283C183.071 185.663 183.325 185.916 183.705 185.916H188.393C188.773 185.916 189.026 185.663 189.026 185.283L188.709 169.383L188.836 153.926C188.836 153.546 188.583 153.293 188.203 153.293Z" fill="white"/>
<path d="M200.758 179.645L200.885 168.623L201.011 153.926C201.011 153.546 200.758 153.293 200.378 153.293H195.754C195.374 153.293 195.12 153.546 195.12 153.926L195.31 169.003L195.12 185.283C195.12 185.663 195.374 185.916 195.754 185.916H201.518C201.835 185.916 202.088 185.726 202.278 185.473L217.418 159.691L217.291 169.636L217.165 185.283C217.165 185.663 217.418 185.916 217.798 185.916H222.359C222.739 185.916 222.993 185.663 222.993 185.283L222.803 169.066L222.993 153.926C222.993 153.546 222.739 153.293 222.359 153.293H216.721C216.405 153.293 216.151 153.483 215.961 153.736L200.758 179.645Z" fill="white"/>
<path d="M255.308 153.293H250.557C250.177 153.293 249.923 153.546 249.923 153.926L250.113 169.066L249.987 181.735H235.037L234.91 169.066L235.1 153.926C235.1 153.546 234.847 153.293 234.467 153.293H229.716C229.336 153.293 229.082 153.546 229.082 153.926L229.272 169.066L229.082 185.283C229.082 185.663 229.336 185.916 229.716 185.916H254.548L254.738 193.075C254.738 193.518 254.991 193.708 255.371 193.708H259.235C259.615 193.708 259.869 193.455 259.869 193.075V182.369C259.869 181.989 259.615 181.735 259.235 181.735H255.878L255.751 169.066L255.941 153.926C255.941 153.546 255.688 153.293 255.308 153.293Z" fill="white"/>
<path d="M285.166 158.234C283.012 154.623 279.465 152.659 274.904 152.659C266.288 152.659 261.284 160.261 261.284 169.7C261.284 179.138 265.972 186.55 274.777 186.55C279.528 186.55 283.012 184.333 285.229 180.659L285.102 185.283C285.102 185.663 285.356 185.916 285.736 185.916H290.297C290.677 185.916 290.93 185.663 290.93 185.283L290.74 169.256L290.93 153.926C290.93 153.546 290.677 153.293 290.297 153.293H285.673C285.292 153.293 285.039 153.546 285.039 153.926L285.166 158.234ZM276.297 182.496C270.089 182.559 267.175 177.111 267.175 169.256C267.175 161.845 270.089 156.587 276.424 156.65C282.125 156.714 285.419 161.528 285.356 169.89C285.292 178.251 281.872 182.496 276.297 182.496Z" fill="white"/>
<path d="M37.3016 151.978C38.3344 145.42 40.137 133.341 46.4515 134.51C55.7148 136.226 47.7265 152.646 48.3618 165.243C48.7313 172.571 51.5149 193.348 26.1727 193.348C-1.64804 193.348 -1.56127 165.009 7.17023 160.166C4.95762 154.668 -1.79918 137.767 5.89809 135.777C11.5801 134.307 13.3155 140.782 17.2523 153.381C18.3887 150.127 25.34 149.343 27.8591 151.978C31.7035 149.023 37.3016 151.978 37.3016 151.978ZM37.3016 151.978C37.4597 159.832 39.5911 171.781 32.3543 171.775C30.213 171.775 27.1593 171.226 26.7241 165.767M7.17024 160.164C7.17024 160.164 24.1658 150.42 27.9739 160.164C31.0528 168.032 13.4022 172.694 13.4022 172.694C13.4022 172.694 25.5303 172.681 28.5953 181.61" stroke="#96F400" stroke-width="4" stroke-linecap="round" stroke-linejoin="round"/>
</svg>
