<svg width="280" height="157" viewBox="0 0 280 157" fill="none" xmlns="http://www.w3.org/2000/svg">
<path d="M17.6108 9.40936H5.70508L5.8331 0.480069C5.8331 0.288042 5.70508 0.160023 5.51305 0.160023H3.01669C2.82466 0.160023 2.69664 0.288042 2.69664 0.480069L2.85667 11.4897L2.69664 22.2432C2.69664 22.4352 2.82466 22.5633 3.01669 22.5633H5.51305C5.70508 22.5633 5.8331 22.4352 5.8331 22.2432L5.67308 11.6817H17.6428L17.5148 22.2432C17.5148 22.4352 17.6428 22.5633 17.8348 22.5633H20.2992C20.4912 22.5633 20.6192 22.4352 20.6192 22.2432L20.4912 11.4897L20.6192 0.480069C20.6192 0.288042 20.4912 0.160023 20.2992 0.160023H17.8348C17.6428 0.160023 17.5148 0.288042 17.5148 0.480069L17.6108 9.40936Z" fill="white"/>
<path d="M26.7319 19.3948L26.7959 13.826L26.8599 6.40093C26.8599 6.2089 26.7319 6.08088 26.5398 6.08088H24.2035C24.0115 6.08088 23.8835 6.2089 23.8835 6.40093L23.9795 14.018L23.8835 22.2432C23.8835 22.4352 24.0115 22.5633 24.2035 22.5633H27.1159C27.276 22.5633 27.404 22.4673 27.5 22.3392L35.1491 9.31335L35.0851 14.3381L35.0211 22.2432C35.0211 22.4352 35.1491 22.5633 35.3411 22.5633H37.6455C37.8375 22.5633 37.9655 22.4352 37.9655 22.2432L37.8695 14.05L37.9655 6.40093C37.9655 6.2089 37.8375 6.08088 37.6455 6.08088H34.797C34.637 6.08088 34.509 6.17689 34.413 6.30491L26.7319 19.3948Z" fill="white"/>
<path d="M58.7728 6.27291L54.3241 12.6098H52.4999L52.5639 6.40093C52.5639 6.2089 52.4358 6.08088 52.2438 6.08088H49.8755C49.6834 6.08088 49.5554 6.2089 49.5554 6.40093L49.6194 12.6098H47.7952L43.3465 6.27291C43.2505 6.11289 43.1225 6.08088 42.9625 6.08088H40.6901C40.4341 6.08088 40.3381 6.27291 40.4981 6.46494L45.4908 13.3139L39.794 22.1792C39.666 22.4032 39.73 22.5633 39.986 22.5633H42.6744C42.8344 22.5633 42.9625 22.4673 43.0585 22.3392L44.4347 19.9709L47.7632 14.7221H49.6514L49.5554 22.2432C49.5554 22.4352 49.6834 22.5633 49.8755 22.5633H52.2438C52.4358 22.5633 52.5639 22.4352 52.5639 22.2432L52.4678 14.7221H54.3561L57.6526 19.9709L59.0608 22.3392C59.1568 22.4673 59.2848 22.5633 59.4449 22.5633H62.1332C62.3893 22.5633 62.4533 22.4032 62.3253 22.1792L56.6284 13.3139L61.6212 6.46494C61.7812 6.27291 61.6852 6.08088 61.4291 6.08088H59.1568C58.9968 6.08088 58.8688 6.11289 58.7728 6.27291Z" fill="white"/>
<path d="M75.0849 12.7698H67.0197L67.1157 6.40093C67.1157 6.2089 66.9877 6.08088 66.7957 6.08088H64.4593C64.2673 6.08088 64.1393 6.2089 64.1393 6.40093L64.2353 14.05L64.1393 22.2432C64.1393 22.4352 64.2673 22.5633 64.4593 22.5633H66.7957C66.9877 22.5633 67.1157 22.4352 67.1157 22.2432L67.0197 14.9142H75.0849L74.9888 22.2432C74.9888 22.4352 75.1169 22.5633 75.3089 22.5633H77.6452C77.8373 22.5633 77.9653 22.4352 77.9653 22.2432L77.8693 14.05L77.9653 6.40093C77.9653 6.2089 77.8373 6.08088 77.6452 6.08088H75.3089C75.1169 6.08088 74.9888 6.2089 74.9888 6.40093L75.0849 12.7698Z" fill="white"/>
<path d="M83.8964 19.3948L83.9604 13.826L84.0244 6.40093C84.0244 6.2089 83.8964 6.08088 83.7044 6.08088H81.368C81.176 6.08088 81.048 6.2089 81.048 6.40093L81.144 14.018L81.048 22.2432C81.048 22.4352 81.176 22.5633 81.368 22.5633H84.2804C84.4405 22.5633 84.5685 22.4673 84.6645 22.3392L92.3136 9.31335L92.2496 14.3381L92.1856 22.2432C92.1856 22.4352 92.3136 22.5633 92.5056 22.5633H94.81C95.002 22.5633 95.13 22.4352 95.13 22.2432L95.034 14.05L95.13 6.40093C95.13 6.2089 95.002 6.08088 94.81 6.08088H91.9616C91.8015 6.08088 91.6735 6.17689 91.5775 6.30491L83.8964 19.3948Z" fill="white"/>
<path d="M105.312 4.35263C102.367 4.35263 100.575 2.59238 100.575 0H102.911C102.911 1.53622 103.712 2.59238 105.344 2.59238C106.944 2.59238 107.776 1.53622 107.808 0H110.176C110.176 2.59238 108.32 4.35263 105.312 4.35263ZM101.055 19.3948L101.119 13.826L101.183 6.40093C101.183 6.2089 101.055 6.08088 100.863 6.08088H98.5268C98.3347 6.08088 98.2067 6.2089 98.2067 6.40093L98.3027 14.018L98.2067 22.2432C98.2067 22.4352 98.3347 22.5633 98.5268 22.5633H101.439C101.599 22.5633 101.727 22.4673 101.823 22.3392L109.472 9.31335L109.408 14.3381L109.344 22.2432C109.344 22.4352 109.472 22.5633 109.664 22.5633H111.969C112.161 22.5633 112.289 22.4352 112.289 22.2432L112.193 14.05L112.289 6.40093C112.289 6.2089 112.161 6.08088 111.969 6.08088H109.12C108.96 6.08088 108.832 6.17689 108.736 6.30491L101.055 19.3948Z" fill="white"/>
<path d="M136.378 9.40936H124.472L124.6 0.480069C124.6 0.288042 124.472 0.160023 124.28 0.160023H121.784C121.592 0.160023 121.464 0.288042 121.464 0.480069L121.624 11.4897L121.464 22.2432C121.464 22.4352 121.592 22.5633 121.784 22.5633H124.28C124.472 22.5633 124.6 22.4352 124.6 22.2432L124.44 11.6817H136.41L136.282 22.2432C136.282 22.4352 136.41 22.5633 136.602 22.5633H139.066C139.258 22.5633 139.386 22.4352 139.386 22.2432L139.258 11.4897L139.386 0.480069C139.386 0.288042 139.258 0.160023 139.066 0.160023H136.602C136.41 0.160023 136.282 0.288042 136.282 0.480069L136.378 9.40936Z" fill="white"/>
<path d="M149.884 22.9473C154.908 22.9473 157.693 19.4908 157.693 14.3061C157.693 9.12132 154.908 5.69683 149.884 5.69683C144.891 5.69683 142.043 9.15333 142.043 14.3701C142.043 19.5548 144.891 22.9473 149.884 22.9473ZM149.884 20.899C146.683 20.899 145.051 18.5307 145.051 14.3701C145.051 10.2095 146.651 7.74512 149.884 7.74512C153.084 7.74512 154.684 10.2095 154.684 14.3701C154.684 18.5307 153.116 20.899 149.884 20.899Z" fill="white"/>
<path d="M169.915 13.73C171.995 13.2499 173.307 12.1298 173.307 10.1455C173.307 7.39307 171.003 6.08088 167.034 6.08088H160.505C160.313 6.08088 160.185 6.2089 160.185 6.40093L160.249 14.05L160.153 22.2432C160.153 22.4352 160.281 22.5633 160.473 22.5633H167.066C170.011 22.5633 173.819 21.7311 173.819 17.9226C173.819 15.7463 172.699 14.3701 169.915 13.762V13.73ZM167.002 8.09717C169.05 8.09717 170.395 8.89729 170.395 10.4975C170.395 12.1938 169.082 12.8979 167.002 12.8979H163.066L163.13 8.09717H167.002ZM163.066 14.8501H167.034C169.082 14.8501 170.843 15.7143 170.843 17.6666C170.843 19.6828 169.306 20.547 167.002 20.547H163.13L163.066 14.8501Z" fill="white"/>
<path d="M176.093 6.40093L176.189 14.05L176.093 22.2432C176.093 22.4352 176.221 22.5633 176.413 22.5633H178.813C179.005 22.5633 179.133 22.4352 179.133 22.2432L179.037 14.05L179.069 8.22519H186.046C186.238 8.22519 186.366 8.09717 186.366 7.90514V6.40093C186.366 6.2089 186.238 6.08088 186.046 6.08088H176.413C176.221 6.08088 176.093 6.2089 176.093 6.40093Z" fill="white"/>
<path d="M194.421 22.9473C199.446 22.9473 202.231 19.4908 202.231 14.3061C202.231 9.12132 199.446 5.69683 194.421 5.69683C189.429 5.69683 186.58 9.15333 186.58 14.3701C186.58 19.5548 189.429 22.9473 194.421 22.9473ZM194.421 20.899C191.221 20.899 189.589 18.5307 189.589 14.3701C189.589 10.2095 191.189 7.74512 194.421 7.74512C197.622 7.74512 199.222 10.2095 199.222 14.3701C199.222 18.5307 197.654 20.899 194.421 20.899Z" fill="white"/>
<path d="M212.82 5.76083C210.484 5.76083 208.691 6.881 207.571 8.70526L207.635 6.40093C207.635 6.2089 207.507 6.08088 207.315 6.08088H204.979C204.787 6.08088 204.659 6.2089 204.659 6.40093L204.787 15.3302L204.659 27.684C204.659 27.876 204.787 28.0041 204.979 28.0041H207.379C207.571 28.0041 207.699 27.876 207.699 27.684L207.635 20.1629C208.723 21.9232 210.484 22.8833 212.756 22.8833C217.109 22.8833 219.637 19.0428 219.637 14.2741C219.637 9.47337 217.269 5.76083 212.82 5.76083ZM212.02 20.835C209.107 20.835 207.443 18.4027 207.475 14.1781C207.507 9.95344 209.268 7.80913 212.084 7.80913C215.188 7.80913 216.661 10.5295 216.661 14.4981C216.661 18.2106 215.188 20.835 212.02 20.835Z" fill="white"/>
<path d="M229.426 22.9473C234.451 22.9473 237.236 19.4908 237.236 14.3061C237.236 9.12132 234.451 5.69683 229.426 5.69683C224.434 5.69683 221.585 9.15333 221.585 14.3701C221.585 19.5548 224.434 22.9473 229.426 22.9473ZM229.426 20.899C226.226 20.899 224.594 18.5307 224.594 14.3701C224.594 10.2095 226.194 7.74512 229.426 7.74512C232.627 7.74512 234.227 10.2095 234.227 14.3701C234.227 18.5307 232.659 20.899 229.426 20.899Z" fill="white"/>
<path d="M251.822 6.08088H241.101C240.909 6.08088 240.781 6.17689 240.781 6.40093C240.685 9.92144 240.461 13.762 240.172 15.9703C239.948 18.1146 239.5 19.5228 238.604 20.451H237.644C237.452 20.451 237.324 20.579 237.324 20.771V26.1798C237.324 26.3718 237.452 26.4998 237.644 26.4998H239.628C239.82 26.4998 239.948 26.4038 239.948 26.1798L240.044 22.5633H251.726L251.822 26.1798C251.822 26.4038 251.95 26.4998 252.142 26.4998H254.095C254.287 26.4998 254.415 26.3718 254.415 26.1798V20.771C254.415 20.579 254.287 20.451 254.095 20.451H252.366L252.174 13.826L252.142 6.40093C252.142 6.17689 252.014 6.08088 251.822 6.08088ZM249.422 20.451H241.453C241.997 19.3628 242.445 18.1786 242.701 16.0023C242.893 14.114 243.117 11.0416 243.213 8.19319H249.294L249.422 13.826V20.451Z" fill="white"/>
<path d="M279.062 12.0017H261.779C261.587 12.0017 261.459 12.1298 261.459 12.3218V13.858C261.459 14.05 261.587 14.1781 261.779 14.1781H279.062C279.254 14.1781 279.382 14.05 279.382 13.858V12.3218C279.382 12.1298 279.254 12.0017 279.062 12.0017Z" fill="white"/>
<path d="M11.2419 55.0373L6.21715 42.0754C6.15314 41.8834 6.02513 41.8194 5.8651 41.8194H2.88867C2.69664 41.8194 2.56863 41.9474 2.56863 42.1394L2.63264 50.2046L2.53662 57.9817C2.53662 58.1738 2.66464 58.3018 2.85667 58.3018H4.61692C4.80895 58.3018 4.93697 58.1738 4.93697 57.9817L4.90496 50.5887L4.80895 44.9558L9.89769 58.0457C9.96169 58.2378 10.0897 58.3018 10.2497 58.3018H11.818C11.978 58.3018 12.106 58.2378 12.17 58.0457L17.1947 45.0839L17.1627 46.8121L17.1307 50.5887V57.9817C17.1307 58.1738 17.2588 58.3018 17.4508 58.3018H19.6271C19.8191 58.3018 19.9471 58.1738 19.9471 57.9817L19.8511 50.2046L19.9471 42.1394C19.9471 41.9474 19.8191 41.8194 19.6271 41.8194H16.6187C16.4586 41.8194 16.3306 41.8834 16.2666 42.0754L11.2419 55.0373Z" fill="white"/>
<path d="M30.2414 58.6858C35.2661 58.6858 38.0505 55.2293 38.0505 50.0446C38.0505 44.8598 35.2661 41.4353 30.2414 41.4353C25.2487 41.4353 22.4002 44.8918 22.4002 50.1086C22.4002 55.2933 25.2487 58.6858 30.2414 58.6858ZM30.2414 56.6375C27.0409 56.6375 25.4087 54.2692 25.4087 50.1086C25.4087 45.948 27.0089 43.4836 30.2414 43.4836C33.4418 43.4836 35.0421 45.948 35.0421 50.1086C35.0421 54.2692 33.4738 56.6375 30.2414 56.6375Z" fill="white"/>
<path d="M52.8306 41.8194H41.9171C41.725 41.8194 41.597 41.9154 41.597 42.1394C41.501 45.756 41.277 50.7807 41.0529 53.085C40.8289 55.6774 40.3808 56.4455 39.0687 56.4455C38.9086 56.4455 38.7486 56.4135 38.5886 56.4135C38.3646 56.3495 38.2365 56.4455 38.2365 56.6695V58.0457C38.2365 58.2058 38.3005 58.3658 38.4926 58.4298C38.7806 58.4938 39.1647 58.5578 39.6127 58.5578C42.5252 58.5578 43.2933 56.6695 43.5813 53.277C43.7733 51.0367 43.9974 46.6201 44.0934 43.9317H50.1743L50.3023 49.9486L50.2383 57.9817C50.2383 58.1738 50.3663 58.3018 50.5583 58.3018H52.9267C53.1187 58.3018 53.2467 58.1738 53.2467 57.9817L53.0867 49.9486L53.1507 42.1394C53.1507 41.9474 53.0227 41.8194 52.8306 41.8194Z" fill="white"/>
<path d="M63.5274 58.6858C68.5522 58.6858 71.3366 55.2293 71.3366 50.0446C71.3366 44.8598 68.5522 41.4353 63.5274 41.4353C58.5347 41.4353 55.6863 44.8918 55.6863 50.1086C55.6863 55.2933 58.5347 58.6858 63.5274 58.6858ZM63.5274 56.6375C60.327 56.6375 58.6947 54.2692 58.6947 50.1086C58.6947 45.948 60.295 43.4836 63.5274 43.4836C66.7279 43.4836 68.3281 45.948 68.3281 50.1086C68.3281 54.2692 66.7599 56.6375 63.5274 56.6375Z" fill="white"/>
<path d="M85.9232 41.8194H75.2016C75.0096 41.8194 74.8816 41.9154 74.8816 42.1394C74.7856 45.6599 74.5615 49.5005 74.2735 51.7088C74.0495 53.8531 73.6014 55.2613 72.7053 56.1895H71.7451C71.5531 56.1895 71.4251 56.3175 71.4251 56.5095V61.9183C71.4251 62.1103 71.5531 62.2383 71.7451 62.2383H73.7294C73.9214 62.2383 74.0495 62.1423 74.0495 61.9183L74.1455 58.3018H85.8272L85.9232 61.9183C85.9232 62.1423 86.0512 62.2383 86.2432 62.2383H88.1955C88.3875 62.2383 88.5156 62.1103 88.5156 61.9183V56.5095C88.5156 56.3175 88.3875 56.1895 88.1955 56.1895H86.4673L86.2752 49.5645L86.2432 42.1394C86.2432 41.9154 86.1152 41.8194 85.9232 41.8194ZM83.5228 56.1895H75.5537C76.0978 55.1013 76.5458 53.9171 76.8019 51.7408C76.9939 49.8525 77.2179 46.7801 77.3139 43.9317H83.3948L83.5228 49.5645V56.1895Z" fill="white"/>
<path d="M97.1276 56.6375C93.9271 56.6375 92.2949 54.4932 92.1988 50.4286H104.297C104.489 50.4286 104.617 50.3006 104.617 50.1086C104.521 44.6998 101.736 41.4353 96.9355 41.4353C92.1028 41.4353 89.2224 44.9558 89.2224 50.1086C89.2224 55.1333 91.9748 58.6858 97.0955 58.6858C101.32 58.6858 103.817 56.2535 104.361 52.925C104.393 52.701 104.233 52.5729 104.041 52.5729H101.864C101.672 52.5729 101.576 52.669 101.512 52.861C101 55.2933 99.5599 56.6375 97.1276 56.6375ZM96.9675 43.4516C99.88 43.4516 101.384 45.7239 101.48 48.4443H92.2949C92.6789 45.2759 94.2151 43.4516 96.9675 43.4516Z" fill="white"/>
<path d="M123.407 42.0114L118.958 48.3483H117.134L117.198 42.1394C117.198 41.9474 117.07 41.8194 116.878 41.8194H114.51C114.318 41.8194 114.19 41.9474 114.19 42.1394L114.254 48.3483H112.43L107.981 42.0114C107.885 41.8514 107.757 41.8194 107.597 41.8194H105.324C105.068 41.8194 104.972 42.0114 105.132 42.2034L110.125 49.0524L104.428 57.9177C104.3 58.1417 104.364 58.3018 104.62 58.3018H107.309C107.469 58.3018 107.597 58.2058 107.693 58.0777L109.069 55.7094L112.398 50.4606H114.286L114.19 57.9817C114.19 58.1738 114.318 58.3018 114.51 58.3018H116.878C117.07 58.3018 117.198 58.1738 117.198 57.9817L117.102 50.4606H118.99L122.287 55.7094L123.695 58.0777C123.791 58.2058 123.919 58.3018 124.079 58.3018H126.768C127.024 58.3018 127.088 58.1417 126.96 57.9177L121.263 49.0524L126.256 42.2034C126.416 42.0114 126.32 41.8194 126.063 41.8194H123.791C123.631 41.8194 123.503 41.8514 123.407 42.0114Z" fill="white"/>
<path d="M139.719 48.5084H131.654L131.75 42.1394C131.75 41.9474 131.622 41.8194 131.43 41.8194H129.094C128.902 41.8194 128.774 41.9474 128.774 42.1394L128.87 49.7885L128.774 57.9817C128.774 58.1738 128.902 58.3018 129.094 58.3018H131.43C131.622 58.3018 131.75 58.1738 131.75 57.9817L131.654 50.6527H139.719L139.623 57.9817C139.623 58.1738 139.751 58.3018 139.943 58.3018H142.28C142.472 58.3018 142.6 58.1738 142.6 57.9817L142.504 49.7885L142.6 42.1394C142.6 41.9474 142.472 41.8194 142.28 41.8194H139.943C139.751 41.8194 139.623 41.9474 139.623 42.1394L139.719 48.5084Z" fill="white"/>
<path d="M157.14 44.3157C156.052 42.4915 154.26 41.4993 151.955 41.4993C147.603 41.4993 145.074 45.3399 145.074 50.1086C145.074 54.8773 147.443 58.6218 151.891 58.6218C154.292 58.6218 156.052 57.5017 157.172 55.6454L157.108 57.9817C157.108 58.1738 157.236 58.3018 157.428 58.3018H159.732C159.924 58.3018 160.052 58.1738 160.052 57.9817L159.956 49.8846L160.052 42.1394C160.052 41.9474 159.924 41.8194 159.732 41.8194H157.396C157.204 41.8194 157.076 41.9474 157.076 42.1394L157.14 44.3157ZM152.659 56.5735C149.523 56.6055 148.051 53.8531 148.051 49.8846C148.051 46.14 149.523 43.4836 152.723 43.5156C155.604 43.5476 157.268 45.98 157.236 50.2046C157.204 54.4292 155.476 56.5735 152.659 56.5735Z" fill="white"/>
<path d="M169.364 41.8194C165.011 41.8194 162.611 43.4516 162.611 46.7481C162.611 49.4685 164.083 51.0367 166.644 51.6128L162.771 57.9177C162.643 58.1417 162.739 58.3018 162.995 58.3018H165.363C165.523 58.3018 165.651 58.2058 165.747 58.0777L167.188 55.5174L169.268 51.8688H172.981L172.885 57.9817C172.885 58.1738 173.013 58.3018 173.205 58.3018H175.605C175.797 58.3018 175.925 58.1738 175.925 57.9817L175.829 49.8205L175.925 42.1394C175.925 41.9474 175.797 41.8194 175.605 41.8194H169.364ZM165.587 46.7801C165.587 44.9558 166.9 43.8357 169.236 43.8357H172.949L173.013 49.8205H169.236C166.932 49.8205 165.587 48.8284 165.587 46.7801Z" fill="white"/>
<path d="M2.69629 107.529L2.85631 118.122L2.69629 129.292C2.69629 129.484 2.82431 129.612 3.01634 129.612H5.48069C5.67272 129.612 5.80074 129.484 5.80074 129.292L5.70472 120.971H10.3774C15.1461 120.971 18.3145 118.666 18.3145 113.994C18.3145 109.513 15.2421 107.209 10.3454 107.209H3.01634C2.82431 107.209 2.69629 107.337 2.69629 107.529ZM5.67272 118.25L5.76873 109.449H10.4414C13.5779 109.449 15.3701 110.921 15.3701 114.058C15.3701 117.45 13.4178 118.73 10.5694 118.73H5.67272V118.25Z" fill="white"/>
<path d="M26.9905 129.996C32.0153 129.996 34.7997 126.539 34.7997 121.355C34.7997 116.17 32.0153 112.745 26.9905 112.745C21.9978 112.745 19.1494 116.202 19.1494 121.419C19.1494 126.603 21.9978 129.996 26.9905 129.996ZM26.9905 127.948C23.7901 127.948 22.1578 125.579 22.1578 121.419C22.1578 117.258 23.7581 114.794 26.9905 114.794C30.191 114.794 31.7912 117.258 31.7912 121.419C31.7912 125.579 30.223 127.948 26.9905 127.948Z" fill="white"/>
<path d="M44.4908 129.996C48.7154 129.996 51.3718 127.339 51.6919 123.723C51.7239 123.531 51.5958 123.435 51.4038 123.435H49.2915C49.0995 123.435 48.9715 123.531 48.9395 123.755C48.6514 126.475 46.9232 127.98 44.5228 127.948C41.2904 127.948 39.7861 125.611 39.7861 121.387C39.7861 117.258 41.2904 114.826 44.5548 114.794C46.6671 114.794 48.3314 116.042 48.7794 118.538C48.8114 118.73 48.9075 118.826 49.0995 118.826H51.1798C51.3718 118.826 51.4998 118.698 51.4678 118.506C51.0838 115.05 48.5874 112.745 44.5548 112.745C39.5301 112.745 36.7457 116.234 36.7457 121.419C36.7457 126.603 39.5301 129.996 44.4908 129.996Z" fill="white"/>
<path d="M61.1495 129.996C65.3741 129.996 68.0305 127.339 68.3505 123.723C68.3825 123.531 68.2545 123.435 68.0625 123.435H65.9502C65.7581 123.435 65.6301 123.531 65.5981 123.755C65.3101 126.475 63.5818 127.98 61.1815 127.948C57.949 127.948 56.4448 125.611 56.4448 121.387C56.4448 117.258 57.949 114.826 61.2135 114.794C63.3258 114.794 64.99 116.042 65.4381 118.538C65.4701 118.73 65.5661 118.826 65.7581 118.826H67.8384C68.0305 118.826 68.1585 118.698 68.1265 118.506C67.7424 115.05 65.2461 112.745 61.2135 112.745C56.1888 112.745 53.4044 116.234 53.4044 121.419C53.4044 126.603 56.1888 129.996 61.1495 129.996Z" fill="white"/>
<path d="M73.457 126.443L73.521 120.875L73.585 113.449C73.585 113.257 73.457 113.129 73.265 113.129H70.9286C70.7366 113.129 70.6086 113.257 70.6086 113.449L70.7046 121.067L70.6086 129.292C70.6086 129.484 70.7366 129.612 70.9286 129.612H73.8411C74.0011 129.612 74.1291 129.516 74.2251 129.388L81.8742 116.362L81.8102 121.387L81.7462 129.292C81.7462 129.484 81.8742 129.612 82.0662 129.612H84.3706C84.5626 129.612 84.6906 129.484 84.6906 129.292L84.5946 121.099L84.6906 113.449C84.6906 113.257 84.5626 113.129 84.3706 113.129H81.5222C81.3621 113.129 81.2341 113.225 81.1381 113.353L73.457 126.443Z" fill="white"/>
<path d="M90.6157 126.443L90.6797 120.875L90.7437 113.449C90.7437 113.257 90.6157 113.129 90.4237 113.129H88.0874C87.8953 113.129 87.7673 113.257 87.7673 113.449L87.8633 121.067L87.7673 129.292C87.7673 129.484 87.8953 129.612 88.0874 129.612H90.9998C91.1598 129.612 91.2878 129.516 91.3838 129.388L99.0329 116.362L98.9689 121.387L98.9049 129.292C98.9049 129.484 99.0329 129.612 99.225 129.612H101.529C101.721 129.612 101.849 129.484 101.849 129.292L101.753 121.099L101.849 113.449C101.849 113.257 101.721 113.129 101.529 113.129H98.6809C98.5209 113.129 98.3929 113.225 98.2968 113.353L90.6157 126.443Z" fill="white"/>
<path d="M124.274 127.307H113.265V126.283C113.265 120.298 124.754 121.323 124.754 113.321C124.69 109.321 122.226 106.824 117.681 106.824C113.009 106.856 110.48 109.577 110.384 114.506C110.384 114.698 110.512 114.826 110.704 114.826H112.785C112.977 114.826 113.105 114.73 113.105 114.506C113.265 110.953 114.897 109.097 117.681 109.065C120.594 109.065 122.002 110.921 121.97 113.417C121.97 119.178 110.448 118.026 110.448 126.699V129.292C110.448 129.484 110.576 129.612 110.768 129.612H124.274C124.466 129.612 124.594 129.484 124.594 129.292V127.627C124.594 127.435 124.466 127.307 124.274 127.307Z" fill="white"/>
<path d="M134.765 130.028C139.63 130.028 142.83 125.803 142.83 118.442C142.83 110.889 139.63 106.792 134.765 106.792C129.868 106.792 126.7 110.953 126.7 118.442C126.7 125.771 129.9 130.028 134.765 130.028ZM134.765 127.659C131.693 127.659 129.772 124.523 129.772 118.442C129.772 112.297 131.597 109.161 134.765 109.161C137.87 109.161 139.726 112.329 139.726 118.442C139.726 124.555 137.87 127.659 134.765 127.659Z" fill="white"/>
<path d="M158.748 127.307H147.738V126.283C147.738 120.298 159.228 121.323 159.228 113.321C159.164 109.321 156.7 106.824 152.155 106.824C147.482 106.856 144.954 109.577 144.858 114.506C144.858 114.698 144.986 114.826 145.178 114.826H147.258C147.45 114.826 147.578 114.73 147.578 114.506C147.738 110.953 149.371 109.097 152.155 109.065C155.068 109.065 156.476 110.921 156.444 113.417C156.444 119.178 144.922 118.026 144.922 126.699V129.292C144.922 129.484 145.05 129.612 145.242 129.612H158.748C158.94 129.612 159.068 129.484 159.068 129.292V127.627C159.068 127.435 158.94 127.307 158.748 127.307Z" fill="white"/>
<path d="M168.44 129.932C173.049 129.932 176.281 127.211 176.281 122.955C176.281 120.106 174.649 118.122 171.865 117.514C174.105 116.81 175.737 115.338 175.737 112.649C175.737 109.065 172.793 106.888 168.856 106.888C164.472 106.888 161.559 109.193 161.303 113.609C161.303 113.801 161.431 113.93 161.623 113.93H163.832C164.024 113.93 164.152 113.833 164.184 113.609C164.376 110.569 165.88 109.001 168.728 109.001C171.033 109.001 172.761 110.441 172.761 112.905C172.761 115.178 171.193 116.65 167.896 116.65H166.872C166.68 116.65 166.552 116.778 166.552 116.97V118.378C166.552 118.57 166.68 118.698 166.872 118.698H167.896C171.449 118.698 173.273 120.138 173.241 122.987C173.209 125.867 171.609 127.82 168.504 127.82C165.464 127.82 164.056 126.027 163.896 122.891C163.896 122.667 163.768 122.571 163.576 122.571H161.271C161.079 122.571 160.951 122.699 160.983 122.891C161.303 127.531 163.832 129.932 168.44 129.932Z" fill="white"/>
<path d="M42.4795 94.3145C46.7041 94.3145 49.3605 91.6581 49.6805 88.0416C49.7125 87.8495 49.5845 87.7535 49.3925 87.7535H47.2802C47.0882 87.7535 46.9601 87.8495 46.9281 88.0736C46.6401 90.7939 44.9118 92.2982 42.5115 92.2662C39.279 92.2662 37.7748 89.9298 37.7748 85.7052C37.7748 81.5766 39.279 79.1443 42.5435 79.1123C44.6558 79.1123 46.3201 80.3604 46.7681 82.8568C46.8001 83.0488 46.8961 83.1448 47.0882 83.1448H49.1685C49.3605 83.1448 49.4885 83.0168 49.4565 82.8248C49.0724 79.3683 46.5761 77.064 42.5435 77.064C37.5188 77.064 34.7344 80.5525 34.7344 85.7372C34.7344 90.922 37.5188 94.3145 42.4795 94.3145Z" fill="white"/>
<path d="M50.1033 77.7681V79.2723C50.1033 79.4643 50.2314 79.5923 50.4234 79.5923H55.7362L55.8002 85.4172L55.7042 93.6104C55.7042 93.8024 55.8322 93.9304 56.0242 93.9304H58.4246C58.6166 93.9304 58.7446 93.8024 58.7446 93.6104L58.6486 85.4172L58.7126 79.5923H64.0574C64.2494 79.5923 64.3774 79.4643 64.3774 79.2723V77.7681C64.3774 77.576 64.2494 77.448 64.0574 77.448H50.4234C50.2314 77.448 50.1033 77.576 50.1033 77.7681Z" fill="white"/>
<path d="M72.4861 94.3145C77.5108 94.3145 80.2952 90.858 80.2952 85.6732C80.2952 80.4885 77.5108 77.064 72.4861 77.064C67.4934 77.064 64.645 80.5205 64.645 85.7372C64.645 90.922 67.4934 94.3145 72.4861 94.3145ZM72.4861 92.2662C69.2856 92.2662 67.6534 89.8978 67.6534 85.7372C67.6534 81.5766 69.2536 79.1123 72.4861 79.1123C75.6866 79.1123 77.2868 81.5766 77.2868 85.7372C77.2868 89.8978 75.7186 92.2662 72.4861 92.2662Z" fill="white"/>
<path d="M95.0754 77.448H84.1618C83.9697 77.448 83.8417 77.544 83.8417 77.7681C83.7457 81.3846 83.5217 86.4093 83.2976 88.7136C83.0736 91.306 82.6256 92.0741 81.3134 92.0741C81.1533 92.0741 80.9933 92.0421 80.8333 92.0421C80.6093 91.9781 80.4812 92.0741 80.4812 92.2982V93.6744C80.4812 93.8344 80.5452 93.9944 80.7373 94.0584C81.0253 94.1224 81.4094 94.1864 81.8574 94.1864C84.7699 94.1864 85.538 92.2982 85.826 88.9057C86.018 86.6654 86.2421 82.2487 86.3381 79.5603H92.419L92.547 85.5772L92.483 93.6104C92.483 93.8024 92.611 93.9304 92.803 93.9304H95.1714C95.3634 93.9304 95.4914 93.8024 95.4914 93.6104L95.3314 85.5772L95.3954 77.7681C95.3954 77.576 95.2674 77.448 95.0754 77.448Z" fill="white"/>
<path d="M101.419 90.7619L101.483 85.1931L101.547 77.7681C101.547 77.576 101.419 77.448 101.227 77.448H98.8904C98.6984 77.448 98.5704 77.576 98.5704 77.7681L98.6664 85.3852L98.5704 93.6104C98.5704 93.8024 98.6984 93.9304 98.8904 93.9304H101.803C101.963 93.9304 102.091 93.8344 102.187 93.7064L109.836 80.6805L109.772 85.7052L109.708 93.6104C109.708 93.8024 109.836 93.9304 110.028 93.9304H112.332C112.524 93.9304 112.652 93.8024 112.652 93.6104L112.556 85.4172L112.652 77.7681C112.652 77.576 112.524 77.448 112.332 77.448H109.484C109.324 77.448 109.196 77.544 109.1 77.6721L101.419 90.7619Z" fill="white"/>
<path d="M128.979 77.448H126.579C126.387 77.448 126.259 77.576 126.259 77.7681L126.355 85.4172L126.291 91.8181H118.738L118.674 85.4172L118.77 77.7681C118.77 77.576 118.642 77.448 118.449 77.448H116.049C115.857 77.448 115.729 77.576 115.729 77.7681L115.825 85.4172L115.729 93.6104C115.729 93.8024 115.857 93.9304 116.049 93.9304H128.595L128.691 97.5469C128.691 97.771 128.819 97.867 129.011 97.867H130.963C131.155 97.867 131.283 97.739 131.283 97.5469V92.1381C131.283 91.9461 131.155 91.8181 130.963 91.8181H129.267L129.203 85.4172L129.299 77.7681C129.299 77.576 129.171 77.448 128.979 77.448Z" fill="white"/>
<path d="M144.064 79.9444C142.976 78.1201 141.184 77.128 138.879 77.128C134.527 77.128 131.998 80.9685 131.998 85.7372C131.998 90.5059 134.367 94.2504 138.815 94.2504C141.216 94.2504 142.976 93.1303 144.096 91.274L144.032 93.6104C144.032 93.8024 144.16 93.9304 144.352 93.9304H146.657C146.849 93.9304 146.977 93.8024 146.977 93.6104L146.881 85.5132L146.977 77.7681C146.977 77.576 146.849 77.448 146.657 77.448H144.32C144.128 77.448 144 77.576 144 77.7681L144.064 79.9444ZM139.584 92.2022C136.447 92.2342 134.975 89.4818 134.975 85.5132C134.975 81.7686 136.447 79.1123 139.648 79.1443C142.528 79.1763 144.192 81.6086 144.16 85.8332C144.128 90.0578 142.4 92.2022 139.584 92.2022Z" fill="white"/>
<path d="M18.8354 76.7837C19.3573 73.4704 20.268 67.3675 23.4583 67.9584C28.1384 68.825 24.1024 77.121 24.4234 83.4854C24.6101 87.1877 26.0165 97.6852 13.2128 97.6852C-0.8431 97.6852 -0.799265 83.3671 3.61216 80.9204C2.49428 78.1428 -0.919465 69.6038 2.96943 68.5983C5.84015 67.8557 6.71692 71.1272 8.70591 77.4923C9.28006 75.8484 12.7921 75.4523 14.0648 76.7837C16.0071 75.2908 18.8354 76.7837 18.8354 76.7837ZM18.8354 76.7837C18.9153 80.7517 19.9922 86.7888 16.3359 86.7859C15.2541 86.7859 13.7113 86.5082 13.4914 83.7504M3.61216 80.9197C3.61216 80.9197 12.1989 75.9965 14.1228 80.9197C15.6784 84.8948 6.76076 87.2501 6.76076 87.2501C6.76076 87.2501 12.8883 87.2437 14.4367 91.7545" stroke="#96F400" stroke-width="2" stroke-linecap="round" stroke-linejoin="round"/>
</svg>
