<svg width="705" height="236" viewBox="0 0 705 236" fill="none" xmlns="http://www.w3.org/2000/svg">
<path d="M35.4749 18.9619H11.4823L11.7403 0.967443C11.7403 0.580466 11.4823 0.322481 11.0953 0.322481H6.06461C5.67763 0.322481 5.41965 0.580466 5.41965 0.967443L5.74213 23.1542L5.41965 44.8249C5.41965 45.2119 5.67763 45.4699 6.06461 45.4699H11.0953C11.4823 45.4699 11.7403 45.2119 11.7403 44.8249L11.4178 23.5411H35.5394L35.2814 44.8249C35.2814 45.2119 35.5394 45.4699 35.9264 45.4699H40.8926C41.2796 45.4699 41.5375 45.2119 41.5375 44.8249L41.2796 23.1542L41.5375 0.967443C41.5375 0.580466 41.2796 0.322481 40.8926 0.322481H35.9264C35.5394 0.322481 35.2814 0.580466 35.2814 0.967443L35.4749 18.9619Z" fill="white"/>
<path d="M53.8558 39.0847L53.9848 27.8624L54.1138 12.8993C54.1138 12.5123 53.8558 12.2543 53.4688 12.2543H48.7606C48.3736 12.2543 48.1156 12.5123 48.1156 12.8993L48.3091 28.2494L48.1156 44.8249C48.1156 45.2119 48.3736 45.4699 48.7606 45.4699H54.6298C54.9522 45.4699 55.2102 45.2764 55.4037 45.0184L70.8183 18.7684L70.6893 28.8943L70.5603 44.8249C70.5603 45.2119 70.8183 45.4699 71.2053 45.4699H75.849C76.236 45.4699 76.494 45.2119 76.494 44.8249L76.3005 28.3139L76.494 12.8993C76.494 12.5123 76.236 12.2543 75.849 12.2543H70.1089C69.7864 12.2543 69.5284 12.4478 69.3349 12.7058L53.8558 39.0847Z" fill="white"/>
<path d="M118.425 12.6413L109.46 25.4115H105.784L105.913 12.8993C105.913 12.5123 105.655 12.2543 105.268 12.2543H100.495C100.108 12.2543 99.8502 12.5123 99.8502 12.8993L99.9792 25.4115H96.3029L87.3379 12.6413C87.1444 12.3188 86.8864 12.2543 86.564 12.2543H81.9847C81.4688 12.2543 81.2753 12.6413 81.5978 13.0282L91.6592 26.8304L80.1788 44.6959C79.9209 45.1474 80.0498 45.4699 80.5658 45.4699H85.9835C86.306 45.4699 86.564 45.2764 86.7575 45.0184L89.5308 40.2457L96.2384 29.6683H100.044L99.8502 44.8249C99.8502 45.2119 100.108 45.4699 100.495 45.4699H105.268C105.655 45.4699 105.913 45.2119 105.913 44.8249L105.719 29.6683H109.525L116.168 40.2457L119.006 45.0184C119.199 45.2764 119.457 45.4699 119.78 45.4699H125.197C125.713 45.4699 125.842 45.1474 125.584 44.6959L114.104 26.8304L124.165 13.0282C124.488 12.6413 124.294 12.2543 123.778 12.2543H119.199C118.877 12.2543 118.619 12.3188 118.425 12.6413Z" fill="white"/>
<path d="M151.298 25.734H135.044L135.238 12.8993C135.238 12.5123 134.98 12.2543 134.593 12.2543H129.885C129.498 12.2543 129.24 12.5123 129.24 12.8993L129.433 28.3139L129.24 44.8249C129.24 45.2119 129.498 45.4699 129.885 45.4699H134.593C134.98 45.4699 135.238 45.2119 135.238 44.8249L135.044 30.0553H151.298L151.104 44.8249C151.104 45.2119 151.362 45.4699 151.749 45.4699H156.457C156.844 45.4699 157.102 45.2119 157.102 44.8249L156.909 28.3139L157.102 12.8993C157.102 12.5123 156.844 12.2543 156.457 12.2543H151.749C151.362 12.2543 151.104 12.5123 151.104 12.8993L151.298 25.734Z" fill="white"/>
<path d="M169.055 39.0847L169.184 27.8624L169.313 12.8993C169.313 12.5123 169.055 12.2543 168.668 12.2543H163.959C163.572 12.2543 163.314 12.5123 163.314 12.8993L163.508 28.2494L163.314 44.8249C163.314 45.2119 163.572 45.4699 163.959 45.4699H169.829C170.151 45.4699 170.409 45.2764 170.603 45.0184L186.017 18.7684L185.888 28.8943L185.759 44.8249C185.759 45.2119 186.017 45.4699 186.404 45.4699H191.048C191.435 45.4699 191.693 45.2119 191.693 44.8249L191.499 28.3139L191.693 12.8993C191.693 12.5123 191.435 12.2543 191.048 12.2543H185.308C184.985 12.2543 184.727 12.4478 184.534 12.7058L169.055 39.0847Z" fill="white"/>
<path d="M212.211 8.77149C206.278 8.77149 202.666 5.2242 202.666 0H207.374C207.374 3.09582 208.986 5.2242 212.276 5.2242C215.5 5.2242 217.177 3.09582 217.242 0H222.015C222.015 5.2242 218.274 8.77149 212.211 8.77149ZM203.633 39.0847L203.762 27.8624L203.891 12.8993C203.891 12.5123 203.633 12.2543 203.246 12.2543H198.538C198.151 12.2543 197.893 12.5123 197.893 12.8993L198.087 28.2494L197.893 44.8249C197.893 45.2119 198.151 45.4699 198.538 45.4699H204.407C204.73 45.4699 204.988 45.2764 205.181 45.0184L220.596 18.7684L220.467 28.8943L220.338 44.8249C220.338 45.2119 220.596 45.4699 220.983 45.4699H225.626C226.013 45.4699 226.271 45.2119 226.271 44.8249L226.078 28.3139L226.271 12.8993C226.271 12.5123 226.013 12.2543 225.626 12.2543H219.886C219.564 12.2543 219.306 12.4478 219.112 12.7058L203.633 39.0847Z" fill="white"/>
<path d="M274.816 18.9619H250.824L251.082 0.967443C251.082 0.580466 250.824 0.322481 250.437 0.322481H245.406C245.019 0.322481 244.761 0.580466 244.761 0.967443L245.084 23.1542L244.761 44.8249C244.761 45.2119 245.019 45.4699 245.406 45.4699H250.437C250.824 45.4699 251.082 45.2119 251.082 44.8249L250.759 23.5411H274.881L274.623 44.8249C274.623 45.2119 274.881 45.4699 275.268 45.4699H280.234C280.621 45.4699 280.879 45.2119 280.879 44.8249L280.621 23.1542L280.879 0.967443C280.879 0.580466 280.621 0.322481 280.234 0.322481H275.268C274.881 0.322481 274.623 0.580466 274.623 0.967443L274.816 18.9619Z" fill="white"/>
<path d="M302.033 46.2438C312.159 46.2438 317.77 39.2782 317.77 28.8298C317.77 18.3814 312.159 11.4803 302.033 11.4803C291.972 11.4803 286.232 18.4459 286.232 28.9588C286.232 39.4072 291.972 46.2438 302.033 46.2438ZM302.033 42.1161C295.584 42.1161 292.294 37.3433 292.294 28.9588C292.294 20.5743 295.519 15.6081 302.033 15.6081C308.483 15.6081 311.708 20.5743 311.708 28.9588C311.708 37.3433 308.547 42.1161 302.033 42.1161Z" fill="white"/>
<path d="M342.4 27.6689C346.592 26.7014 349.236 24.4441 349.236 20.4453C349.236 14.8986 344.593 12.2543 336.595 12.2543H323.438C323.051 12.2543 322.793 12.5123 322.793 12.8993L322.922 28.3139L322.728 44.8249C322.728 45.2119 322.986 45.4699 323.373 45.4699H336.66C342.593 45.4699 350.268 43.7929 350.268 36.1179C350.268 31.7322 348.011 28.9588 342.4 27.7334V27.6689ZM336.531 16.3176C340.658 16.3176 343.367 17.93 343.367 21.1548C343.367 24.5731 340.723 25.992 336.531 25.992H328.598L328.727 16.3176H336.531ZM328.598 29.9263H336.595C340.723 29.9263 344.27 31.6677 344.27 35.6019C344.27 39.6652 341.174 41.4066 336.531 41.4066H328.727L328.598 29.9263Z" fill="white"/>
<path d="M354.851 12.8993L355.044 28.3139L354.851 44.8249C354.851 45.2119 355.109 45.4699 355.496 45.4699H360.333C360.72 45.4699 360.978 45.2119 360.978 44.8249L360.784 28.3139L360.849 16.5755H374.909C375.296 16.5755 375.554 16.3176 375.554 15.9306V12.8993C375.554 12.5123 375.296 12.2543 374.909 12.2543H355.496C355.109 12.2543 354.851 12.5123 354.851 12.8993Z" fill="white"/>
<path d="M391.786 46.2438C401.912 46.2438 407.523 39.2782 407.523 28.8298C407.523 18.3814 401.912 11.4803 391.786 11.4803C381.725 11.4803 375.985 18.4459 375.985 28.9588C375.985 39.4072 381.725 46.2438 391.786 46.2438ZM391.786 42.1161C385.337 42.1161 382.047 37.3433 382.047 28.9588C382.047 20.5743 385.272 15.6081 391.786 15.6081C398.236 15.6081 401.461 20.5743 401.461 28.9588C401.461 37.3433 398.3 42.1161 391.786 42.1161Z" fill="white"/>
<path d="M428.864 11.6093C424.155 11.6093 420.544 13.8667 418.286 17.543L418.415 12.8993C418.415 12.5123 418.157 12.2543 417.77 12.2543H413.062C412.675 12.2543 412.417 12.5123 412.417 12.8993L412.675 30.8937L412.417 55.7892C412.417 56.1762 412.675 56.4342 413.062 56.4342H417.899C418.286 56.4342 418.544 56.1762 418.544 55.7892L418.415 40.6326C420.608 44.1799 424.155 46.1148 428.735 46.1148C437.506 46.1148 442.601 38.3753 442.601 28.7653C442.601 19.0909 437.829 11.6093 428.864 11.6093ZM427.251 41.9871C421.382 41.9871 418.028 37.0853 418.093 28.5718C418.157 20.0583 421.704 15.7371 427.38 15.7371C433.636 15.7371 436.603 21.2193 436.603 29.2168C436.603 36.6984 433.636 41.9871 427.251 41.9871Z" fill="white"/>
<path d="M462.329 46.2438C472.455 46.2438 478.066 39.2782 478.066 28.8298C478.066 18.3814 472.455 11.4803 462.329 11.4803C452.268 11.4803 446.527 18.4459 446.527 28.9588C446.527 39.4072 452.268 46.2438 462.329 46.2438ZM462.329 42.1161C455.879 42.1161 452.59 37.3433 452.59 28.9588C452.59 20.5743 455.815 15.6081 462.329 15.6081C468.779 15.6081 472.003 20.5743 472.003 28.9588C472.003 37.3433 468.843 42.1161 462.329 42.1161Z" fill="white"/>
<path d="M507.461 12.2543H485.855C485.468 12.2543 485.21 12.4478 485.21 12.8993C485.017 19.9938 484.565 27.7334 483.985 32.1836C483.533 36.5049 482.63 39.3427 480.824 41.2131H478.889C478.503 41.2131 478.245 41.4711 478.245 41.8581V52.7579C478.245 53.1449 478.503 53.4029 478.889 53.4029H482.888C483.275 53.4029 483.533 53.2094 483.533 52.7579L483.727 45.4699H507.268L507.461 52.7579C507.461 53.2094 507.719 53.4029 508.106 53.4029H512.041C512.428 53.4029 512.685 53.1449 512.685 52.7579V41.8581C512.685 41.4711 512.428 41.2131 512.041 41.2131H508.558L508.171 27.8624L508.106 12.8993C508.106 12.4478 507.848 12.2543 507.461 12.2543ZM502.624 41.2131H486.565C487.661 39.0202 488.564 36.6339 489.08 32.2481C489.467 28.4428 489.918 22.2512 490.112 16.511H502.366L502.624 27.8624V41.2131Z" fill="white"/>
<path d="M562.355 24.1861H527.527C527.14 24.1861 526.882 24.4441 526.882 24.8311V27.9269C526.882 28.3139 527.14 28.5718 527.527 28.5718H562.355C562.742 28.5718 563 28.3139 563 27.9269V24.8311C563 24.4441 562.742 24.1861 562.355 24.1861Z" fill="white"/>
<path d="M22.6401 110.912L12.5142 84.7911C12.3852 84.4041 12.1273 84.2751 11.8048 84.2751H5.80663C5.41965 84.2751 5.16166 84.5331 5.16166 84.9201L5.29066 101.173L5.09717 116.846C5.09717 117.233 5.35515 117.491 5.74213 117.491H9.28942C9.6764 117.491 9.93438 117.233 9.93438 116.846L9.86989 101.947L9.6764 90.5957L19.9313 116.975C20.0603 117.362 20.3183 117.491 20.6408 117.491H23.8011C24.1236 117.491 24.3815 117.362 24.5105 116.975L34.6364 90.8537L34.5719 94.3365L34.5074 101.947V116.846C34.5074 117.233 34.7654 117.491 35.1524 117.491H39.5382C39.9251 117.491 40.1831 117.233 40.1831 116.846L39.9896 101.173L40.1831 84.9201C40.1831 84.5331 39.9251 84.2751 39.5382 84.2751H33.4755C33.153 84.2751 32.895 84.4041 32.7661 84.7911L22.6401 110.912Z" fill="white"/>
<path d="M60.9282 118.265C71.0541 118.265 76.6653 111.299 76.6653 100.851C76.6653 90.4022 71.0541 83.5011 60.9282 83.5011C50.8668 83.5011 45.1267 90.4667 45.1267 100.98C45.1267 111.428 50.8668 118.265 60.9282 118.265ZM60.9282 114.137C54.4786 114.137 51.1893 109.364 51.1893 100.98C51.1893 92.5951 54.4141 87.6289 60.9282 87.6289C67.3778 87.6289 70.6027 92.5951 70.6027 100.98C70.6027 109.364 67.4423 114.137 60.9282 114.137Z" fill="white"/>
<path d="M106.45 84.2751H84.4573C84.0703 84.2751 83.8123 84.4686 83.8123 84.9201C83.6188 92.2081 83.1673 102.334 82.7159 106.978C82.2644 112.202 81.3614 113.75 78.7171 113.75C78.3946 113.75 78.0721 113.685 77.7496 113.685C77.2982 113.556 77.0402 113.75 77.0402 114.201V116.975C77.0402 117.297 77.1692 117.62 77.5562 117.749C78.1366 117.878 78.9106 118.007 79.8135 118.007C85.6827 118.007 87.2306 114.201 87.8111 107.365C88.198 102.85 88.6495 93.9495 88.843 88.5318H101.097L101.355 100.657L101.226 116.846C101.226 117.233 101.484 117.491 101.871 117.491H106.644C107.031 117.491 107.289 117.233 107.289 116.846L106.966 100.657L107.095 84.9201C107.095 84.5331 106.837 84.2751 106.45 84.2751Z" fill="white"/>
<path d="M128.007 118.265C138.133 118.265 143.744 111.299 143.744 100.851C143.744 90.4022 138.133 83.5011 128.007 83.5011C117.945 83.5011 112.205 90.4667 112.205 100.98C112.205 111.428 117.945 118.265 128.007 118.265ZM128.007 114.137C121.557 114.137 118.268 109.364 118.268 100.98C118.268 92.5951 121.493 87.6289 128.007 87.6289C134.456 87.6289 137.681 92.5951 137.681 100.98C137.681 109.364 134.521 114.137 128.007 114.137Z" fill="white"/>
<path d="M173.139 84.2751H151.533C151.146 84.2751 150.888 84.4686 150.888 84.9201C150.694 92.0146 150.243 99.7542 149.662 104.204C149.211 108.526 148.308 111.364 146.502 113.234H144.567C144.18 113.234 143.922 113.492 143.922 113.879V124.779C143.922 125.166 144.18 125.424 144.567 125.424H148.566C148.953 125.424 149.211 125.23 149.211 124.779L149.404 117.491H172.946L173.139 124.779C173.139 125.23 173.397 125.424 173.784 125.424H177.718C178.105 125.424 178.363 125.166 178.363 124.779V113.879C178.363 113.492 178.105 113.234 177.718 113.234H174.235L173.849 99.8832L173.784 84.9201C173.784 84.4686 173.526 84.2751 173.139 84.2751ZM168.302 113.234H152.242C153.339 111.041 154.242 108.655 154.758 104.269C155.145 100.464 155.596 94.272 155.79 88.5318H168.044L168.302 99.8832V113.234Z" fill="white"/>
<path d="M195.718 114.137C189.269 114.137 185.979 109.816 185.786 101.625H210.165C210.552 101.625 210.81 101.367 210.81 100.98C210.617 90.0798 205.006 83.5011 195.331 83.5011C185.592 83.5011 179.788 90.5957 179.788 100.98C179.788 111.106 185.334 118.265 195.654 118.265C204.167 118.265 209.198 113.363 210.294 106.655C210.359 106.204 210.036 105.946 209.649 105.946H205.264C204.877 105.946 204.683 106.139 204.554 106.526C203.522 111.428 200.62 114.137 195.718 114.137ZM195.396 87.5644C201.265 87.5644 204.296 92.1436 204.49 97.6258H185.979C186.753 91.2407 189.849 87.5644 195.396 87.5644Z" fill="white"/>
<path d="M248.677 84.6621L239.712 97.4323H236.036L236.165 84.9201C236.165 84.5331 235.907 84.2751 235.52 84.2751H230.747C230.36 84.2751 230.102 84.5331 230.102 84.9201L230.231 97.4323H226.555L217.59 84.6621C217.397 84.3396 217.139 84.2751 216.816 84.2751H212.237C211.721 84.2751 211.527 84.6621 211.85 85.049L221.911 98.8512L210.431 116.717C210.173 117.168 210.302 117.491 210.818 117.491H216.236C216.558 117.491 216.816 117.297 217.01 117.039L219.783 112.266L226.491 101.689H230.296L230.102 116.846C230.102 117.233 230.36 117.491 230.747 117.491H235.52C235.907 117.491 236.165 117.233 236.165 116.846L235.971 101.689H239.777L246.42 112.266L249.258 117.039C249.451 117.297 249.709 117.491 250.032 117.491H255.449C255.965 117.491 256.094 117.168 255.836 116.717L244.356 98.8512L254.417 85.049C254.74 84.6621 254.546 84.2751 254.03 84.2751H249.451C249.129 84.2751 248.871 84.3396 248.677 84.6621Z" fill="white"/>
<path d="M281.55 97.7548H265.297L265.49 84.9201C265.49 84.5331 265.232 84.2751 264.845 84.2751H260.137C259.75 84.2751 259.492 84.5331 259.492 84.9201L259.685 100.335L259.492 116.846C259.492 117.233 259.75 117.491 260.137 117.491H264.845C265.232 117.491 265.49 117.233 265.49 116.846L265.297 102.076H281.55L281.356 116.846C281.356 117.233 281.614 117.491 282.001 117.491H286.709C287.096 117.491 287.354 117.233 287.354 116.846L287.161 100.335L287.354 84.9201C287.354 84.5331 287.096 84.2751 286.709 84.2751H282.001C281.614 84.2751 281.356 84.5331 281.356 84.9201L281.55 97.7548Z" fill="white"/>
<path d="M316.656 89.3058C314.463 85.6295 310.852 83.6301 306.208 83.6301C297.436 83.6301 292.341 91.3697 292.341 100.98C292.341 110.59 297.114 118.136 306.079 118.136C310.916 118.136 314.463 115.878 316.721 112.137L316.592 116.846C316.592 117.233 316.85 117.491 317.237 117.491H321.88C322.267 117.491 322.525 117.233 322.525 116.846L322.332 100.528L322.525 84.9201C322.525 84.5331 322.267 84.2751 321.88 84.2751H317.172C316.785 84.2751 316.527 84.5331 316.527 84.9201L316.656 89.3058ZM307.627 114.008C301.306 114.072 298.339 108.526 298.339 100.528C298.339 92.9821 301.306 87.6289 307.756 87.6934C313.56 87.7579 316.914 92.6596 316.85 101.173C316.785 109.687 313.302 114.008 307.627 114.008Z" fill="white"/>
<path d="M341.29 84.2751C332.519 84.2751 327.682 87.5644 327.682 94.2075C327.682 99.6897 330.648 102.85 335.808 104.011L328.004 116.717C327.746 117.168 327.94 117.491 328.456 117.491H333.228C333.551 117.491 333.809 117.297 334.002 117.039L336.905 111.879L341.097 104.527H348.578L348.385 116.846C348.385 117.233 348.643 117.491 349.03 117.491H353.867C354.254 117.491 354.512 117.233 354.512 116.846L354.319 100.399L354.512 84.9201C354.512 84.5331 354.254 84.2751 353.867 84.2751H341.29ZM333.68 94.272C333.68 90.5957 336.324 88.3383 341.032 88.3383H348.514L348.643 100.399H341.032C336.389 100.399 333.68 98.3998 333.68 94.272Z" fill="white"/>
<path d="M323 145.483L323.322 166.832L323 189.341C323 189.728 323.258 189.986 323.645 189.986H328.611C328.998 189.986 329.256 189.728 329.256 189.341L329.063 172.572H338.479C348.089 172.572 354.474 167.928 354.474 158.512C354.474 149.482 348.283 144.838 338.415 144.838H323.645C323.258 144.838 323 145.096 323 145.483ZM328.998 167.09L329.192 149.353H338.608C344.929 149.353 348.541 152.32 348.541 158.641C348.541 165.477 344.606 168.057 338.866 168.057H328.998V167.09Z" fill="white"/>
<path d="M371.958 190.76C382.084 190.76 387.695 183.794 387.695 173.346C387.695 162.897 382.084 155.996 371.958 155.996C361.897 155.996 356.157 162.962 356.157 173.475C356.157 183.923 361.897 190.76 371.958 190.76ZM371.958 186.632C365.509 186.632 362.219 181.859 362.219 173.475C362.219 165.09 365.444 160.124 371.958 160.124C378.408 160.124 381.633 165.09 381.633 173.475C381.633 181.859 378.472 186.632 371.958 186.632Z" fill="white"/>
<path d="M407.225 190.76C415.739 190.76 421.092 185.407 421.737 178.119C421.801 177.732 421.543 177.538 421.156 177.538H416.899C416.512 177.538 416.254 177.732 416.19 178.183C415.61 183.665 412.127 186.697 407.29 186.632C400.775 186.632 397.744 181.924 397.744 173.41C397.744 165.09 400.775 160.189 407.354 160.124C411.611 160.124 414.965 162.639 415.868 167.67C415.932 168.057 416.125 168.251 416.512 168.251H420.705C421.092 168.251 421.35 167.993 421.285 167.606C420.511 160.64 415.481 155.996 407.354 155.996C397.228 155.996 391.617 163.026 391.617 173.475C391.617 183.923 397.228 190.76 407.225 190.76Z" fill="white"/>
<path d="M440.796 190.76C449.309 190.76 454.662 185.407 455.307 178.119C455.372 177.732 455.114 177.538 454.727 177.538H450.47C450.083 177.538 449.825 177.732 449.761 178.183C449.18 183.665 445.698 186.697 440.86 186.632C434.346 186.632 431.315 181.924 431.315 173.41C431.315 165.09 434.346 160.189 440.925 160.124C445.182 160.124 448.535 162.639 449.438 167.67C449.503 168.057 449.696 168.251 450.083 168.251H454.276C454.662 168.251 454.92 167.993 454.856 167.606C454.082 160.64 449.051 155.996 440.925 155.996C430.799 155.996 425.188 163.026 425.188 173.475C425.188 183.923 430.799 190.76 440.796 190.76Z" fill="white"/>
<path d="M465.598 183.601L465.727 172.378L465.856 157.415C465.856 157.028 465.598 156.77 465.211 156.77H460.503C460.116 156.77 459.858 157.028 459.858 157.415L460.051 172.765L459.858 189.341C459.858 189.728 460.116 189.986 460.503 189.986H466.372C466.695 189.986 466.953 189.792 467.146 189.534L482.561 163.284L482.432 173.41L482.303 189.341C482.303 189.728 482.561 189.986 482.948 189.986H487.591C487.978 189.986 488.236 189.728 488.236 189.341L488.043 172.83L488.236 157.415C488.236 157.028 487.978 156.77 487.591 156.77H481.851C481.529 156.77 481.271 156.964 481.077 157.222L465.598 183.601Z" fill="white"/>
<path d="M500.177 183.601L500.306 172.378L500.435 157.415C500.435 157.028 500.177 156.77 499.79 156.77H495.081C494.694 156.77 494.436 157.028 494.436 157.415L494.63 172.765L494.436 189.341C494.436 189.728 494.694 189.986 495.081 189.986H500.951C501.273 189.986 501.531 189.792 501.725 189.534L517.139 163.284L517.01 173.41L516.881 189.341C516.881 189.728 517.139 189.986 517.526 189.986H522.17C522.557 189.986 522.815 189.728 522.815 189.341L522.621 172.83L522.815 157.415C522.815 157.028 522.557 156.77 522.17 156.77H516.43C516.107 156.77 515.849 156.964 515.656 157.222L500.177 183.601Z" fill="white"/>
<path d="M568.006 185.342H545.819V183.278C545.819 171.217 568.973 173.281 568.973 157.157C568.844 149.095 563.878 144.064 554.72 144.064C545.303 144.129 540.208 149.611 540.015 159.544C540.015 159.931 540.273 160.189 540.66 160.189H544.852C545.239 160.189 545.497 159.995 545.497 159.544C545.819 152.385 549.109 148.644 554.72 148.579C560.589 148.579 563.427 152.32 563.362 157.351C563.362 168.96 540.144 166.638 540.144 184.117V189.341C540.144 189.728 540.402 189.986 540.789 189.986H568.006C568.393 189.986 568.651 189.728 568.651 189.341V185.987C568.651 185.6 568.393 185.342 568.006 185.342Z" fill="white"/>
<path d="M589.147 190.824C598.951 190.824 605.4 182.311 605.4 167.477C605.4 152.256 598.951 144 589.147 144C579.279 144 572.894 152.385 572.894 167.477C572.894 182.246 579.344 190.824 589.147 190.824ZM589.147 186.052C582.956 186.052 579.086 179.731 579.086 167.477C579.086 155.093 582.762 148.773 589.147 148.773C595.403 148.773 599.144 155.158 599.144 167.477C599.144 179.795 595.403 186.052 589.147 186.052Z" fill="white"/>
<path d="M637.478 185.342H615.291V183.278C615.291 171.217 638.445 173.281 638.445 157.157C638.316 149.095 633.35 144.064 624.192 144.064C614.775 144.129 609.68 149.611 609.487 159.544C609.487 159.931 609.745 160.189 610.132 160.189H614.324C614.711 160.189 614.969 159.995 614.969 159.544C615.291 152.385 618.581 148.644 624.192 148.579C630.061 148.579 632.899 152.32 632.834 157.351C632.834 168.96 609.616 166.638 609.616 184.117V189.341C609.616 189.728 609.874 189.986 610.261 189.986H637.478C637.865 189.986 638.123 189.728 638.123 189.341V185.987C638.123 185.6 637.865 185.342 637.478 185.342Z" fill="white"/>
<path d="M657.01 190.631C666.297 190.631 672.811 185.149 672.811 176.571C672.811 170.83 669.522 166.832 663.911 165.606C668.426 164.187 671.715 161.22 671.715 155.803C671.715 148.579 665.781 144.193 657.848 144.193C649.012 144.193 643.143 148.837 642.627 157.738C642.627 158.125 642.885 158.383 643.272 158.383H647.722C648.109 158.383 648.367 158.189 648.432 157.738C648.819 151.611 651.85 148.45 657.59 148.45C662.234 148.45 665.717 151.353 665.717 156.319C665.717 160.898 662.556 163.865 655.913 163.865H653.849C653.462 163.865 653.205 164.123 653.205 164.51V167.348C653.205 167.735 653.462 167.993 653.849 167.993H655.913C663.072 167.993 666.749 170.895 666.684 176.635C666.62 182.44 663.395 186.374 657.139 186.374C651.012 186.374 648.174 182.762 647.851 176.442C647.851 175.99 647.593 175.797 647.206 175.797H642.563C642.176 175.797 641.918 176.055 641.982 176.442C642.627 185.794 647.722 190.631 657.01 190.631Z" fill="white"/>
<path d="M85.5895 190.064C94.103 190.064 99.4562 184.711 100.101 177.423C100.166 177.036 99.9077 176.843 99.5207 176.843H95.264C94.877 176.843 94.619 177.036 94.5545 177.487C93.974 182.97 90.4912 186.001 85.654 185.936C79.1399 185.936 76.1086 181.228 76.1086 172.715C76.1086 164.395 79.1399 159.493 85.7185 159.429C89.9753 159.429 93.3291 161.944 94.232 166.975C94.2965 167.362 94.49 167.555 94.877 167.555H99.0692C99.4562 167.555 99.7142 167.297 99.6497 166.91C98.8758 159.945 93.8451 155.301 85.7185 155.301C75.5926 155.301 69.9814 162.331 69.9814 172.779C69.9814 183.228 75.5926 190.064 85.5895 190.064Z" fill="white"/>
<path d="M100.953 156.72V159.751C100.953 160.138 101.211 160.396 101.598 160.396H112.305L112.434 172.134L112.24 188.645C112.24 189.032 112.498 189.29 112.885 189.29H117.722C118.109 189.29 118.367 189.032 118.367 188.645L118.174 172.134L118.303 160.396H129.074C129.461 160.396 129.719 160.138 129.719 159.751V156.72C129.719 156.333 129.461 156.075 129.074 156.075H101.598C101.211 156.075 100.953 156.333 100.953 156.72Z" fill="white"/>
<path d="M146.059 190.064C156.185 190.064 161.796 183.099 161.796 172.65C161.796 162.202 156.185 155.301 146.059 155.301C135.998 155.301 130.258 162.266 130.258 172.779C130.258 183.228 135.998 190.064 146.059 190.064ZM146.059 185.936C139.61 185.936 136.32 181.164 136.32 172.779C136.32 164.395 139.545 159.429 146.059 159.429C152.509 159.429 155.734 164.395 155.734 172.779C155.734 181.164 152.573 185.936 146.059 185.936Z" fill="white"/>
<path d="M191.582 156.075H169.588C169.201 156.075 168.943 156.268 168.943 156.72C168.75 164.008 168.298 174.134 167.847 178.777C167.395 184.002 166.492 185.55 163.848 185.55C163.526 185.55 163.203 185.485 162.881 185.485C162.429 185.356 162.171 185.55 162.171 186.001V188.774C162.171 189.097 162.3 189.419 162.687 189.548C163.268 189.677 164.042 189.806 164.945 189.806C170.814 189.806 172.362 186.001 172.942 179.164C173.329 174.65 173.781 165.749 173.974 160.331H186.228L186.486 172.457L186.357 188.645C186.357 189.032 186.615 189.29 187.002 189.29H191.775C192.162 189.29 192.42 189.032 192.42 188.645L192.097 172.457L192.226 156.72C192.226 156.333 191.968 156.075 191.582 156.075Z" fill="white"/>
<path d="M204.365 182.905L204.494 171.683L204.623 156.72C204.623 156.333 204.365 156.075 203.978 156.075H199.27C198.883 156.075 198.625 156.333 198.625 156.72L198.818 172.07L198.625 188.645C198.625 189.032 198.883 189.29 199.27 189.29H205.139C205.461 189.29 205.719 189.097 205.913 188.839L221.327 162.589L221.198 172.715L221.069 188.645C221.069 189.032 221.327 189.29 221.714 189.29H226.358C226.745 189.29 227.003 189.032 227.003 188.645L226.81 172.134L227.003 156.72C227.003 156.333 226.745 156.075 226.358 156.075H220.618C220.295 156.075 220.037 156.268 219.844 156.526L204.365 182.905Z" fill="white"/>
<path d="M259.905 156.075H255.067C254.68 156.075 254.423 156.333 254.423 156.72L254.616 172.134L254.487 185.034H239.266L239.137 172.134L239.33 156.72C239.33 156.333 239.072 156.075 238.685 156.075H233.848C233.461 156.075 233.203 156.333 233.203 156.72L233.397 172.134L233.203 188.645C233.203 189.032 233.461 189.29 233.848 189.29H259.131L259.324 196.578C259.324 197.03 259.582 197.223 259.969 197.223H263.903C264.29 197.223 264.548 196.965 264.548 196.578V185.679C264.548 185.292 264.29 185.034 263.903 185.034H260.485L260.356 172.134L260.55 156.72C260.55 156.333 260.292 156.075 259.905 156.075Z" fill="white"/>
<path d="M290.305 161.105C288.112 157.429 284.5 155.43 279.856 155.43C271.085 155.43 265.99 163.169 265.99 172.779C265.99 182.389 270.762 189.935 279.727 189.935C284.564 189.935 288.112 187.678 290.369 183.937L290.24 188.645C290.24 189.032 290.498 189.29 290.885 189.29H295.529C295.916 189.29 296.174 189.032 296.174 188.645L295.98 172.328L296.174 156.72C296.174 156.333 295.916 156.075 295.529 156.075H290.821C290.434 156.075 290.176 156.333 290.176 156.72L290.305 161.105ZM281.275 185.807C274.954 185.872 271.988 180.325 271.988 172.328C271.988 164.782 274.954 159.429 281.404 159.493C287.209 159.558 290.563 164.459 290.498 172.973C290.434 181.486 286.951 185.807 281.275 185.807Z" fill="white"/>
<path d="M37.9422 154.737C38.9938 148.06 40.8291 135.761 47.2583 136.952C56.6897 138.698 48.5564 155.416 49.2033 168.242C49.5794 175.703 52.4136 196.858 26.6114 196.858C-1.71424 196.858 -1.62591 168.003 7.26407 163.073C5.01129 157.475 -1.86814 140.267 5.96883 138.241C11.7539 136.745 13.5208 143.337 17.5291 156.164C18.6861 152.852 25.7636 152.053 28.3284 154.737C32.2426 151.728 37.9422 154.737 37.9422 154.737ZM37.9422 154.737C38.1033 162.733 40.2733 174.899 32.9052 174.893C30.7251 174.893 27.6159 174.333 27.1728 168.776M7.26407 163.071C7.26407 163.071 24.5681 153.15 28.4453 163.071C31.5801 171.082 13.6092 175.828 13.6092 175.828C13.6092 175.828 25.9574 175.816 29.0779 184.906" stroke="#96F400" stroke-width="4" stroke-linecap="round" stroke-linejoin="round"/>
</svg>
