<svg width="479" height="241" viewBox="0 0 479 241" fill="none" xmlns="http://www.w3.org/2000/svg">
<path d="M3.87461 52.5L4.12461 69.05L3.87461 86.5C3.87461 86.8 4.07461 87 4.37461 87H8.22461C8.52461 87 8.72461 86.8 8.72461 86.5L8.57461 73.5H15.8746C23.3246 73.5 28.2746 69.9 28.2746 62.6C28.2746 55.6 23.4746 52 15.8246 52H4.37461C4.07461 52 3.87461 52.2 3.87461 52.5ZM8.52461 69.25L8.67461 55.5H15.9746C20.8746 55.5 23.6746 57.8 23.6746 62.7C23.6746 68 20.6246 70 16.1746 70H8.52461V69.25ZM41.9289 84.4C36.9289 84.4 34.3789 81.05 34.2289 74.7H53.1289C53.4289 74.7 53.6289 74.5 53.6289 74.2C53.4789 65.75 49.1289 60.65 41.6289 60.65C34.0789 60.65 29.5789 66.15 29.5789 74.2C29.5789 82.05 33.8789 87.6 41.8789 87.6C48.4789 87.6 52.3789 83.8 53.2289 78.6C53.2789 78.25 53.0289 78.05 52.7289 78.05H49.3289C49.0289 78.05 48.8789 78.2 48.7789 78.5C47.9789 82.3 45.7289 84.4 41.9289 84.4ZM41.6789 63.8C46.2289 63.8 48.5789 67.35 48.7289 71.6H34.3789C34.9789 66.65 37.3789 63.8 41.6789 63.8ZM75.5773 65.15C73.8773 62.3 71.0773 60.75 67.4773 60.75C60.6773 60.75 56.7273 66.75 56.7273 74.2C56.7273 81.65 60.4273 87.5 67.3773 87.5C71.1273 87.5 73.8773 85.75 75.6273 82.85L75.5273 86.5C75.5273 86.8 75.7273 87 76.0273 87H79.6273C79.9273 87 80.1273 86.8 80.1273 86.5L79.9773 73.85L80.1273 61.75C80.1273 61.45 79.9273 61.25 79.6273 61.25H75.9773C75.6773 61.25 75.4773 61.45 75.4773 61.75L75.5773 65.15ZM68.5773 84.3C63.6773 84.35 61.3773 80.05 61.3773 73.85C61.3773 68 63.6773 63.85 68.6773 63.9C73.1773 63.95 75.7773 67.75 75.7273 74.35C75.6773 80.95 72.9773 84.3 68.5773 84.3ZM106.075 61.25H89.0246C88.7246 61.25 88.5246 61.4 88.5246 61.75C88.3746 67.4 88.0246 75.25 87.6746 78.85C87.3246 82.9 86.6246 84.1 84.5746 84.1C84.3246 84.1 84.0746 84.05 83.8246 84.05C83.4746 83.95 83.2746 84.1 83.2746 84.45V86.6C83.2746 86.85 83.3746 87.1 83.6746 87.2C84.1246 87.3 84.7246 87.4 85.4246 87.4C89.9746 87.4 91.1746 84.45 91.6246 79.15C91.9246 75.65 92.2746 68.75 92.4246 64.55H101.925L102.125 73.95L102.025 86.5C102.025 86.8 102.225 87 102.525 87H106.225C106.525 87 106.725 86.8 106.725 86.5L106.475 73.95L106.575 61.75C106.575 61.45 106.375 61.25 106.075 61.25ZM115.985 82.05L116.085 73.35L116.185 61.75C116.185 61.45 115.985 61.25 115.685 61.25H112.035C111.735 61.25 111.535 61.45 111.535 61.75L111.685 73.65L111.535 86.5C111.535 86.8 111.735 87 112.035 87H116.585C116.835 87 117.035 86.85 117.185 86.65L129.135 66.3L129.035 74.15L128.935 86.5C128.935 86.8 129.135 87 129.435 87H133.035C133.335 87 133.535 86.8 133.535 86.5L133.385 73.7L133.535 61.75C133.535 61.45 133.335 61.25 133.035 61.25H128.585C128.335 61.25 128.135 61.4 127.985 61.6L115.985 82.05ZM154.839 79.5C154.839 82.65 152.239 84.35 148.539 84.35C144.289 84.35 141.889 82.5 141.689 78.5C141.689 78.15 141.489 78 141.189 78H137.789C137.489 78 137.289 78.2 137.289 78.5C137.489 84.5 141.589 87.5 148.439 87.5C154.189 87.5 159.489 85.15 159.489 79.75C159.489 76.3 157.639 74.2 153.389 73.25V73.2C156.589 72.5 158.689 70.7 158.689 67.55C158.689 63.1 154.789 60.7 148.789 60.7C142.839 60.7 138.439 63.25 138.039 68.55C138.039 68.85 138.239 69.05 138.539 69.05H141.789C142.089 69.05 142.289 68.9 142.339 68.55C142.689 65.4 145.139 63.85 148.639 63.85C152.039 63.85 154.139 65.4 154.139 67.95C154.139 70.65 152.089 71.95 148.689 71.95H145.539C145.239 71.95 145.039 72.15 145.039 72.45V74.5C145.039 74.8 145.239 75 145.539 75H148.689C152.089 75 154.839 76.25 154.839 79.5ZM168.21 95.5H171.51C171.76 95.5 172.01 95.35 172.11 95.1L183.66 61.8C183.76 61.45 183.61 61.25 183.26 61.25H179.61C179.36 61.25 179.11 61.4 179.01 61.65L172.81 81.1L165.56 61.65C165.46 61.35 165.26 61.25 165.01 61.25H160.86C160.51 61.25 160.36 61.5 160.51 61.85L170.56 87.1L167.81 94.95C167.71 95.3 167.86 95.5 168.21 95.5ZM197.391 58.55C192.791 58.55 189.991 55.8 189.991 51.75H193.641C193.641 54.15 194.891 55.8 197.441 55.8C199.941 55.8 201.241 54.15 201.291 51.75H204.991C204.991 55.8 202.091 58.55 197.391 58.55ZM190.741 82.05L190.841 73.35L190.941 61.75C190.941 61.45 190.741 61.25 190.441 61.25H186.791C186.491 61.25 186.291 61.45 186.291 61.75L186.441 73.65L186.291 86.5C186.291 86.8 186.491 87 186.791 87H191.341C191.591 87 191.791 86.85 191.941 86.65L203.891 66.3L203.791 74.15L203.691 86.5C203.691 86.8 203.891 87 204.191 87H207.791C208.091 87 208.291 86.8 208.291 86.5L208.141 73.7L208.291 61.75C208.291 61.45 208.091 61.25 207.791 61.25H203.341C203.091 61.25 202.891 61.4 202.741 61.6L190.741 82.05ZM233.525 87.6C240.125 87.6 244.275 83.45 244.775 77.8C244.825 77.5 244.625 77.35 244.325 77.35H241.025C240.725 77.35 240.525 77.5 240.475 77.85C240.025 82.1 237.325 84.45 233.575 84.4C228.525 84.4 226.175 80.75 226.175 74.15C226.175 67.7 228.525 63.9 233.625 63.85C236.925 63.85 239.525 65.8 240.225 69.7C240.275 70 240.425 70.15 240.725 70.15H243.975C244.275 70.15 244.475 69.95 244.425 69.65C243.825 64.25 239.925 60.65 233.625 60.65C225.775 60.65 221.425 66.1 221.425 74.2C221.425 82.3 225.775 87.6 233.525 87.6ZM263.552 73.2C266.802 72.45 268.852 70.7 268.852 67.6C268.852 63.3 265.252 61.25 259.052 61.25H248.852C248.552 61.25 248.352 61.45 248.352 61.75L248.452 73.7L248.302 86.5C248.302 86.8 248.502 87 248.802 87H259.102C263.702 87 269.652 85.7 269.652 79.75C269.652 76.35 267.902 74.2 263.552 73.25V73.2ZM259.002 64.4C262.202 64.4 264.302 65.65 264.302 68.15C264.302 70.8 262.252 71.9 259.002 71.9H252.852L252.952 64.4H259.002ZM252.852 74.95H259.052C262.252 74.95 265.002 76.3 265.002 79.35C265.002 82.5 262.602 83.85 259.002 83.85H252.952L252.852 74.95ZM284.7 87.6C292.55 87.6 296.9 82.2 296.9 74.1C296.9 66 292.55 60.65 284.7 60.65C276.9 60.65 272.45 66.05 272.45 74.2C272.45 82.3 276.9 87.6 284.7 87.6ZM284.7 84.4C279.7 84.4 277.15 80.7 277.15 74.2C277.15 67.7 279.65 63.85 284.7 63.85C289.7 63.85 292.2 67.7 292.2 74.2C292.2 80.7 289.75 84.4 284.7 84.4ZM319.644 60.65C312.744 60.65 308.544 65.15 307.894 72.15H305.344L305.494 61.75C305.494 61.45 305.294 61.25 304.994 61.25H301.244C300.944 61.25 300.744 61.45 300.744 61.75L300.894 73.7L300.744 86.5C300.744 86.8 300.944 87 301.244 87H304.994C305.294 87 305.494 86.8 305.494 86.5L305.344 75.35H307.844C308.194 82.8 312.394 87.6 319.644 87.6C327.244 87.6 331.444 82.2 331.444 74.1C331.444 66 327.194 60.65 319.644 60.65ZM319.644 84.4C314.894 84.4 312.444 80.7 312.444 74.2C312.444 67.75 314.844 63.85 319.644 63.85C324.394 63.8 326.794 67.7 326.794 74.2C326.794 80.7 324.444 84.4 319.644 84.4ZM348.7 82.05L348.8 73.35L348.9 61.75C348.9 61.45 348.7 61.25 348.4 61.25H344.75C344.45 61.25 344.25 61.45 344.25 61.75L344.4 73.65L344.25 86.5C344.25 86.8 344.45 87 344.75 87H349.3C349.55 87 349.75 86.85 349.9 86.65L361.85 66.3L361.75 74.15L361.65 86.5C361.65 86.8 361.85 87 362.15 87H365.75C366.05 87 366.25 86.8 366.25 86.5L366.1 73.7L366.25 61.75C366.25 61.45 366.05 61.25 365.75 61.25H361.3C361.05 61.25 360.85 61.4 360.7 61.6L348.7 82.05ZM391.661 61.25H374.911C374.611 61.25 374.411 61.4 374.411 61.75C374.261 67.25 373.911 73.25 373.461 76.7C373.111 80.05 372.411 82.25 371.011 83.7H369.511C369.211 83.7 369.011 83.9 369.011 84.2V92.65C369.011 92.95 369.211 93.15 369.511 93.15H372.611C372.911 93.15 373.111 93 373.111 92.65L373.261 87H391.511L391.661 92.65C391.661 93 391.861 93.15 392.161 93.15H395.211C395.511 93.15 395.711 92.95 395.711 92.65V84.2C395.711 83.9 395.511 83.7 395.211 83.7H392.511L392.211 73.35L392.161 61.75C392.161 61.4 391.961 61.25 391.661 61.25ZM387.911 83.7H375.461C376.311 82 377.011 80.15 377.411 76.75C377.711 73.8 378.061 69 378.211 64.55H387.711L387.911 73.35V83.7ZM409.165 84.4C404.165 84.4 401.615 81.05 401.465 74.7H420.365C420.665 74.7 420.865 74.5 420.865 74.2C420.715 65.75 416.365 60.65 408.865 60.65C401.315 60.65 396.815 66.15 396.815 74.2C396.815 82.05 401.115 87.6 409.115 87.6C415.715 87.6 419.615 83.8 420.465 78.6C420.515 78.25 420.265 78.05 419.965 78.05H416.565C416.265 78.05 416.115 78.2 416.015 78.5C415.215 82.3 412.965 84.4 409.165 84.4ZM408.915 63.8C413.465 63.8 415.815 67.35 415.965 71.6H401.615C402.215 66.65 404.615 63.8 408.915 63.8ZM443.57 60.65C436.67 60.65 432.47 65.15 431.82 72.15H429.27L429.42 61.75C429.42 61.45 429.22 61.25 428.92 61.25H425.17C424.87 61.25 424.67 61.45 424.67 61.75L424.82 73.7L424.67 86.5C424.67 86.8 424.87 87 425.17 87H428.92C429.22 87 429.42 86.8 429.42 86.5L429.27 75.35H431.77C432.12 82.8 436.32 87.6 443.57 87.6C451.17 87.6 455.37 82.2 455.37 74.1C455.37 66 451.12 60.65 443.57 60.65ZM443.57 84.4C438.82 84.4 436.37 80.7 436.37 74.2C436.37 67.75 438.77 63.85 443.57 63.85C448.32 63.8 450.72 67.7 450.72 74.2C450.72 80.7 448.37 84.4 443.57 84.4ZM91.0426 126.2C94.2926 125.45 96.3426 123.7 96.3426 120.6C96.3426 116.3 92.7426 114.25 86.5426 114.25H76.3426C76.0426 114.25 75.8426 114.45 75.8426 114.75L75.9426 126.7L75.7926 139.5C75.7926 139.8 75.9926 140 76.2926 140H86.5926C91.1926 140 97.1426 138.7 97.1426 132.75C97.1426 129.35 95.3926 127.2 91.0426 126.25V126.2ZM86.4926 117.4C89.6926 117.4 91.7926 118.65 91.7926 121.15C91.7926 123.8 89.7426 124.9 86.4926 124.9H80.3426L80.4426 117.4H86.4926ZM80.3426 127.95H86.5426C89.7426 127.95 92.4926 129.3 92.4926 132.35C92.4926 135.5 90.0926 136.85 86.4926 136.85H80.4426L80.3426 127.95ZM114.816 125.45L114.616 110.8L125.816 139.6C125.916 139.9 126.116 140 126.366 140H129.316C129.566 140 129.766 139.9 129.866 139.6L140.616 111.25L140.466 125.45L140.416 139.5C140.416 139.8 140.616 140 140.916 140H144.666C144.966 140 145.166 139.8 145.166 139.5L144.916 122.85L145.116 105.5C145.116 105.2 144.916 105 144.616 105H139.516C139.266 105 139.066 105.1 138.966 105.4L128.116 134.1L117.016 105.4C116.916 105.1 116.716 105 116.466 105H111.016C110.716 105 110.516 105.2 110.516 105.5L110.716 122.85L110.466 139.5C110.466 139.8 110.666 140 110.966 140H114.366C114.666 140 114.866 139.8 114.866 139.5L114.816 125.45ZM161.507 140.6C169.357 140.6 173.707 135.2 173.707 127.1C173.707 119 169.357 113.65 161.507 113.65C153.707 113.65 149.257 119.05 149.257 127.2C149.257 135.3 153.707 140.6 161.507 140.6ZM161.507 137.4C156.507 137.4 153.957 133.7 153.957 127.2C153.957 120.7 156.457 116.85 161.507 116.85C166.507 116.85 169.007 120.7 169.007 127.2C169.007 133.7 166.557 137.4 161.507 137.4ZM196.797 114.25H179.747C179.447 114.25 179.247 114.4 179.247 114.75C179.097 120.4 178.747 128.25 178.397 131.85C178.047 135.9 177.347 137.1 175.297 137.1C175.047 137.1 174.797 137.05 174.547 137.05C174.197 136.95 173.997 137.1 173.997 137.45V139.6C173.997 139.85 174.097 140.1 174.397 140.2C174.847 140.3 175.447 140.4 176.147 140.4C180.697 140.4 181.897 137.45 182.347 132.15C182.647 128.65 182.997 121.75 183.147 117.55H192.647L192.847 126.95L192.747 139.5C192.747 139.8 192.947 140 193.247 140H196.947C197.247 140 197.447 139.8 197.447 139.5L197.197 126.95L197.297 114.75C197.297 114.45 197.097 114.25 196.797 114.25ZM213.509 140.6C221.359 140.6 225.709 135.2 225.709 127.1C225.709 119 221.359 113.65 213.509 113.65C205.709 113.65 201.259 119.05 201.259 127.2C201.259 135.3 205.709 140.6 213.509 140.6ZM213.509 137.4C208.509 137.4 205.959 133.7 205.959 127.2C205.959 120.7 208.459 116.85 213.509 116.85C218.509 116.85 221.009 120.7 221.009 127.2C221.009 133.7 218.559 137.4 213.509 137.4ZM248.497 114.25H231.747C231.447 114.25 231.247 114.4 231.247 114.75C231.097 120.25 230.747 126.25 230.297 129.7C229.947 133.05 229.247 135.25 227.847 136.7H226.347C226.047 136.7 225.847 136.9 225.847 137.2V145.65C225.847 145.95 226.047 146.15 226.347 146.15H229.447C229.747 146.15 229.947 146 229.947 145.65L230.097 140H248.347L248.497 145.65C248.497 146 248.697 146.15 248.997 146.15H252.047C252.347 146.15 252.547 145.95 252.547 145.65V137.2C252.547 136.9 252.347 136.7 252.047 136.7H249.347L249.047 126.35L248.997 114.75C248.997 114.4 248.797 114.25 248.497 114.25ZM244.747 136.7H232.297C233.147 135 233.847 133.15 234.247 129.75C234.547 126.8 234.897 122 235.047 117.55H244.547L244.747 126.35V136.7ZM263.301 106.3H260.201C259.901 106.3 259.701 106.5 259.701 106.8V110.65C259.701 110.95 259.901 111.15 260.201 111.15H263.301C263.601 111.15 263.801 110.95 263.801 110.65V106.8C263.801 106.5 263.601 106.3 263.301 106.3ZM271.251 106.3H268.151C267.851 106.3 267.651 106.5 267.651 106.8V110.65C267.651 110.95 267.851 111.15 268.151 111.15H271.251C271.551 111.15 271.751 110.95 271.751 110.65V106.8C271.751 106.5 271.551 106.3 271.251 106.3ZM266.001 137.4C261.001 137.4 258.451 134.05 258.301 127.7H277.201C277.501 127.7 277.701 127.5 277.701 127.2C277.551 118.75 273.201 113.65 265.701 113.65C258.151 113.65 253.651 119.15 253.651 127.2C253.651 135.05 257.951 140.6 265.951 140.6C272.551 140.6 276.451 136.8 277.301 131.6C277.351 131.25 277.101 131.05 276.801 131.05H273.401C273.101 131.05 272.951 131.2 272.851 131.5C272.051 135.3 269.801 137.4 266.001 137.4ZM265.751 116.8C270.301 116.8 272.651 120.35 272.801 124.6H258.451C259.051 119.65 261.451 116.8 265.751 116.8ZM307.057 114.55L300.107 124.45H297.257L297.357 114.75C297.357 114.45 297.157 114.25 296.857 114.25H293.157C292.857 114.25 292.657 114.45 292.657 114.75L292.757 124.45H289.907L282.957 114.55C282.807 114.3 282.607 114.25 282.357 114.25H278.807C278.407 114.25 278.257 114.55 278.507 114.85L286.307 125.55L277.407 139.4C277.207 139.75 277.307 140 277.707 140H281.907C282.157 140 282.357 139.85 282.507 139.65L284.657 135.95L289.857 127.75H292.807L292.657 139.5C292.657 139.8 292.857 140 293.157 140H296.857C297.157 140 297.357 139.8 297.357 139.5L297.207 127.75H300.157L305.307 135.95L307.507 139.65C307.657 139.85 307.857 140 308.107 140H312.307C312.707 140 312.807 139.75 312.607 139.4L303.707 125.55L311.507 114.85C311.757 114.55 311.607 114.25 311.207 114.25H307.657C307.407 114.25 307.207 114.3 307.057 114.55ZM332.541 124.7H319.941L320.091 114.75C320.091 114.45 319.891 114.25 319.591 114.25H315.941C315.641 114.25 315.441 114.45 315.441 114.75L315.591 126.7L315.441 139.5C315.441 139.8 315.641 140 315.941 140H319.591C319.891 140 320.091 139.8 320.091 139.5L319.941 128.05H332.541L332.391 139.5C332.391 139.8 332.591 140 332.891 140H336.541C336.841 140 337.041 139.8 337.041 139.5L336.891 126.7L337.041 114.75C337.041 114.45 336.841 114.25 336.541 114.25H332.891C332.591 114.25 332.391 114.45 332.391 114.75L332.541 124.7ZM353.157 140.6C361.007 140.6 365.357 135.2 365.357 127.1C365.357 119 361.007 113.65 353.157 113.65C345.357 113.65 340.907 119.05 340.907 127.2C340.907 135.3 345.357 140.6 353.157 140.6ZM353.157 137.4C348.157 137.4 345.607 133.7 345.607 127.2C345.607 120.7 348.107 116.85 353.157 116.85C358.157 116.85 360.657 120.7 360.657 127.2C360.657 133.7 358.207 137.4 353.157 137.4ZM380.301 111.55C375.701 111.55 372.901 108.8 372.901 104.75H376.551C376.551 107.15 377.801 108.8 380.351 108.8C382.851 108.8 384.151 107.15 384.201 104.75H387.901C387.901 108.8 385.001 111.55 380.301 111.55ZM373.651 135.05L373.751 126.35L373.851 114.75C373.851 114.45 373.651 114.25 373.351 114.25H369.701C369.401 114.25 369.201 114.45 369.201 114.75L369.351 126.65L369.201 139.5C369.201 139.8 369.401 140 369.701 140H374.251C374.501 140 374.701 139.85 374.851 139.65L386.801 119.3L386.701 127.15L386.601 139.5C386.601 139.8 386.801 140 387.101 140H390.701C391.001 140 391.201 139.8 391.201 139.5L391.051 126.7L391.201 114.75C391.201 114.45 391.001 114.25 390.701 114.25H386.251C386.001 114.25 385.801 114.4 385.651 114.6L373.651 135.05ZM157.621 193.6C164.221 193.6 168.371 189.45 168.871 183.8C168.921 183.5 168.721 183.35 168.421 183.35H165.121C164.821 183.35 164.621 183.5 164.571 183.85C164.121 188.1 161.421 190.45 157.671 190.4C152.621 190.4 150.271 186.75 150.271 180.15C150.271 173.7 152.621 169.9 157.721 169.85C161.021 169.85 163.621 171.8 164.321 175.7C164.371 176 164.521 176.15 164.821 176.15H168.071C168.371 176.15 168.571 175.95 168.521 175.65C167.921 170.25 164.021 166.65 157.721 166.65C149.871 166.65 145.521 172.1 145.521 180.2C145.521 188.3 149.871 193.6 157.621 193.6ZM169.532 167.75V170.1C169.532 170.4 169.732 170.6 170.032 170.6H178.332L178.432 179.7L178.282 192.5C178.282 192.8 178.482 193 178.782 193H182.532C182.832 193 183.032 192.8 183.032 192.5L182.882 179.7L182.982 170.6H191.332C191.632 170.6 191.832 170.4 191.832 170.1V167.75C191.832 167.45 191.632 167.25 191.332 167.25H170.032C169.732 167.25 169.532 167.45 169.532 167.75ZM204.5 193.6C212.35 193.6 216.7 188.2 216.7 180.1C216.7 172 212.35 166.65 204.5 166.65C196.7 166.65 192.25 172.05 192.25 180.2C192.25 188.3 196.7 193.6 204.5 193.6ZM204.5 190.4C199.5 190.4 196.95 186.7 196.95 180.2C196.95 173.7 199.45 169.85 204.5 169.85C209.5 169.85 212 173.7 212 180.2C212 186.7 209.55 190.4 204.5 190.4ZM239.79 167.25H222.74C222.44 167.25 222.24 167.4 222.24 167.75C222.09 173.4 221.74 181.25 221.39 184.85C221.04 188.9 220.34 190.1 218.29 190.1C218.04 190.1 217.79 190.05 217.54 190.05C217.19 189.95 216.99 190.1 216.99 190.45V192.6C216.99 192.85 217.09 193.1 217.39 193.2C217.84 193.3 218.44 193.4 219.14 193.4C223.69 193.4 224.89 190.45 225.34 185.15C225.64 181.65 225.99 174.75 226.14 170.55H235.64L235.84 179.95L235.74 192.5C235.74 192.8 235.94 193 236.24 193H239.94C240.24 193 240.44 192.8 240.44 192.5L240.19 179.95L240.29 167.75C240.29 167.45 240.09 167.25 239.79 167.25ZM249.701 188.05L249.801 179.35L249.901 167.75C249.901 167.45 249.701 167.25 249.401 167.25H245.751C245.451 167.25 245.251 167.45 245.251 167.75L245.401 179.65L245.251 192.5C245.251 192.8 245.451 193 245.751 193H250.301C250.551 193 250.751 192.85 250.901 192.65L262.851 172.3L262.751 180.15L262.651 192.5C262.651 192.8 262.851 193 263.151 193H266.751C267.051 193 267.251 192.8 267.251 192.5L267.101 179.7L267.251 167.75C267.251 167.45 267.051 167.25 266.751 167.25H262.301C262.051 167.25 261.851 167.4 261.701 167.6L249.701 188.05ZM292.757 167.25H289.007C288.707 167.25 288.507 167.45 288.507 167.75L288.657 179.7L288.557 189.7H276.757L276.657 179.7L276.807 167.75C276.807 167.45 276.607 167.25 276.307 167.25H272.557C272.257 167.25 272.057 167.45 272.057 167.75L272.207 179.7L272.057 192.5C272.057 192.8 272.257 193 272.557 193H292.157L292.307 198.65C292.307 199 292.507 199.15 292.807 199.15H295.857C296.157 199.15 296.357 198.95 296.357 198.65V190.2C296.357 189.9 296.157 189.7 295.857 189.7H293.207L293.107 179.7L293.257 167.75C293.257 167.45 293.057 167.25 292.757 167.25ZM309.824 190.4C304.824 190.4 302.274 187.05 302.124 180.7H321.024C321.324 180.7 321.524 180.5 321.524 180.2C321.374 171.75 317.024 166.65 309.524 166.65C301.974 166.65 297.474 172.15 297.474 180.2C297.474 188.05 301.774 193.6 309.774 193.6C316.374 193.6 320.274 189.8 321.124 184.6C321.174 184.25 320.924 184.05 320.624 184.05H317.224C316.924 184.05 316.774 184.2 316.674 184.5C315.874 188.3 313.624 190.4 309.824 190.4ZM309.574 169.8C314.124 169.8 316.474 173.35 316.624 177.6H302.274C302.874 172.65 305.274 169.8 309.574 169.8Z" fill="white"/>
<path d="M423.678 129.936L452.922 141.234C452.922 141.234 445.542 167.16 420.755 182.141L432.717 189.034L389.483 204.672L397.283 169.746L407.427 175.053C407.427 175.053 424.575 160.25 423.678 129.936Z" stroke="#96F400" stroke-width="2" stroke-linecap="round" stroke-linejoin="round"/>
<path d="M358.419 50.268C392.471 49.6425 463.323 52.2368 474.321 67.6177C485.319 82.9986 428.459 95.3935 385.902 92.6427C366.995 91.4206 335.803 84.2119 326.538 71.9362C315.263 56.9967 397.282 53.8647 444.381 51.8084" stroke="#96F400" stroke-width="2" stroke-linecap="round"/>
<path d="M139 204.229L328.226 201.552" stroke="#96F400" stroke-width="2" stroke-linecap="round"/>
</svg>
