<svg width="458" height="367" viewBox="0 0 458 367" fill="none" xmlns="http://www.w3.org/2000/svg">
<path d="M5.71 11.7L6.06 34.87L5.71 59.3C5.71 59.72 5.99 60 6.41 60H11.8C12.22 60 12.5 59.72 12.5 59.3L12.29 41.1H22.51C32.94 41.1 39.87 36.06 39.87 25.84C39.87 16.04 33.15 11 22.44 11H6.41C5.99 11 5.71 11.28 5.71 11.7ZM12.22 35.15L12.43 15.9H22.65C29.51 15.9 33.43 19.12 33.43 25.98C33.43 33.4 29.16 36.2 22.93 36.2H12.22V35.15ZM58.986 56.36C51.986 56.36 48.416 51.67 48.206 42.78H74.666C75.086 42.78 75.366 42.5 75.366 42.08C75.156 30.25 69.066 23.11 58.566 23.11C47.996 23.11 41.696 30.81 41.696 42.08C41.696 53.07 47.716 60.84 58.916 60.84C68.156 60.84 73.616 55.52 74.806 48.24C74.876 47.75 74.526 47.47 74.106 47.47H69.346C68.926 47.47 68.716 47.68 68.576 48.1C67.456 53.42 64.306 56.36 58.986 56.36ZM58.636 27.52C65.006 27.52 68.296 32.49 68.506 38.44H48.416C49.256 31.51 52.616 27.52 58.636 27.52ZM106.094 29.41C103.714 25.42 99.7938 23.25 94.7538 23.25C85.2338 23.25 79.7038 31.65 79.7038 42.08C79.7038 52.51 84.8838 60.7 94.6138 60.7C99.8638 60.7 103.714 58.25 106.164 54.19L106.024 59.3C106.024 59.72 106.304 60 106.724 60H111.764C112.184 60 112.464 59.72 112.464 59.3L112.254 41.59L112.464 24.65C112.464 24.23 112.184 23.95 111.764 23.95H106.654C106.234 23.95 105.954 24.23 105.954 24.65L106.094 29.41ZM96.2938 56.22C89.4338 56.29 86.2138 50.27 86.2138 41.59C86.2138 33.4 89.4338 27.59 96.4338 27.66C102.734 27.73 106.374 33.05 106.304 42.29C106.234 51.53 102.454 56.22 96.2938 56.22ZM148.79 23.95H124.92C124.5 23.95 124.22 24.16 124.22 24.65C124.01 32.56 123.52 43.55 123.03 48.59C122.54 54.26 121.56 55.94 118.69 55.94C118.34 55.94 117.99 55.87 117.64 55.87C117.15 55.73 116.87 55.94 116.87 56.43V59.44C116.87 59.79 117.01 60.14 117.43 60.28C118.06 60.42 118.9 60.56 119.88 60.56C126.25 60.56 127.93 56.43 128.56 49.01C128.98 44.11 129.47 34.45 129.68 28.57H142.98L143.26 41.73L143.12 59.3C143.12 59.72 143.4 60 143.82 60H149C149.42 60 149.7 59.72 149.7 59.3L149.35 41.73L149.49 24.65C149.49 24.23 149.21 23.95 148.79 23.95ZM162.664 53.07L162.804 40.89L162.944 24.65C162.944 24.23 162.664 23.95 162.244 23.95H157.134C156.714 23.95 156.434 24.23 156.434 24.65L156.644 41.31L156.434 59.3C156.434 59.72 156.714 60 157.134 60H163.504C163.854 60 164.134 59.79 164.344 59.51L181.074 31.02L180.934 42.01L180.794 59.3C180.794 59.72 181.074 60 181.494 60H186.534C186.954 60 187.234 59.72 187.234 59.3L187.024 41.38L187.234 24.65C187.234 24.23 186.954 23.95 186.534 23.95H180.304C179.954 23.95 179.674 24.16 179.464 24.44L162.664 53.07ZM217.06 49.5C217.06 53.91 213.42 56.29 208.24 56.29C202.29 56.29 198.93 53.7 198.65 48.1C198.65 47.61 198.37 47.4 197.95 47.4H193.19C192.77 47.4 192.49 47.68 192.49 48.1C192.77 56.5 198.51 60.7 208.1 60.7C216.15 60.7 223.57 57.41 223.57 49.85C223.57 45.02 220.98 42.08 215.03 40.75V40.68C219.51 39.7 222.45 37.18 222.45 32.77C222.45 26.54 216.99 23.18 208.59 23.18C200.26 23.18 194.1 26.75 193.54 34.17C193.54 34.59 193.82 34.87 194.24 34.87H198.79C199.21 34.87 199.49 34.66 199.56 34.17C200.05 29.76 203.48 27.59 208.38 27.59C213.14 27.59 216.08 29.76 216.08 33.33C216.08 37.11 213.21 38.93 208.45 38.93H204.04C203.62 38.93 203.34 39.21 203.34 39.63V42.5C203.34 42.92 203.62 43.2 204.04 43.2H208.45C213.21 43.2 217.06 44.95 217.06 49.5ZM235.78 71.9H240.4C240.75 71.9 241.1 71.69 241.24 71.34L257.41 24.72C257.55 24.23 257.34 23.95 256.85 23.95H251.74C251.39 23.95 251.04 24.16 250.9 24.51L242.22 51.74L232.07 24.51C231.93 24.09 231.65 23.95 231.3 23.95H225.49C225 23.95 224.79 24.3 225 24.79L239.07 60.14L235.22 71.13C235.08 71.62 235.29 71.9 235.78 71.9ZM276.632 20.17C270.192 20.17 266.272 16.32 266.272 10.65H271.382C271.382 14.01 273.132 16.32 276.702 16.32C280.202 16.32 282.022 14.01 282.092 10.65H287.272C287.272 16.32 283.212 20.17 276.632 20.17ZM267.322 53.07L267.462 40.89L267.602 24.65C267.602 24.23 267.322 23.95 266.902 23.95H261.792C261.372 23.95 261.092 24.23 261.092 24.65L261.302 41.31L261.092 59.3C261.092 59.72 261.372 60 261.792 60H268.162C268.512 60 268.792 59.79 269.002 59.51L285.732 31.02L285.592 42.01L285.452 59.3C285.452 59.72 285.732 60 286.152 60H291.192C291.612 60 291.892 59.72 291.892 59.3L291.682 41.38L291.892 24.65C291.892 24.23 291.612 23.95 291.192 23.95H284.962C284.612 23.95 284.332 24.16 284.122 24.44L267.322 53.07ZM20.97 138.84C30.21 138.84 36.02 133.03 36.72 125.12C36.79 124.7 36.51 124.49 36.09 124.49H31.47C31.05 124.49 30.77 124.7 30.7 125.19C30.07 131.14 26.29 134.43 21.04 134.36C13.97 134.36 10.68 129.25 10.68 120.01C10.68 110.98 13.97 105.66 21.11 105.59C25.73 105.59 29.37 108.32 30.35 113.78C30.42 114.2 30.63 114.41 31.05 114.41H35.6C36.02 114.41 36.3 114.13 36.23 113.71C35.39 106.15 29.93 101.11 21.11 101.11C10.12 101.11 4.03 108.74 4.03 120.08C4.03 131.42 10.12 138.84 20.97 138.84ZM63.0088 118.68C67.5588 117.63 70.4288 115.18 70.4288 110.84C70.4288 104.82 65.3888 101.95 56.7088 101.95H42.4288C42.0088 101.95 41.7288 102.23 41.7288 102.65L41.8688 119.38L41.6588 137.3C41.6588 137.72 41.9388 138 42.3588 138H56.7788C63.2188 138 71.5488 136.18 71.5488 127.85C71.5488 123.09 69.0988 120.08 63.0088 118.75V118.68ZM56.6388 106.36C61.1188 106.36 64.0588 108.11 64.0588 111.61C64.0588 115.32 61.1888 116.86 56.6388 116.86H48.0288L48.1688 106.36H56.6388ZM48.0288 121.13H56.7088C61.1888 121.13 65.0388 123.02 65.0388 127.29C65.0388 131.7 61.6788 133.59 56.6388 133.59H48.1688L48.0288 121.13ZM92.6155 138.84C103.606 138.84 109.696 131.28 109.696 119.94C109.696 108.6 103.606 101.11 92.6155 101.11C81.6955 101.11 75.4655 108.67 75.4655 120.08C75.4655 131.42 81.6955 138.84 92.6155 138.84ZM92.6155 134.36C85.6155 134.36 82.0455 129.18 82.0455 120.08C82.0455 110.98 85.5455 105.59 92.6155 105.59C99.6155 105.59 103.116 110.98 103.116 120.08C103.116 129.18 99.6855 134.36 92.6155 134.36ZM141.537 101.11C131.877 101.11 125.997 107.41 125.087 117.21H121.517L121.727 102.65C121.727 102.23 121.447 101.95 121.027 101.95H115.777C115.357 101.95 115.077 102.23 115.077 102.65L115.287 119.38L115.077 137.3C115.077 137.72 115.357 138 115.777 138H121.027C121.447 138 121.727 137.72 121.727 137.3L121.517 121.69H125.017C125.507 132.12 131.387 138.84 141.537 138.84C152.177 138.84 158.057 131.28 158.057 119.94C158.057 108.6 152.107 101.11 141.537 101.11ZM141.537 134.36C134.887 134.36 131.457 129.18 131.457 120.08C131.457 111.05 134.817 105.59 141.537 105.59C148.187 105.52 151.547 110.98 151.547 120.08C151.547 129.18 148.257 134.36 141.537 134.36ZM182.215 131.07L182.355 118.89L182.495 102.65C182.495 102.23 182.215 101.95 181.795 101.95H176.685C176.265 101.95 175.985 102.23 175.985 102.65L176.195 119.31L175.985 137.3C175.985 137.72 176.265 138 176.685 138H183.055C183.405 138 183.685 137.79 183.895 137.51L200.625 109.02L200.485 120.01L200.345 137.3C200.345 137.72 200.625 138 201.045 138H206.085C206.505 138 206.785 137.72 206.785 137.3L206.575 119.38L206.785 102.65C206.785 102.23 206.505 101.95 206.085 101.95H199.855C199.505 101.95 199.225 102.16 199.015 102.44L182.215 131.07ZM242.361 101.95H218.911C218.491 101.95 218.211 102.16 218.211 102.65C218.001 110.35 217.511 118.75 216.881 123.58C216.391 128.27 215.411 131.35 213.451 133.38H211.351C210.931 133.38 210.651 133.66 210.651 134.08V145.91C210.651 146.33 210.931 146.61 211.351 146.61H215.691C216.111 146.61 216.391 146.4 216.391 145.91L216.601 138H242.151L242.361 145.91C242.361 146.4 242.641 146.61 243.061 146.61H247.331C247.751 146.61 248.031 146.33 248.031 145.91V134.08C248.031 133.66 247.751 133.38 247.331 133.38H243.551L243.131 118.89L243.061 102.65C243.061 102.16 242.781 101.95 242.361 101.95ZM237.111 133.38H219.681C220.871 131 221.851 128.41 222.411 123.65C222.831 119.52 223.321 112.8 223.531 106.57H236.831L237.111 118.89V133.38ZM266.867 134.36C259.867 134.36 256.297 129.67 256.087 120.78H282.547C282.967 120.78 283.247 120.5 283.247 120.08C283.037 108.25 276.947 101.11 266.447 101.11C255.877 101.11 249.577 108.81 249.577 120.08C249.577 131.07 255.597 138.84 266.797 138.84C276.037 138.84 281.497 133.52 282.687 126.24C282.757 125.75 282.407 125.47 281.987 125.47H277.227C276.807 125.47 276.597 125.68 276.457 126.1C275.337 131.42 272.187 134.36 266.867 134.36ZM266.517 105.52C272.887 105.52 276.177 110.49 276.387 116.44H256.297C257.137 109.51 260.497 105.52 266.517 105.52ZM315.033 101.11C305.373 101.11 299.493 107.41 298.583 117.21H295.013L295.223 102.65C295.223 102.23 294.943 101.95 294.523 101.95H289.273C288.853 101.95 288.573 102.23 288.573 102.65L288.783 119.38L288.573 137.3C288.573 137.72 288.853 138 289.273 138H294.523C294.943 138 295.223 137.72 295.223 137.3L295.013 121.69H298.513C299.003 132.12 304.883 138.84 315.033 138.84C325.673 138.84 331.553 131.28 331.553 119.94C331.553 108.6 325.603 101.11 315.033 101.11ZM315.033 134.36C308.383 134.36 304.953 129.18 304.953 120.08C304.953 111.05 308.313 105.59 315.033 105.59C321.683 105.52 325.043 110.98 325.043 120.08C325.043 129.18 321.753 134.36 315.033 134.36ZM26.71 196.68C31.26 195.63 34.13 193.18 34.13 188.84C34.13 182.82 29.09 179.95 20.41 179.95H6.13C5.71 179.95 5.43 180.23 5.43 180.65L5.57 197.38L5.36 215.3C5.36 215.72 5.64 216 6.06 216H20.48C26.92 216 35.25 214.18 35.25 205.85C35.25 201.09 32.8 198.08 26.71 196.75V196.68ZM20.34 184.36C24.82 184.36 27.76 186.11 27.76 189.61C27.76 193.32 24.89 194.86 20.34 194.86H11.73L11.87 184.36H20.34ZM11.73 199.13H20.41C24.89 199.13 28.74 201.02 28.74 205.29C28.74 209.7 25.38 211.59 20.34 211.59H11.87L11.73 199.13ZM59.9934 195.63L59.7134 175.12L75.3934 215.44C75.5334 215.86 75.8134 216 76.1634 216H80.2934C80.6434 216 80.9234 215.86 81.0634 215.44L96.1134 175.75L95.9034 195.63L95.8334 215.3C95.8334 215.72 96.1134 216 96.5334 216H101.783C102.203 216 102.483 215.72 102.483 215.3L102.133 191.99L102.413 167.7C102.413 167.28 102.133 167 101.713 167H94.5734C94.2234 167 93.9434 167.14 93.8034 167.56L78.6134 207.74L63.0734 167.56C62.9334 167.14 62.6534 167 62.3034 167H54.6734C54.2534 167 53.9734 167.28 53.9734 167.7L54.2534 191.99L53.9034 215.3C53.9034 215.72 54.1834 216 54.6034 216H59.3634C59.7834 216 60.0634 215.72 60.0634 215.3L59.9934 195.63ZM125.36 216.84C136.35 216.84 142.44 209.28 142.44 197.94C142.44 186.6 136.35 179.11 125.36 179.11C114.44 179.11 108.21 186.67 108.21 198.08C108.21 209.42 114.44 216.84 125.36 216.84ZM125.36 212.36C118.36 212.36 114.79 207.18 114.79 198.08C114.79 188.98 118.29 183.59 125.36 183.59C132.36 183.59 135.86 188.98 135.86 198.08C135.86 207.18 132.43 212.36 125.36 212.36ZM174.767 179.95H150.897C150.477 179.95 150.197 180.16 150.197 180.65C149.987 188.56 149.497 199.55 149.007 204.59C148.517 210.26 147.537 211.94 144.667 211.94C144.317 211.94 143.967 211.87 143.617 211.87C143.127 211.73 142.847 211.94 142.847 212.43V215.44C142.847 215.79 142.987 216.14 143.407 216.28C144.037 216.42 144.877 216.56 145.857 216.56C152.227 216.56 153.907 212.43 154.537 205.01C154.957 200.11 155.447 190.45 155.657 184.57H168.957L169.237 197.73L169.097 215.3C169.097 215.72 169.377 216 169.797 216H174.977C175.397 216 175.677 215.72 175.677 215.3L175.327 197.73L175.467 180.65C175.467 180.23 175.187 179.95 174.767 179.95ZM198.162 216.84C209.152 216.84 215.242 209.28 215.242 197.94C215.242 186.6 209.152 179.11 198.162 179.11C187.242 179.11 181.012 186.67 181.012 198.08C181.012 209.42 187.242 216.84 198.162 216.84ZM198.162 212.36C191.162 212.36 187.592 207.18 187.592 198.08C187.592 188.98 191.092 183.59 198.162 183.59C205.162 183.59 208.662 188.98 208.662 198.08C208.662 207.18 205.232 212.36 198.162 212.36ZM247.146 179.95H223.696C223.276 179.95 222.996 180.16 222.996 180.65C222.786 188.35 222.296 196.75 221.666 201.58C221.176 206.27 220.196 209.35 218.236 211.38H216.136C215.716 211.38 215.436 211.66 215.436 212.08V223.91C215.436 224.33 215.716 224.61 216.136 224.61H220.476C220.896 224.61 221.176 224.4 221.176 223.91L221.386 216H246.936L247.146 223.91C247.146 224.4 247.426 224.61 247.846 224.61H252.116C252.536 224.61 252.816 224.33 252.816 223.91V212.08C252.816 211.66 252.536 211.38 252.116 211.38H248.336L247.916 196.89L247.846 180.65C247.846 180.16 247.566 179.95 247.146 179.95ZM241.896 211.38H224.466C225.656 209 226.636 206.41 227.196 201.65C227.616 197.52 228.106 190.8 228.316 184.57H241.616L241.896 196.89V211.38ZM267.872 168.82H263.532C263.112 168.82 262.832 169.1 262.832 169.52V174.91C262.832 175.33 263.112 175.61 263.532 175.61H267.872C268.292 175.61 268.572 175.33 268.572 174.91V169.52C268.572 169.1 268.292 168.82 267.872 168.82ZM279.002 168.82H274.662C274.242 168.82 273.962 169.1 273.962 169.52V174.91C273.962 175.33 274.242 175.61 274.662 175.61H279.002C279.422 175.61 279.702 175.33 279.702 174.91V169.52C279.702 169.1 279.422 168.82 279.002 168.82ZM271.652 212.36C264.652 212.36 261.082 207.67 260.872 198.78H287.332C287.752 198.78 288.032 198.5 288.032 198.08C287.822 186.25 281.732 179.11 271.232 179.11C260.662 179.11 254.362 186.81 254.362 198.08C254.362 209.07 260.382 216.84 271.582 216.84C280.822 216.84 286.282 211.52 287.472 204.24C287.542 203.75 287.192 203.47 286.772 203.47H282.012C281.592 203.47 281.382 203.68 281.242 204.1C280.122 209.42 276.972 212.36 271.652 212.36ZM271.302 183.52C277.672 183.52 280.962 188.49 281.172 194.44H261.082C261.922 187.51 265.282 183.52 271.302 183.52ZM329.13 180.37L319.4 194.23H315.41L315.55 180.65C315.55 180.23 315.27 179.95 314.85 179.95H309.67C309.25 179.95 308.97 180.23 308.97 180.65L309.11 194.23H305.12L295.39 180.37C295.18 180.02 294.9 179.95 294.55 179.95H289.58C289.02 179.95 288.81 180.37 289.16 180.79L300.08 195.77L287.62 215.16C287.34 215.65 287.48 216 288.04 216H293.92C294.27 216 294.55 215.79 294.76 215.51L297.77 210.33L305.05 198.85H309.18L308.97 215.3C308.97 215.72 309.25 216 309.67 216H314.85C315.27 216 315.55 215.72 315.55 215.3L315.34 198.85H319.47L326.68 210.33L329.76 215.51C329.97 215.79 330.25 216 330.6 216H336.48C337.04 216 337.18 215.65 336.9 215.16L324.44 195.77L335.36 180.79C335.71 180.37 335.5 179.95 334.94 179.95H329.97C329.62 179.95 329.34 180.02 329.13 180.37ZM364.808 194.58H347.168L347.378 180.65C347.378 180.23 347.098 179.95 346.678 179.95H341.568C341.148 179.95 340.868 180.23 340.868 180.65L341.078 197.38L340.868 215.3C340.868 215.72 341.148 216 341.568 216H346.678C347.098 216 347.378 215.72 347.378 215.3L347.168 199.27H364.808L364.598 215.3C364.598 215.72 364.878 216 365.298 216H370.408C370.828 216 371.108 215.72 371.108 215.3L370.898 197.38L371.108 180.65C371.108 180.23 370.828 179.95 370.408 179.95H365.298C364.878 179.95 364.598 180.23 364.598 180.65L364.808 194.58ZM393.67 216.84C404.66 216.84 410.75 209.28 410.75 197.94C410.75 186.6 404.66 179.11 393.67 179.11C382.75 179.11 376.52 186.67 376.52 198.08C376.52 209.42 382.75 216.84 393.67 216.84ZM393.67 212.36C386.67 212.36 383.1 207.18 383.1 198.08C383.1 188.98 386.6 183.59 393.67 183.59C400.67 183.59 404.17 188.98 404.17 198.08C404.17 207.18 400.74 212.36 393.67 212.36ZM431.671 176.17C425.231 176.17 421.311 172.32 421.311 166.65H426.421C426.421 170.01 428.171 172.32 431.741 172.32C435.241 172.32 437.061 170.01 437.131 166.65H442.311C442.311 172.32 438.251 176.17 431.671 176.17ZM422.361 209.07L422.501 196.89L422.641 180.65C422.641 180.23 422.361 179.95 421.941 179.95H416.831C416.411 179.95 416.131 180.23 416.131 180.65L416.341 197.31L416.131 215.3C416.131 215.72 416.411 216 416.831 216H423.201C423.551 216 423.831 215.79 424.041 215.51L440.771 187.02L440.631 198.01L440.491 215.3C440.491 215.72 440.771 216 441.191 216H446.231C446.651 216 446.931 215.72 446.931 215.3L446.721 197.38L446.931 180.65C446.931 180.23 446.651 179.95 446.231 179.95H440.001C439.651 179.95 439.371 180.16 439.161 180.44L422.361 209.07ZM20.97 294.84C30.21 294.84 36.02 289.03 36.72 281.12C36.79 280.7 36.51 280.49 36.09 280.49H31.47C31.05 280.49 30.77 280.7 30.7 281.19C30.07 287.14 26.29 290.43 21.04 290.36C13.97 290.36 10.68 285.25 10.68 276.01C10.68 266.98 13.97 261.66 21.11 261.59C25.73 261.59 29.37 264.32 30.35 269.78C30.42 270.2 30.63 270.41 31.05 270.41H35.6C36.02 270.41 36.3 270.13 36.23 269.71C35.39 262.15 29.93 257.11 21.11 257.11C10.12 257.11 4.03 264.74 4.03 276.08C4.03 287.42 10.12 294.84 20.97 294.84ZM37.6448 258.65V261.94C37.6448 262.36 37.9248 262.64 38.3448 262.64H49.9648L50.1048 275.38L49.8948 293.3C49.8948 293.72 50.1748 294 50.5948 294H55.8448C56.2648 294 56.5448 293.72 56.5448 293.3L56.3348 275.38L56.4748 262.64H68.1648C68.5848 262.64 68.8648 262.36 68.8648 261.94V258.65C68.8648 258.23 68.5848 257.95 68.1648 257.95H38.3448C37.9248 257.95 37.6448 258.23 37.6448 258.65ZM86.5999 294.84C97.5899 294.84 103.68 287.28 103.68 275.94C103.68 264.6 97.5899 257.11 86.5999 257.11C75.6799 257.11 69.4499 264.67 69.4499 276.08C69.4499 287.42 75.6799 294.84 86.5999 294.84ZM86.5999 290.36C79.5999 290.36 76.0299 285.18 76.0299 276.08C76.0299 266.98 79.5299 261.59 86.5999 261.59C93.5999 261.59 97.0999 266.98 97.0999 276.08C97.0999 285.18 93.6699 290.36 86.5999 290.36ZM136.007 257.95H112.137C111.717 257.95 111.437 258.16 111.437 258.65C111.227 266.56 110.737 277.55 110.247 282.59C109.757 288.26 108.777 289.94 105.907 289.94C105.557 289.94 105.207 289.87 104.857 289.87C104.367 289.73 104.087 289.94 104.087 290.43V293.44C104.087 293.79 104.227 294.14 104.647 294.28C105.277 294.42 106.117 294.56 107.097 294.56C113.467 294.56 115.147 290.43 115.777 283.01C116.197 278.11 116.687 268.45 116.897 262.57H130.197L130.477 275.73L130.337 293.3C130.337 293.72 130.617 294 131.037 294H136.217C136.637 294 136.917 293.72 136.917 293.3L136.567 275.73L136.707 258.65C136.707 258.23 136.427 257.95 136.007 257.95ZM149.881 287.07L150.021 274.89L150.161 258.65C150.161 258.23 149.881 257.95 149.461 257.95H144.351C143.931 257.95 143.651 258.23 143.651 258.65L143.861 275.31L143.651 293.3C143.651 293.72 143.931 294 144.351 294H150.721C151.071 294 151.351 293.79 151.561 293.51L168.291 265.02L168.151 276.01L168.011 293.3C168.011 293.72 168.291 294 168.711 294H173.751C174.171 294 174.451 293.72 174.451 293.3L174.241 275.38L174.451 258.65C174.451 258.23 174.171 257.95 173.751 257.95H167.521C167.171 257.95 166.891 258.16 166.681 258.44L149.881 287.07ZM210.16 257.95H204.91C204.49 257.95 204.21 258.23 204.21 258.65L204.42 275.38L204.28 289.38H187.76L187.62 275.38L187.83 258.65C187.83 258.23 187.55 257.95 187.13 257.95H181.88C181.46 257.95 181.18 258.23 181.18 258.65L181.39 275.38L181.18 293.3C181.18 293.72 181.46 294 181.88 294H209.32L209.53 301.91C209.53 302.4 209.81 302.61 210.23 302.61H214.5C214.92 302.61 215.2 302.33 215.2 301.91V290.08C215.2 289.66 214.92 289.38 214.5 289.38H210.79L210.65 275.38L210.86 258.65C210.86 258.23 210.58 257.95 210.16 257.95ZM234.054 290.36C227.054 290.36 223.484 285.67 223.274 276.78H249.734C250.154 276.78 250.434 276.5 250.434 276.08C250.224 264.25 244.134 257.11 233.634 257.11C223.064 257.11 216.764 264.81 216.764 276.08C216.764 287.07 222.784 294.84 233.984 294.84C243.224 294.84 248.684 289.52 249.874 282.24C249.944 281.75 249.594 281.47 249.174 281.47H244.414C243.994 281.47 243.784 281.68 243.644 282.1C242.524 287.42 239.374 290.36 234.054 290.36ZM233.704 261.52C240.074 261.52 243.364 266.49 243.574 272.44H223.484C224.324 265.51 227.684 261.52 233.704 261.52Z" fill="white"/>
<path d="M2 315.586L265.297 311.861" stroke="#96F400" stroke-width="3" stroke-linecap="round"/>
<path d="M194.786 86.6701C240.499 86.655 335.713 91.9466 350.862 113.234C366.011 134.522 289.957 150.057 232.738 145.249C207.317 143.113 165.252 132.494 152.507 115.492C136.996 94.8002 247.065 92.5428 310.264 90.8942" stroke="#96F400" stroke-width="3" stroke-linecap="round"/>
<path d="M328.622 247.834L320.199 295.829C320.199 295.829 360.626 306.804 400.453 285.827L400.03 307.28L455.529 262.272L402.785 244.635L401.71 262.398C401.71 262.398 368.251 273.349 328.622 247.834Z" stroke="#96F400" stroke-width="4" stroke-linecap="round" stroke-linejoin="round"/>
</svg>
