<svg width="499" height="468" viewBox="0 0 499 468" fill="none" xmlns="http://www.w3.org/2000/svg">
<path d="M214.188 423.148C214.005 422.775 213.836 422.415 213.702 422.07C209.244 410.67 206.166 399.877 204.279 389.077C202.314 377.826 200.342 364.474 200.659 350.769C200.673 350.057 200.596 349.409 200.426 348.838C199.87 346.984 198.469 345.821 196.581 345.658C194.659 345.489 193.025 346.42 192.208 348.14C191.863 348.866 191.644 349.719 191.581 350.593C191.475 351.954 191.363 353.491 191.419 355.063C191.616 360.406 191.863 365.947 192.158 371.975C190.785 372.095 189.355 372.236 187.926 372.461C187.82 370.318 187.7 368.147 187.581 366.046C187.355 361.929 187.116 357.671 186.989 353.491C186.89 350.213 187.031 346.843 187.172 343.579L187.236 342.084C187.285 340.935 187.426 339.786 187.581 338.567C187.658 337.96 187.736 337.34 187.799 336.712C188.074 334.118 186.588 331.905 184.271 331.446C181.806 330.967 179.658 332.391 178.925 334.999C178.756 335.613 178.651 336.226 178.573 336.684C177.27 345.031 177.298 353.18 177.503 360.054C177.601 363.529 177.841 367.04 178.066 370.431C178.144 371.608 178.221 372.793 178.298 373.97C176.749 374.174 175.2 374.407 173.685 374.625C172.023 374.872 170.298 375.126 168.608 375.345C168.058 375.415 167.34 375.507 166.946 375.521C166.805 375.182 166.608 374.527 166.41 373.899L166.375 373.772C164.6 367.921 162.34 361.055 158.987 354.527C157.762 352.144 156.008 349.085 153.283 346.603C148.726 342.451 143.008 342.627 138.705 347.061C136.317 349.522 134.514 352.56 133.331 356.106C133.113 356.755 132.986 357.41 132.951 358.045C132.824 360.265 134.113 362.141 136.162 362.697C138.19 363.254 140.268 362.359 141.317 360.47C141.543 360.061 141.698 359.652 141.832 359.3C141.874 359.194 141.909 359.088 141.951 358.989C142.958 356.466 144.036 354.788 145.458 353.547C145.458 353.547 145.466 353.547 145.473 353.54C145.832 353.23 146.367 353.258 146.698 353.589C147.881 354.788 149.107 356.804 149.874 358.172C152.621 363.078 154.424 368.337 156.177 373.737C156.438 374.534 156.677 375.33 156.917 376.155C153.769 376.007 149.916 375.824 146.015 375.619C145.649 375.598 145.261 375.556 144.853 375.507C144.142 375.422 143.409 375.338 142.62 375.366C140.698 375.436 139.198 376.712 138.726 378.693C138.254 380.66 138.986 382.451 140.684 383.501C141.31 383.889 142.078 384.164 143.029 384.361C148.001 385.376 153.431 385.827 159.621 385.743C163.347 400.949 165.46 414.421 166.079 426.913C166.354 432.567 166.481 439.214 165.284 445.622C164.833 448.005 164.065 450.43 163.319 452.778L163.023 453.715C162.79 454.456 162.248 455.259 161.762 455.957C160.804 457.325 159.797 458.086 158.755 458.234C157.706 458.382 156.515 457.924 155.206 456.874C152.128 454.399 150.388 450.867 149.212 448.076C147.121 443.092 145.839 437.635 145.395 431.862C144.613 421.569 144.17 410.55 146.205 399.701C146.346 398.961 146.282 398.263 146.24 397.706C146.092 395.993 145.078 394.632 143.444 393.977C141.67 393.265 139.874 393.631 138.641 394.943C138.057 395.57 137.282 396.564 136.923 397.762C136.388 399.553 136.035 401.174 135.859 402.718C134.972 410.247 134.824 418.51 135.395 428.724C135.902 437.819 137.444 445.15 140.247 451.819C142.529 457.247 145.212 461.146 148.684 464.093C151.959 466.87 155.684 468.224 159.29 467.97C159.607 467.949 159.917 467.913 160.227 467.864C164.086 467.286 167.587 464.833 170.073 460.962C171.122 459.327 172.023 457.515 172.749 455.57C175.58 447.963 175.96 440.117 175.96 433.441C175.96 419.99 174.2 405.926 170.425 389.183C170.122 387.858 169.819 386.553 169.495 385.172C169.495 385.158 169.488 385.144 169.481 385.129L170.883 384.918C173.728 384.495 176.51 384.079 179.284 383.663C179.411 384.643 179.538 385.623 179.658 386.61C179.996 389.282 180.355 392.045 180.735 394.766C182.144 404.812 184.242 414.421 186.975 423.324C187.954 426.532 189.165 429.895 190.658 433.61C191.172 434.879 192.25 436.162 193.553 437.036C195.645 438.446 198.511 437.938 200.081 435.894C201.448 434.11 201.335 431.883 199.779 429.782C199.314 429.155 198.898 428.365 198.581 427.498C197.849 425.496 197.131 423.346 196.391 420.935C193.905 412.835 191.982 404.241 190.517 394.661C190.13 392.123 189.806 389.521 189.489 387.005C189.292 385.411 189.088 383.762 188.862 382.133C189.236 382.084 189.602 382.021 189.961 381.964C190.546 381.873 191.095 381.781 191.637 381.732C191.968 381.696 192.299 381.675 192.637 381.654C192.863 381.837 193.004 381.957 193.229 382.14C193.63 384.721 193.989 387.11 194.419 389.564C196.208 399.75 198.948 410.029 202.56 420.124C203.575 422.951 204.772 425.806 206.124 428.612C206.709 429.824 207.695 430.712 208.899 431.114C210.124 431.523 211.462 431.403 212.667 430.776C214.906 429.613 215.765 427.018 214.758 424.459C214.575 423.994 214.364 423.557 214.167 423.141" fill="#BEF900"/>
<path d="M7.52789 137.715C8.74627 136.939 9.84493 136.248 11.007 135.706C15.796 133.464 21.1695 132.005 28.4376 130.996C36.8395 129.826 44.4948 130.045 51.8333 131.68C57.2632 132.886 61.0592 134.55 64.1509 137.066C67.2356 139.576 68.285 142.459 67.4469 146.132C66.8694 148.677 65.7285 151.201 63.8622 154.077C60.6578 159.026 56.5519 163.658 50.7065 168.917C50.3825 167.119 50.0656 165.314 49.7487 163.517C48.7909 158.124 47.7978 152.547 46.7978 147.063C46.4457 145.131 46.002 142.84 45.354 140.535C44.9244 139.012 43.8047 137.813 42.3539 137.334C40.9312 136.862 39.3678 137.137 38.1635 138.067C37.1493 138.857 36.0225 140.33 36.4451 142.854C36.6845 144.313 36.9381 145.78 37.1846 147.239C37.586 149.608 38.0015 152.061 38.3818 154.472C38.903 157.771 39.4241 161.127 39.9241 164.37C40.5157 168.197 41.1284 172.152 41.7482 176.037C41.7482 176.072 41.7552 176.1 41.7623 176.128C41.7412 176.142 41.72 176.164 41.6848 176.178L41.5933 176.234C40.5298 176.911 39.4241 177.609 38.4029 178.476C36.5648 180.034 36.0859 182.565 37.2409 184.637C38.41 186.738 40.7904 187.64 43.1638 186.893C43.1849 186.893 43.199 186.879 43.2201 186.879L43.3962 188.268C43.9314 192.476 44.4878 196.826 45.0019 201.105C45.0371 201.408 45.0864 201.711 45.1357 202.008C45.1991 202.395 45.3047 203.002 45.2977 203.34C45.023 203.46 44.5089 203.594 44.1779 203.678C43.7906 203.777 43.3962 203.883 43.0088 204.017C41.889 204.404 40.7622 204.785 39.6424 205.166C37.6635 205.836 35.6211 206.526 33.621 207.26C30.5997 208.373 29.1841 211.066 30.1771 213.802C31.1842 216.572 33.9661 217.7 37.1 216.593C37.431 216.473 37.7691 216.354 38.1001 216.241C38.7762 216.001 39.4664 215.754 40.1495 215.522C42.0581 214.88 43.9737 214.239 46.0301 213.555L46.333 213.456C46.4034 214.697 46.4809 215.881 46.6428 217.087C47.0372 219.984 49.1148 221.789 51.8122 221.599C51.8263 221.599 51.8474 221.599 51.8615 221.599C54.4954 221.394 56.3547 219.251 56.3899 216.403C56.411 214.683 56.2702 212.984 56.1434 211.701V211.673C56.08 211.031 56.0166 210.376 56.0237 210.044C56.3124 209.889 56.897 209.649 57.4745 209.417L57.6153 209.36C64.1509 206.703 71.7288 203.277 78.356 198.039C80.9547 195.987 84.1662 193.097 85.9409 188.966C88.0115 184.137 86.8001 179.287 82.7647 176.319C80.8632 174.916 78.525 173.753 76.0108 172.949C71.1724 171.412 66.306 171.391 62.3339 171.666C62.2846 171.666 62.2353 171.673 62.179 171.68C63.5593 170.27 64.9819 168.811 66.313 167.295C69.7991 163.326 74.0952 157.891 76.4263 151.017C79.018 143.376 77.701 136.721 72.5106 131.236C69.947 128.529 66.637 126.351 62.4114 124.595C55.5236 121.726 47.7204 120.323 38.5579 120.302C28.353 120.281 18.8102 122.093 10.2041 125.702C7.22506 126.95 4.42208 128.698 2.06983 130.249C0.957085 130.982 0.238733 132.096 0.0485815 133.393C-0.14157 134.705 0.231691 136.044 1.07681 137.059C2.65437 138.948 5.18268 139.209 7.52085 137.722M52.8404 183.277C60.038 181.43 66.0031 181.07 71.5668 182.142C72.9824 182.417 74.5248 183.002 76.4052 183.982C76.8066 184.186 76.9404 184.362 76.9615 184.405C76.9615 184.447 76.9404 184.637 76.7291 184.969C75.6375 186.71 74.4543 188.169 73.2148 189.29C69.3414 192.794 64.7636 195.254 59.0802 197.862C57.728 198.483 56.3547 199.061 54.9039 199.674C54.7912 198.687 54.6785 197.735 54.5588 196.798C53.925 191.779 53.3616 187.344 52.8404 183.277Z" fill="#BEF900"/>
<path d="M456.441 314.612L456.322 314.161C453.103 301.746 450.864 288.676 449.673 275.303C448.293 259.751 447.448 243.234 447.096 224.799C447.082 224.193 447.096 223.587 447.11 222.945C447.131 221.972 447.145 220.971 447.082 219.949C446.899 217.15 444.948 215.155 442.335 215.106C439.807 215.057 437.771 216.953 437.384 219.709C437.335 220.055 437.328 220.379 437.314 220.661V220.88C437.264 221.761 437.236 222.649 437.201 223.53C437.137 225.356 437.074 227.238 436.912 229.064C436.004 239.082 434.074 249.106 431.01 259.709C429.764 264.009 428.567 267.908 426.75 271.559C426.559 271.073 426.404 270.601 426.299 270.143C426.137 269.431 425.975 268.726 425.813 268.014C424.834 263.777 423.827 259.399 423.2 255.07C422.552 250.544 422.137 245.885 421.742 241.373C421.601 239.759 421.453 238.088 421.299 236.445C421.2 235.395 421.129 234.309 421.059 233.259C420.946 231.539 420.834 229.762 420.58 227.993C420.172 225.116 417.869 223.298 415.136 223.671C412.58 224.017 410.833 226.237 410.882 229.078C410.911 230.813 411.002 232.547 411.164 234.225C412.016 243.445 411.509 253.428 409.615 264.735C409.009 268.338 408.136 272.553 406.241 276.501C405.65 277.728 404.819 279.025 403.706 280.449C403.044 279.526 402.516 278.616 402.142 277.728C400.234 273.202 399.008 267.957 398.396 261.704C397.508 252.589 396.832 243.29 396.17 234.295C395.994 231.856 395.818 229.417 395.635 226.978C395.572 226.153 395.677 225.264 395.931 224.475C396.797 221.775 395.86 219.406 393.543 218.44C392.276 217.912 390.902 217.919 389.677 218.455C388.473 218.983 387.557 219.956 387.099 221.211C386.754 222.156 386.578 223.065 386.571 223.918C386.571 225.159 386.557 226.399 386.543 227.64C386.508 231.179 386.465 234.838 386.684 238.454C387.184 246.843 387.966 255.19 388.592 261.528C389.191 267.612 390.36 273.357 392.071 278.602C392.91 281.168 394.184 284.467 396.614 287.196C400.333 291.355 405.607 291.736 409.749 288.133C411.044 287.005 412.27 285.546 413.305 283.91C415.171 280.943 416.404 277.798 417.404 274.267C418.207 276.649 419.263 279.138 421.256 281.182C424.186 284.2 428.376 284.355 431.44 281.556C432.475 280.611 433.433 279.434 434.208 278.151C436.426 274.485 437.785 270.671 439.201 266.188C440.018 278.01 441.279 290.403 443.828 302.86C444.997 308.57 446.427 314.301 447.807 319.843L447.941 320.392C448.342 321.986 449.659 323.121 450.209 323.537C451.033 324.164 451.983 324.439 452.955 324.368C453.772 324.312 454.61 324.009 455.399 323.459C457.054 322.317 457.744 320.519 457.35 318.397C457.103 317.093 456.772 315.817 456.448 314.576" fill="#BEF900"/>
<path d="M383.592 122.939C383.627 124.419 383.656 125.914 383.684 127.394C383.881 139.513 384.381 153.83 386.571 168.162C388.015 177.623 390.395 186.921 393.656 195.804C394.332 197.637 395.248 199.427 396.318 200.978C397.093 202.099 398.227 202.839 399.523 203.065C399.91 203.136 400.297 203.15 400.685 203.121C401.586 203.058 402.474 202.741 403.227 202.205C405.262 200.746 405.791 198.095 404.544 195.621L404.312 195.162C403.812 194.175 403.34 193.252 402.995 192.3C399.523 182.699 397.107 172.597 395.818 162.276C394.177 149.142 393.804 135.917 393.536 122.396C393.466 118.667 393.332 113.76 392.98 108.896C392.649 104.328 389.839 103.073 388.198 102.735C385.409 102.156 383.106 103.355 381.346 106.288C379.627 109.157 378.036 111.984 376.62 114.684C375 117.786 373.373 120.944 371.803 124.003C369.521 128.438 367.169 133.027 364.788 137.496C363.57 139.787 361.999 141.895 360.626 143.658C360.464 143.862 360.344 143.996 360.26 144.081C360.147 144.003 359.985 143.876 359.76 143.665C358.739 142.699 357.57 141.543 356.682 140.239C355.865 139.047 355.034 137.842 354.224 136.679C351.788 133.175 349.266 129.551 347.111 125.836C345.196 122.523 341.949 120.796 339.216 121.635C337.153 122.269 335.977 124.208 336.153 126.689C336.582 132.872 337.463 139.083 338.315 145.089C338.787 148.395 339.266 151.814 339.667 155.177C340.407 161.359 341.125 167.648 341.829 173.732C342.266 177.517 342.695 181.303 343.139 185.081C343.245 185.977 343.407 186.766 343.632 187.499C344.365 189.868 346.393 191.243 348.794 190.982C351.104 190.742 352.83 188.987 353.083 186.625C353.189 185.617 353.112 184.616 353.027 183.855C352.921 182.861 352.809 181.86 352.703 180.866C352.252 176.685 351.788 172.364 351.266 168.113C350.52 162.078 349.731 155.952 348.963 150.024C348.787 148.656 348.611 147.295 348.435 145.928C349.794 147.796 351.302 149.579 353.126 151.144C355.71 153.365 358.478 154.408 361.147 154.19C363.732 153.971 366.183 152.547 368.232 150.08C370.373 147.5 372.373 144.49 374.176 141.134C377.035 135.826 379.817 130.369 382.501 125.089C382.867 124.37 383.233 123.658 383.599 122.939" fill="#BEF900"/>
<path d="M238.006 100.084C236.337 101.67 236.041 104.095 237.295 105.97C238.232 107.373 239.795 108.099 241.422 107.979C241.985 107.937 242.556 107.803 243.105 107.557C243.626 107.324 244.084 107.035 244.479 106.781L244.542 106.739C245.38 106.203 246.218 105.66 247.049 105.117C248.598 104.109 250.204 103.066 251.796 102.086C255.641 99.7103 259.592 97.3063 263.409 94.987C264.571 94.282 265.733 93.57 266.902 92.858C268.107 94.0917 269.797 94.6063 271.459 94.2538C273.177 93.8802 274.537 92.6395 275.086 90.9264C275.375 90.0311 275.501 89.1922 275.466 88.4308C275.445 87.9938 275.431 87.7541 276.297 87.2465C290.538 78.9279 302.32 72.6326 313.391 67.437C317.088 65.6957 320.969 64.1237 324.723 62.608C326.159 62.0299 327.645 61.4236 329.103 60.8244C330.251 60.3521 331.843 59.485 332.413 57.4617C332.864 55.8685 332.512 54.1837 331.47 52.9641C330.378 51.6881 328.659 51.0536 326.878 51.2721C325.202 51.4766 323.406 51.9912 321.68 52.7667C315.539 55.5231 309.419 58.3711 303.707 61.0571C303.278 60.1054 302.82 59.1748 302.376 58.2654C301.975 57.4406 301.559 56.5876 301.172 55.7557C295.453 43.2638 289.96 29.5663 283.896 12.626C283.326 11.0398 282.488 9.4325 281.185 7.42335C279.959 5.53404 277.882 4.80793 275.769 5.52699C272.86 6.51394 272.635 9.25625 272.565 10.1586L272.494 11.0187C272.121 15.608 271.741 20.3453 271.318 25.0052C270.466 34.4658 269.557 44.3423 268.55 55.2059C268.212 58.8223 267.867 62.4317 267.529 66.0482C267.05 71.0887 266.557 76.2984 266.085 81.4235C266.057 81.6984 266.057 81.7548 265.67 82.0016C257.176 87.4227 248.591 92.9638 240.57 98.1382C239.478 98.8432 238.689 99.4424 238.013 100.091M276.727 75.4665L280.614 32.2804C284.502 42.8337 289.171 53.7889 294.763 65.5054L276.72 75.4665H276.727Z" fill="#BEF900"/>
<path d="M100.188 61.7411C102.371 61.3251 103.836 59.5557 103.921 57.2293C103.935 56.9191 103.935 56.5455 103.872 56.1366C103.611 54.4306 103.935 52.6682 104.886 50.6026C105.484 49.3055 106.125 47.9449 106.921 46.7817C114.534 35.608 124.718 26.9863 137.176 21.1492C140.515 19.5842 143.163 18.9074 145.775 18.9568C146.79 18.9779 147.226 19.1823 147.318 19.2951C147.402 19.4009 147.494 19.7957 147.318 20.6416C146.691 23.7153 146.029 26.7043 144.846 29.3902C142.472 34.7762 139.93 40.2044 137.465 45.4493C135.965 48.6428 134.416 51.9491 132.923 55.2131C128.739 64.3353 124.556 74.2471 122.26 84.9273C121.147 90.1088 120.302 95.7063 121.626 101.508C122.746 106.415 126.112 109.728 130.408 110.151C130.986 110.207 131.549 110.214 132.092 110.172C134.965 109.968 137.289 108.565 138.874 107.444C142.233 105.061 144.677 102.016 146.621 99.3509C152.135 91.8008 155.558 83.1931 158.861 74.3106C159.664 72.1393 158.847 69.7495 156.861 68.5017C154.853 67.2327 152.269 67.5711 150.733 69.3053C149.811 70.3416 149.205 71.5824 148.825 72.4283C148.459 73.2531 148.177 74.0779 147.909 74.8816C147.754 75.3328 147.614 75.7628 147.452 76.1858C144.529 83.9968 141.317 89.996 137.338 95.0718C135.486 97.4334 133.916 99.0901 131.796 100.035C131.761 100.049 131.725 100.063 131.69 100.077C131.683 100.063 131.676 100.042 131.669 100.021C131.359 99.224 131.155 98.3922 131.084 97.6238C130.655 92.971 131.542 88.4381 133 83.0592C135.648 73.2954 139.761 64.1379 143.747 55.5867C144.494 53.9794 145.247 52.3721 146.001 50.7648C148.783 44.8149 151.656 38.6676 154.382 32.5626C156.1 28.7205 157.1 24.8503 157.361 21.0646C157.79 14.7411 154.1 10.046 147.952 9.1084C147.015 8.96741 146.121 8.94626 145.247 8.92511C144.895 8.91806 144.55 8.91101 144.212 8.89691L143.987 8.88281L143.761 8.92511C143.318 9.01676 142.881 9.0943 142.444 9.1789C141.409 9.37629 140.43 9.55958 139.423 9.80632C138.078 10.1376 136.909 10.5042 135.838 10.9272C123.373 15.8902 112.351 24.0959 103.083 35.326C98.8572 40.4441 96.2866 45.1814 94.9767 50.2501C94.1316 53.5353 94.1597 56.2353 95.0612 58.7379C95.85 60.9233 97.9557 62.1499 100.195 61.727" fill="#BEF900"/>
<path d="M303.2 379.003C300.024 374.09 295.446 368.295 287.805 365.926C288.333 364.812 288.875 363.67 289.354 362.5C291.016 358.404 291.587 354.611 291.094 350.903C290.46 346.159 287.079 342.444 282.488 341.443C277.029 340.258 269.275 343.438 266.212 348.112C264.655 350.487 264.93 353.039 266.909 354.597C268.93 356.191 271.536 355.789 273.395 353.603C274.515 352.285 276.008 351.376 277.966 350.819C279.318 350.431 280.339 350.438 280.84 350.819C281.333 351.199 281.586 352.165 281.551 353.533C281.452 357.431 279.649 360.872 277.889 363.72C277.234 364.777 276.466 365.785 275.649 366.843C275.297 367.301 274.938 367.773 274.579 368.245C273.381 369.867 273.177 371.707 274.001 373.434C274.825 375.168 276.494 376.169 278.459 376.113C279.431 376.085 280.347 375.753 281.03 375.464C282.417 374.886 283.804 374.837 285.262 375.316C288.115 376.254 290.516 378.15 293.059 381.45C298.348 388.33 301.489 396.846 302.665 407.484C303.665 416.543 302.869 425.439 300.291 433.934C299.249 437.381 297.932 440.97 295.418 443.867C294.622 444.791 293.918 445.277 293.333 445.319C293.326 445.319 293.312 445.319 293.305 445.319C292.72 445.347 291.981 444.939 291.108 444.1C288.424 441.534 286.727 438.256 285.009 434.117C280.403 423.042 278.515 411.241 277.149 400.131C276.593 395.584 276.677 394.534 276.952 391.058L276.966 390.868C277.198 388.372 275.621 386.222 273.212 385.75C270.973 385.313 268.902 386.518 267.937 388.852C267.712 389.394 267.43 390.071 267.388 390.861C267.015 397.353 267.888 403.614 268.74 409.669L268.944 411.15C270.177 420.018 272.332 428.442 275.353 436.169C277.1 440.645 279.431 445.806 283.417 450.148C285.805 452.743 288.326 454.279 291.129 454.843C292.15 455.048 293.15 455.118 294.129 455.048C297.157 454.836 299.974 453.314 302.524 450.501C306.418 446.208 308.334 440.948 309.567 436.839C313.144 424.939 313.736 412.538 311.341 399.983C309.806 391.939 307.144 385.073 303.214 378.982" fill="#BEF900"/>
<path d="M280.748 280.583C283.072 274.027 282.474 268.049 278.973 262.832C276.149 258.616 271.938 255.98 266.099 254.767C257.669 253.026 249.366 254.373 242.359 255.931C241.499 256.121 240.661 256.332 239.802 256.558C240.006 256.015 240.203 255.479 240.394 254.937C241.887 250.629 242.168 246.738 241.267 243.051C239.661 236.481 233.09 232.378 226.315 233.696C224.632 234.027 222.97 234.457 221.357 234.88L220.625 235.071C219.16 235.451 217.977 236.932 217.533 237.545C216.963 238.342 216.04 239.907 216.265 241.394C216.399 242.282 216.85 242.987 217.216 243.558C217.308 243.699 217.392 243.833 217.477 243.974C217.667 244.299 217.871 244.581 218.061 244.827C218.195 245.004 218.385 245.264 218.435 245.377C220.28 254.281 221.914 262.388 223.435 270.164C224.583 276.022 225.71 281.986 226.801 287.76C227.301 290.389 227.794 293.019 228.294 295.655C228.484 296.642 228.675 297.629 228.865 298.623C225.766 299.688 225.47 302.148 225.498 303.241C225.576 305.884 227.351 307.654 230.252 307.964C232.886 308.246 235.091 308.345 237.196 308.281C239.091 308.225 240.929 308.154 242.718 308.027C246.267 307.781 249.648 307.315 253.042 306.286C266.874 302.099 276.199 293.456 280.748 280.597M271.966 275.952C270.459 282.317 266.67 287.633 260.381 292.194C254.641 296.353 247.774 298.369 238.802 298.503C237.541 291.912 236.238 285.222 234.971 278.743L233.816 272.814C233.612 271.757 233.4 270.671 233.175 269.586C237.64 266.949 242.675 265.73 247.457 264.799C249.134 264.475 250.81 264.256 252.162 264.087C252.634 264.024 253.056 263.974 253.408 263.925C258.183 263.608 262.134 263.474 265.867 264.778C271.156 266.625 273.269 270.488 271.973 275.944M227.358 242.889C228.724 242.6 229.921 242.804 230.787 243.481C231.766 244.256 232.238 245.596 232.111 247.259C231.949 249.381 231.168 252.187 230.14 254.633C229.407 251.503 228.682 248.423 227.956 245.342C227.759 244.51 227.569 243.692 227.358 242.882" fill="#BEF900"/>
<path d="M109.442 313.942C111.914 313.265 113.393 310.875 112.956 308.267L112.942 308.161C112.879 307.774 112.809 307.351 112.703 306.921C114.95 306.328 116.795 305.786 118.471 305.229C127.493 302.225 134.43 298.757 140.317 294.309C142.916 292.342 145.501 290.051 146.775 286.596C148.008 283.255 147.268 280.097 144.74 277.925C143.296 276.685 141.514 275.677 139.726 275.077C135.634 273.703 131.422 273.435 127.331 273.54C130.31 270.918 133.521 267.654 135.465 263.248C138.162 257.122 136.324 251.475 130.542 248.155C129.169 247.365 127.767 246.745 126.394 246.329C116.893 243.424 107.132 244.214 96.5541 248.74C95.7653 249.078 95.1667 249.614 94.6174 250.143C92.6525 252.011 92.5398 254.57 94.3216 256.664C94.554 256.932 94.6385 257.065 94.6667 257.122L94.7301 257.481C95.6245 262.346 96.5541 267.379 97.364 272.342C97.7091 274.443 97.9978 276.593 98.2796 278.68C98.5049 280.372 98.7444 282.127 99.012 283.854C99.8289 289.177 100.674 294.436 101.526 299.511C99.8219 299.836 98.019 300.223 96.2442 300.794C94.8357 301.246 93.7159 302.162 93.0962 303.375C92.5187 304.503 92.4201 305.793 92.8144 307.005C93.6455 309.557 96.1738 310.777 99.1176 310.029C100.005 309.804 100.928 309.599 101.822 309.402C102.273 309.303 102.738 309.198 103.202 309.092C103.329 309.677 103.484 310.241 103.681 310.777C104.449 312.941 106.449 314.259 108.555 314.111C108.851 314.09 109.153 314.041 109.456 313.956M109.689 286.202C114.83 284.623 119.619 283.727 124.359 283.459H124.38H124.401C127.704 283.191 132.035 283.029 136.211 284.15C136.5 284.228 136.732 284.298 136.923 284.355C136.789 284.503 136.613 284.679 136.401 284.89C133.577 287.661 130.119 289.614 126.802 291.313C122.027 293.752 116.858 295.733 111.013 297.368C110.527 293.752 109.963 290.164 109.414 286.688L109.4 286.582C109.386 286.491 109.372 286.399 109.358 286.314C109.477 286.279 109.59 286.244 109.689 286.209M122.788 264.51C118.633 268.697 113.534 271.827 108.66 274.668C108.329 274.859 107.998 275.049 107.66 275.239C107.66 275.204 107.646 275.169 107.639 275.127C107.301 273.294 106.984 271.56 106.632 269.811C105.625 264.785 104.71 260.315 103.829 256.163L103.801 256.036C103.787 255.98 103.773 255.923 103.766 255.86C103.85 255.832 103.935 255.811 104.005 255.789C110.893 253.724 117.281 253.682 123.535 255.656C124.38 255.923 125.323 256.403 126.422 257.115C126.795 257.362 127.105 257.651 126.831 258.581C126.169 260.788 124.739 262.55 122.788 264.517" fill="#BEF900"/>
<path d="M175.08 25.2449C176.643 26.5068 178.883 26.5491 180.651 25.3507C181.214 24.97 181.749 24.5611 182.263 24.1734C182.911 23.6869 183.524 23.2217 184.151 22.8269C190.503 18.8438 197.426 16.7078 203.483 15.178C203.729 17.448 203.99 19.7109 204.244 21.9809C204.659 25.6679 205.089 29.4747 205.483 33.2251C203.335 34.776 203.082 36.6865 203.251 38.0259C203.504 40.0139 204.701 41.452 206.554 42.0231L206.941 45.6184C207.638 52.0829 208.356 58.7589 209.138 65.3292C210.202 74.2259 211.378 83.5666 212.829 94.7262C213.174 97.3769 213.653 99.9359 214.251 102.326C215.096 105.703 217.399 106.971 219.547 106.823C219.808 106.802 220.075 106.767 220.329 106.704C223.047 106.062 224.357 103.63 223.843 100.19C223.66 98.9772 223.47 97.7717 223.28 96.5591C222.773 93.3304 222.252 89.9959 221.857 86.7178C220.794 77.8635 219.737 68.8611 218.716 60.1548C217.934 53.4787 217.125 46.5771 216.315 39.7813C222.449 37.4478 227.604 34.8959 232.055 31.9844C234.872 30.1444 238.457 27.5572 241.225 23.8843C243.302 21.1279 244.218 18.4632 244.119 15.4953V15.4318C243.936 12.7388 242.668 10.2926 240.457 8.36806C237.626 5.90068 234.252 4.85734 231.956 4.29336C224.477 2.43931 217.139 2.91163 211.519 3.5602C211.174 2.17847 210.3 1.06463 209.068 0.458356C207.765 -0.183162 206.265 -0.147913 204.955 0.542952C203.244 1.45236 202.37 3.10197 202.469 5.20277C201.99 5.34376 201.518 5.4777 201.039 5.6187C197.638 6.5986 194.123 7.61375 190.729 8.89678C184.468 11.2584 179.467 14.1206 175.446 17.6595C174.855 18.1812 174.059 19.0342 173.622 20.148C172.883 22.0373 173.425 23.9548 175.059 25.2731M212.934 13.4368C219.568 12.767 225.16 12.6965 230.639 14.3321C231.583 14.614 232.541 15.037 233.4 15.5657C234.062 15.9676 234.126 16.2073 234.126 16.2143C234.14 16.2637 234.097 16.5175 233.788 16.9757C232.886 18.3151 231.83 19.5347 230.752 20.4935C226.301 24.4342 220.963 27.0214 216.329 29.0306C215.92 29.2068 215.519 29.376 215.082 29.5522C215.082 29.5381 215.082 29.524 215.082 29.5099C214.857 27.8885 214.646 26.3447 214.441 24.8078C214.251 23.3768 214.061 21.9386 213.878 20.5076C213.575 18.1953 213.265 15.8054 212.941 13.4438" fill="#BEF900"/>
<path d="M160.368 119.922C159.882 118.829 159.009 118.004 157.91 117.595C156.748 117.165 155.417 117.25 154.255 117.807C152.149 118.829 151.212 121.198 151.973 123.559C152.149 124.102 152.353 124.61 152.557 125.103C152.712 125.477 152.853 125.829 152.973 126.182C155.297 132.816 156.311 139.823 156.058 147.606C155.825 154.698 154.318 160.648 151.452 165.794C147.473 172.942 142.803 176.065 136.465 175.741C136.134 172.28 135.81 168.825 135.479 165.364C134.972 159.992 134.465 154.62 133.951 149.248C133.556 145.075 133.183 141.275 132.817 137.623C132.542 134.874 130.69 133.02 128.211 132.999C125.605 132.978 123.683 134.938 123.528 137.772C123.471 138.829 123.549 139.851 123.626 140.845L123.64 141.021C125.443 164.433 126.943 183.834 128.366 202.085C128.45 203.199 128.605 204.348 128.824 205.512C129.387 208.515 131.768 210.418 134.5 210.052C137.24 209.678 138.909 207.295 138.655 204.13C138.282 199.526 137.916 194.923 137.55 190.32L137.226 186.245C137.916 186.21 138.613 186.153 139.317 186.005C140.353 185.78 141.36 185.97 142.684 186.64C145.635 188.134 148.297 190.39 150.825 193.541C154.586 198.229 157.079 203.89 158.91 211.906C159.072 212.611 159.22 213.344 159.368 214.049C159.635 215.332 159.91 216.657 160.269 217.968C160.91 220.309 162.917 221.726 165.255 221.557C165.438 221.542 165.622 221.521 165.805 221.486C168.192 221.07 169.805 219.082 169.819 216.544C169.819 215.494 169.742 214.648 169.551 213.865C169.347 213.005 169.15 212.138 168.946 211.271C168.354 208.684 167.741 206.012 166.924 203.411C163.833 193.499 158.882 186.026 151.818 180.633C152.072 180.408 152.325 180.182 152.593 179.95C153.783 178.906 155.015 177.821 156.079 176.545C162.192 169.241 165.431 160.112 165.995 148.642C166.326 141.889 165.509 135.093 163.572 128.445C162.84 125.928 161.819 123.214 160.354 119.915" fill="#BEF900"/>
<path d="M291.608 280.52C289.375 279.378 286.748 280.203 285.509 282.451C284.593 284.101 283.6 286.068 283.1 288.183C281.6 294.584 283.016 300.703 284.417 305.321C285.621 309.304 287.537 314.393 291.678 318.503C295.164 321.965 298.883 323.741 303.024 323.939C303.672 323.967 304.306 323.967 304.925 323.917C309.792 323.579 313.799 320.95 316.842 316.085C320.131 310.826 321.222 305.074 321.856 300.139C323.095 290.467 323.067 280.372 321.771 269.276C320.849 261.331 319.659 253.294 318.511 245.525C318.053 242.424 317.581 239.216 317.13 236.065C317.025 235.303 316.785 234.563 316.447 233.922C315.482 232.11 313.778 231.172 311.771 231.377C309.686 231.574 308.193 232.836 307.658 234.838C307.475 235.529 307.461 236.185 307.447 236.763C307.447 236.988 307.44 237.207 307.426 237.404C307.348 238.462 307.285 239.526 307.221 240.562C307.088 242.896 306.947 245.314 306.602 247.619C306.123 250.834 304.911 253.555 302.996 255.719C302.46 256.325 301.658 257.052 300.897 257.066C300.136 257.08 299.312 256.375 298.756 255.79C296.354 253.245 295.002 250.023 293.826 246.942C292.171 242.614 290.939 237.736 290.065 232.025C289.657 229.339 287.72 227.662 285.248 227.838C285.227 227.838 285.213 227.838 285.192 227.838C282.748 228.035 281.037 230.058 281.044 232.751C281.044 233.097 281.072 233.463 281.128 233.872C282.164 241.507 283.72 247.661 286.03 253.245C287.312 256.34 289.22 260.287 292.65 263.403C297.594 267.894 303.925 267.964 308.778 263.58C309.658 262.79 310.383 261.888 311.06 260.978C311.165 261.986 311.271 262.987 311.369 263.974C311.862 268.676 312.369 273.534 312.686 278.306C313.299 287.548 312.996 295.035 311.736 301.859C311.158 305.003 310.278 308.62 308.144 311.623C307.095 313.103 305.813 314.006 304.447 314.231C303.165 314.443 301.777 314.048 300.446 313.089C298.953 312.011 297.594 310.601 296.629 309.106C294.446 305.736 293.08 301.591 292.319 296.043C291.918 293.111 292.361 290.03 293.721 286.357C294.587 284.002 293.721 281.598 291.608 280.52Z" fill="#BEF900"/>
<path d="M261.113 391.037C257.895 382.472 255.345 373.244 253.331 362.838C253.183 362.077 253.049 361.323 252.908 360.561C252.669 359.236 252.422 357.868 252.127 356.508C251.542 353.871 249.472 352.2 246.971 352.348C246.95 352.348 246.929 352.348 246.908 352.348C244.45 352.518 242.739 354.329 242.436 357.093C242.401 357.431 242.387 357.748 242.373 358.059V358.094C242.288 359.997 242.218 361.929 242.154 363.797C242.006 367.914 241.851 372.172 241.534 376.324C240.753 386.546 239.253 395.386 236.943 403.353C236.189 405.947 235.119 408.668 233.759 411.424C233.618 411.72 233.492 411.946 233.386 412.122C233.252 411.932 233.097 411.685 232.907 411.354C231.907 409.62 231.02 407.73 230.28 405.742C228.02 399.687 226.372 393.173 225.224 385.834C224.04 378.249 222.836 370.092 221.998 361.823C221.674 358.594 221.738 355.211 221.808 351.94C221.829 350.727 221.857 349.479 221.864 348.245C221.871 346.469 221.097 344.876 219.794 343.988C218.604 343.177 217.11 343.029 215.702 343.586C213.998 344.262 212.934 345.764 212.793 347.71C212.751 348.281 212.709 348.859 212.66 349.43C212.469 351.897 212.265 354.449 212.307 357.001C212.448 366.419 213.54 376.465 215.653 387.709C216.977 394.759 218.582 402.288 221.329 409.599C222.716 413.286 224.343 417.135 227.555 420.046C229.4 421.717 231.513 422.577 233.668 422.535C233.795 422.535 233.921 422.528 234.048 422.521C236.126 422.373 238.048 421.386 239.619 419.644C241.168 417.931 242.542 415.802 243.689 413.328C246.345 407.632 247.647 401.59 248.669 395.922C249.119 393.398 249.528 390.839 249.922 388.309C250.803 391.058 251.683 393.843 252.535 396.606C253.408 399.454 255.556 400.935 258.127 400.476C260.726 400.011 262.367 397.656 262.036 394.879C261.874 393.518 261.564 392.228 261.12 391.051" fill="#BEF900"/>
<path d="M379.754 283.671H379.719C378.669 283.755 377.592 284.023 376.606 284.453C371.958 286.469 367.239 288.535 362.675 290.537C361.084 291.235 359.485 291.94 357.886 292.638C357.245 289.536 356.492 285.898 355.752 282.24C355.372 280.364 354.992 278.496 354.619 276.621C353.837 272.737 353.027 268.725 352.203 264.771C354.006 264.15 355.823 263.495 357.576 262.86C358.886 262.388 360.239 261.894 361.577 261.429C362.323 261.168 363.105 260.921 363.866 260.682C364.837 260.372 365.845 260.054 366.838 259.688C369.183 258.821 370.507 256.607 370.063 254.295C369.626 252.06 367.633 250.509 365.204 250.523C364.204 250.523 363.119 250.714 362.063 251.059C359.281 251.975 356.471 252.948 353.759 253.893L352.668 254.274C351.823 254.57 350.999 254.866 350.139 255.183C349.153 250.869 348.167 246.561 347.196 242.247C346.836 240.661 346.477 239.075 346.125 237.488C345.428 234.373 344.702 231.151 343.963 227.978C349.09 226.851 355.71 225.391 362.309 223.883C363.563 223.601 365.197 223.185 366.781 222.529C368.746 221.718 369.76 219.723 369.31 217.559C368.88 215.479 367.38 214.161 365.302 214.02C364.161 213.943 362.816 213.907 361.527 214.211C357.943 215.056 354.309 215.938 350.794 216.791C347.731 217.538 344.562 218.306 341.442 219.047C340.998 219.152 340.392 219.152 339.787 219.04C337.815 218.68 336.209 219.265 335.026 220.781C334.596 221.331 334.167 221.803 333.744 222.198C332.589 223.262 332.026 224.7 332.202 226.131C332.378 227.577 333.272 228.846 334.66 229.621C334.716 229.67 334.864 229.861 335.019 230.199C335.047 230.277 335.068 230.523 335.082 230.686C335.11 230.946 335.131 231.25 335.202 231.574L335.603 233.449C337.385 241.803 339.23 250.432 341.076 258.926C336.625 261.013 332.279 263.142 328.152 265.25C326.772 265.955 325.828 266.991 325.427 268.253C325.075 269.367 325.194 270.579 325.765 271.672C326.983 273.992 329.631 274.647 332.357 273.287C332.871 273.026 333.392 272.765 333.899 272.497C334.885 271.989 335.815 271.51 336.779 271.073C338.653 270.227 340.519 269.416 342.498 268.556C342.681 268.479 342.857 268.401 343.04 268.324C343.04 268.345 343.047 268.359 343.055 268.38C343.808 272.116 344.562 275.853 345.315 279.589C345.942 282.698 346.569 285.8 347.196 288.909C347.491 290.361 347.787 291.813 348.083 293.272C348.562 295.62 349.062 298.052 349.534 300.442C349.801 301.809 350.604 302.959 351.731 303.607C352.478 304.037 353.316 304.227 354.168 304.164C354.569 304.136 354.978 304.051 355.379 303.91C356.013 303.692 356.569 303.41 357.112 303.135C357.457 302.959 357.781 302.796 358.098 302.662C360.619 301.612 363.147 300.562 365.669 299.511C370.429 297.537 375.359 295.493 380.19 293.456C381.317 292.983 382.367 292.306 383.226 291.496C384.684 290.128 385.043 288.119 384.163 286.251C383.339 284.495 381.691 283.537 379.754 283.671Z" fill="#BEF900"/>
<path d="M389.902 359.095C385.099 358.291 380 358.813 373.866 360.738C371.739 361.407 369.626 362.218 367.584 363.001C367.295 363.113 367.007 363.226 366.711 363.332C366.605 362.733 366.507 362.134 366.401 361.534C366.19 360.308 365.978 359.032 365.725 357.777C364.154 349.959 362.584 342.268 361.253 335.775L361.119 335.105C360.809 333.597 360.492 332.032 360.041 330.495C359.386 328.288 357.379 327.062 355.048 327.442C352.886 327.802 351.372 329.649 351.372 331.94C351.372 332.694 351.442 333.477 351.583 334.266C352.104 337.121 352.625 339.976 353.154 342.832C353.696 345.771 354.238 348.711 354.773 351.658C355.055 353.195 355.351 354.753 355.633 356.254C356.45 360.54 357.288 364.967 357.816 369.338C358.034 371.115 358.288 373.025 358.823 375.063C359.844 378.954 360.605 383.022 361.337 386.955C361.626 388.52 361.929 390.128 362.246 391.728C359.922 392.771 358.837 394.745 359.323 397.121C359.83 399.574 361.844 400.97 364.725 400.857C364.76 400.857 364.795 400.857 364.83 400.857C366.119 400.766 370.119 399.927 373.591 398.771C380.655 396.437 386.726 393.371 392.149 389.395C396.212 386.413 399.008 383.445 400.952 380.054C404.488 373.885 403.572 367.16 398.614 362.93C396.283 360.942 393.431 359.687 389.902 359.095ZM392.487 375.126C391.325 376.973 389.747 378.764 387.93 380.308C383.691 383.896 378.5 386.73 371.648 389.183C370.753 384.558 369.619 378.714 368.422 372.793C373.859 370.269 379.028 368.901 385.134 368.387C385.423 368.422 385.74 368.457 386.106 368.499C387.226 368.619 388.761 368.788 390.149 369.19C391.74 369.656 392.832 370.473 393.219 371.495C393.705 372.764 393.093 374.174 392.487 375.126Z" fill="#BEF900"/>
<path d="M493.253 253.935C491.824 253.047 490.155 252.328 488.415 251.856C484.612 250.826 480.478 250.84 475.393 251.905C473.921 252.215 472.456 252.61 471.041 252.998C471.013 253.005 470.984 253.012 470.956 253.019C470.865 252.539 470.766 252.067 470.675 251.588C470.203 249.24 469.717 246.808 469.231 244.425C468.534 240.999 467.822 237.58 467.118 234.154C466.449 230.904 465.78 227.661 465.118 224.411L464.308 220.449C463.223 215.155 462.097 209.671 461.04 204.278C460.836 203.255 460.723 202.205 460.596 201.098C460.505 200.294 460.413 199.47 460.287 198.638C459.899 196.121 457.955 194.464 455.568 194.598C455.547 194.598 455.526 194.598 455.512 194.598C453.181 194.761 451.427 196.664 451.335 199.145C451.3 200.161 451.335 200.985 451.448 201.747C451.659 203.143 451.871 204.545 452.082 205.941C452.709 210.143 453.364 214.492 454.138 218.758C454.822 222.536 455.624 226.343 456.399 230.023C456.829 232.06 457.265 234.168 457.688 236.234C459.089 243.22 464.773 273.174 465.47 276.995C466.047 280.16 467.731 288.542 468.16 290.008C468.907 292.553 470.956 294.09 473.238 293.935C473.527 293.914 473.823 293.864 474.118 293.787C476.844 293.075 478.217 290.565 477.541 287.534C477.421 287.012 477.295 286.498 477.168 285.997C477.062 285.574 476.957 285.151 476.858 284.721C476.858 284.7 476.851 284.679 476.844 284.658C476.872 284.644 476.907 284.636 476.928 284.629C482.055 282.825 486.288 280.689 489.88 278.101C493.669 275.373 496.148 272.603 497.69 269.388C500.486 263.537 498.711 257.326 493.267 253.935M489.063 264.82C488.373 266.667 486.936 268.027 485.619 269.12C482.246 271.926 478.302 273.717 474.985 274.985C474.949 274.781 474.907 274.577 474.872 274.372C474.506 272.462 474.132 270.481 473.78 268.542C473.4 266.434 473.027 264.369 472.717 262.289C476.682 261.006 481.281 259.984 485.985 261.246C486.859 261.478 487.795 261.965 488.64 262.613C489.133 262.994 489.563 263.473 489.063 264.82Z" fill="#BEF900"/>
<path d="M321.659 189.65C323.103 187.866 324.23 186.033 324.997 184.214C329.596 173.344 330.758 161.783 328.441 149.84C327.258 143.728 324.772 138.624 321.067 134.67C316.356 129.636 310.729 127.599 304.348 128.6C304.095 128.642 303.848 128.684 303.609 128.734C302.587 127.056 301.376 126.457 300.453 126.259C299.341 126.027 297.587 126.161 295.559 128.142C294.178 129.488 293.214 131.131 292.284 132.717L292.185 132.879C291.559 133.943 291.052 135.05 290.559 136.115C290.305 136.665 290.066 137.179 289.819 137.694C288.84 139.682 287.791 142.643 289.833 145.639C289.544 151.067 289.847 156.742 290.742 162.509C292.038 170.898 293.911 177.08 296.812 182.558C299.101 186.879 301.651 189.904 304.82 192.061C307.475 193.865 310.285 194.655 312.975 194.465C316.201 194.239 319.257 192.611 321.652 189.65M307.116 180.267C304.644 176.862 302.947 172.646 301.763 167.006L301.573 166.097C300.714 162.022 299.834 157.814 299.545 153.668C299.355 150.863 299.517 147.965 299.679 145.167C299.749 143.898 299.827 142.586 299.869 141.289C299.869 141.261 299.876 141.219 299.89 141.183C302.207 139.315 306.792 137.412 310.109 138.857C312.574 139.929 314.475 141.804 316.102 144.758C317.729 147.726 318.743 151.053 319.201 154.937C320.173 163.235 319.3 171.13 316.595 178.406C315.976 180.083 314.997 181.846 313.764 183.502C312.827 184.764 312.088 184.891 310.827 183.982C309.412 182.96 308.123 181.677 307.109 180.274" fill="#BEF900"/>
<path d="M282.544 181.542C284.065 177.08 282.516 172.815 278.494 170.404C275.325 168.501 271.804 168.275 269.085 168.289C263.663 168.317 257.895 169.262 251.443 171.187C251.38 171.208 251.331 171.222 251.282 171.229C251.274 171.215 251.267 171.208 251.253 171.194C250 169.283 247.669 168.571 245.57 169.474C243.767 170.242 242.725 172.054 242.88 174.006C242.387 174.211 241.901 174.415 241.408 174.62C239.013 175.621 236.534 176.65 234.126 177.764C232.759 178.391 231.724 179.413 231.09 180.154C229.837 181.62 229.773 183.629 230.928 185.392C231.956 186.971 233.682 187.683 235.548 187.302C236.154 187.182 236.668 186.935 237.076 186.731C237.217 186.661 237.358 186.597 237.499 186.534L245.971 183.002C246.514 184.736 247.056 186.47 247.598 188.197C249.035 192.758 250.514 197.482 251.901 202.142C253.437 207.309 254.93 212.582 256.38 217.686C256.88 219.448 257.38 221.211 257.88 222.966C258.233 224.193 258.578 225.455 258.909 226.667C259.261 227.95 259.62 229.269 259.993 230.573C260.486 232.3 261.606 233.646 263.064 234.274C263.761 234.57 264.494 234.697 265.233 234.64C265.909 234.591 266.578 234.401 267.226 234.062C269.395 232.92 270.318 230.46 269.564 227.795L269.508 227.598C266.944 218.483 264.289 209.057 261.606 199.808C261.606 199.801 261.606 199.794 261.606 199.787C266.219 197.454 270.691 195.071 274.691 191.708C277.889 189.029 281.051 185.934 282.551 181.528M272.945 178.744C272.902 178.835 272.839 178.955 272.755 179.096C272.184 180.062 271.473 180.986 270.656 181.853C267.649 185.032 263.93 187.246 260.36 189.17C259.782 189.48 259.19 189.791 258.578 190.108C258.514 189.925 258.451 189.741 258.388 189.558C258.071 188.642 257.754 187.732 257.437 186.816C256.704 184.694 255.951 182.515 255.183 180.351C259.803 179.237 264.684 178.222 269.628 178.264C270.522 178.264 271.515 178.398 272.571 178.638C272.719 178.673 272.839 178.709 272.938 178.737" fill="#BEF900"/>
<path d="M352.569 389.422L352.471 389.169C352.09 388.182 351.689 387.195 351.302 386.236C350.527 384.311 349.724 382.33 349.076 380.364C345.703 370.177 343.984 359.37 342.315 348.915L342.28 348.689C342.16 347.949 342.055 347.202 341.942 346.455C341.731 345.017 341.512 343.529 341.231 342.063C340.822 339.92 338.899 338.453 336.667 338.573C336.639 338.573 336.611 338.573 336.582 338.573C334.512 338.721 332.941 340.145 332.561 342.225C332.42 342.993 332.392 343.79 332.484 344.523C333.089 349.338 333.716 354.09 334.244 358.094V358.136C334.279 358.333 334.301 358.538 334.322 358.721C334.146 358.799 333.927 358.89 333.73 358.975C333.364 359.13 332.977 359.299 332.533 359.497C329.645 360.794 325.842 362.359 321.758 363.169C321.37 360.498 320.948 357.812 320.532 355.196C320.384 354.231 320.229 353.272 320.081 352.306C319.969 351.566 319.849 350.833 319.736 350.092C319.398 347.886 319.046 345.609 318.666 343.36C318.271 341.041 316.412 339.454 314.13 339.511C311.771 339.567 310.025 341.252 309.764 343.705C309.701 344.276 309.722 344.89 309.813 345.63C310.13 348.14 310.454 350.642 310.778 353.152C311.053 355.288 311.327 357.431 311.602 359.567C311.764 360.864 311.919 362.154 312.081 363.515C311.834 363.494 311.595 363.473 311.349 363.466C309.046 363.36 307.165 364.727 306.679 366.878C306.165 369.141 307.376 371.347 309.567 372.123C310.482 372.447 311.525 372.686 312.75 372.842C313.018 372.877 313.257 372.898 313.461 372.919C313.504 373.145 313.56 373.406 313.623 373.716C313.975 375.351 314.328 377.022 314.659 378.643C315.49 382.641 316.342 386.772 317.405 390.797C318.391 394.547 319.898 398.157 321.349 401.646L321.384 401.731C321.927 403.042 322.913 404.015 324.159 404.473C324.779 404.699 325.441 404.791 326.096 404.741C326.737 404.699 327.385 404.523 327.976 404.22C330.343 403.014 331.223 400.356 330.117 397.755C327.089 390.628 324.955 382.803 323.215 372.419C327.969 371.728 332.308 370.092 335.575 368.739C335.695 368.689 335.822 368.64 335.942 368.591C337.604 376.853 339.716 383.952 342.386 390.254C342.555 390.649 342.717 391.044 342.879 391.439C343.273 392.404 343.681 393.398 344.16 394.378C345.308 396.733 347.794 397.769 350.203 396.902C352.485 396.084 353.696 393.744 353.147 391.206C353.006 390.543 352.766 389.944 352.555 389.408" fill="#BEF900"/>
<path d="M46.7767 318.073C46.2062 316.155 45.664 314.351 45.3259 312.497C43.9244 304.904 42.6356 297.157 41.382 289.663L41.2412 288.81C40.8045 286.187 40.4031 283.516 40.0087 280.921C39.727 279.046 39.4312 277.107 39.1284 275.204C38.7974 273.139 38.4523 271.052 38.1213 269.029C37.6564 266.23 37.1776 263.332 36.7409 260.484C36.4451 258.588 36.2057 256.635 35.9662 254.746C35.8254 253.625 35.6775 252.462 35.5225 251.32C35.1915 248.845 33.4097 247.189 31.0927 247.196C28.6982 247.203 26.9446 248.803 26.6276 251.264C26.4938 252.314 26.4938 253.428 26.6276 254.485C27.8671 263.868 29.0151 272.412 30.1419 280.597C30.2264 281.196 30.3109 281.69 30.3814 282.085C30.4377 282.395 30.4941 282.733 30.5152 282.923C30.2264 283.212 29.3743 283.798 28.4799 284.411C25.4233 286.519 21.7471 285.905 19.3314 282.881C17.5637 280.668 16.6552 278.031 16.0073 275.747C14.4157 270.171 13.6832 264.475 12.9578 258.144C12.8381 257.094 12.7254 256.022 12.6198 254.986C12.4508 253.357 12.2747 251.672 12.0564 250.016C11.7465 247.647 9.90835 246.019 7.59132 246.047C5.30245 246.082 3.61925 247.577 3.20374 249.952C3.10514 250.502 3.07697 250.967 3.11218 251.404C3.18261 252.335 3.25303 253.273 3.32346 254.21C3.86575 261.478 4.4362 268.993 6.11236 276.311C7.02086 280.252 8.53503 285.32 12.2395 289.522C16.5425 294.393 21.9724 296.275 27.9235 294.957C29.3813 294.633 30.7546 294.083 32.0927 293.533C32.1843 294.104 32.2759 294.675 32.3604 295.253C32.8322 298.263 33.3182 301.372 33.9027 304.446C34.9309 309.853 36.1 315.486 37.3959 321.196C37.7903 322.944 38.91 324.404 39.5368 325.116C40.4876 326.194 41.8398 326.702 43.2131 326.603C44.023 326.547 44.847 326.279 45.5865 325.785C47.3119 324.643 48.0303 322.493 47.4176 320.308C47.2063 319.56 46.9809 318.806 46.7626 318.073" fill="#BEF900"/>
<path d="M163.291 236.988C159.488 238.355 157.72 241.535 156.72 243.812C155.058 247.591 154.466 251.489 154.107 254.809C153.297 262.324 153.487 269.522 153.825 278.158V278.242L153.839 278.327C154.065 280.061 154.283 281.838 154.494 283.544C154.973 287.47 155.473 291.538 156.107 295.528C157.128 302.014 158.671 307.52 160.812 312.363C162.15 315.387 163.953 318.827 167.171 321.4C169.228 323.043 171.608 323.847 173.911 323.684C174.052 323.677 174.193 323.663 174.333 323.642C176.749 323.346 178.911 322.042 180.573 319.871C181.601 318.531 182.503 316.867 183.257 314.922C185.066 310.241 185.412 305.32 185.51 301.126C185.637 295.824 185.186 290.488 184.179 285.264C183.75 283.029 181.855 281.443 179.58 281.401C177.235 281.358 175.256 282.973 174.876 285.243C174.714 286.216 174.721 287.301 174.911 288.549C176.01 295.796 176.136 301.323 175.312 306.469C174.974 308.584 174.27 310.91 173.178 313.561C173.157 313.603 173.143 313.646 173.122 313.688C173.066 313.632 172.995 313.568 172.925 313.491C172.136 312.631 171.263 311.615 170.805 310.558C169.622 307.844 168.291 304.763 167.439 301.682C164.861 292.377 163.607 282.176 163.361 268.613C163.262 263.269 163.741 257.904 164.326 251.954C164.516 250.058 165.333 248.035 166.185 246.124C166.227 246.04 166.368 245.751 166.53 245.708C166.657 245.68 166.995 245.729 167.453 246.103C167.58 246.209 167.727 246.364 167.889 246.526C168.058 246.702 168.256 246.907 168.474 247.104C170.235 248.676 172.664 248.796 174.383 247.407C176.129 245.997 176.545 243.657 175.425 241.591C173.256 237.594 167.594 235.444 163.312 236.988" fill="#BEF900"/>
<path d="M81.9266 246.766C79.5744 246.153 77.3207 247.45 76.4474 249.924C76.2854 250.383 76.1516 250.883 76.0249 251.496C75.5953 253.611 75.1656 255.719 74.736 257.834C74.2994 259.984 73.8628 262.127 73.4261 264.277C73.0247 266.23 72.6162 268.183 72.2007 270.192C70.2569 268.289 68.3061 266.385 66.3623 264.482C63.4255 261.613 60.4958 258.736 57.5519 255.874C56.0448 254.408 54.5588 252.97 53.0024 251.602C51.0586 249.896 48.319 249.96 46.6217 251.743C44.9456 253.513 44.9878 256.05 46.7274 258.053C46.9175 258.271 47.1147 258.469 47.2908 258.645C47.3542 258.708 47.4246 258.779 47.488 258.842C48.6148 260.012 49.7416 261.19 50.8685 262.367C53.432 265.046 56.0871 267.816 58.7492 270.495C62.5945 274.365 65.8552 277.573 69.2921 280.654C69.9611 281.253 69.9822 281.394 69.8273 282.198C66.7567 298.532 63.7636 314.767 60.2211 334.118C59.8972 335.874 59.707 337.594 59.6507 339.236C59.5591 341.788 61.3761 343.903 63.8763 344.164C64.1791 344.192 64.4749 344.199 64.7636 344.178C66.8131 344.037 68.4892 342.62 69.0667 340.463C69.2005 339.962 69.285 339.455 69.3484 339.053C69.6935 336.917 70.0245 334.753 70.3485 332.659C71.0387 328.182 71.75 323.558 72.588 319.046C75.0178 305.983 77.5531 292.716 79.9969 279.878C81.1942 273.59 82.3914 267.302 83.5887 261.013C84.1662 257.975 84.7014 254.972 85.1733 252.082C85.5817 249.593 84.2225 247.358 81.9266 246.759" fill="#BEF900"/>
<path d="M218.413 133.915C220.378 133.83 222.132 133.697 223.773 133.499C225.083 133.344 226.301 133.034 227.393 132.576C229.421 131.73 230.513 129.756 230.168 127.549C229.851 125.512 228.294 123.989 226.196 123.665C225.421 123.545 224.583 123.517 223.702 123.58H223.66C216.864 124.081 210.73 124.546 204.899 125.004C203.722 125.096 202.476 125.216 201.236 125.533C198.405 126.266 196.863 128.522 197.398 131.138C197.898 133.577 200.025 134.937 202.955 134.676C204.194 134.571 205.462 134.493 206.694 134.416C207.448 134.366 208.216 134.324 208.983 134.268C209.131 138.695 209.307 143.122 209.504 148.205C209.575 149.953 209.645 151.772 209.723 153.689V153.781L209.737 153.866C210.047 156.143 210.357 158.518 210.688 161.042C211.455 166.929 212.336 173.598 213.336 180.126C214.836 189.91 217.019 199.54 219.829 208.733L219.928 209.071C220.766 211.821 221.625 214.662 223.674 217.087C224.872 218.511 226.463 219.216 228.013 219.11C228.703 219.061 229.386 218.849 230.02 218.469C232.083 217.235 232.795 214.796 231.823 212.251C231.625 211.736 231.407 211.25 231.196 210.777C230.9 210.129 230.625 209.515 230.449 208.916C230.055 207.535 229.639 206.132 229.238 204.778C228.083 200.88 226.886 196.854 226.055 192.857C224.421 185.025 222.97 176.869 221.625 167.901C220.695 161.74 220.097 155.395 219.512 149.262L219.385 147.923C219.083 144.779 218.885 141.557 218.695 138.441C218.604 136.953 218.512 135.417 218.406 133.894" fill="#BEF900"/>
<path d="M172.953 175.36C173.277 177.44 173.608 179.583 174.101 181.691C175.587 188.064 177.925 192.745 181.454 196.41C184.482 199.562 188.214 201.141 191.982 200.88C192.025 200.88 192.067 200.88 192.109 200.873C195.898 200.563 199.349 198.412 201.835 194.81C202.539 193.788 203.42 192.427 203.976 190.905C208.673 178.194 206.758 166.344 198.278 155.678C194.567 151.011 190.039 148.663 184.806 148.698C183.123 146.971 181.566 146.724 180.538 146.837C179.524 146.943 178.059 147.5 176.862 149.523C175.39 152.005 174.326 154.465 173.714 156.834C172.333 162.121 172.298 167.408 172.474 172.343V172.47L172.502 172.59C172.657 173.506 172.805 174.451 172.946 175.367M182.256 168.811C182.221 167.19 182.411 163.904 182.728 160.457C182.792 159.745 182.968 159.266 183.249 159.047C183.475 158.871 183.855 158.758 184.369 158.723C184.566 158.709 184.778 158.709 185.017 158.716C186.447 158.765 187.679 159.259 188.785 160.217C192.081 163.094 194.292 166.774 195.532 171.476C197.053 177.242 196.778 182.396 194.694 187.225C194.285 188.176 193.666 189.128 192.912 189.974C191.595 191.462 190.426 190.919 189.461 190.193C187.412 188.649 186.236 186.315 185.362 184.243C183.334 179.442 182.376 174.683 182.256 168.818" fill="#BEF900"/>
<path d="M243.964 162.347C245.732 162.72 247.514 162.833 249.232 162.939C250.014 162.988 250.746 163.03 251.486 163.101L251.669 163.115L251.852 163.094C260.507 162.149 268.973 158.547 275.086 153.21C278.227 150.468 280.304 147.542 281.445 144.257C283.312 138.864 281.642 133.415 277.079 130.031C274.642 128.226 271.747 127.084 267.973 126.443C262.472 125.505 257.148 125.921 252.218 126.513C248.641 126.936 244.852 127.698 241.351 130.334C236.548 133.958 233.583 138.237 232.28 143.418C231.161 147.888 231.717 152.237 233.844 155.656C235.978 159.083 239.471 161.395 243.95 162.347M241.753 146.168C242.894 140.401 245.76 137.652 251.648 136.665C252.584 136.51 253.627 136.397 254.732 136.319C259.092 136.016 264.381 136.256 267.275 136.496C267.663 136.531 268.142 136.7 268.656 136.876L268.874 136.954C270.156 137.398 271.755 138.18 272.128 139.379C272.494 140.57 271.614 142.121 270.811 143.207C268.74 146.006 265.874 148.135 261.493 150.123C256.437 152.414 251.732 153.295 247.105 152.823C246.605 152.773 246.133 152.682 245.69 152.562C242.464 151.666 241.105 149.46 241.753 146.182" fill="#BEF900"/>
<path d="M180.742 97.3488C182.235 97.2431 183.721 96.8201 185.123 96.0658C187.616 94.7264 189.623 92.6467 191.25 89.7211C194.306 84.2295 195.574 77.8707 195.229 69.7213V69.6155L195.208 69.5098C195.159 69.1996 195.109 68.8542 195.06 68.4805C194.926 67.5288 194.757 66.3516 194.511 65.1884C193.546 60.6343 191.94 57.2998 189.454 54.6985C186.658 51.7729 183.214 50.5251 179.214 50.9904C176.721 51.2794 174.157 52.9079 171.791 55.6995C169.742 58.1176 167.96 61.2899 166.77 64.6314C164.875 69.9398 164.586 75.8615 165.91 82.2344C166.882 86.9013 168.685 90.5671 171.418 93.4645C174.038 96.235 177.411 97.5815 180.742 97.3488ZM176.939 64.568C177.601 63.0594 178.475 62.0231 179.7 61.304C180.115 61.0643 180.475 60.9233 180.806 60.9022C181.348 60.8669 181.82 61.1278 182.334 61.7129C183.369 62.8902 184.073 64.4129 184.609 66.6547C184.841 67.6346 185.003 68.6709 185.13 69.5027C185.179 69.7988 185.221 70.0738 185.257 70.3205C185.496 76.1365 184.771 80.3945 182.904 84.1237C182.44 85.0543 181.806 85.9566 181.066 86.725C180.834 86.9718 180.39 87.3807 179.989 87.3877C179.665 87.3877 179.221 87.1339 178.742 86.6686C177.397 85.3504 176.467 83.5315 175.819 80.9373C174.341 75.0438 174.707 69.6931 176.939 64.575" fill="#BEF900"/>
<path d="M238.605 41.6353L238.492 41.6635C237.415 41.9525 237.309 41.9384 236.957 41.6705C235.33 40.458 233.076 40.7964 231.478 42.4954C230.851 43.158 230.442 43.8559 230.259 44.5539C229.808 46.281 228.865 47.8178 227.273 49.404C226.872 49.8058 226.59 50.25 226.351 50.6095C225.146 52.4777 223.604 55.3751 224.069 58.914C224.421 61.6069 225.815 63.2143 228.21 63.7077C228.851 67.5639 229.921 70.6023 231.569 73.253C234.027 77.2078 237.64 79.7104 241.753 80.3167C242.69 80.4506 243.626 80.4859 244.563 80.4224C247.669 80.2039 250.704 78.8786 253.331 76.5592C257.803 72.6044 260.345 67.007 260.127 61.5999V61.5646C259.747 55.0508 258.254 50.7223 255.134 47.0917C250.62 41.8327 244.908 39.9434 238.612 41.6212M244.288 51.2228C246.19 51.7163 247.781 53.2813 248.88 55.7275C251.007 60.472 250.528 64.6171 247.422 68.3887C246.112 69.9819 244.732 70.6023 243.077 70.3556C242.02 70.1934 241.175 69.573 240.323 68.3323C238.351 65.4701 237.731 62.0793 237.4 59.1255C237.429 58.6108 237.45 58.1033 237.471 57.5886C237.534 56.1364 237.591 54.7617 237.739 53.3941C237.76 53.2672 237.915 53.0134 238.013 52.9359C240.196 51.3074 242.373 50.7152 244.295 51.2158" fill="#BEF900"/>
<path d="M193.461 262.346L193.785 266.977C194.039 270.636 194.299 274.302 194.553 277.961C195.391 289.882 196.687 299.441 198.617 308.035C199.236 310.784 199.877 312.997 200.652 315.014C201.145 316.297 202.06 317.284 203.23 317.784C203.913 318.08 204.645 318.2 205.385 318.151C205.906 318.116 206.434 317.989 206.948 317.777C209.265 316.825 210.307 314.485 209.667 311.679C209.343 310.248 208.983 308.81 208.645 307.407C207.73 303.65 206.779 299.765 206.293 295.944C205.279 287.873 204.448 279.632 203.645 271.658C203.244 267.661 202.828 263.53 202.391 259.47C203.899 259.011 205.413 258.532 206.878 258.067C208.054 257.693 209.272 257.305 210.462 256.939C212.878 256.198 214.272 254.274 214.096 251.926C213.906 249.452 211.948 247.584 209.434 247.485C208.272 247.443 207.117 247.591 206.103 247.908C204.525 248.409 202.955 248.973 201.441 249.522C200.694 249.79 199.948 250.058 199.194 250.319L198.934 250.411C191.637 252.963 184.095 255.599 176.418 257.087C173.925 257.573 172.333 259.561 172.552 261.93C172.763 264.313 174.742 266.033 177.242 266.019C178.622 266.012 179.742 265.892 180.763 265.652C183.25 265.06 185.757 264.397 188.172 263.763L189.539 263.403C190.834 263.065 192.109 262.712 193.454 262.346" fill="#BEF900"/>
<path d="M166.706 51.0115H166.77L166.903 50.9974L167.044 50.9622C167.044 50.9622 167.115 50.9481 167.157 50.941C167.418 50.8917 167.854 50.8141 168.298 50.6379C172.812 48.8473 175.15 47.9661 177.418 47.106C179.968 46.1402 182.383 45.2238 187.637 43.1159C188.574 42.7423 189.525 42.0867 190.468 41.1773C191.82 39.8731 192.187 37.9908 191.44 36.1509C190.701 34.3321 189.158 33.2605 187.306 33.2958C186.074 33.3169 184.883 33.5566 183.848 33.9796C177.96 36.4188 175.615 37.4128 172.65 38.6676C170.615 39.5277 168.305 40.5076 164.368 42.1572C162.002 43.1512 160.875 45.3366 161.509 47.7334C162.079 49.9118 164.115 51.1878 166.706 51.0045" fill="#BEF900"/>
<path d="M432.186 287.661H431.989L431.792 287.689C431.736 287.703 431.658 287.71 431.567 287.724C431.186 287.781 430.616 287.858 430.024 288.056C428.982 288.401 427.94 288.775 426.933 289.134C426.264 289.374 425.594 289.614 424.925 289.846C423.418 290.368 421.897 290.911 420.418 291.432C414.059 293.688 407.488 296.022 400.804 297.432C398.325 297.953 396.825 300.125 397.248 302.592C397.628 304.813 399.642 306.378 402.037 306.314C402.149 306.314 402.248 306.307 402.354 306.3C402.649 306.279 402.917 306.237 403.164 306.18C404.248 305.919 405.361 305.666 406.431 305.419C408.981 304.834 411.615 304.235 414.185 303.459C419.707 301.802 425.13 299.962 430.665 298.066C432.074 297.587 433.51 296.854 435.067 295.831C436.82 294.682 437.461 292.603 436.701 290.544C436.018 288.697 434.496 287.724 432.179 287.654" fill="#BEF900"/>
<path d="M356.224 81.1625C353.062 81.7617 350.076 79.5058 349.787 76.2982C349.006 67.613 347.604 52.1391 347.252 48.3957C347.111 46.9153 347.301 45.4631 348.344 44.2928C349.499 42.9957 350.964 42.5022 352.661 42.9181C354.358 43.3341 355.527 44.4127 355.844 46.1257C356.239 48.2406 359.119 65.9211 360.591 74.9306C361.07 77.8491 359.133 80.6055 356.231 81.1554L356.224 81.1625Z" fill="#BEF900"/>
</svg>
